<?xml version="1.0" encoding="UTF-8" standalone="no"?>
<svg id="layout" width="800" height="600" xmlns="http://www.w3.org/2000/svg">
<!--
    Created by csv2: 3.1.0 (main:589) https://github.com/msalmonse/csv2.git
  -->
<defs>
<clipPath id="plotable">
<rect x="57.5" y="50.5" width="650.5" height="406.5" rx="0.0"  />
</clipPath>
</defs>
<style>
svg#layout { background-color: #ffedcc }
#layout g.plotarea { opacity: 1.0 }
#layout g.plotarea path:hover { stroke-width: 5.0 }
#layout path { stroke-width: 2.0; fill: none; stroke-linecap: round }
#layout path.axes { stroke: black }
#layout path.xlabel, #layout path.ylabel { stroke: silver; stroke-width: 1 }
#layout text { font-family: Helvetica }
#layout text.legend { font-size: 13.0px }
#layout text.legend.headline { font-size: 16.2px; font-weight: bold }
#layout text.subtitle { font-size: 15.0px; text-anchor: middle }
#layout text.title { font-size: 25.0px; text-anchor: middle }
#layout text.xlabel { font-size: 10.0px; text-anchor: middle }
#layout text.xtitle, #layout text.ytitle { font-size: 12.0px; text-anchor: middle }
#layout text.ylabel { font-size: 10.0px; text-anchor: end; dominant-baseline: middle }
#layout path.plot04 { stroke: #ff0000; fill: none; fill-opacity: 0.75 }
#layout text.plot04, #layout rect.plot04 { fill: #ff0000; stroke: #ff0000 }
#layout path.plot05 { stroke: #008000; fill: none; fill-opacity: 0.75 }
#layout text.plot05, #layout rect.plot05 { fill: #008000; stroke: #008000 }
#layout path.plot06 { stroke: #ff00ff; stroke-dasharray: 6,6,13,6; stroke-linecap: butt; fill: none; fill-opacity: 0.75 }
#layout text.plot06, #layout rect.plot06 { fill: #ff00ff; stroke: #ff00ff }
#layout path.plot07 { stroke: #0000ff; fill: none; fill-opacity: 0.75 }
#layout text.plot07, #layout rect.plot07 { fill: #0000ff; stroke: #0000ff }
#layout rect.legend { fill: silver; stroke: silver; fill-opacity: 0.1; stroke-width: 1.5 }
</style>
<style>
path.layout { stroke: red; fill: none; stroke-width: 3px }
text.layout { stroke: red; fill: red; font-size: 20px; text-anchor: middle }</style>

<image x="728.50" y="57.50" width="64.00" height="64.00" href="../data/logo.svg" class="logo" preserveAspectRatio="xMaxYMin" />
<path class="xlabel" d=" M 99.9,450.0 V 57.5 M 135.2,450.0 V 57.5 M 170.6,450.0 V 57.5 M 205.9,450.0 V 57.5 M 241.3,450.0 V 57.5 M 276.7,450.0 V 57.5 M 312.0,450.0 V 57.5 M 347.4,450.0 V 57.5 M 382.8,450.0 V 57.5 M 418.1,450.0 V 57.5 M 453.5,450.0 V 57.5 M 488.8,450.0 V 57.5 M 524.2,450.0 V 57.5 M 559.6,450.0 V 57.5 M 594.9,450.0 V 57.5 M 630.3,450.0 V 57.5 M 665.6,450.0 V 57.5 M 701.0,450.0 V 57.5 " />
<text x="99.86" y="462.50" class="xlabel" >20</text>
<text x="135.22" y="462.50" class="xlabel" >40</text>
<text x="170.58" y="462.50" class="xlabel" >60</text>
<text x="205.94" y="462.50" class="xlabel" >80</text>
<text x="241.31" y="462.50" class="xlabel" >100</text>
<text x="276.67" y="462.50" class="xlabel" >120</text>
<text x="312.03" y="462.50" class="xlabel" >140</text>
<text x="347.39" y="462.50" class="xlabel" >160</text>
<text x="382.75" y="462.50" class="xlabel" >180</text>
<text x="418.11" y="462.50" class="xlabel" >200</text>
<text x="453.47" y="462.50" class="xlabel" >220</text>
<text x="488.83" y="462.50" class="xlabel" >240</text>
<text x="524.19" y="462.50" class="xlabel" >260</text>
<text x="559.56" y="462.50" class="xlabel" >280</text>
<text x="594.92" y="462.50" class="xlabel" >300</text>
<text x="630.28" y="462.50" class="xlabel" >320</text>
<text x="665.64" y="462.50" class="xlabel" >340</text>
<text x="701.00" y="462.50" class="xlabel" >360</text>
<path class="ylabel" d=" M 64.5,221.0 H 701.0 M 64.5,286.5 H 701.0 M 64.5,188.3 H 701.0 M 64.5,319.2 H 701.0 M 64.5,155.6 H 701.0 M 64.5,351.9 H 701.0 M 64.5,122.9 H 701.0 M 64.5,384.6 H 701.0 M 64.5,90.2 H 701.0 M 64.5,417.3 H 701.0 M 64.5,57.5 H 701.0 M 64.5,450.0 H 701.0 " />
<text x="62.50" y="221.04" class="ylabel" >0.25</text>
<text x="62.50" y="286.46" class="ylabel" >-0.25</text>
<text x="62.50" y="188.33" class="ylabel" >0.50</text>
<text x="62.50" y="319.17" class="ylabel" >-0.50</text>
<text x="62.50" y="155.62" class="ylabel" >0.75</text>
<text x="62.50" y="351.88" class="ylabel" >-0.75</text>
<text x="62.50" y="122.92" class="ylabel" >1.00</text>
<text x="62.50" y="384.58" class="ylabel" >-1.00</text>
<text x="62.50" y="90.21" class="ylabel" >1.25</text>
<text x="62.50" y="417.29" class="ylabel" >-1.25</text>
<text x="62.50" y="57.50" class="ylabel" >1.50</text>
<text x="62.50" y="450.00" class="ylabel" >-1.50</text>
<path class="xlabel" d=" M 64.5,465.5 V 57.5 M 117.5,465.5 V 57.5 M 144.1,465.5 V 57.5 M 170.6,465.5 V 57.5 M 223.6,465.5 V 57.5 M 276.7,465.5 V 57.5 M 329.7,465.5 V 57.5 M 382.8,465.5 V 57.5 M 435.8,465.5 V 57.5 M 488.8,465.5 V 57.5 M 541.9,465.5 V 57.5 M 594.9,465.5 V 57.5 M 648.0,465.5 V 57.5 M 701.0,465.5 V 57.5 " />
<text x="64.50" y="477.50" class="xlabel" >0</text>
<text x="117.54" y="477.50" class="xlabel" >π/6</text>
<text x="144.06" y="477.50" class="xlabel" >π/4</text>
<text x="170.58" y="477.50" class="xlabel" >π/3</text>
<text x="223.62" y="477.50" class="xlabel" >π/2</text>
<text x="276.67" y="477.50" class="xlabel" >2π/3</text>
<text x="329.71" y="477.50" class="xlabel" >5π/6</text>
<text x="382.75" y="477.50" class="xlabel" >π</text>
<text x="435.79" y="477.50" class="xlabel" >7π/6</text>
<text x="488.83" y="477.50" class="xlabel" >4π/3</text>
<text x="541.88" y="477.50" class="xlabel" >3π/2</text>
<text x="594.92" y="477.50" class="xlabel" >5π/3</text>
<text x="647.96" y="477.50" class="xlabel" >11π/6</text>
<text x="701.00" y="477.50" class="xlabel" >2π</text>
<path class="axes" d=" M 64.5,253.8 H 701.0 M 64.5,450.0 V 57.5 " />
<g clip-path="url(#plotable)" class="plotarea">
<path class="plot04" d=" M 64.5,122.9 m -2.1,0.0 l -1.4,-0.7 v 1.4 l 1.4,-0.7 m 2.1,-2.1 l -0.7,-1.4 h 1.4 l -0.7,1.4 m 2.1,2.1 l 1.4,-0.7 v 1.4 l -1.4,-0.7 m -2.1,2.1 l -0.7,1.4 h 1.4 l -0.7,-1.4 m 0.0,-1.4 M 68.9,123.0 m -2.1,0.0 l -1.4,-0.7 v 1.4 l 1.4,-0.7 m 2.1,-2.1 l -0.7,-1.4 h 1.4 l -0.7,1.4 m 2.1,2.1 l 1.4,-0.7 v 1.4 l -1.4,-0.7 m -2.1,2.1 l -0.7,1.4 h 1.4 l -0.7,-1.4 m 0.0,-1.4 M 73.3,123.4 m -2.1,0.0 l -1.4,-0.7 v 1.4 l 1.4,-0.7 m 2.1,-2.1 l -0.7,-1.4 h 1.4 l -0.7,1.4 m 2.1,2.1 l 1.4,-0.7 v 1.4 l -1.4,-0.7 m -2.1,2.1 l -0.7,1.4 h 1.4 l -0.7,-1.4 m 0.0,-1.4 M 77.8,124.0 m -2.1,0.0 l -1.4,-0.7 v 1.4 l 1.4,-0.7 m 2.1,-2.1 l -0.7,-1.4 h 1.4 l -0.7,1.4 m 2.1,2.1 l 1.4,-0.7 v 1.4 l -1.4,-0.7 m -2.1,2.1 l -0.7,1.4 h 1.4 l -0.7,-1.4 m 0.0,-1.4 M 82.2,124.9 m -2.1,0.0 l -1.4,-0.7 v 1.4 l 1.4,-0.7 m 2.1,-2.1 l -0.7,-1.4 h 1.4 l -0.7,1.4 m 2.1,2.1 l 1.4,-0.7 v 1.4 l -1.4,-0.7 m -2.1,2.1 l -0.7,1.4 h 1.4 l -0.7,-1.4 m 0.0,-1.4 M 86.6,126.0 m -2.1,0.0 l -1.4,-0.7 v 1.4 l 1.4,-0.7 m 2.1,-2.1 l -0.7,-1.4 h 1.4 l -0.7,1.4 m 2.1,2.1 l 1.4,-0.7 v 1.4 l -1.4,-0.7 m -2.1,2.1 l -0.7,1.4 h 1.4 l -0.7,-1.4 m 0.0,-1.4 M 91.0,127.4 m -2.1,0.0 l -1.4,-0.7 v 1.4 l 1.4,-0.7 m 2.1,-2.1 l -0.7,-1.4 h 1.4 l -0.7,1.4 m 2.1,2.1 l 1.4,-0.7 v 1.4 l -1.4,-0.7 m -2.1,2.1 l -0.7,1.4 h 1.4 l -0.7,-1.4 m 0.0,-1.4 M 95.4,129.0 m -2.1,0.0 l -1.4,-0.7 v 1.4 l 1.4,-0.7 m 2.1,-2.1 l -0.7,-1.4 h 1.4 l -0.7,1.4 m 2.1,2.1 l 1.4,-0.7 v 1.4 l -1.4,-0.7 m -2.1,2.1 l -0.7,1.4 h 1.4 l -0.7,-1.4 m 0.0,-1.4 M 99.9,130.8 m -2.1,0.0 l -1.4,-0.7 v 1.4 l 1.4,-0.7 m 2.1,-2.1 l -0.7,-1.4 h 1.4 l -0.7,1.4 m 2.1,2.1 l 1.4,-0.7 v 1.4 l -1.4,-0.7 m -2.1,2.1 l -0.7,1.4 h 1.4 l -0.7,-1.4 m 0.0,-1.4 M 104.3,132.9 m -2.1,0.0 l -1.4,-0.7 v 1.4 l 1.4,-0.7 m 2.1,-2.1 l -0.7,-1.4 h 1.4 l -0.7,1.4 m 2.1,2.1 l 1.4,-0.7 v 1.4 l -1.4,-0.7 m -2.1,2.1 l -0.7,1.4 h 1.4 l -0.7,-1.4 m 0.0,-1.4 M 108.7,135.2 m -2.1,0.0 l -1.4,-0.7 v 1.4 l 1.4,-0.7 m 2.1,-2.1 l -0.7,-1.4 h 1.4 l -0.7,1.4 m 2.1,2.1 l 1.4,-0.7 v 1.4 l -1.4,-0.7 m -2.1,2.1 l -0.7,1.4 h 1.4 l -0.7,-1.4 m 0.0,-1.4 M 113.1,137.7 m -2.1,0.0 l -1.4,-0.7 v 1.4 l 1.4,-0.7 m 2.1,-2.1 l -0.7,-1.4 h 1.4 l -0.7,1.4 m 2.1,2.1 l 1.4,-0.7 v 1.4 l -1.4,-0.7 m -2.1,2.1 l -0.7,1.4 h 1.4 l -0.7,-1.4 m 0.0,-1.4 M 117.5,140.4 m -2.1,0.0 l -1.4,-0.7 v 1.4 l 1.4,-0.7 m 2.1,-2.1 l -0.7,-1.4 h 1.4 l -0.7,1.4 m 2.1,2.1 l 1.4,-0.7 v 1.4 l -1.4,-0.7 m -2.1,2.1 l -0.7,1.4 h 1.4 l -0.7,-1.4 m 0.0,-1.4 M 122.0,143.4 m -2.1,0.0 l -1.4,-0.7 v 1.4 l 1.4,-0.7 m 2.1,-2.1 l -0.7,-1.4 h 1.4 l -0.7,1.4 m 2.1,2.1 l 1.4,-0.7 v 1.4 l -1.4,-0.7 m -2.1,2.1 l -0.7,1.4 h 1.4 l -0.7,-1.4 m 0.0,-1.4 M 126.4,146.6 m -2.1,0.0 l -1.4,-0.7 v 1.4 l 1.4,-0.7 m 2.1,-2.1 l -0.7,-1.4 h 1.4 l -0.7,1.4 m 2.1,2.1 l 1.4,-0.7 v 1.4 l -1.4,-0.7 m -2.1,2.1 l -0.7,1.4 h 1.4 l -0.7,-1.4 m 0.0,-1.4 M 130.8,150.0 m -2.1,0.0 l -1.4,-0.7 v 1.4 l 1.4,-0.7 m 2.1,-2.1 l -0.7,-1.4 h 1.4 l -0.7,1.4 m 2.1,2.1 l 1.4,-0.7 v 1.4 l -1.4,-0.7 m -2.1,2.1 l -0.7,1.4 h 1.4 l -0.7,-1.4 m 0.0,-1.4 M 135.2,153.5 m -2.1,0.0 l -1.4,-0.7 v 1.4 l 1.4,-0.7 m 2.1,-2.1 l -0.7,-1.4 h 1.4 l -0.7,1.4 m 2.1,2.1 l 1.4,-0.7 v 1.4 l -1.4,-0.7 m -2.1,2.1 l -0.7,1.4 h 1.4 l -0.7,-1.4 m 0.0,-1.4 M 139.6,157.3 m -2.1,0.0 l -1.4,-0.7 v 1.4 l 1.4,-0.7 m 2.1,-2.1 l -0.7,-1.4 h 1.4 l -0.7,1.4 m 2.1,2.1 l 1.4,-0.7 v 1.4 l -1.4,-0.7 m -2.1,2.1 l -0.7,1.4 h 1.4 l -0.7,-1.4 m 0.0,-1.4 M 144.1,161.2 m -2.1,0.0 l -1.4,-0.7 v 1.4 l 1.4,-0.7 m 2.1,-2.1 l -0.7,-1.4 h 1.4 l -0.7,1.4 m 2.1,2.1 l 1.4,-0.7 v 1.4 l -1.4,-0.7 m -2.1,2.1 l -0.7,1.4 h 1.4 l -0.7,-1.4 m 0.0,-1.4 M 148.5,165.4 m -2.1,0.0 l -1.4,-0.7 v 1.4 l 1.4,-0.7 m 2.1,-2.1 l -0.7,-1.4 h 1.4 l -0.7,1.4 m 2.1,2.1 l 1.4,-0.7 v 1.4 l -1.4,-0.7 m -2.1,2.1 l -0.7,1.4 h 1.4 l -0.7,-1.4 m 0.0,-1.4 M 152.9,169.7 m -2.1,0.0 l -1.4,-0.7 v 1.4 l 1.4,-0.7 m 2.1,-2.1 l -0.7,-1.4 h 1.4 l -0.7,1.4 m 2.1,2.1 l 1.4,-0.7 v 1.4 l -1.4,-0.7 m -2.1,2.1 l -0.7,1.4 h 1.4 l -0.7,-1.4 m 0.0,-1.4 M 157.3,174.1 m -2.1,0.0 l -1.4,-0.7 v 1.4 l 1.4,-0.7 m 2.1,-2.1 l -0.7,-1.4 h 1.4 l -0.7,1.4 m 2.1,2.1 l 1.4,-0.7 v 1.4 l -1.4,-0.7 m -2.1,2.1 l -0.7,1.4 h 1.4 l -0.7,-1.4 m 0.0,-1.4 M 161.7,178.7 m -2.1,0.0 l -1.4,-0.7 v 1.4 l 1.4,-0.7 m 2.1,-2.1 l -0.7,-1.4 h 1.4 l -0.7,1.4 m 2.1,2.1 l 1.4,-0.7 v 1.4 l -1.4,-0.7 m -2.1,2.1 l -0.7,1.4 h 1.4 l -0.7,-1.4 m 0.0,-1.4 M 166.2,183.5 m -2.1,0.0 l -1.4,-0.7 v 1.4 l 1.4,-0.7 m 2.1,-2.1 l -0.7,-1.4 h 1.4 l -0.7,1.4 m 2.1,2.1 l 1.4,-0.7 v 1.4 l -1.4,-0.7 m -2.1,2.1 l -0.7,1.4 h 1.4 l -0.7,-1.4 m 0.0,-1.4 M 170.6,188.3 m -2.1,0.0 l -1.4,-0.7 v 1.4 l 1.4,-0.7 m 2.1,-2.1 l -0.7,-1.4 h 1.4 l -0.7,1.4 m 2.1,2.1 l 1.4,-0.7 v 1.4 l -1.4,-0.7 m -2.1,2.1 l -0.7,1.4 h 1.4 l -0.7,-1.4 m 0.0,-1.4 M 175.0,193.3 m -2.1,0.0 l -1.4,-0.7 v 1.4 l 1.4,-0.7 m 2.1,-2.1 l -0.7,-1.4 h 1.4 l -0.7,1.4 m 2.1,2.1 l 1.4,-0.7 v 1.4 l -1.4,-0.7 m -2.1,2.1 l -0.7,1.4 h 1.4 l -0.7,-1.4 m 0.0,-1.4 M 179.4,198.5 m -2.1,0.0 l -1.4,-0.7 v 1.4 l 1.4,-0.7 m 2.1,-2.1 l -0.7,-1.4 h 1.4 l -0.7,1.4 m 2.1,2.1 l 1.4,-0.7 v 1.4 l -1.4,-0.7 m -2.1,2.1 l -0.7,1.4 h 1.4 l -0.7,-1.4 m 0.0,-1.4 M 183.8,203.7 m -2.1,0.0 l -1.4,-0.7 v 1.4 l 1.4,-0.7 m 2.1,-2.1 l -0.7,-1.4 h 1.4 l -0.7,1.4 m 2.1,2.1 l 1.4,-0.7 v 1.4 l -1.4,-0.7 m -2.1,2.1 l -0.7,1.4 h 1.4 l -0.7,-1.4 m 0.0,-1.4 M 188.3,209.0 m -2.1,0.0 l -1.4,-0.7 v 1.4 l 1.4,-0.7 m 2.1,-2.1 l -0.7,-1.4 h 1.4 l -0.7,1.4 m 2.1,2.1 l 1.4,-0.7 v 1.4 l -1.4,-0.7 m -2.1,2.1 l -0.7,1.4 h 1.4 l -0.7,-1.4 m 0.0,-1.4 M 192.7,214.4 m -2.1,0.0 l -1.4,-0.7 v 1.4 l 1.4,-0.7 m 2.1,-2.1 l -0.7,-1.4 h 1.4 l -0.7,1.4 m 2.1,2.1 l 1.4,-0.7 v 1.4 l -1.4,-0.7 m -2.1,2.1 l -0.7,1.4 h 1.4 l -0.7,-1.4 m 0.0,-1.4 M 197.1,219.9 m -2.1,0.0 l -1.4,-0.7 v 1.4 l 1.4,-0.7 m 2.1,-2.1 l -0.7,-1.4 h 1.4 l -0.7,1.4 m 2.1,2.1 l 1.4,-0.7 v 1.4 l -1.4,-0.7 m -2.1,2.1 l -0.7,1.4 h 1.4 l -0.7,-1.4 m 0.0,-1.4 M 201.5,225.4 m -2.1,0.0 l -1.4,-0.7 v 1.4 l 1.4,-0.7 m 2.1,-2.1 l -0.7,-1.4 h 1.4 l -0.7,1.4 m 2.1,2.1 l 1.4,-0.7 v 1.4 l -1.4,-0.7 m -2.1,2.1 l -0.7,1.4 h 1.4 l -0.7,-1.4 m 0.0,-1.4 M 205.9,231.0 m -2.1,0.0 l -1.4,-0.7 v 1.4 l 1.4,-0.7 m 2.1,-2.1 l -0.7,-1.4 h 1.4 l -0.7,1.4 m 2.1,2.1 l 1.4,-0.7 v 1.4 l -1.4,-0.7 m -2.1,2.1 l -0.7,1.4 h 1.4 l -0.7,-1.4 m 0.0,-1.4 M 210.4,236.7 m -2.1,0.0 l -1.4,-0.7 v 1.4 l 1.4,-0.7 m 2.1,-2.1 l -0.7,-1.4 h 1.4 l -0.7,1.4 m 2.1,2.1 l 1.4,-0.7 v 1.4 l -1.4,-0.7 m -2.1,2.1 l -0.7,1.4 h 1.4 l -0.7,-1.4 m 0.0,-1.4 M 214.8,242.3 m -2.1,0.0 l -1.4,-0.7 v 1.4 l 1.4,-0.7 m 2.1,-2.1 l -0.7,-1.4 h 1.4 l -0.7,1.4 m 2.1,2.1 l 1.4,-0.7 v 1.4 l -1.4,-0.7 m -2.1,2.1 l -0.7,1.4 h 1.4 l -0.7,-1.4 m 0.0,-1.4 M 219.2,248.0 m -2.1,0.0 l -1.4,-0.7 v 1.4 l 1.4,-0.7 m 2.1,-2.1 l -0.7,-1.4 h 1.4 l -0.7,1.4 m 2.1,2.1 l 1.4,-0.7 v 1.4 l -1.4,-0.7 m -2.1,2.1 l -0.7,1.4 h 1.4 l -0.7,-1.4 m 0.0,-1.4 M 223.6,253.8 m -2.1,0.0 l -1.4,-0.7 v 1.4 l 1.4,-0.7 m 2.1,-2.1 l -0.7,-1.4 h 1.4 l -0.7,1.4 m 2.1,2.1 l 1.4,-0.7 v 1.4 l -1.4,-0.7 m -2.1,2.1 l -0.7,1.4 h 1.4 l -0.7,-1.4 m 0.0,-1.4 M 228.0,259.5 m -2.1,0.0 l -1.4,-0.7 v 1.4 l 1.4,-0.7 m 2.1,-2.1 l -0.7,-1.4 h 1.4 l -0.7,1.4 m 2.1,2.1 l 1.4,-0.7 v 1.4 l -1.4,-0.7 m -2.1,2.1 l -0.7,1.4 h 1.4 l -0.7,-1.4 m 0.0,-1.4 M 232.5,265.2 m -2.1,0.0 l -1.4,-0.7 v 1.4 l 1.4,-0.7 m 2.1,-2.1 l -0.7,-1.4 h 1.4 l -0.7,1.4 m 2.1,2.1 l 1.4,-0.7 v 1.4 l -1.4,-0.7 m -2.1,2.1 l -0.7,1.4 h 1.4 l -0.7,-1.4 m 0.0,-1.4 M 236.9,270.8 m -2.1,0.0 l -1.4,-0.7 v 1.4 l 1.4,-0.7 m 2.1,-2.1 l -0.7,-1.4 h 1.4 l -0.7,1.4 m 2.1,2.1 l 1.4,-0.7 v 1.4 l -1.4,-0.7 m -2.1,2.1 l -0.7,1.4 h 1.4 l -0.7,-1.4 m 0.0,-1.4 M 241.3,276.5 m -2.1,0.0 l -1.4,-0.7 v 1.4 l 1.4,-0.7 m 2.1,-2.1 l -0.7,-1.4 h 1.4 l -0.7,1.4 m 2.1,2.1 l 1.4,-0.7 v 1.4 l -1.4,-0.7 m -2.1,2.1 l -0.7,1.4 h 1.4 l -0.7,-1.4 m 0.0,-1.4 M 245.7,282.1 m -2.1,0.0 l -1.4,-0.7 v 1.4 l 1.4,-0.7 m 2.1,-2.1 l -0.7,-1.4 h 1.4 l -0.7,1.4 m 2.1,2.1 l 1.4,-0.7 v 1.4 l -1.4,-0.7 m -2.1,2.1 l -0.7,1.4 h 1.4 l -0.7,-1.4 m 0.0,-1.4 M 250.1,287.6 m -2.1,0.0 l -1.4,-0.7 v 1.4 l 1.4,-0.7 m 2.1,-2.1 l -0.7,-1.4 h 1.4 l -0.7,1.4 m 2.1,2.1 l 1.4,-0.7 v 1.4 l -1.4,-0.7 m -2.1,2.1 l -0.7,1.4 h 1.4 l -0.7,-1.4 m 0.0,-1.4 M 254.6,293.1 m -2.1,0.0 l -1.4,-0.7 v 1.4 l 1.4,-0.7 m 2.1,-2.1 l -0.7,-1.4 h 1.4 l -0.7,1.4 m 2.1,2.1 l 1.4,-0.7 v 1.4 l -1.4,-0.7 m -2.1,2.1 l -0.7,1.4 h 1.4 l -0.7,-1.4 m 0.0,-1.4 M 259.0,298.5 m -2.1,0.0 l -1.4,-0.7 v 1.4 l 1.4,-0.7 m 2.1,-2.1 l -0.7,-1.4 h 1.4 l -0.7,1.4 m 2.1,2.1 l 1.4,-0.7 v 1.4 l -1.4,-0.7 m -2.1,2.1 l -0.7,1.4 h 1.4 l -0.7,-1.4 m 0.0,-1.4 M 263.4,303.8 m -2.1,0.0 l -1.4,-0.7 v 1.4 l 1.4,-0.7 m 2.1,-2.1 l -0.7,-1.4 h 1.4 l -0.7,1.4 m 2.1,2.1 l 1.4,-0.7 v 1.4 l -1.4,-0.7 m -2.1,2.1 l -0.7,1.4 h 1.4 l -0.7,-1.4 m 0.0,-1.4 M 267.8,309.0 m -2.1,0.0 l -1.4,-0.7 v 1.4 l 1.4,-0.7 m 2.1,-2.1 l -0.7,-1.4 h 1.4 l -0.7,1.4 m 2.1,2.1 l 1.4,-0.7 v 1.4 l -1.4,-0.7 m -2.1,2.1 l -0.7,1.4 h 1.4 l -0.7,-1.4 m 0.0,-1.4 M 272.2,314.2 m -2.1,0.0 l -1.4,-0.7 v 1.4 l 1.4,-0.7 m 2.1,-2.1 l -0.7,-1.4 h 1.4 l -0.7,1.4 m 2.1,2.1 l 1.4,-0.7 v 1.4 l -1.4,-0.7 m -2.1,2.1 l -0.7,1.4 h 1.4 l -0.7,-1.4 m 0.0,-1.4 M 276.7,319.2 m -2.1,0.0 l -1.4,-0.7 v 1.4 l 1.4,-0.7 m 2.1,-2.1 l -0.7,-1.4 h 1.4 l -0.7,1.4 m 2.1,2.1 l 1.4,-0.7 v 1.4 l -1.4,-0.7 m -2.1,2.1 l -0.7,1.4 h 1.4 l -0.7,-1.4 m 0.0,-1.4 M 281.1,324.0 m -2.1,0.0 l -1.4,-0.7 v 1.4 l 1.4,-0.7 m 2.1,-2.1 l -0.7,-1.4 h 1.4 l -0.7,1.4 m 2.1,2.1 l 1.4,-0.7 v 1.4 l -1.4,-0.7 m -2.1,2.1 l -0.7,1.4 h 1.4 l -0.7,-1.4 m 0.0,-1.4 M 285.5,328.8 m -2.1,0.0 l -1.4,-0.7 v 1.4 l 1.4,-0.7 m 2.1,-2.1 l -0.7,-1.4 h 1.4 l -0.7,1.4 m 2.1,2.1 l 1.4,-0.7 v 1.4 l -1.4,-0.7 m -2.1,2.1 l -0.7,1.4 h 1.4 l -0.7,-1.4 m 0.0,-1.4 M 289.9,333.4 m -2.1,0.0 l -1.4,-0.7 v 1.4 l 1.4,-0.7 m 2.1,-2.1 l -0.7,-1.4 h 1.4 l -0.7,1.4 m 2.1,2.1 l 1.4,-0.7 v 1.4 l -1.4,-0.7 m -2.1,2.1 l -0.7,1.4 h 1.4 l -0.7,-1.4 m 0.0,-1.4 M 294.3,337.8 m -2.1,0.0 l -1.4,-0.7 v 1.4 l 1.4,-0.7 m 2.1,-2.1 l -0.7,-1.4 h 1.4 l -0.7,1.4 m 2.1,2.1 l 1.4,-0.7 v 1.4 l -1.4,-0.7 m -2.1,2.1 l -0.7,1.4 h 1.4 l -0.7,-1.4 m 0.0,-1.4 M 298.8,342.1 m -2.1,0.0 l -1.4,-0.7 v 1.4 l 1.4,-0.7 m 2.1,-2.1 l -0.7,-1.4 h 1.4 l -0.7,1.4 m 2.1,2.1 l 1.4,-0.7 v 1.4 l -1.4,-0.7 m -2.1,2.1 l -0.7,1.4 h 1.4 l -0.7,-1.4 m 0.0,-1.4 M 303.2,346.3 m -2.1,0.0 l -1.4,-0.7 v 1.4 l 1.4,-0.7 m 2.1,-2.1 l -0.7,-1.4 h 1.4 l -0.7,1.4 m 2.1,2.1 l 1.4,-0.7 v 1.4 l -1.4,-0.7 m -2.1,2.1 l -0.7,1.4 h 1.4 l -0.7,-1.4 m 0.0,-1.4 M 307.6,350.2 m -2.1,0.0 l -1.4,-0.7 v 1.4 l 1.4,-0.7 m 2.1,-2.1 l -0.7,-1.4 h 1.4 l -0.7,1.4 m 2.1,2.1 l 1.4,-0.7 v 1.4 l -1.4,-0.7 m -2.1,2.1 l -0.7,1.4 h 1.4 l -0.7,-1.4 m 0.0,-1.4 M 312.0,354.0 m -2.1,0.0 l -1.4,-0.7 v 1.4 l 1.4,-0.7 m 2.1,-2.1 l -0.7,-1.4 h 1.4 l -0.7,1.4 m 2.1,2.1 l 1.4,-0.7 v 1.4 l -1.4,-0.7 m -2.1,2.1 l -0.7,1.4 h 1.4 l -0.7,-1.4 m 0.0,-1.4 M 316.4,357.5 m -2.1,0.0 l -1.4,-0.7 v 1.4 l 1.4,-0.7 m 2.1,-2.1 l -0.7,-1.4 h 1.4 l -0.7,1.4 m 2.1,2.1 l 1.4,-0.7 v 1.4 l -1.4,-0.7 m -2.1,2.1 l -0.7,1.4 h 1.4 l -0.7,-1.4 m 0.0,-1.4 M 320.9,360.9 m -2.1,0.0 l -1.4,-0.7 v 1.4 l 1.4,-0.7 m 2.1,-2.1 l -0.7,-1.4 h 1.4 l -0.7,1.4 m 2.1,2.1 l 1.4,-0.7 v 1.4 l -1.4,-0.7 m -2.1,2.1 l -0.7,1.4 h 1.4 l -0.7,-1.4 m 0.0,-1.4 M 325.3,364.1 m -2.1,0.0 l -1.4,-0.7 v 1.4 l 1.4,-0.7 m 2.1,-2.1 l -0.7,-1.4 h 1.4 l -0.7,1.4 m 2.1,2.1 l 1.4,-0.7 v 1.4 l -1.4,-0.7 m -2.1,2.1 l -0.7,1.4 h 1.4 l -0.7,-1.4 m 0.0,-1.4 M 329.7,367.1 m -2.1,0.0 l -1.4,-0.7 v 1.4 l 1.4,-0.7 m 2.1,-2.1 l -0.7,-1.4 h 1.4 l -0.7,1.4 m 2.1,2.1 l 1.4,-0.7 v 1.4 l -1.4,-0.7 m -2.1,2.1 l -0.7,1.4 h 1.4 l -0.7,-1.4 m 0.0,-1.4 M 334.1,369.8 m -2.1,0.0 l -1.4,-0.7 v 1.4 l 1.4,-0.7 m 2.1,-2.1 l -0.7,-1.4 h 1.4 l -0.7,1.4 m 2.1,2.1 l 1.4,-0.7 v 1.4 l -1.4,-0.7 m -2.1,2.1 l -0.7,1.4 h 1.4 l -0.7,-1.4 m 0.0,-1.4 M 338.5,372.3 m -2.1,0.0 l -1.4,-0.7 v 1.4 l 1.4,-0.7 m 2.1,-2.1 l -0.7,-1.4 h 1.4 l -0.7,1.4 m 2.1,2.1 l 1.4,-0.7 v 1.4 l -1.4,-0.7 m -2.1,2.1 l -0.7,1.4 h 1.4 l -0.7,-1.4 m 0.0,-1.4 M 343.0,374.6 m -2.1,0.0 l -1.4,-0.7 v 1.4 l 1.4,-0.7 m 2.1,-2.1 l -0.7,-1.4 h 1.4 l -0.7,1.4 m 2.1,2.1 l 1.4,-0.7 v 1.4 l -1.4,-0.7 m -2.1,2.1 l -0.7,1.4 h 1.4 l -0.7,-1.4 m 0.0,-1.4 M 347.4,376.7 m -2.1,0.0 l -1.4,-0.7 v 1.4 l 1.4,-0.7 m 2.1,-2.1 l -0.7,-1.4 h 1.4 l -0.7,1.4 m 2.1,2.1 l 1.4,-0.7 v 1.4 l -1.4,-0.7 m -2.1,2.1 l -0.7,1.4 h 1.4 l -0.7,-1.4 m 0.0,-1.4 M 351.8,378.5 m -2.1,0.0 l -1.4,-0.7 v 1.4 l 1.4,-0.7 m 2.1,-2.1 l -0.7,-1.4 h 1.4 l -0.7,1.4 m 2.1,2.1 l 1.4,-0.7 v 1.4 l -1.4,-0.7 m -2.1,2.1 l -0.7,1.4 h 1.4 l -0.7,-1.4 m 0.0,-1.4 M 356.2,380.1 m -2.1,0.0 l -1.4,-0.7 v 1.4 l 1.4,-0.7 m 2.1,-2.1 l -0.7,-1.4 h 1.4 l -0.7,1.4 m 2.1,2.1 l 1.4,-0.7 v 1.4 l -1.4,-0.7 m -2.1,2.1 l -0.7,1.4 h 1.4 l -0.7,-1.4 m 0.0,-1.4 M 360.6,381.5 m -2.1,0.0 l -1.4,-0.7 v 1.4 l 1.4,-0.7 m 2.1,-2.1 l -0.7,-1.4 h 1.4 l -0.7,1.4 m 2.1,2.1 l 1.4,-0.7 v 1.4 l -1.4,-0.7 m -2.1,2.1 l -0.7,1.4 h 1.4 l -0.7,-1.4 m 0.0,-1.4 M 365.1,382.6 m -2.1,0.0 l -1.4,-0.7 v 1.4 l 1.4,-0.7 m 2.1,-2.1 l -0.7,-1.4 h 1.4 l -0.7,1.4 m 2.1,2.1 l 1.4,-0.7 v 1.4 l -1.4,-0.7 m -2.1,2.1 l -0.7,1.4 h 1.4 l -0.7,-1.4 m 0.0,-1.4 M 369.5,383.5 m -2.1,0.0 l -1.4,-0.7 v 1.4 l 1.4,-0.7 m 2.1,-2.1 l -0.7,-1.4 h 1.4 l -0.7,1.4 m 2.1,2.1 l 1.4,-0.7 v 1.4 l -1.4,-0.7 m -2.1,2.1 l -0.7,1.4 h 1.4 l -0.7,-1.4 m 0.0,-1.4 M 373.9,384.1 m -2.1,0.0 l -1.4,-0.7 v 1.4 l 1.4,-0.7 m 2.1,-2.1 l -0.7,-1.4 h 1.4 l -0.7,1.4 m 2.1,2.1 l 1.4,-0.7 v 1.4 l -1.4,-0.7 m -2.1,2.1 l -0.7,1.4 h 1.4 l -0.7,-1.4 m 0.0,-1.4 M 378.3,384.5 m -2.1,0.0 l -1.4,-0.7 v 1.4 l 1.4,-0.7 m 2.1,-2.1 l -0.7,-1.4 h 1.4 l -0.7,1.4 m 2.1,2.1 l 1.4,-0.7 v 1.4 l -1.4,-0.7 m -2.1,2.1 l -0.7,1.4 h 1.4 l -0.7,-1.4 m 0.0,-1.4 M 382.8,384.6 m -2.1,0.0 l -1.4,-0.7 v 1.4 l 1.4,-0.7 m 2.1,-2.1 l -0.7,-1.4 h 1.4 l -0.7,1.4 m 2.1,2.1 l 1.4,-0.7 v 1.4 l -1.4,-0.7 m -2.1,2.1 l -0.7,1.4 h 1.4 l -0.7,-1.4 m 0.0,-1.4 M 387.2,384.5 m -2.1,0.0 l -1.4,-0.7 v 1.4 l 1.4,-0.7 m 2.1,-2.1 l -0.7,-1.4 h 1.4 l -0.7,1.4 m 2.1,2.1 l 1.4,-0.7 v 1.4 l -1.4,-0.7 m -2.1,2.1 l -0.7,1.4 h 1.4 l -0.7,-1.4 m 0.0,-1.4 M 391.6,384.1 m -2.1,0.0 l -1.4,-0.7 v 1.4 l 1.4,-0.7 m 2.1,-2.1 l -0.7,-1.4 h 1.4 l -0.7,1.4 m 2.1,2.1 l 1.4,-0.7 v 1.4 l -1.4,-0.7 m -2.1,2.1 l -0.7,1.4 h 1.4 l -0.7,-1.4 m 0.0,-1.4 M 396.0,383.5 m -2.1,0.0 l -1.4,-0.7 v 1.4 l 1.4,-0.7 m 2.1,-2.1 l -0.7,-1.4 h 1.4 l -0.7,1.4 m 2.1,2.1 l 1.4,-0.7 v 1.4 l -1.4,-0.7 m -2.1,2.1 l -0.7,1.4 h 1.4 l -0.7,-1.4 m 0.0,-1.4 M 400.4,382.6 m -2.1,0.0 l -1.4,-0.7 v 1.4 l 1.4,-0.7 m 2.1,-2.1 l -0.7,-1.4 h 1.4 l -0.7,1.4 m 2.1,2.1 l 1.4,-0.7 v 1.4 l -1.4,-0.7 m -2.1,2.1 l -0.7,1.4 h 1.4 l -0.7,-1.4 m 0.0,-1.4 M 404.9,381.5 m -2.1,0.0 l -1.4,-0.7 v 1.4 l 1.4,-0.7 m 2.1,-2.1 l -0.7,-1.4 h 1.4 l -0.7,1.4 m 2.1,2.1 l 1.4,-0.7 v 1.4 l -1.4,-0.7 m -2.1,2.1 l -0.7,1.4 h 1.4 l -0.7,-1.4 m 0.0,-1.4 M 409.3,380.1 m -2.1,0.0 l -1.4,-0.7 v 1.4 l 1.4,-0.7 m 2.1,-2.1 l -0.7,-1.4 h 1.4 l -0.7,1.4 m 2.1,2.1 l 1.4,-0.7 v 1.4 l -1.4,-0.7 m -2.1,2.1 l -0.7,1.4 h 1.4 l -0.7,-1.4 m 0.0,-1.4 M 413.7,378.5 m -2.1,0.0 l -1.4,-0.7 v 1.4 l 1.4,-0.7 m 2.1,-2.1 l -0.7,-1.4 h 1.4 l -0.7,1.4 m 2.1,2.1 l 1.4,-0.7 v 1.4 l -1.4,-0.7 m -2.1,2.1 l -0.7,1.4 h 1.4 l -0.7,-1.4 m 0.0,-1.4 M 418.1,376.7 m -2.1,0.0 l -1.4,-0.7 v 1.4 l 1.4,-0.7 m 2.1,-2.1 l -0.7,-1.4 h 1.4 l -0.7,1.4 m 2.1,2.1 l 1.4,-0.7 v 1.4 l -1.4,-0.7 m -2.1,2.1 l -0.7,1.4 h 1.4 l -0.7,-1.4 m 0.0,-1.4 M 422.5,374.6 m -2.1,0.0 l -1.4,-0.7 v 1.4 l 1.4,-0.7 m 2.1,-2.1 l -0.7,-1.4 h 1.4 l -0.7,1.4 m 2.1,2.1 l 1.4,-0.7 v 1.4 l -1.4,-0.7 m -2.1,2.1 l -0.7,1.4 h 1.4 l -0.7,-1.4 m 0.0,-1.4 M 427.0,372.3 m -2.1,0.0 l -1.4,-0.7 v 1.4 l 1.4,-0.7 m 2.1,-2.1 l -0.7,-1.4 h 1.4 l -0.7,1.4 m 2.1,2.1 l 1.4,-0.7 v 1.4 l -1.4,-0.7 m -2.1,2.1 l -0.7,1.4 h 1.4 l -0.7,-1.4 m 0.0,-1.4 M 431.4,369.8 m -2.1,0.0 l -1.4,-0.7 v 1.4 l 1.4,-0.7 m 2.1,-2.1 l -0.7,-1.4 h 1.4 l -0.7,1.4 m 2.1,2.1 l 1.4,-0.7 v 1.4 l -1.4,-0.7 m -2.1,2.1 l -0.7,1.4 h 1.4 l -0.7,-1.4 m 0.0,-1.4 M 435.8,367.1 m -2.1,0.0 l -1.4,-0.7 v 1.4 l 1.4,-0.7 m 2.1,-2.1 l -0.7,-1.4 h 1.4 l -0.7,1.4 m 2.1,2.1 l 1.4,-0.7 v 1.4 l -1.4,-0.7 m -2.1,2.1 l -0.7,1.4 h 1.4 l -0.7,-1.4 m 0.0,-1.4 M 440.2,364.1 m -2.1,0.0 l -1.4,-0.7 v 1.4 l 1.4,-0.7 m 2.1,-2.1 l -0.7,-1.4 h 1.4 l -0.7,1.4 m 2.1,2.1 l 1.4,-0.7 v 1.4 l -1.4,-0.7 m -2.1,2.1 l -0.7,1.4 h 1.4 l -0.7,-1.4 m 0.0,-1.4 M 444.6,360.9 m -2.1,0.0 l -1.4,-0.7 v 1.4 l 1.4,-0.7 m 2.1,-2.1 l -0.7,-1.4 h 1.4 l -0.7,1.4 m 2.1,2.1 l 1.4,-0.7 v 1.4 l -1.4,-0.7 m -2.1,2.1 l -0.7,1.4 h 1.4 l -0.7,-1.4 m 0.0,-1.4 M 449.1,357.5 m -2.1,0.0 l -1.4,-0.7 v 1.4 l 1.4,-0.7 m 2.1,-2.1 l -0.7,-1.4 h 1.4 l -0.7,1.4 m 2.1,2.1 l 1.4,-0.7 v 1.4 l -1.4,-0.7 m -2.1,2.1 l -0.7,1.4 h 1.4 l -0.7,-1.4 m 0.0,-1.4 M 453.5,354.0 m -2.1,0.0 l -1.4,-0.7 v 1.4 l 1.4,-0.7 m 2.1,-2.1 l -0.7,-1.4 h 1.4 l -0.7,1.4 m 2.1,2.1 l 1.4,-0.7 v 1.4 l -1.4,-0.7 m -2.1,2.1 l -0.7,1.4 h 1.4 l -0.7,-1.4 m 0.0,-1.4 M 457.9,350.2 m -2.1,0.0 l -1.4,-0.7 v 1.4 l 1.4,-0.7 m 2.1,-2.1 l -0.7,-1.4 h 1.4 l -0.7,1.4 m 2.1,2.1 l 1.4,-0.7 v 1.4 l -1.4,-0.7 m -2.1,2.1 l -0.7,1.4 h 1.4 l -0.7,-1.4 m 0.0,-1.4 M 462.3,346.3 m -2.1,0.0 l -1.4,-0.7 v 1.4 l 1.4,-0.7 m 2.1,-2.1 l -0.7,-1.4 h 1.4 l -0.7,1.4 m 2.1,2.1 l 1.4,-0.7 v 1.4 l -1.4,-0.7 m -2.1,2.1 l -0.7,1.4 h 1.4 l -0.7,-1.4 m 0.0,-1.4 M 466.7,342.1 m -2.1,0.0 l -1.4,-0.7 v 1.4 l 1.4,-0.7 m 2.1,-2.1 l -0.7,-1.4 h 1.4 l -0.7,1.4 m 2.1,2.1 l 1.4,-0.7 v 1.4 l -1.4,-0.7 m -2.1,2.1 l -0.7,1.4 h 1.4 l -0.7,-1.4 m 0.0,-1.4 M 471.2,337.8 m -2.1,0.0 l -1.4,-0.7 v 1.4 l 1.4,-0.7 m 2.1,-2.1 l -0.7,-1.4 h 1.4 l -0.7,1.4 m 2.1,2.1 l 1.4,-0.7 v 1.4 l -1.4,-0.7 m -2.1,2.1 l -0.7,1.4 h 1.4 l -0.7,-1.4 m 0.0,-1.4 M 475.6,333.4 m -2.1,0.0 l -1.4,-0.7 v 1.4 l 1.4,-0.7 m 2.1,-2.1 l -0.7,-1.4 h 1.4 l -0.7,1.4 m 2.1,2.1 l 1.4,-0.7 v 1.4 l -1.4,-0.7 m -2.1,2.1 l -0.7,1.4 h 1.4 l -0.7,-1.4 m 0.0,-1.4 M 480.0,328.8 m -2.1,0.0 l -1.4,-0.7 v 1.4 l 1.4,-0.7 m 2.1,-2.1 l -0.7,-1.4 h 1.4 l -0.7,1.4 m 2.1,2.1 l 1.4,-0.7 v 1.4 l -1.4,-0.7 m -2.1,2.1 l -0.7,1.4 h 1.4 l -0.7,-1.4 m 0.0,-1.4 M 484.4,324.0 m -2.1,0.0 l -1.4,-0.7 v 1.4 l 1.4,-0.7 m 2.1,-2.1 l -0.7,-1.4 h 1.4 l -0.7,1.4 m 2.1,2.1 l 1.4,-0.7 v 1.4 l -1.4,-0.7 m -2.1,2.1 l -0.7,1.4 h 1.4 l -0.7,-1.4 m 0.0,-1.4 M 488.8,319.2 m -2.1,0.0 l -1.4,-0.7 v 1.4 l 1.4,-0.7 m 2.1,-2.1 l -0.7,-1.4 h 1.4 l -0.7,1.4 m 2.1,2.1 l 1.4,-0.7 v 1.4 l -1.4,-0.7 m -2.1,2.1 l -0.7,1.4 h 1.4 l -0.7,-1.4 m 0.0,-1.4 M 493.3,314.2 m -2.1,0.0 l -1.4,-0.7 v 1.4 l 1.4,-0.7 m 2.1,-2.1 l -0.7,-1.4 h 1.4 l -0.7,1.4 m 2.1,2.1 l 1.4,-0.7 v 1.4 l -1.4,-0.7 m -2.1,2.1 l -0.7,1.4 h 1.4 l -0.7,-1.4 m 0.0,-1.4 M 497.7,309.0 m -2.1,0.0 l -1.4,-0.7 v 1.4 l 1.4,-0.7 m 2.1,-2.1 l -0.7,-1.4 h 1.4 l -0.7,1.4 m 2.1,2.1 l 1.4,-0.7 v 1.4 l -1.4,-0.7 m -2.1,2.1 l -0.7,1.4 h 1.4 l -0.7,-1.4 m 0.0,-1.4 M 502.1,303.8 m -2.1,0.0 l -1.4,-0.7 v 1.4 l 1.4,-0.7 m 2.1,-2.1 l -0.7,-1.4 h 1.4 l -0.7,1.4 m 2.1,2.1 l 1.4,-0.7 v 1.4 l -1.4,-0.7 m -2.1,2.1 l -0.7,1.4 h 1.4 l -0.7,-1.4 m 0.0,-1.4 M 506.5,298.5 m -2.1,0.0 l -1.4,-0.7 v 1.4 l 1.4,-0.7 m 2.1,-2.1 l -0.7,-1.4 h 1.4 l -0.7,1.4 m 2.1,2.1 l 1.4,-0.7 v 1.4 l -1.4,-0.7 m -2.1,2.1 l -0.7,1.4 h 1.4 l -0.7,-1.4 m 0.0,-1.4 M 510.9,293.1 m -2.1,0.0 l -1.4,-0.7 v 1.4 l 1.4,-0.7 m 2.1,-2.1 l -0.7,-1.4 h 1.4 l -0.7,1.4 m 2.1,2.1 l 1.4,-0.7 v 1.4 l -1.4,-0.7 m -2.1,2.1 l -0.7,1.4 h 1.4 l -0.7,-1.4 m 0.0,-1.4 M 515.4,287.6 m -2.1,0.0 l -1.4,-0.7 v 1.4 l 1.4,-0.7 m 2.1,-2.1 l -0.7,-1.4 h 1.4 l -0.7,1.4 m 2.1,2.1 l 1.4,-0.7 v 1.4 l -1.4,-0.7 m -2.1,2.1 l -0.7,1.4 h 1.4 l -0.7,-1.4 m 0.0,-1.4 M 519.8,282.1 m -2.1,0.0 l -1.4,-0.7 v 1.4 l 1.4,-0.7 m 2.1,-2.1 l -0.7,-1.4 h 1.4 l -0.7,1.4 m 2.1,2.1 l 1.4,-0.7 v 1.4 l -1.4,-0.7 m -2.1,2.1 l -0.7,1.4 h 1.4 l -0.7,-1.4 m 0.0,-1.4 M 524.2,276.5 m -2.1,0.0 l -1.4,-0.7 v 1.4 l 1.4,-0.7 m 2.1,-2.1 l -0.7,-1.4 h 1.4 l -0.7,1.4 m 2.1,2.1 l 1.4,-0.7 v 1.4 l -1.4,-0.7 m -2.1,2.1 l -0.7,1.4 h 1.4 l -0.7,-1.4 m 0.0,-1.4 M 528.6,270.8 m -2.1,0.0 l -1.4,-0.7 v 1.4 l 1.4,-0.7 m 2.1,-2.1 l -0.7,-1.4 h 1.4 l -0.7,1.4 m 2.1,2.1 l 1.4,-0.7 v 1.4 l -1.4,-0.7 m -2.1,2.1 l -0.7,1.4 h 1.4 l -0.7,-1.4 m 0.0,-1.4 M 533.0,265.2 m -2.1,0.0 l -1.4,-0.7 v 1.4 l 1.4,-0.7 m 2.1,-2.1 l -0.7,-1.4 h 1.4 l -0.7,1.4 m 2.1,2.1 l 1.4,-0.7 v 1.4 l -1.4,-0.7 m -2.1,2.1 l -0.7,1.4 h 1.4 l -0.7,-1.4 m 0.0,-1.4 M 537.5,259.5 m -2.1,0.0 l -1.4,-0.7 v 1.4 l 1.4,-0.7 m 2.1,-2.1 l -0.7,-1.4 h 1.4 l -0.7,1.4 m 2.1,2.1 l 1.4,-0.7 v 1.4 l -1.4,-0.7 m -2.1,2.1 l -0.7,1.4 h 1.4 l -0.7,-1.4 m 0.0,-1.4 M 541.9,253.8 m -2.1,0.0 l -1.4,-0.7 v 1.4 l 1.4,-0.7 m 2.1,-2.1 l -0.7,-1.4 h 1.4 l -0.7,1.4 m 2.1,2.1 l 1.4,-0.7 v 1.4 l -1.4,-0.7 m -2.1,2.1 l -0.7,1.4 h 1.4 l -0.7,-1.4 m 0.0,-1.4 M 546.3,248.0 m -2.1,0.0 l -1.4,-0.7 v 1.4 l 1.4,-0.7 m 2.1,-2.1 l -0.7,-1.4 h 1.4 l -0.7,1.4 m 2.1,2.1 l 1.4,-0.7 v 1.4 l -1.4,-0.7 m -2.1,2.1 l -0.7,1.4 h 1.4 l -0.7,-1.4 m 0.0,-1.4 M 550.7,242.3 m -2.1,0.0 l -1.4,-0.7 v 1.4 l 1.4,-0.7 m 2.1,-2.1 l -0.7,-1.4 h 1.4 l -0.7,1.4 m 2.1,2.1 l 1.4,-0.7 v 1.4 l -1.4,-0.7 m -2.1,2.1 l -0.7,1.4 h 1.4 l -0.7,-1.4 m 0.0,-1.4 M 555.1,236.7 m -2.1,0.0 l -1.4,-0.7 v 1.4 l 1.4,-0.7 m 2.1,-2.1 l -0.7,-1.4 h 1.4 l -0.7,1.4 m 2.1,2.1 l 1.4,-0.7 v 1.4 l -1.4,-0.7 m -2.1,2.1 l -0.7,1.4 h 1.4 l -0.7,-1.4 m 0.0,-1.4 M 559.6,231.0 m -2.1,0.0 l -1.4,-0.7 v 1.4 l 1.4,-0.7 m 2.1,-2.1 l -0.7,-1.4 h 1.4 l -0.7,1.4 m 2.1,2.1 l 1.4,-0.7 v 1.4 l -1.4,-0.7 m -2.1,2.1 l -0.7,1.4 h 1.4 l -0.7,-1.4 m 0.0,-1.4 M 564.0,225.4 m -2.1,0.0 l -1.4,-0.7 v 1.4 l 1.4,-0.7 m 2.1,-2.1 l -0.7,-1.4 h 1.4 l -0.7,1.4 m 2.1,2.1 l 1.4,-0.7 v 1.4 l -1.4,-0.7 m -2.1,2.1 l -0.7,1.4 h 1.4 l -0.7,-1.4 m 0.0,-1.4 M 568.4,219.9 m -2.1,0.0 l -1.4,-0.7 v 1.4 l 1.4,-0.7 m 2.1,-2.1 l -0.7,-1.4 h 1.4 l -0.7,1.4 m 2.1,2.1 l 1.4,-0.7 v 1.4 l -1.4,-0.7 m -2.1,2.1 l -0.7,1.4 h 1.4 l -0.7,-1.4 m 0.0,-1.4 M 572.8,214.4 m -2.1,0.0 l -1.4,-0.7 v 1.4 l 1.4,-0.7 m 2.1,-2.1 l -0.7,-1.4 h 1.4 l -0.7,1.4 m 2.1,2.1 l 1.4,-0.7 v 1.4 l -1.4,-0.7 m -2.1,2.1 l -0.7,1.4 h 1.4 l -0.7,-1.4 m 0.0,-1.4 M 577.2,209.0 m -2.1,0.0 l -1.4,-0.7 v 1.4 l 1.4,-0.7 m 2.1,-2.1 l -0.7,-1.4 h 1.4 l -0.7,1.4 m 2.1,2.1 l 1.4,-0.7 v 1.4 l -1.4,-0.7 m -2.1,2.1 l -0.7,1.4 h 1.4 l -0.7,-1.4 m 0.0,-1.4 M 581.7,203.7 m -2.1,0.0 l -1.4,-0.7 v 1.4 l 1.4,-0.7 m 2.1,-2.1 l -0.7,-1.4 h 1.4 l -0.7,1.4 m 2.1,2.1 l 1.4,-0.7 v 1.4 l -1.4,-0.7 m -2.1,2.1 l -0.7,1.4 h 1.4 l -0.7,-1.4 m 0.0,-1.4 M 586.1,198.5 m -2.1,0.0 l -1.4,-0.7 v 1.4 l 1.4,-0.7 m 2.1,-2.1 l -0.7,-1.4 h 1.4 l -0.7,1.4 m 2.1,2.1 l 1.4,-0.7 v 1.4 l -1.4,-0.7 m -2.1,2.1 l -0.7,1.4 h 1.4 l -0.7,-1.4 m 0.0,-1.4 M 590.5,193.3 m -2.1,0.0 l -1.4,-0.7 v 1.4 l 1.4,-0.7 m 2.1,-2.1 l -0.7,-1.4 h 1.4 l -0.7,1.4 m 2.1,2.1 l 1.4,-0.7 v 1.4 l -1.4,-0.7 m -2.1,2.1 l -0.7,1.4 h 1.4 l -0.7,-1.4 m 0.0,-1.4 M 594.9,188.3 m -2.1,0.0 l -1.4,-0.7 v 1.4 l 1.4,-0.7 m 2.1,-2.1 l -0.7,-1.4 h 1.4 l -0.7,1.4 m 2.1,2.1 l 1.4,-0.7 v 1.4 l -1.4,-0.7 m -2.1,2.1 l -0.7,1.4 h 1.4 l -0.7,-1.4 m 0.0,-1.4 M 599.3,183.5 m -2.1,0.0 l -1.4,-0.7 v 1.4 l 1.4,-0.7 m 2.1,-2.1 l -0.7,-1.4 h 1.4 l -0.7,1.4 m 2.1,2.1 l 1.4,-0.7 v 1.4 l -1.4,-0.7 m -2.1,2.1 l -0.7,1.4 h 1.4 l -0.7,-1.4 m 0.0,-1.4 M 603.8,178.7 m -2.1,0.0 l -1.4,-0.7 v 1.4 l 1.4,-0.7 m 2.1,-2.1 l -0.7,-1.4 h 1.4 l -0.7,1.4 m 2.1,2.1 l 1.4,-0.7 v 1.4 l -1.4,-0.7 m -2.1,2.1 l -0.7,1.4 h 1.4 l -0.7,-1.4 m 0.0,-1.4 M 608.2,174.1 m -2.1,0.0 l -1.4,-0.7 v 1.4 l 1.4,-0.7 m 2.1,-2.1 l -0.7,-1.4 h 1.4 l -0.7,1.4 m 2.1,2.1 l 1.4,-0.7 v 1.4 l -1.4,-0.7 m -2.1,2.1 l -0.7,1.4 h 1.4 l -0.7,-1.4 m 0.0,-1.4 M 612.6,169.7 m -2.1,0.0 l -1.4,-0.7 v 1.4 l 1.4,-0.7 m 2.1,-2.1 l -0.7,-1.4 h 1.4 l -0.7,1.4 m 2.1,2.1 l 1.4,-0.7 v 1.4 l -1.4,-0.7 m -2.1,2.1 l -0.7,1.4 h 1.4 l -0.7,-1.4 m 0.0,-1.4 M 617.0,165.4 m -2.1,0.0 l -1.4,-0.7 v 1.4 l 1.4,-0.7 m 2.1,-2.1 l -0.7,-1.4 h 1.4 l -0.7,1.4 m 2.1,2.1 l 1.4,-0.7 v 1.4 l -1.4,-0.7 m -2.1,2.1 l -0.7,1.4 h 1.4 l -0.7,-1.4 m 0.0,-1.4 M 621.4,161.2 m -2.1,0.0 l -1.4,-0.7 v 1.4 l 1.4,-0.7 m 2.1,-2.1 l -0.7,-1.4 h 1.4 l -0.7,1.4 m 2.1,2.1 l 1.4,-0.7 v 1.4 l -1.4,-0.7 m -2.1,2.1 l -0.7,1.4 h 1.4 l -0.7,-1.4 m 0.0,-1.4 M 625.9,157.3 m -2.1,0.0 l -1.4,-0.7 v 1.4 l 1.4,-0.7 m 2.1,-2.1 l -0.7,-1.4 h 1.4 l -0.7,1.4 m 2.1,2.1 l 1.4,-0.7 v 1.4 l -1.4,-0.7 m -2.1,2.1 l -0.7,1.4 h 1.4 l -0.7,-1.4 m 0.0,-1.4 M 630.3,153.5 m -2.1,0.0 l -1.4,-0.7 v 1.4 l 1.4,-0.7 m 2.1,-2.1 l -0.7,-1.4 h 1.4 l -0.7,1.4 m 2.1,2.1 l 1.4,-0.7 v 1.4 l -1.4,-0.7 m -2.1,2.1 l -0.7,1.4 h 1.4 l -0.7,-1.4 m 0.0,-1.4 M 634.7,150.0 m -2.1,0.0 l -1.4,-0.7 v 1.4 l 1.4,-0.7 m 2.1,-2.1 l -0.7,-1.4 h 1.4 l -0.7,1.4 m 2.1,2.1 l 1.4,-0.7 v 1.4 l -1.4,-0.7 m -2.1,2.1 l -0.7,1.4 h 1.4 l -0.7,-1.4 m 0.0,-1.4 M 639.1,146.6 m -2.1,0.0 l -1.4,-0.7 v 1.4 l 1.4,-0.7 m 2.1,-2.1 l -0.7,-1.4 h 1.4 l -0.7,1.4 m 2.1,2.1 l 1.4,-0.7 v 1.4 l -1.4,-0.7 m -2.1,2.1 l -0.7,1.4 h 1.4 l -0.7,-1.4 m 0.0,-1.4 M 643.5,143.4 m -2.1,0.0 l -1.4,-0.7 v 1.4 l 1.4,-0.7 m 2.1,-2.1 l -0.7,-1.4 h 1.4 l -0.7,1.4 m 2.1,2.1 l 1.4,-0.7 v 1.4 l -1.4,-0.7 m -2.1,2.1 l -0.7,1.4 h 1.4 l -0.7,-1.4 m 0.0,-1.4 M 648.0,140.4 m -2.1,0.0 l -1.4,-0.7 v 1.4 l 1.4,-0.7 m 2.1,-2.1 l -0.7,-1.4 h 1.4 l -0.7,1.4 m 2.1,2.1 l 1.4,-0.7 v 1.4 l -1.4,-0.7 m -2.1,2.1 l -0.7,1.4 h 1.4 l -0.7,-1.4 m 0.0,-1.4 M 652.4,137.7 m -2.1,0.0 l -1.4,-0.7 v 1.4 l 1.4,-0.7 m 2.1,-2.1 l -0.7,-1.4 h 1.4 l -0.7,1.4 m 2.1,2.1 l 1.4,-0.7 v 1.4 l -1.4,-0.7 m -2.1,2.1 l -0.7,1.4 h 1.4 l -0.7,-1.4 m 0.0,-1.4 M 656.8,135.2 m -2.1,0.0 l -1.4,-0.7 v 1.4 l 1.4,-0.7 m 2.1,-2.1 l -0.7,-1.4 h 1.4 l -0.7,1.4 m 2.1,2.1 l 1.4,-0.7 v 1.4 l -1.4,-0.7 m -2.1,2.1 l -0.7,1.4 h 1.4 l -0.7,-1.4 m 0.0,-1.4 M 661.2,132.9 m -2.1,0.0 l -1.4,-0.7 v 1.4 l 1.4,-0.7 m 2.1,-2.1 l -0.7,-1.4 h 1.4 l -0.7,1.4 m 2.1,2.1 l 1.4,-0.7 v 1.4 l -1.4,-0.7 m -2.1,2.1 l -0.7,1.4 h 1.4 l -0.7,-1.4 m 0.0,-1.4 M 665.6,130.8 m -2.1,0.0 l -1.4,-0.7 v 1.4 l 1.4,-0.7 m 2.1,-2.1 l -0.7,-1.4 h 1.4 l -0.7,1.4 m 2.1,2.1 l 1.4,-0.7 v 1.4 l -1.4,-0.7 m -2.1,2.1 l -0.7,1.4 h 1.4 l -0.7,-1.4 m 0.0,-1.4 M 670.1,129.0 m -2.1,0.0 l -1.4,-0.7 v 1.4 l 1.4,-0.7 m 2.1,-2.1 l -0.7,-1.4 h 1.4 l -0.7,1.4 m 2.1,2.1 l 1.4,-0.7 v 1.4 l -1.4,-0.7 m -2.1,2.1 l -0.7,1.4 h 1.4 l -0.7,-1.4 m 0.0,-1.4 M 674.5,127.4 m -2.1,0.0 l -1.4,-0.7 v 1.4 l 1.4,-0.7 m 2.1,-2.1 l -0.7,-1.4 h 1.4 l -0.7,1.4 m 2.1,2.1 l 1.4,-0.7 v 1.4 l -1.4,-0.7 m -2.1,2.1 l -0.7,1.4 h 1.4 l -0.7,-1.4 m 0.0,-1.4 M 678.9,126.0 m -2.1,0.0 l -1.4,-0.7 v 1.4 l 1.4,-0.7 m 2.1,-2.1 l -0.7,-1.4 h 1.4 l -0.7,1.4 m 2.1,2.1 l 1.4,-0.7 v 1.4 l -1.4,-0.7 m -2.1,2.1 l -0.7,1.4 h 1.4 l -0.7,-1.4 m 0.0,-1.4 M 683.3,124.9 m -2.1,0.0 l -1.4,-0.7 v 1.4 l 1.4,-0.7 m 2.1,-2.1 l -0.7,-1.4 h 1.4 l -0.7,1.4 m 2.1,2.1 l 1.4,-0.7 v 1.4 l -1.4,-0.7 m -2.1,2.1 l -0.7,1.4 h 1.4 l -0.7,-1.4 m 0.0,-1.4 M 687.7,124.0 m -2.1,0.0 l -1.4,-0.7 v 1.4 l 1.4,-0.7 m 2.1,-2.1 l -0.7,-1.4 h 1.4 l -0.7,1.4 m 2.1,2.1 l 1.4,-0.7 v 1.4 l -1.4,-0.7 m -2.1,2.1 l -0.7,1.4 h 1.4 l -0.7,-1.4 m 0.0,-1.4 M 692.2,123.4 m -2.1,0.0 l -1.4,-0.7 v 1.4 l 1.4,-0.7 m 2.1,-2.1 l -0.7,-1.4 h 1.4 l -0.7,1.4 m 2.1,2.1 l 1.4,-0.7 v 1.4 l -1.4,-0.7 m -2.1,2.1 l -0.7,1.4 h 1.4 l -0.7,-1.4 m 0.0,-1.4 M 696.6,123.0 m -2.1,0.0 l -1.4,-0.7 v 1.4 l 1.4,-0.7 m 2.1,-2.1 l -0.7,-1.4 h 1.4 l -0.7,1.4 m 2.1,2.1 l 1.4,-0.7 v 1.4 l -1.4,-0.7 m -2.1,2.1 l -0.7,1.4 h 1.4 l -0.7,-1.4 m 0.0,-1.4 M 701.0,122.9 m -2.1,0.0 l -1.4,-0.7 v 1.4 l 1.4,-0.7 m 2.1,-2.1 l -0.7,-1.4 h 1.4 l -0.7,1.4 m 2.1,2.1 l 1.4,-0.7 v 1.4 l -1.4,-0.7 m -2.1,2.1 l -0.7,1.4 h 1.4 l -0.7,-1.4 m 0.0,-1.4 " />
<path class="plot05" d=" M 64.5,253.8 L 68.9,248.0 L 73.3,242.3 L 77.8,236.5 L 82.2,230.7 L 86.6,224.7 L 91.0,218.7 L 95.4,212.5 L 99.9,206.1 L 104.3,199.6 L 108.7,192.7 L 113.1,185.6 L 117.5,178.2 L 122.0,170.4 L 126.4,162.1 L 130.8,153.4 L 135.2,144.0 L 139.6,133.9 L 144.1,122.9 L 148.5,111.0 L 152.9,97.8 L 157.3,83.2 L 161.7,66.9 L 166.2,48.4 L 170.6,27.1 L 175.0,2.4 L 179.4,-26.8 L 183.8,-62.1 L 188.3,-105.7 L 192.7,-161.2 L 197.1,-234.5 L 201.5,-300.0 M 210.4,-300.0 M 214.8,-300.0 M 219.2,-300.0 M 223.6,-300.0 M 228.0,900.0 M 232.5,900.0 M 236.9,900.0 M 241.3,900.0 L 245.7,843.9 L 250.1,742.0 L 254.6,668.7 L 259.0,613.2 L 263.4,569.6 L 267.8,534.3 L 272.2,505.1 L 276.7,480.4 L 281.1,459.1 L 285.5,440.6 L 289.9,424.3 L 294.3,409.7 L 298.8,396.5 L 303.2,384.6 L 307.6,373.6 L 312.0,363.5 L 316.4,354.1 L 320.9,345.4 L 325.3,337.1 L 329.7,329.3 L 334.1,321.9 L 338.5,314.8 L 343.0,307.9 L 347.4,301.4 L 351.8,295.0 L 356.2,288.8 L 360.6,282.8 L 365.1,276.8 L 369.5,271.0 L 373.9,265.2 L 378.3,259.5 L 382.8,253.8 L 387.2,248.0 L 391.6,242.3 L 396.0,236.5 L 400.4,230.7 L 404.9,224.7 L 409.3,218.7 L 413.7,212.5 L 418.1,206.1 L 422.5,199.6 L 427.0,192.7 L 431.4,185.6 L 435.8,178.2 L 440.2,170.4 L 444.6,162.1 L 449.1,153.4 L 453.5,144.0 L 457.9,133.9 L 462.3,122.9 L 466.7,111.0 L 471.2,97.8 L 475.6,83.2 L 480.0,66.9 L 484.4,48.4 L 488.8,27.1 L 493.3,2.4 L 497.7,-26.8 L 502.1,-62.1 L 506.5,-105.7 L 510.9,-161.2 L 515.4,-234.5 L 519.8,-300.0 M 528.6,-300.0 M 533.0,-300.0 M 537.5,-300.0 M 541.9,-300.0 M 546.3,900.0 M 550.7,900.0 M 555.1,900.0 M 559.6,900.0 L 564.0,843.9 L 568.4,742.0 L 572.8,668.7 L 577.2,613.2 L 581.7,569.6 L 586.1,534.3 L 590.5,505.1 L 594.9,480.4 L 599.3,459.1 L 603.8,440.6 L 608.2,424.3 L 612.6,409.7 L 617.0,396.5 L 621.4,384.6 L 625.9,373.6 L 630.3,363.5 L 634.7,354.1 L 639.1,345.4 L 643.5,337.1 L 648.0,329.3 L 652.4,321.9 L 656.8,314.8 L 661.2,307.9 L 665.6,301.4 L 670.1,295.0 L 674.5,288.8 L 678.9,282.8 L 683.3,276.8 L 687.7,271.0 L 692.2,265.2 L 696.6,259.5 L 701.0,253.8 M 64.5,253.8 m -1.8,-1.8 l -1.8,-1.8 h 1.8 l 3.5,1.8 l 1.8,-1.8 v 1.8 l -1.8,3.5 l 1.8,1.8 h -1.8 l -3.5,-1.8 l -1.8,1.8 v -1.8 l 1.8,-3.5 m 1.8,1.8 M 73.3,242.3 m -1.8,-1.8 l -1.8,-1.8 h 1.8 l 3.5,1.8 l 1.8,-1.8 v 1.8 l -1.8,3.5 l 1.8,1.8 h -1.8 l -3.5,-1.8 l -1.8,1.8 v -1.8 l 1.8,-3.5 m 1.8,1.8 M 82.2,230.7 m -1.8,-1.8 l -1.8,-1.8 h 1.8 l 3.5,1.8 l 1.8,-1.8 v 1.8 l -1.8,3.5 l 1.8,1.8 h -1.8 l -3.5,-1.8 l -1.8,1.8 v -1.8 l 1.8,-3.5 m 1.8,1.8 M 91.0,218.7 m -1.8,-1.8 l -1.8,-1.8 h 1.8 l 3.5,1.8 l 1.8,-1.8 v 1.8 l -1.8,3.5 l 1.8,1.8 h -1.8 l -3.5,-1.8 l -1.8,1.8 v -1.8 l 1.8,-3.5 m 1.8,1.8 M 99.9,206.1 m -1.8,-1.8 l -1.8,-1.8 h 1.8 l 3.5,1.8 l 1.8,-1.8 v 1.8 l -1.8,3.5 l 1.8,1.8 h -1.8 l -3.5,-1.8 l -1.8,1.8 v -1.8 l 1.8,-3.5 m 1.8,1.8 M 108.7,192.7 m -1.8,-1.8 l -1.8,-1.8 h 1.8 l 3.5,1.8 l 1.8,-1.8 v 1.8 l -1.8,3.5 l 1.8,1.8 h -1.8 l -3.5,-1.8 l -1.8,1.8 v -1.8 l 1.8,-3.5 m 1.8,1.8 M 117.5,178.2 m -1.8,-1.8 l -1.8,-1.8 h 1.8 l 3.5,1.8 l 1.8,-1.8 v 1.8 l -1.8,3.5 l 1.8,1.8 h -1.8 l -3.5,-1.8 l -1.8,1.8 v -1.8 l 1.8,-3.5 m 1.8,1.8 M 126.4,162.1 m -1.8,-1.8 l -1.8,-1.8 h 1.8 l 3.5,1.8 l 1.8,-1.8 v 1.8 l -1.8,3.5 l 1.8,1.8 h -1.8 l -3.5,-1.8 l -1.8,1.8 v -1.8 l 1.8,-3.5 m 1.8,1.8 M 135.2,144.0 m -1.8,-1.8 l -1.8,-1.8 h 1.8 l 3.5,1.8 l 1.8,-1.8 v 1.8 l -1.8,3.5 l 1.8,1.8 h -1.8 l -3.5,-1.8 l -1.8,1.8 v -1.8 l 1.8,-3.5 m 1.8,1.8 M 139.6,133.9 m -1.8,-1.8 l -1.8,-1.8 h 1.8 l 3.5,1.8 l 1.8,-1.8 v 1.8 l -1.8,3.5 l 1.8,1.8 h -1.8 l -3.5,-1.8 l -1.8,1.8 v -1.8 l 1.8,-3.5 m 1.8,1.8 M 144.1,122.9 m -1.8,-1.8 l -1.8,-1.8 h 1.8 l 3.5,1.8 l 1.8,-1.8 v 1.8 l -1.8,3.5 l 1.8,1.8 h -1.8 l -3.5,-1.8 l -1.8,1.8 v -1.8 l 1.8,-3.5 m 1.8,1.8 M 148.5,111.0 m -1.8,-1.8 l -1.8,-1.8 h 1.8 l 3.5,1.8 l 1.8,-1.8 v 1.8 l -1.8,3.5 l 1.8,1.8 h -1.8 l -3.5,-1.8 l -1.8,1.8 v -1.8 l 1.8,-3.5 m 1.8,1.8 M 152.9,97.8 m -1.8,-1.8 l -1.8,-1.8 h 1.8 l 3.5,1.8 l 1.8,-1.8 v 1.8 l -1.8,3.5 l 1.8,1.8 h -1.8 l -3.5,-1.8 l -1.8,1.8 v -1.8 l 1.8,-3.5 m 1.8,1.8 M 157.3,83.2 m -1.8,-1.8 l -1.8,-1.8 h 1.8 l 3.5,1.8 l 1.8,-1.8 v 1.8 l -1.8,3.5 l 1.8,1.8 h -1.8 l -3.5,-1.8 l -1.8,1.8 v -1.8 l 1.8,-3.5 m 1.8,1.8 M 161.7,66.9 m -1.8,-1.8 l -1.8,-1.8 h 1.8 l 3.5,1.8 l 1.8,-1.8 v 1.8 l -1.8,3.5 l 1.8,1.8 h -1.8 l -3.5,-1.8 l -1.8,1.8 v -1.8 l 1.8,-3.5 m 1.8,1.8 M 166.2,48.4 m -1.8,-1.8 l -1.8,-1.8 h 1.8 l 3.5,1.8 l 1.8,-1.8 v 1.8 l -1.8,3.5 l 1.8,1.8 h -1.8 l -3.5,-1.8 l -1.8,1.8 v -1.8 l 1.8,-3.5 m 1.8,1.8 M 170.6,27.1 m -1.8,-1.8 l -1.8,-1.8 h 1.8 l 3.5,1.8 l 1.8,-1.8 v 1.8 l -1.8,3.5 l 1.8,1.8 h -1.8 l -3.5,-1.8 l -1.8,1.8 v -1.8 l 1.8,-3.5 m 1.8,1.8 M 175.0,2.4 m -1.8,-1.8 l -1.8,-1.8 h 1.8 l 3.5,1.8 l 1.8,-1.8 v 1.8 l -1.8,3.5 l 1.8,1.8 h -1.8 l -3.5,-1.8 l -1.8,1.8 v -1.8 l 1.8,-3.5 m 1.8,1.8 M 179.4,-26.8 m -1.8,-1.8 l -1.8,-1.8 h 1.8 l 3.5,1.8 l 1.8,-1.8 v 1.8 l -1.8,3.5 l 1.8,1.8 h -1.8 l -3.5,-1.8 l -1.8,1.8 v -1.8 l 1.8,-3.5 m 1.8,1.8 M 183.8,-62.1 m -1.8,-1.8 l -1.8,-1.8 h 1.8 l 3.5,1.8 l 1.8,-1.8 v 1.8 l -1.8,3.5 l 1.8,1.8 h -1.8 l -3.5,-1.8 l -1.8,1.8 v -1.8 l 1.8,-3.5 m 1.8,1.8 M 188.3,-105.7 m -1.8,-1.8 l -1.8,-1.8 h 1.8 l 3.5,1.8 l 1.8,-1.8 v 1.8 l -1.8,3.5 l 1.8,1.8 h -1.8 l -3.5,-1.8 l -1.8,1.8 v -1.8 l 1.8,-3.5 m 1.8,1.8 M 192.7,-161.2 m -1.8,-1.8 l -1.8,-1.8 h 1.8 l 3.5,1.8 l 1.8,-1.8 v 1.8 l -1.8,3.5 l 1.8,1.8 h -1.8 l -3.5,-1.8 l -1.8,1.8 v -1.8 l 1.8,-3.5 m 1.8,1.8 M 197.1,-234.5 m -1.8,-1.8 l -1.8,-1.8 h 1.8 l 3.5,1.8 l 1.8,-1.8 v 1.8 l -1.8,3.5 l 1.8,1.8 h -1.8 l -3.5,-1.8 l -1.8,1.8 v -1.8 l 1.8,-3.5 m 1.8,1.8 M 245.7,843.9 m -1.8,-1.8 l -1.8,-1.8 h 1.8 l 3.5,1.8 l 1.8,-1.8 v 1.8 l -1.8,3.5 l 1.8,1.8 h -1.8 l -3.5,-1.8 l -1.8,1.8 v -1.8 l 1.8,-3.5 m 1.8,1.8 M 250.1,742.0 m -1.8,-1.8 l -1.8,-1.8 h 1.8 l 3.5,1.8 l 1.8,-1.8 v 1.8 l -1.8,3.5 l 1.8,1.8 h -1.8 l -3.5,-1.8 l -1.8,1.8 v -1.8 l 1.8,-3.5 m 1.8,1.8 M 254.6,668.7 m -1.8,-1.8 l -1.8,-1.8 h 1.8 l 3.5,1.8 l 1.8,-1.8 v 1.8 l -1.8,3.5 l 1.8,1.8 h -1.8 l -3.5,-1.8 l -1.8,1.8 v -1.8 l 1.8,-3.5 m 1.8,1.8 M 259.0,613.2 m -1.8,-1.8 l -1.8,-1.8 h 1.8 l 3.5,1.8 l 1.8,-1.8 v 1.8 l -1.8,3.5 l 1.8,1.8 h -1.8 l -3.5,-1.8 l -1.8,1.8 v -1.8 l 1.8,-3.5 m 1.8,1.8 M 263.4,569.6 m -1.8,-1.8 l -1.8,-1.8 h 1.8 l 3.5,1.8 l 1.8,-1.8 v 1.8 l -1.8,3.5 l 1.8,1.8 h -1.8 l -3.5,-1.8 l -1.8,1.8 v -1.8 l 1.8,-3.5 m 1.8,1.8 M 267.8,534.3 m -1.8,-1.8 l -1.8,-1.8 h 1.8 l 3.5,1.8 l 1.8,-1.8 v 1.8 l -1.8,3.5 l 1.8,1.8 h -1.8 l -3.5,-1.8 l -1.8,1.8 v -1.8 l 1.8,-3.5 m 1.8,1.8 M 272.2,505.1 m -1.8,-1.8 l -1.8,-1.8 h 1.8 l 3.5,1.8 l 1.8,-1.8 v 1.8 l -1.8,3.5 l 1.8,1.8 h -1.8 l -3.5,-1.8 l -1.8,1.8 v -1.8 l 1.8,-3.5 m 1.8,1.8 M 276.7,480.4 m -1.8,-1.8 l -1.8,-1.8 h 1.8 l 3.5,1.8 l 1.8,-1.8 v 1.8 l -1.8,3.5 l 1.8,1.8 h -1.8 l -3.5,-1.8 l -1.8,1.8 v -1.8 l 1.8,-3.5 m 1.8,1.8 M 281.1,459.1 m -1.8,-1.8 l -1.8,-1.8 h 1.8 l 3.5,1.8 l 1.8,-1.8 v 1.8 l -1.8,3.5 l 1.8,1.8 h -1.8 l -3.5,-1.8 l -1.8,1.8 v -1.8 l 1.8,-3.5 m 1.8,1.8 M 285.5,440.6 m -1.8,-1.8 l -1.8,-1.8 h 1.8 l 3.5,1.8 l 1.8,-1.8 v 1.8 l -1.8,3.5 l 1.8,1.8 h -1.8 l -3.5,-1.8 l -1.8,1.8 v -1.8 l 1.8,-3.5 m 1.8,1.8 M 289.9,424.3 m -1.8,-1.8 l -1.8,-1.8 h 1.8 l 3.5,1.8 l 1.8,-1.8 v 1.8 l -1.8,3.5 l 1.8,1.8 h -1.8 l -3.5,-1.8 l -1.8,1.8 v -1.8 l 1.8,-3.5 m 1.8,1.8 M 294.3,409.7 m -1.8,-1.8 l -1.8,-1.8 h 1.8 l 3.5,1.8 l 1.8,-1.8 v 1.8 l -1.8,3.5 l 1.8,1.8 h -1.8 l -3.5,-1.8 l -1.8,1.8 v -1.8 l 1.8,-3.5 m 1.8,1.8 M 298.8,396.5 m -1.8,-1.8 l -1.8,-1.8 h 1.8 l 3.5,1.8 l 1.8,-1.8 v 1.8 l -1.8,3.5 l 1.8,1.8 h -1.8 l -3.5,-1.8 l -1.8,1.8 v -1.8 l 1.8,-3.5 m 1.8,1.8 M 303.2,384.6 m -1.8,-1.8 l -1.8,-1.8 h 1.8 l 3.5,1.8 l 1.8,-1.8 v 1.8 l -1.8,3.5 l 1.8,1.8 h -1.8 l -3.5,-1.8 l -1.8,1.8 v -1.8 l 1.8,-3.5 m 1.8,1.8 M 307.6,373.6 m -1.8,-1.8 l -1.8,-1.8 h 1.8 l 3.5,1.8 l 1.8,-1.8 v 1.8 l -1.8,3.5 l 1.8,1.8 h -1.8 l -3.5,-1.8 l -1.8,1.8 v -1.8 l 1.8,-3.5 m 1.8,1.8 M 312.0,363.5 m -1.8,-1.8 l -1.8,-1.8 h 1.8 l 3.5,1.8 l 1.8,-1.8 v 1.8 l -1.8,3.5 l 1.8,1.8 h -1.8 l -3.5,-1.8 l -1.8,1.8 v -1.8 l 1.8,-3.5 m 1.8,1.8 M 316.4,354.1 m -1.8,-1.8 l -1.8,-1.8 h 1.8 l 3.5,1.8 l 1.8,-1.8 v 1.8 l -1.8,3.5 l 1.8,1.8 h -1.8 l -3.5,-1.8 l -1.8,1.8 v -1.8 l 1.8,-3.5 m 1.8,1.8 M 325.3,337.1 m -1.8,-1.8 l -1.8,-1.8 h 1.8 l 3.5,1.8 l 1.8,-1.8 v 1.8 l -1.8,3.5 l 1.8,1.8 h -1.8 l -3.5,-1.8 l -1.8,1.8 v -1.8 l 1.8,-3.5 m 1.8,1.8 M 334.1,321.9 m -1.8,-1.8 l -1.8,-1.8 h 1.8 l 3.5,1.8 l 1.8,-1.8 v 1.8 l -1.8,3.5 l 1.8,1.8 h -1.8 l -3.5,-1.8 l -1.8,1.8 v -1.8 l 1.8,-3.5 m 1.8,1.8 M 343.0,307.9 m -1.8,-1.8 l -1.8,-1.8 h 1.8 l 3.5,1.8 l 1.8,-1.8 v 1.8 l -1.8,3.5 l 1.8,1.8 h -1.8 l -3.5,-1.8 l -1.8,1.8 v -1.8 l 1.8,-3.5 m 1.8,1.8 M 351.8,295.0 m -1.8,-1.8 l -1.8,-1.8 h 1.8 l 3.5,1.8 l 1.8,-1.8 v 1.8 l -1.8,3.5 l 1.8,1.8 h -1.8 l -3.5,-1.8 l -1.8,1.8 v -1.8 l 1.8,-3.5 m 1.8,1.8 M 360.6,282.8 m -1.8,-1.8 l -1.8,-1.8 h 1.8 l 3.5,1.8 l 1.8,-1.8 v 1.8 l -1.8,3.5 l 1.8,1.8 h -1.8 l -3.5,-1.8 l -1.8,1.8 v -1.8 l 1.8,-3.5 m 1.8,1.8 M 369.5,271.0 m -1.8,-1.8 l -1.8,-1.8 h 1.8 l 3.5,1.8 l 1.8,-1.8 v 1.8 l -1.8,3.5 l 1.8,1.8 h -1.8 l -3.5,-1.8 l -1.8,1.8 v -1.8 l 1.8,-3.5 m 1.8,1.8 M 378.3,259.5 m -1.8,-1.8 l -1.8,-1.8 h 1.8 l 3.5,1.8 l 1.8,-1.8 v 1.8 l -1.8,3.5 l 1.8,1.8 h -1.8 l -3.5,-1.8 l -1.8,1.8 v -1.8 l 1.8,-3.5 m 1.8,1.8 M 387.2,248.0 m -1.8,-1.8 l -1.8,-1.8 h 1.8 l 3.5,1.8 l 1.8,-1.8 v 1.8 l -1.8,3.5 l 1.8,1.8 h -1.8 l -3.5,-1.8 l -1.8,1.8 v -1.8 l 1.8,-3.5 m 1.8,1.8 M 396.0,236.5 m -1.8,-1.8 l -1.8,-1.8 h 1.8 l 3.5,1.8 l 1.8,-1.8 v 1.8 l -1.8,3.5 l 1.8,1.8 h -1.8 l -3.5,-1.8 l -1.8,1.8 v -1.8 l 1.8,-3.5 m 1.8,1.8 M 404.9,224.7 m -1.8,-1.8 l -1.8,-1.8 h 1.8 l 3.5,1.8 l 1.8,-1.8 v 1.8 l -1.8,3.5 l 1.8,1.8 h -1.8 l -3.5,-1.8 l -1.8,1.8 v -1.8 l 1.8,-3.5 m 1.8,1.8 M 413.7,212.5 m -1.8,-1.8 l -1.8,-1.8 h 1.8 l 3.5,1.8 l 1.8,-1.8 v 1.8 l -1.8,3.5 l 1.8,1.8 h -1.8 l -3.5,-1.8 l -1.8,1.8 v -1.8 l 1.8,-3.5 m 1.8,1.8 M 422.5,199.6 m -1.8,-1.8 l -1.8,-1.8 h 1.8 l 3.5,1.8 l 1.8,-1.8 v 1.8 l -1.8,3.5 l 1.8,1.8 h -1.8 l -3.5,-1.8 l -1.8,1.8 v -1.8 l 1.8,-3.5 m 1.8,1.8 M 431.4,185.6 m -1.8,-1.8 l -1.8,-1.8 h 1.8 l 3.5,1.8 l 1.8,-1.8 v 1.8 l -1.8,3.5 l 1.8,1.8 h -1.8 l -3.5,-1.8 l -1.8,1.8 v -1.8 l 1.8,-3.5 m 1.8,1.8 M 440.2,170.4 m -1.8,-1.8 l -1.8,-1.8 h 1.8 l 3.5,1.8 l 1.8,-1.8 v 1.8 l -1.8,3.5 l 1.8,1.8 h -1.8 l -3.5,-1.8 l -1.8,1.8 v -1.8 l 1.8,-3.5 m 1.8,1.8 M 449.1,153.4 m -1.8,-1.8 l -1.8,-1.8 h 1.8 l 3.5,1.8 l 1.8,-1.8 v 1.8 l -1.8,3.5 l 1.8,1.8 h -1.8 l -3.5,-1.8 l -1.8,1.8 v -1.8 l 1.8,-3.5 m 1.8,1.8 M 453.5,144.0 m -1.8,-1.8 l -1.8,-1.8 h 1.8 l 3.5,1.8 l 1.8,-1.8 v 1.8 l -1.8,3.5 l 1.8,1.8 h -1.8 l -3.5,-1.8 l -1.8,1.8 v -1.8 l 1.8,-3.5 m 1.8,1.8 M 457.9,133.9 m -1.8,-1.8 l -1.8,-1.8 h 1.8 l 3.5,1.8 l 1.8,-1.8 v 1.8 l -1.8,3.5 l 1.8,1.8 h -1.8 l -3.5,-1.8 l -1.8,1.8 v -1.8 l 1.8,-3.5 m 1.8,1.8 M 462.3,122.9 m -1.8,-1.8 l -1.8,-1.8 h 1.8 l 3.5,1.8 l 1.8,-1.8 v 1.8 l -1.8,3.5 l 1.8,1.8 h -1.8 l -3.5,-1.8 l -1.8,1.8 v -1.8 l 1.8,-3.5 m 1.8,1.8 M 466.7,111.0 m -1.8,-1.8 l -1.8,-1.8 h 1.8 l 3.5,1.8 l 1.8,-1.8 v 1.8 l -1.8,3.5 l 1.8,1.8 h -1.8 l -3.5,-1.8 l -1.8,1.8 v -1.8 l 1.8,-3.5 m 1.8,1.8 M 471.2,97.8 m -1.8,-1.8 l -1.8,-1.8 h 1.8 l 3.5,1.8 l 1.8,-1.8 v 1.8 l -1.8,3.5 l 1.8,1.8 h -1.8 l -3.5,-1.8 l -1.8,1.8 v -1.8 l 1.8,-3.5 m 1.8,1.8 M 475.6,83.2 m -1.8,-1.8 l -1.8,-1.8 h 1.8 l 3.5,1.8 l 1.8,-1.8 v 1.8 l -1.8,3.5 l 1.8,1.8 h -1.8 l -3.5,-1.8 l -1.8,1.8 v -1.8 l 1.8,-3.5 m 1.8,1.8 M 480.0,66.9 m -1.8,-1.8 l -1.8,-1.8 h 1.8 l 3.5,1.8 l 1.8,-1.8 v 1.8 l -1.8,3.5 l 1.8,1.8 h -1.8 l -3.5,-1.8 l -1.8,1.8 v -1.8 l 1.8,-3.5 m 1.8,1.8 M 484.4,48.4 m -1.8,-1.8 l -1.8,-1.8 h 1.8 l 3.5,1.8 l 1.8,-1.8 v 1.8 l -1.8,3.5 l 1.8,1.8 h -1.8 l -3.5,-1.8 l -1.8,1.8 v -1.8 l 1.8,-3.5 m 1.8,1.8 M 488.8,27.1 m -1.8,-1.8 l -1.8,-1.8 h 1.8 l 3.5,1.8 l 1.8,-1.8 v 1.8 l -1.8,3.5 l 1.8,1.8 h -1.8 l -3.5,-1.8 l -1.8,1.8 v -1.8 l 1.8,-3.5 m 1.8,1.8 M 493.3,2.4 m -1.8,-1.8 l -1.8,-1.8 h 1.8 l 3.5,1.8 l 1.8,-1.8 v 1.8 l -1.8,3.5 l 1.8,1.8 h -1.8 l -3.5,-1.8 l -1.8,1.8 v -1.8 l 1.8,-3.5 m 1.8,1.8 M 497.7,-26.8 m -1.8,-1.8 l -1.8,-1.8 h 1.8 l 3.5,1.8 l 1.8,-1.8 v 1.8 l -1.8,3.5 l 1.8,1.8 h -1.8 l -3.5,-1.8 l -1.8,1.8 v -1.8 l 1.8,-3.5 m 1.8,1.8 M 502.1,-62.1 m -1.8,-1.8 l -1.8,-1.8 h 1.8 l 3.5,1.8 l 1.8,-1.8 v 1.8 l -1.8,3.5 l 1.8,1.8 h -1.8 l -3.5,-1.8 l -1.8,1.8 v -1.8 l 1.8,-3.5 m 1.8,1.8 M 506.5,-105.7 m -1.8,-1.8 l -1.8,-1.8 h 1.8 l 3.5,1.8 l 1.8,-1.8 v 1.8 l -1.8,3.5 l 1.8,1.8 h -1.8 l -3.5,-1.8 l -1.8,1.8 v -1.8 l 1.8,-3.5 m 1.8,1.8 M 510.9,-161.2 m -1.8,-1.8 l -1.8,-1.8 h 1.8 l 3.5,1.8 l 1.8,-1.8 v 1.8 l -1.8,3.5 l 1.8,1.8 h -1.8 l -3.5,-1.8 l -1.8,1.8 v -1.8 l 1.8,-3.5 m 1.8,1.8 M 515.4,-234.5 m -1.8,-1.8 l -1.8,-1.8 h 1.8 l 3.5,1.8 l 1.8,-1.8 v 1.8 l -1.8,3.5 l 1.8,1.8 h -1.8 l -3.5,-1.8 l -1.8,1.8 v -1.8 l 1.8,-3.5 m 1.8,1.8 M 564.0,843.9 m -1.8,-1.8 l -1.8,-1.8 h 1.8 l 3.5,1.8 l 1.8,-1.8 v 1.8 l -1.8,3.5 l 1.8,1.8 h -1.8 l -3.5,-1.8 l -1.8,1.8 v -1.8 l 1.8,-3.5 m 1.8,1.8 M 568.4,742.0 m -1.8,-1.8 l -1.8,-1.8 h 1.8 l 3.5,1.8 l 1.8,-1.8 v 1.8 l -1.8,3.5 l 1.8,1.8 h -1.8 l -3.5,-1.8 l -1.8,1.8 v -1.8 l 1.8,-3.5 m 1.8,1.8 M 572.8,668.7 m -1.8,-1.8 l -1.8,-1.8 h 1.8 l 3.5,1.8 l 1.8,-1.8 v 1.8 l -1.8,3.5 l 1.8,1.8 h -1.8 l -3.5,-1.8 l -1.8,1.8 v -1.8 l 1.8,-3.5 m 1.8,1.8 M 577.2,613.2 m -1.8,-1.8 l -1.8,-1.8 h 1.8 l 3.5,1.8 l 1.8,-1.8 v 1.8 l -1.8,3.5 l 1.8,1.8 h -1.8 l -3.5,-1.8 l -1.8,1.8 v -1.8 l 1.8,-3.5 m 1.8,1.8 M 581.7,569.6 m -1.8,-1.8 l -1.8,-1.8 h 1.8 l 3.5,1.8 l 1.8,-1.8 v 1.8 l -1.8,3.5 l 1.8,1.8 h -1.8 l -3.5,-1.8 l -1.8,1.8 v -1.8 l 1.8,-3.5 m 1.8,1.8 M 586.1,534.3 m -1.8,-1.8 l -1.8,-1.8 h 1.8 l 3.5,1.8 l 1.8,-1.8 v 1.8 l -1.8,3.5 l 1.8,1.8 h -1.8 l -3.5,-1.8 l -1.8,1.8 v -1.8 l 1.8,-3.5 m 1.8,1.8 M 590.5,505.1 m -1.8,-1.8 l -1.8,-1.8 h 1.8 l 3.5,1.8 l 1.8,-1.8 v 1.8 l -1.8,3.5 l 1.8,1.8 h -1.8 l -3.5,-1.8 l -1.8,1.8 v -1.8 l 1.8,-3.5 m 1.8,1.8 M 594.9,480.4 m -1.8,-1.8 l -1.8,-1.8 h 1.8 l 3.5,1.8 l 1.8,-1.8 v 1.8 l -1.8,3.5 l 1.8,1.8 h -1.8 l -3.5,-1.8 l -1.8,1.8 v -1.8 l 1.8,-3.5 m 1.8,1.8 M 599.3,459.1 m -1.8,-1.8 l -1.8,-1.8 h 1.8 l 3.5,1.8 l 1.8,-1.8 v 1.8 l -1.8,3.5 l 1.8,1.8 h -1.8 l -3.5,-1.8 l -1.8,1.8 v -1.8 l 1.8,-3.5 m 1.8,1.8 M 603.8,440.6 m -1.8,-1.8 l -1.8,-1.8 h 1.8 l 3.5,1.8 l 1.8,-1.8 v 1.8 l -1.8,3.5 l 1.8,1.8 h -1.8 l -3.5,-1.8 l -1.8,1.8 v -1.8 l 1.8,-3.5 m 1.8,1.8 M 608.2,424.3 m -1.8,-1.8 l -1.8,-1.8 h 1.8 l 3.5,1.8 l 1.8,-1.8 v 1.8 l -1.8,3.5 l 1.8,1.8 h -1.8 l -3.5,-1.8 l -1.8,1.8 v -1.8 l 1.8,-3.5 m 1.8,1.8 M 612.6,409.7 m -1.8,-1.8 l -1.8,-1.8 h 1.8 l 3.5,1.8 l 1.8,-1.8 v 1.8 l -1.8,3.5 l 1.8,1.8 h -1.8 l -3.5,-1.8 l -1.8,1.8 v -1.8 l 1.8,-3.5 m 1.8,1.8 M 617.0,396.5 m -1.8,-1.8 l -1.8,-1.8 h 1.8 l 3.5,1.8 l 1.8,-1.8 v 1.8 l -1.8,3.5 l 1.8,1.8 h -1.8 l -3.5,-1.8 l -1.8,1.8 v -1.8 l 1.8,-3.5 m 1.8,1.8 M 621.4,384.6 m -1.8,-1.8 l -1.8,-1.8 h 1.8 l 3.5,1.8 l 1.8,-1.8 v 1.8 l -1.8,3.5 l 1.8,1.8 h -1.8 l -3.5,-1.8 l -1.8,1.8 v -1.8 l 1.8,-3.5 m 1.8,1.8 M 625.9,373.6 m -1.8,-1.8 l -1.8,-1.8 h 1.8 l 3.5,1.8 l 1.8,-1.8 v 1.8 l -1.8,3.5 l 1.8,1.8 h -1.8 l -3.5,-1.8 l -1.8,1.8 v -1.8 l 1.8,-3.5 m 1.8,1.8 M 630.3,363.5 m -1.8,-1.8 l -1.8,-1.8 h 1.8 l 3.5,1.8 l 1.8,-1.8 v 1.8 l -1.8,3.5 l 1.8,1.8 h -1.8 l -3.5,-1.8 l -1.8,1.8 v -1.8 l 1.8,-3.5 m 1.8,1.8 M 634.7,354.1 m -1.8,-1.8 l -1.8,-1.8 h 1.8 l 3.5,1.8 l 1.8,-1.8 v 1.8 l -1.8,3.5 l 1.8,1.8 h -1.8 l -3.5,-1.8 l -1.8,1.8 v -1.8 l 1.8,-3.5 m 1.8,1.8 M 643.5,337.1 m -1.8,-1.8 l -1.8,-1.8 h 1.8 l 3.5,1.8 l 1.8,-1.8 v 1.8 l -1.8,3.5 l 1.8,1.8 h -1.8 l -3.5,-1.8 l -1.8,1.8 v -1.8 l 1.8,-3.5 m 1.8,1.8 M 652.4,321.9 m -1.8,-1.8 l -1.8,-1.8 h 1.8 l 3.5,1.8 l 1.8,-1.8 v 1.8 l -1.8,3.5 l 1.8,1.8 h -1.8 l -3.5,-1.8 l -1.8,1.8 v -1.8 l 1.8,-3.5 m 1.8,1.8 M 661.2,307.9 m -1.8,-1.8 l -1.8,-1.8 h 1.8 l 3.5,1.8 l 1.8,-1.8 v 1.8 l -1.8,3.5 l 1.8,1.8 h -1.8 l -3.5,-1.8 l -1.8,1.8 v -1.8 l 1.8,-3.5 m 1.8,1.8 M 670.1,295.0 m -1.8,-1.8 l -1.8,-1.8 h 1.8 l 3.5,1.8 l 1.8,-1.8 v 1.8 l -1.8,3.5 l 1.8,1.8 h -1.8 l -3.5,-1.8 l -1.8,1.8 v -1.8 l 1.8,-3.5 m 1.8,1.8 M 678.9,282.8 m -1.8,-1.8 l -1.8,-1.8 h 1.8 l 3.5,1.8 l 1.8,-1.8 v 1.8 l -1.8,3.5 l 1.8,1.8 h -1.8 l -3.5,-1.8 l -1.8,1.8 v -1.8 l 1.8,-3.5 m 1.8,1.8 M 687.7,271.0 m -1.8,-1.8 l -1.8,-1.8 h 1.8 l 3.5,1.8 l 1.8,-1.8 v 1.8 l -1.8,3.5 l 1.8,1.8 h -1.8 l -3.5,-1.8 l -1.8,1.8 v -1.8 l 1.8,-3.5 m 1.8,1.8 M 696.6,259.5 m -1.8,-1.8 l -1.8,-1.8 h 1.8 l 3.5,1.8 l 1.8,-1.8 v 1.8 l -1.8,3.5 l 1.8,1.8 h -1.8 l -3.5,-1.8 l -1.8,1.8 v -1.8 l 1.8,-3.5 m 1.8,1.8 " />
<path class="plot06" d=" M 64.5,253.8 L 68.9,253.5 L 73.3,252.8 L 77.8,251.5 L 82.2,249.8 L 86.6,247.6 L 91.0,245.0 L 95.4,241.9 L 99.9,238.4 L 104.3,234.6 L 108.7,230.4 L 113.1,225.9 L 117.5,221.0 L 122.0,216.0 L 126.4,210.7 L 130.8,205.3 L 135.2,199.7 L 139.6,194.0 L 144.1,188.3 L 148.5,182.6 L 152.9,177.0 L 157.3,171.4 L 161.7,166.0 L 166.2,160.7 L 170.6,155.6 L 175.0,150.8 L 179.4,146.3 L 183.8,142.1 L 188.3,138.2 L 192.7,134.7 L 197.1,131.7 L 201.5,129.0 L 205.9,126.9 L 210.4,125.1 L 214.8,123.9 L 219.2,123.2 L 223.6,122.9 L 228.0,123.2 L 232.5,123.9 L 236.9,125.1 L 241.3,126.9 L 245.7,129.0 L 250.1,131.7 L 254.6,134.7 L 259.0,138.2 L 263.4,142.1 L 267.8,146.3 L 272.2,150.8 L 276.7,155.6 L 281.1,160.7 L 285.5,166.0 L 289.9,171.4 L 294.3,177.0 L 298.8,182.6 L 303.2,188.3 L 307.6,194.0 L 312.0,199.7 L 316.4,205.3 L 320.9,210.7 L 325.3,216.0 L 329.7,221.0 L 334.1,225.9 L 338.5,230.4 L 343.0,234.6 L 347.4,238.4 L 351.8,241.9 L 356.2,245.0 L 360.6,247.6 L 365.1,249.8 L 369.5,251.5 L 373.9,252.8 L 378.3,253.5 L 382.8,253.8 L 387.2,253.5 L 391.6,252.8 L 396.0,251.5 L 400.4,249.8 L 404.9,247.6 L 409.3,245.0 L 413.7,241.9 L 418.1,238.4 L 422.5,234.6 L 427.0,230.4 L 431.4,225.9 L 435.8,221.0 L 440.2,216.0 L 444.6,210.7 L 449.1,205.3 L 453.5,199.7 L 457.9,194.0 L 462.3,188.3 L 466.7,182.6 L 471.2,177.0 L 475.6,171.4 L 480.0,166.0 L 484.4,160.7 L 488.8,155.6 L 493.3,150.8 L 497.7,146.3 L 502.1,142.1 L 506.5,138.2 L 510.9,134.7 L 515.4,131.7 L 519.8,129.0 L 524.2,126.9 L 528.6,125.1 L 533.0,123.9 L 537.5,123.2 L 541.9,122.9 L 546.3,123.2 L 550.7,123.9 L 555.1,125.1 L 559.6,126.9 L 564.0,129.0 L 568.4,131.7 L 572.8,134.7 L 577.2,138.2 L 581.7,142.1 L 586.1,146.3 L 590.5,150.8 L 594.9,155.6 L 599.3,160.7 L 603.8,166.0 L 608.2,171.4 L 612.6,177.0 L 617.0,182.6 L 621.4,188.3 L 625.9,194.0 L 630.3,199.7 L 634.7,205.3 L 639.1,210.7 L 643.5,216.0 L 648.0,221.0 L 652.4,225.9 L 656.8,230.4 L 661.2,234.6 L 665.6,238.4 L 670.1,241.9 L 674.5,245.0 L 678.9,247.6 L 683.3,249.8 L 687.7,251.5 L 692.2,252.8 L 696.6,253.5 L 701.0,253.8 M 64.5,253.8 " />
<path class="plot07" d=" M 68.9,-300.0 L 73.3,-300.0 M 82.2,-300.0 M 86.6,-300.0 L 91.0,-234.5 L 95.4,-161.2 L 99.9,-105.7 L 104.3,-62.1 L 108.7,-26.8 L 113.1,2.4 L 117.5,27.1 L 122.0,48.4 L 126.4,66.9 L 130.8,83.2 L 135.2,97.8 L 139.6,111.0 L 144.1,122.9 L 148.5,133.9 L 152.9,144.0 L 157.3,153.4 L 161.7,162.1 L 166.2,170.4 L 170.6,178.2 L 175.0,185.6 L 179.4,192.7 L 183.8,199.6 L 188.3,206.1 L 192.7,212.5 L 197.1,218.7 L 201.5,224.7 L 205.9,230.7 L 210.4,236.5 L 214.8,242.3 L 219.2,248.0 L 223.6,253.8 L 228.0,259.5 L 232.5,265.2 L 236.9,271.0 L 241.3,276.8 L 245.7,282.8 L 250.1,288.8 L 254.6,295.0 L 259.0,301.4 L 263.4,307.9 L 267.8,314.8 L 272.2,321.9 L 276.7,329.3 L 281.1,337.1 L 285.5,345.4 L 289.9,354.1 L 294.3,363.5 L 298.8,373.6 L 303.2,384.6 L 307.6,396.5 L 312.0,409.7 L 316.4,424.3 L 320.9,440.6 L 325.3,459.1 L 329.7,480.4 L 334.1,505.1 L 338.5,534.3 L 343.0,569.6 L 347.4,613.2 L 351.8,668.7 L 356.2,742.0 L 360.6,843.9 L 365.1,900.0 M 373.9,900.0 M 378.3,900.0 M 382.8,900.0 M 387.2,-300.0 M 391.6,-300.0 M 396.0,-300.0 M 400.4,-300.0 M 404.9,-300.0 L 409.3,-234.5 L 413.7,-161.2 L 418.1,-105.7 L 422.5,-62.1 L 427.0,-26.8 L 431.4,2.4 L 435.8,27.1 L 440.2,48.4 L 444.6,66.9 L 449.1,83.2 L 453.5,97.8 L 457.9,111.0 L 462.3,122.9 L 466.7,133.9 L 471.2,144.0 L 475.6,153.4 L 480.0,162.1 L 484.4,170.4 L 488.8,178.2 L 493.3,185.6 L 497.7,192.7 L 502.1,199.6 L 506.5,206.1 L 510.9,212.5 L 515.4,218.7 L 519.8,224.7 L 524.2,230.7 L 528.6,236.5 L 533.0,242.3 L 537.5,248.0 L 541.9,253.7 L 546.3,259.5 L 550.7,265.2 L 555.1,271.0 L 559.6,276.8 L 564.0,282.8 L 568.4,288.8 L 572.8,295.0 L 577.2,301.4 L 581.7,307.9 L 586.1,314.8 L 590.5,321.9 L 594.9,329.3 L 599.3,337.1 L 603.8,345.4 L 608.2,354.1 L 612.6,363.5 L 617.0,373.6 L 621.4,384.6 L 625.9,396.5 L 630.3,409.7 L 634.7,424.3 L 639.1,440.6 L 643.5,459.1 L 648.0,480.4 L 652.4,505.1 L 656.8,534.3 L 661.2,569.6 L 665.6,613.2 L 670.1,668.7 L 674.5,742.0 L 678.9,843.9 L 683.3,900.0 M 692.2,900.0 M 696.6,900.0 M 701.0,900.0 M 68.9,-300.0 " />
</g>
<text x="382.75" y="492.50" class="xtitle" >Angle</text>
<text x="22.50" y="253.75" class="ytitle" transform="matrix(0.00,-1.00,1.00,0.00,-231.25,276.25)">Function Value</text>
<rect x="708.0" y="129.0" width="84.5" height="185.2" rx="6.0" class="legend" />
<text x="721.00" y="148.50" class="legend headline" >Legends:</text>
<text x="727.50" y="177.75" class="plot04 legend" >cos(n)</text>
<path class="plot04 legend" d=" M 753.2,187.5 m -2.1,0.0 l -1.4,-0.7 v 1.4 l 1.4,-0.7 m 2.1,-2.1 l -0.7,-1.4 h 1.4 l -0.7,1.4 m 2.1,2.1 l 1.4,-0.7 v 1.4 l -1.4,-0.7 m -2.1,2.1 l -0.7,1.4 h 1.4 l -0.7,-1.4 m 0.0,-1.4 " />
<text x="727.50" y="216.75" class="plot05 legend" >tan(n)</text>
<path class="plot05 legend" d=" M 727.5,226.5 H 756.8 m -1.8,-1.8 l -1.8,-1.8 h 1.8 l 3.5,1.8 l 1.8,-1.8 v 1.8 l -1.8,3.5 l 1.8,1.8 h -1.8 l -3.5,-1.8 l -1.8,1.8 v -1.8 l 1.8,-3.5 m 1.8,1.8 H 786.0 " />
<text x="727.50" y="255.75" class="plot06 legend" >sin²(n)</text>
<path class="plot06 legend" d=" M 727.5,265.5 H 786.0 " />
<text x="727.50" y="294.75" class="plot07 legend" >cot(n)</text>
<text x="400.00" y="542.50" class="subtitle" >Data by numbers®</text>
<text x="400.00" y="523.75" class="title" >Trigonometric Functions</text>
</svg>
