<?xml version="1.0" encoding="UTF-8" standalone="no"?>
<svg id="layout" width="800" height="600" xmlns="http://www.w3.org/2000/svg">
<!--
    Created by csv2: 5.4.0-17-g31c4d6b (main:875) https://github.com/msalmonse/csv2.git
  -->
<defs>
<clipPath id="plotable">
<rect x="58.0" y="51.0" width="701.0" height="455.5" rx="0.0"  />
</clipPath>
</defs>
<style>
svg#layout { background-color: #ffedcc }
#layout path.lightBG { fill: rgba(220,220,220,0.667) }
#layout path.midBG { fill: rgba(120,120,120,0.667) }
#layout path.darkBG { fill: rgba(35,35,35,0.667) }
#layout g.plotarea { opacity: 1.0 }
#layout g.plotarea path:hover { stroke-width: 5.0 }
#layout path { stroke-width: 2.0; fill: none; stroke-linecap: round }
#layout path.black { stroke: black }
#layout path.black.fill { fill: black; stroke: black }
#layout path.axes { stroke: rgba(0,0,0,1.000) }
#layout path.xlabel, #layout path.ylabel { stroke: rgba(0,0,0,0.400); stroke-width: 1 }
#layout path.ylabel { stroke: rgba(0,0,0,0.400); stroke-width: 1 }
#layout text { font-family: Helvetica }
#layout text.draft { fill: none; stroke: rgba(0,0,0,1.000); font-family: sans-serif; font-size: 200.0px; text-anchor: middle; dominant-baseline: middle }
#layout text.legend { fill: rgba(0,0,0,1.000); stroke: rgba(0,0,0,1.000);  font-size: 13.0px; text-anchor: start;  }
#layout text.legendheadline { fill: ; stroke: ;  font-size: 16.2px; text-anchor: start;  }
#layout text.pielabel { fill: rgba(0,0,0,1.000); stroke: rgba(0,0,0,1.000);  font-size: 10.0px; text-anchor: ;  }
#layout text.pielabel.start { fill: rgba(0,0,0,1.000); stroke: rgba(0,0,0,1.000);  font-size: 10.0px; text-anchor: start;  }
#layout text.pielabel.middle { fill: rgba(0,0,0,1.000); stroke: rgba(0,0,0,1.000);  font-size: 10.0px; text-anchor: middle;  }
#layout text.pielabel.end { fill: rgba(0,0,0,1.000); stroke: rgba(0,0,0,1.000);  font-size: 10.0px; text-anchor: end;  }
#layout text.pielegend { fill: rgba(0,0,0,1.000); stroke: rgba(0,0,0,1.000);  font-size: 20.0px; text-anchor: middle;  }
#layout text.piesublegend { fill: rgba(0,0,0,1.000); stroke: rgba(0,0,0,1.000);  font-size: 12.5px; text-anchor: middle;  }
#layout text.subtitle { fill: rgba(0,0,0,1.000); stroke: rgba(0,0,0,1.000);  font-size: 15.0px; text-anchor: middle;  }
#layout text.title { fill: rgba(0,0,0,1.000); stroke: rgba(0,0,0,1.000);  font-size: 25.0px; text-anchor: middle;  }
#layout text.xlabel { fill: rgba(0,0,0,1.000); stroke: rgba(0,0,0,1.000);  font-size: 10.0px; text-anchor: middle;  }
#layout text.xtags { fill: rgba(0,0,0,1.000); stroke: rgba(0,0,0,1.000);  font-size: 12.0px; text-anchor: middle;  }
#layout text.xtitle { fill: rgba(0,0,0,1.000); stroke: rgba(0,0,0,1.000);  font-size: 12.0px; text-anchor: middle;  }
#layout text.ylabel { fill: rgba(0,0,0,1.000); stroke: rgba(0,0,0,1.000);  font-size: 10.0px; text-anchor: end; dominant-baseline: middle }
#layout text.ytitle { fill: rgba(0,0,0,1.000); stroke: rgba(0,0,0,1.000);  font-size: 12.0px; text-anchor: start;  }
#layout path.plot03 { stroke: #ff0000 }
#layout text.plot03, #layout rect.plot03 { font-size: 13.0px; fill: #ff0000; stroke: #ff0000 }
#layout path.plot03.fill { stroke: none; fill: #ff0000; fill-opacity: 0.75 }
#layout path.plot04 { stroke: #008000 }
#layout text.plot04, #layout rect.plot04 { font-size: 13.0px; fill: #008000; stroke: #008000 }
#layout path.plot04.fill { stroke: none; fill: #008000; fill-opacity: 0.75 }
#layout path.plot05 { stroke: #ff00ff }
#layout text.plot05, #layout rect.plot05 { font-size: 13.0px; fill: #ff00ff; stroke: #ff00ff }
#layout path.plot05.fill { stroke: none; fill: #ff00ff; fill-opacity: 0.75 }
#layout path.plot06 { stroke: #0000ff }
#layout text.plot06, #layout rect.plot06 { font-size: 13.0px; fill: #0000ff; stroke: #0000ff }
#layout path.plot06.fill { stroke: none; fill: #0000ff; fill-opacity: 0.75 }
#layout path.plot07 { stroke: #dc143c }
#layout text.plot07, #layout rect.plot07 { font-size: 13.0px; fill: #dc143c; stroke: #dc143c }
#layout path.plot07.fill { stroke: none; fill: #dc143c; fill-opacity: 0.75 }
#layout path.plot08 { stroke: #f4a460 }
#layout text.plot08, #layout rect.plot08 { font-size: 13.0px; fill: #f4a460; stroke: #f4a460 }
#layout path.plot08.fill { stroke: none; fill: #f4a460; fill-opacity: 0.75 }
#layout path.legend { stroke: rgba(0,0,0,0.400); stroke-width: 1.5 }
</style>
<style>
path.layout { stroke: red; fill: none; stroke-width: 3px }
text.layout { stroke: red; fill: red; font-size: 20px; text-anchor: middle }</style>

<image x="728.00" y="58.00" width="64.00" height="64.00" href="../data/logo.svg" class="logo" preserveAspectRatio="xMaxYMin" /><text x="117.42" y="461.00" class="xlabel" >30</text>
<text x="169.83" y="461.00" class="xlabel" >60</text>
<text x="222.25" y="461.00" class="xlabel" >90</text>
<text x="274.67" y="461.00" class="xlabel" >120</text>
<text x="327.08" y="461.00" class="xlabel" >150</text>
<text x="379.50" y="461.00" class="xlabel" >180</text>
<text x="431.92" y="461.00" class="xlabel" >210</text>
<text x="484.33" y="461.00" class="xlabel" >240</text>
<text x="536.75" y="461.00" class="xlabel" >270</text>
<text x="589.17" y="461.00" class="xlabel" >300</text>
<text x="641.58" y="461.00" class="xlabel" >330</text>
<text x="694.00" y="461.00" class="xlabel" >360</text>
<path class="xlabel" d=" M 117.4,448.5 V 58.0 M 169.8,448.5 V 58.0 M 222.2,448.5 V 58.0 M 274.7,448.5 V 58.0 M 327.1,448.5 V 58.0 M 379.5,448.5 V 58.0 M 431.9,448.5 V 58.0 M 484.3,448.5 V 58.0 M 536.8,448.5 V 58.0 M 589.2,448.5 V 58.0 M 641.6,448.5 V 58.0 M 694.0,448.5 V 58.0 " />
<text x="63.00" y="220.71" class="ylabel" >0.25</text>
<text x="63.00" y="285.79" class="ylabel" >-0.25</text>
<text x="63.00" y="188.17" class="ylabel" >0.50</text>
<text x="63.00" y="318.33" class="ylabel" >-0.50</text>
<text x="63.00" y="155.62" class="ylabel" >0.75</text>
<text x="63.00" y="350.88" class="ylabel" >-0.75</text>
<text x="63.00" y="123.08" class="ylabel" >1.00</text>
<text x="63.00" y="383.42" class="ylabel" >-1.00</text>
<text x="63.00" y="90.54" class="ylabel" >1.25</text>
<text x="63.00" y="415.96" class="ylabel" >-1.25</text>
<text x="63.00" y="58.00" class="ylabel" >1.50</text>
<text x="63.00" y="448.50" class="ylabel" >-1.50</text>
<path class="ylabel" d=" M 65.0,220.7 H 694.0 M 65.0,285.8 H 694.0 M 65.0,188.2 H 694.0 M 65.0,318.3 H 694.0 M 65.0,155.6 H 694.0 M 65.0,350.9 H 694.0 M 65.0,123.1 H 694.0 M 65.0,383.4 H 694.0 M 65.0,90.5 H 694.0 M 65.0,416.0 H 694.0 M 65.0,58.0 H 694.0 M 65.0,448.5 H 694.0 " />
<text x="65.00" y="476.00" class="xtags" >0</text>
<text x="117.42" y="476.00" class="xtags" >π/6</text>
<text x="143.62" y="476.00" class="xtags" >π/4</text>
<text x="169.83" y="476.00" class="xtags" >π/3</text>
<text x="222.25" y="476.00" class="xtags" >π/2</text>
<text x="274.67" y="476.00" class="xtags" >2π/3</text>
<text x="327.08" y="476.00" class="xtags" >5π/6</text>
<text x="379.50" y="476.00" class="xtags" >π</text>
<text x="431.92" y="476.00" class="xtags" >7π/6</text>
<text x="484.33" y="476.00" class="xtags" >4π/3</text>
<text x="536.75" y="476.00" class="xtags" >3π/2</text>
<text x="589.17" y="476.00" class="xtags" >5π/3</text>
<text x="641.58" y="476.00" class="xtags" >11π/6</text>
<text x="694.00" y="476.00" class="xtags" >2π</text>
<path class="xtags" d=" M 65.0,464.0 V 58.0 M 117.4,464.0 V 58.0 M 143.6,464.0 V 58.0 M 169.8,464.0 V 58.0 M 222.2,464.0 V 58.0 M 274.7,464.0 V 58.0 M 327.1,464.0 V 58.0 M 379.5,464.0 V 58.0 M 431.9,464.0 V 58.0 M 484.3,464.0 V 58.0 M 536.8,464.0 V 58.0 M 589.2,464.0 V 58.0 M 641.6,464.0 V 58.0 M 694.0,464.0 V 58.0 " />
<path class="axes" d=" M 65.0,253.2 H 694.0 M 65.0,448.5 V 58.0 " />
<g clip-path="url(#plotable)" class="plotarea">
<path class="plot03" d=" M 65.0,253.2 L 69.4,247.6 L 73.7,241.9 L 78.1,236.3 L 82.5,230.6 L 86.8,225.1 L 91.2,219.6 L 95.6,214.1 L 99.9,208.7 L 104.3,203.4 L 108.7,198.2 L 113.0,193.1 L 117.4,188.2 L 121.8,183.3 L 126.2,178.6 L 130.5,174.0 L 134.9,169.6 L 139.3,165.3 L 143.6,161.2 L 148.0,157.3 L 152.4,153.5 L 156.7,150.0 L 161.1,146.6 L 165.5,143.5 L 169.8,140.5 L 174.2,137.8 L 178.6,135.3 L 182.9,133.0 L 187.3,130.9 L 191.7,129.1 L 196.0,127.5 L 200.4,126.2 L 204.8,125.1 L 209.1,124.2 L 213.5,123.6 L 217.9,123.2 L 222.2,123.1 L 226.6,123.2 L 231.0,123.6 L 235.4,124.2 L 239.7,125.1 L 244.1,126.2 L 248.5,127.5 L 252.8,129.1 L 257.2,130.9 L 261.6,133.0 L 265.9,135.3 L 270.3,137.8 L 274.7,140.5 L 279.0,143.5 L 283.4,146.6 L 287.8,150.0 L 292.1,153.5 L 296.5,157.3 L 300.9,161.2 L 305.2,165.3 L 309.6,169.6 L 314.0,174.0 L 318.3,178.6 L 322.7,183.3 L 327.1,188.2 L 331.5,193.1 L 335.8,198.2 L 340.2,203.4 L 344.6,208.7 L 348.9,214.1 L 353.3,219.6 L 357.7,225.1 L 362.0,230.6 L 366.4,236.3 L 370.8,241.9 L 375.1,247.6 L 379.5,253.2 L 383.9,258.9 L 388.2,264.6 L 392.6,270.2 L 397.0,275.9 L 401.3,281.4 L 405.7,286.9 L 410.1,292.4 L 414.4,297.8 L 418.8,303.1 L 423.2,308.3 L 427.5,313.4 L 431.9,318.3 L 436.3,323.2 L 440.7,327.9 L 445.0,332.5 L 449.4,336.9 L 453.8,341.2 L 458.1,345.3 L 462.5,349.2 L 466.9,353.0 L 471.2,356.5 L 475.6,359.9 L 480.0,363.0 L 484.3,366.0 L 488.7,368.7 L 493.1,371.2 L 497.4,373.5 L 501.8,375.6 L 506.2,377.4 L 510.5,379.0 L 514.9,380.3 L 519.3,381.4 L 523.6,382.3 L 528.0,382.9 L 532.4,383.3 L 536.8,383.4 L 541.1,383.3 L 545.5,382.9 L 549.9,382.3 L 554.2,381.4 L 558.6,380.3 L 563.0,379.0 L 567.3,377.4 L 571.7,375.6 L 576.1,373.5 L 580.4,371.2 L 584.8,368.7 L 589.2,366.0 L 593.5,363.0 L 597.9,359.9 L 602.3,356.5 L 606.6,353.0 L 611.0,349.2 L 615.4,345.3 L 619.7,341.2 L 624.1,336.9 L 628.5,332.5 L 632.8,327.9 L 637.2,323.2 L 641.6,318.3 L 646.0,313.4 L 650.3,308.3 L 654.7,303.1 L 659.1,297.8 L 663.4,292.4 L 667.8,286.9 L 672.2,281.4 L 676.5,275.9 L 680.9,270.2 L 685.3,264.6 L 689.6,258.9 L 694.0,253.3 " />
<path class="plot03" d="  " />
<path class="plot04" d=" M 65.0,123.1 L 69.4,123.2 L 73.7,123.6 L 78.1,124.2 L 82.5,125.1 L 86.8,126.2 L 91.2,127.5 L 95.6,129.1 L 99.9,130.9 L 104.3,133.0 L 108.7,135.3 L 113.0,137.8 L 117.4,140.5 L 121.8,143.5 L 126.2,146.6 L 130.5,150.0 L 134.9,153.5 L 139.3,157.3 L 143.6,161.2 L 148.0,165.3 L 152.4,169.6 L 156.7,174.0 L 161.1,178.6 L 165.5,183.3 L 169.8,188.2 L 174.2,193.1 L 178.6,198.2 L 182.9,203.4 L 187.3,208.7 L 191.7,214.1 L 196.0,219.6 L 200.4,225.1 L 204.8,230.6 L 209.1,236.3 L 213.5,241.9 L 217.9,247.6 L 222.2,253.2 L 226.6,258.9 L 231.0,264.6 L 235.4,270.2 L 239.7,275.9 L 244.1,281.4 L 248.5,286.9 L 252.8,292.4 L 257.2,297.8 L 261.6,303.1 L 265.9,308.3 L 270.3,313.4 L 274.7,318.3 L 279.0,323.2 L 283.4,327.9 L 287.8,332.5 L 292.1,336.9 L 296.5,341.2 L 300.9,345.3 L 305.2,349.2 L 309.6,353.0 L 314.0,356.5 L 318.3,359.9 L 322.7,363.0 L 327.1,366.0 L 331.5,368.7 L 335.8,371.2 L 340.2,373.5 L 344.6,375.6 L 348.9,377.4 L 353.3,379.0 L 357.7,380.3 L 362.0,381.4 L 366.4,382.3 L 370.8,382.9 L 375.1,383.3 L 379.5,383.4 L 383.9,383.3 L 388.2,382.9 L 392.6,382.3 L 397.0,381.4 L 401.3,380.3 L 405.7,379.0 L 410.1,377.4 L 414.4,375.6 L 418.8,373.5 L 423.2,371.2 L 427.5,368.7 L 431.9,366.0 L 436.3,363.0 L 440.7,359.9 L 445.0,356.5 L 449.4,353.0 L 453.8,349.2 L 458.1,345.3 L 462.5,341.2 L 466.9,336.9 L 471.2,332.5 L 475.6,327.9 L 480.0,323.2 L 484.3,318.3 L 488.7,313.4 L 493.1,308.3 L 497.4,303.1 L 501.8,297.8 L 506.2,292.4 L 510.5,286.9 L 514.9,281.4 L 519.3,275.9 L 523.6,270.2 L 528.0,264.6 L 532.4,258.9 L 536.8,253.3 L 541.1,247.6 L 545.5,241.9 L 549.9,236.3 L 554.2,230.6 L 558.6,225.1 L 563.0,219.6 L 567.3,214.1 L 571.7,208.7 L 576.1,203.4 L 580.4,198.2 L 584.8,193.1 L 589.2,188.2 L 593.5,183.3 L 597.9,178.6 L 602.3,174.0 L 606.6,169.6 L 611.0,165.3 L 615.4,161.2 L 619.7,157.3 L 624.1,153.5 L 628.5,150.0 L 632.8,146.6 L 637.2,143.5 L 641.6,140.5 L 646.0,137.8 L 650.3,135.3 L 654.7,133.0 L 659.1,130.9 L 663.4,129.1 L 667.8,127.5 L 672.2,126.2 L 676.5,125.1 L 680.9,124.2 L 685.3,123.6 L 689.6,123.2 L 694.0,123.1 " />
<path class="plot04" d="  " />
<path class="plot05" d=" M 65.0,253.2 L 69.4,247.6 L 73.7,241.9 L 78.1,236.1 L 82.5,230.3 L 86.8,224.4 L 91.2,218.4 L 95.6,212.2 L 99.9,205.9 L 104.3,199.3 L 108.7,192.6 L 113.0,185.5 L 117.4,178.1 L 121.8,170.3 L 126.2,162.1 L 130.5,153.4 L 134.9,144.0 L 139.3,134.0 L 143.6,123.1 L 148.0,111.2 L 152.4,98.1 L 156.7,83.6 L 161.1,67.4 L 165.5,48.9 L 169.8,27.8 L 174.2,3.2 L 178.6,-25.9 L 182.9,-61.0 L 187.3,-104.4 L 191.7,-159.6 L 196.0,-232.5 L 200.4,-300.0 L 204.8,-300.0 M 209.1,-300.0 M 213.5,-300.0 M 217.9,-300.0 M 222.2,-300.0 M 226.6,900.0 M 231.0,900.0 M 235.4,900.0 M 239.7,900.0 L 244.1,840.4 L 248.5,739.0 L 252.8,666.1 L 257.2,610.9 L 261.6,567.5 L 265.9,532.4 L 270.3,503.3 L 274.7,478.7 L 279.0,457.6 L 283.4,439.1 L 287.8,422.9 L 292.1,408.4 L 296.5,395.3 L 300.9,383.4 L 305.2,372.5 L 309.6,362.5 L 314.0,353.1 L 318.3,344.4 L 322.7,336.2 L 327.1,328.4 L 331.5,321.0 L 335.8,313.9 L 340.2,307.2 L 344.6,300.6 L 348.9,294.3 L 353.3,288.1 L 357.7,282.1 L 362.0,276.2 L 366.4,270.4 L 370.8,264.6 L 375.1,258.9 L 379.5,253.3 L 383.9,247.6 L 388.2,241.9 L 392.6,236.1 L 397.0,230.3 L 401.3,224.4 L 405.7,218.4 L 410.1,212.2 L 414.4,205.9 L 418.8,199.3 L 423.2,192.6 L 427.5,185.5 L 431.9,178.1 L 436.3,170.3 L 440.7,162.1 L 445.0,153.4 L 449.4,144.0 L 453.8,134.0 L 458.1,123.1 L 462.5,111.2 L 466.9,98.1 L 471.2,83.6 L 475.6,67.4 L 480.0,48.9 L 484.3,27.8 L 488.7,3.2 L 493.1,-25.9 L 497.4,-61.0 L 501.8,-104.4 L 506.2,-159.6 L 510.5,-232.5 L 514.9,-300.0 L 519.3,-300.0 M 523.6,-300.0 M 528.0,-300.0 M 532.4,-300.0 M 536.8,-300.0 M 541.1,900.0 M 545.5,900.0 M 549.9,900.0 M 554.2,900.0 L 558.6,840.4 L 563.0,739.0 L 567.3,666.1 L 571.7,610.9 L 576.1,567.5 L 580.4,532.4 L 584.8,503.3 L 589.2,478.7 L 593.5,457.6 L 597.9,439.1 L 602.3,422.9 L 606.6,408.4 L 611.0,395.3 L 615.4,383.4 L 619.7,372.5 L 624.1,362.5 L 628.5,353.1 L 632.8,344.4 L 637.2,336.2 L 641.6,328.4 L 646.0,321.0 L 650.3,313.9 L 654.7,307.2 L 659.1,300.6 L 663.4,294.3 L 667.8,288.1 L 672.2,282.1 L 676.5,276.2 L 680.9,270.4 L 685.3,264.6 L 689.6,258.9 L 694.0,253.3 " />
<path class="plot05" d="  " />
<path class="plot06" d=" M 65.0,253.2 L 69.4,253.0 L 73.7,252.3 L 78.1,251.0 L 82.5,249.3 L 86.8,247.2 L 91.2,244.5 L 95.6,241.5 L 99.9,238.0 L 104.3,234.2 L 108.7,230.0 L 113.0,225.5 L 117.4,220.7 L 121.8,215.7 L 126.2,210.4 L 130.5,205.0 L 134.9,199.5 L 139.3,193.8 L 143.6,188.2 L 148.0,182.5 L 152.4,176.9 L 156.7,171.3 L 161.1,165.9 L 165.5,160.7 L 169.8,155.6 L 174.2,150.8 L 178.6,146.3 L 182.9,142.1 L 187.3,138.3 L 191.7,134.9 L 196.0,131.8 L 200.4,129.2 L 204.8,127.0 L 209.1,125.3 L 213.5,124.1 L 217.9,123.3 L 222.2,123.1 L 226.6,123.3 L 231.0,124.1 L 235.4,125.3 L 239.7,127.0 L 244.1,129.2 L 248.5,131.8 L 252.8,134.9 L 257.2,138.3 L 261.6,142.1 L 265.9,146.3 L 270.3,150.8 L 274.7,155.6 L 279.0,160.7 L 283.4,165.9 L 287.8,171.3 L 292.1,176.9 L 296.5,182.5 L 300.9,188.2 L 305.2,193.8 L 309.6,199.5 L 314.0,205.0 L 318.3,210.4 L 322.7,215.7 L 327.1,220.7 L 331.5,225.5 L 335.8,230.0 L 340.2,234.2 L 344.6,238.0 L 348.9,241.5 L 353.3,244.5 L 357.7,247.2 L 362.0,249.3 L 366.4,251.0 L 370.8,252.3 L 375.1,253.0 L 379.5,253.2 L 383.9,253.0 L 388.2,252.3 L 392.6,251.0 L 397.0,249.3 L 401.3,247.2 L 405.7,244.5 L 410.1,241.5 L 414.4,238.0 L 418.8,234.2 L 423.2,230.0 L 427.5,225.5 L 431.9,220.7 L 436.3,215.7 L 440.7,210.4 L 445.0,205.0 L 449.4,199.5 L 453.8,193.8 L 458.1,188.2 L 462.5,182.5 L 466.9,176.9 L 471.2,171.3 L 475.6,165.9 L 480.0,160.7 L 484.3,155.6 L 488.7,150.8 L 493.1,146.3 L 497.4,142.1 L 501.8,138.3 L 506.2,134.9 L 510.5,131.8 L 514.9,129.2 L 519.3,127.0 L 523.6,125.3 L 528.0,124.1 L 532.4,123.3 L 536.8,123.1 L 541.1,123.3 L 545.5,124.1 L 549.9,125.3 L 554.2,127.0 L 558.6,129.2 L 563.0,131.8 L 567.3,134.9 L 571.7,138.3 L 576.1,142.1 L 580.4,146.3 L 584.8,150.8 L 589.2,155.6 L 593.5,160.7 L 597.9,165.9 L 602.3,171.3 L 606.6,176.9 L 611.0,182.5 L 615.4,188.2 L 619.7,193.8 L 624.1,199.5 L 628.5,205.0 L 632.8,210.4 L 637.2,215.7 L 641.6,220.7 L 646.0,225.5 L 650.3,230.0 L 654.7,234.2 L 659.1,238.0 L 663.4,241.5 L 667.8,244.5 L 672.2,247.2 L 676.5,249.3 L 680.9,251.0 L 685.3,252.3 L 689.6,253.0 L 694.0,253.2 " />
<path class="plot06" d="  " />
<path class="plot07" d=" M 69.4,-300.0 L 73.7,-300.0 L 78.1,-300.0 M 82.5,-300.0 M 86.8,-300.0 L 91.2,-232.5 L 95.6,-159.6 L 99.9,-104.4 L 104.3,-61.0 L 108.7,-25.9 L 113.0,3.2 L 117.4,27.8 L 121.8,48.9 L 126.2,67.4 L 130.5,83.6 L 134.9,98.1 L 139.3,111.2 L 143.6,123.1 L 148.0,134.0 L 152.4,144.0 L 156.7,153.4 L 161.1,162.1 L 165.5,170.3 L 169.8,178.1 L 174.2,185.5 L 178.6,192.6 L 182.9,199.3 L 187.3,205.9 L 191.7,212.2 L 196.0,218.4 L 200.4,224.4 L 204.8,230.3 L 209.1,236.1 L 213.5,241.9 L 217.9,247.6 L 222.2,253.2 L 226.6,258.9 L 231.0,264.6 L 235.4,270.4 L 239.7,276.2 L 244.1,282.1 L 248.5,288.1 L 252.8,294.3 L 257.2,300.6 L 261.6,307.2 L 265.9,313.9 L 270.3,321.0 L 274.7,328.4 L 279.0,336.2 L 283.4,344.4 L 287.8,353.1 L 292.1,362.5 L 296.5,372.5 L 300.9,383.4 L 305.2,395.3 L 309.6,408.4 L 314.0,422.9 L 318.3,439.1 L 322.7,457.6 L 327.1,478.7 L 331.5,503.3 L 335.8,532.4 L 340.2,567.5 L 344.6,610.9 L 348.9,666.1 L 353.3,739.0 L 357.7,840.4 L 362.0,900.0 L 366.4,900.0 M 370.8,900.0 M 375.1,900.0 M 379.5,900.0 M 383.9,-300.0 M 388.2,-300.0 M 392.6,-300.0 M 397.0,-300.0 M 401.3,-300.0 L 405.7,-232.5 L 410.1,-159.6 L 414.4,-104.4 L 418.8,-61.0 L 423.2,-25.9 L 427.5,3.2 L 431.9,27.8 L 436.3,48.9 L 440.7,67.4 L 445.0,83.6 L 449.4,98.1 L 453.8,111.2 L 458.1,123.1 L 462.5,134.0 L 466.9,144.0 L 471.2,153.4 L 475.6,162.1 L 480.0,170.3 L 484.3,178.1 L 488.7,185.5 L 493.1,192.6 L 497.4,199.3 L 501.8,205.9 L 506.2,212.2 L 510.5,218.4 L 514.9,224.4 L 519.3,230.3 L 523.6,236.1 L 528.0,241.9 L 532.4,247.6 L 536.8,253.2 L 541.1,258.9 L 545.5,264.6 L 549.9,270.4 L 554.2,276.2 L 558.6,282.1 L 563.0,288.1 L 567.3,294.3 L 571.7,300.6 L 576.1,307.2 L 580.4,313.9 L 584.8,321.0 L 589.2,328.4 L 593.5,336.2 L 597.9,344.4 L 602.3,353.1 L 606.6,362.5 L 611.0,372.5 L 615.4,383.4 L 619.7,395.3 L 624.1,408.4 L 628.5,422.9 L 632.8,439.1 L 637.2,457.6 L 641.6,478.7 L 646.0,503.3 L 650.3,532.4 L 654.7,567.5 L 659.1,610.9 L 663.4,666.1 L 667.8,739.0 L 672.2,840.4 L 676.5,900.0 L 680.9,900.0 M 685.3,900.0 M 689.6,900.0 M 694.0,900.0 " />
<path class="plot07" d="  " />
<path class="plot08" d=" M 143.6,161.2 M 458.1,345.3 " />
<path class="plot08" d=" M 143.6,161.2 m -1.8,0.0 l -1.8,-3.5 l 3.5,1.8 l 3.5,-1.8 l -1.8,3.5 l 1.8,3.5 l -3.5,-1.8 l -3.5,1.8 l 1.8,-3.5 m 1.8,0.0 m 0.0,-4.2 c 1.9,0.0 4.2,1.9 4.2,4.2 c 0.0,1.9 -1.9,4.2 -4.2,4.2 c -1.9,0.0 -4.2,-1.9 -4.2,-4.2 c 0.0,-1.9 1.9,-4.2 4.2,-4.2 m 0.0,4.2 M 458.1,345.3 m -1.8,0.0 l -1.8,-3.5 l 3.5,1.8 l 3.5,-1.8 l -1.8,3.5 l 1.8,3.5 l -3.5,-1.8 l -3.5,1.8 l 1.8,-3.5 m 1.8,0.0 m 0.0,-4.2 c 1.9,0.0 4.2,1.9 4.2,4.2 c 0.0,1.9 -1.9,4.2 -4.2,4.2 c -1.9,0.0 -4.2,-1.9 -4.2,-4.2 c 0.0,-1.9 1.9,-4.2 4.2,-4.2 m 0.0,4.2 " />
</g>
<text x="379.50" y="491.00" class="xtitle" >Angle</text>
<text x="23.00" y="253.25" class="ytitle" transform="matrix(0.00,-1.00,1.00,0.00,-230.25,276.25)">Function Value</text>
<text x="714.00" y="159.25" class="legendheadline" >Legends:</text>
<text x="720.50" y="178.75" class="plot03" >Column 3</text>
<text x="720.50" y="198.25" class="plot04" >Column 4</text>
<text x="720.50" y="217.75" class="plot05" >Column 5</text>
<text x="720.50" y="237.25" class="plot06" >Column 6</text>
<text x="720.50" y="256.75" class="plot07" >Column 7</text>
<text x="720.50" y="276.25" class="plot08" >Column 8</text>
<path class="legend" d=" M 786.0,130.0 Q 792.0,130.0, 792.0,136.0 L 792.0,289.8 Q 792.0,295.8, 786.0,295.8 L 707.0,295.8 Q 701.0,295.8, 701.0,289.8 L 701.0,136.0 Q 701.0,130.0, 707.0,130.0 Z " />
<text x="379.50" y="542.00" class="subtitle" >Data by numbers®</text>
<text x="379.50" y="523.00" class="title" >Trigonometric Functions</text>
<text x="215" y="35" class="layout">Data singletons</text>
<path class="layout" d="M 215 38 L 460 340 M 215 38 L 148 155" />
<text x="650" y="35" class="layout">Logo, not visible in &lt;image&gt;</text>
<path class="layout" d="M 650 40 L 730 82" />
<text x="270" y="575" class="layout">Title</text>
<path class="layout" d="M 270 558 L 272 528" />
<text x="480" y="575" class="layout">Sub Title</text>
<path class="layout" d="M 400 550 L 435 568" />
<text x="100" y="550" class="layout">yTick xTag xTick</text>
<path class="layout" d="M 55 535 L 55 455 M 105 535 L 118 480 M 155 535 L 205 465" />

<!-- layout.inc -->
()

</svg>
