<?xml version="1.0" encoding="UTF-8" standalone="no"?>
<svg id="layout" width="800" height="600" xmlns="http://www.w3.org/2000/svg">
<!--
    Created by csv2svg: 2.0.0-6-g37a8325 (bezier:497) https://github.com/msalmonse/csv2svg.git
  -->
<style>
svg#layout { background-color: #ffedcc }
#layout g.plotarea { opacity: 1.0 }
#layout g.plotarea path:hover { stroke-width: 5.0 }
#layout path { stroke-width: 2.0; fill: none; stroke-linecap: round }
#layout path.axes { stroke: black }
#layout path.xtick, #layout path.ytick { stroke: silver; stroke-width: 1 }
#layout text { font-family: Helvetica }
#layout text.legends { font-size: 13.0px }
#layout text.legends.headline { font-size: 16.2px; font-weight: bold }
#layout text.subtitle { font-size: 15.0px; text-anchor: middle }
#layout text.title { font-size: 25.0px; text-anchor: middle }
#layout text.xlabel { font-size: 10.0px; text-anchor: middle }
#layout text.xtitle { font-size: 12.0px; text-anchor: middle }
#layout text.ylabel { font-size: 10.0px; text-anchor: end; dominant-baseline: middle }
#layout text.ytitle { font-size: 12.0px; text-anchor: middle; writing-mode: tb }
#layout path.plot04 { stroke: #ff0000 }
#layout text.plot04 { fill: #ff0000; stroke: #ff0000 }
#layout path.plot05 { stroke: #008000 }
#layout text.plot05 { fill: #008000; stroke: #008000 }
#layout path.plot06 { stroke: #ff00ff; stroke-dasharray: 6,6,13,6; stroke-linecap: butt }
#layout text.plot06 { fill: #ff00ff; stroke: #ff00ff }
#layout path.plot07 { stroke: #0000ff }
#layout text.plot07 { fill: #0000ff; stroke: #0000ff }
#layout rect.legends { fill: silver; stroke: silver; fill-opacity: 0.1; stroke-width: 1.5 }
</style>
<style>
path.layout { stroke: red; fill: none; stroke-width: 3px }
text.layout { stroke: red; fill: red; font-size: 20px }</style>

<defs>
<clipPath id="plotable">
<rect x="56.0" y="49.0" width="653.5" height="424.5" rx="0.0"  />
</clipPath>
</defs>
<path class="xtick" d=" M 98.5,466.5 V 56.0 M 134.1,466.5 V 56.0 M 169.6,466.5 V 56.0 M 205.1,466.5 V 56.0 M 240.6,466.5 V 56.0 M 276.2,466.5 V 56.0 M 311.7,466.5 V 56.0 M 347.2,466.5 V 56.0 M 382.8,466.5 V 56.0 M 418.3,466.5 V 56.0 M 453.8,466.5 V 56.0 M 489.3,466.5 V 56.0 M 524.9,466.5 V 56.0 M 560.4,466.5 V 56.0 M 595.9,466.5 V 56.0 M 631.4,466.5 V 56.0 M 667.0,466.5 V 56.0 M 702.5,466.5 V 56.0 " />
<text x="98.53" y="479.00" class="xlabel" >20</text>
<text x="134.06" y="479.00" class="xlabel" >40</text>
<text x="169.58" y="479.00" class="xlabel" >60</text>
<text x="205.11" y="479.00" class="xlabel" >80</text>
<text x="240.64" y="479.00" class="xlabel" >100</text>
<text x="276.17" y="479.00" class="xlabel" >120</text>
<text x="311.69" y="479.00" class="xlabel" >140</text>
<text x="347.22" y="479.00" class="xlabel" >160</text>
<text x="382.75" y="479.00" class="xlabel" >180</text>
<text x="418.28" y="479.00" class="xlabel" >200</text>
<text x="453.81" y="479.00" class="xlabel" >220</text>
<text x="489.33" y="479.00" class="xlabel" >240</text>
<text x="524.86" y="479.00" class="xlabel" >260</text>
<text x="560.39" y="479.00" class="xlabel" >280</text>
<text x="595.92" y="479.00" class="xlabel" >300</text>
<text x="631.44" y="479.00" class="xlabel" >320</text>
<text x="666.97" y="479.00" class="xlabel" >340</text>
<text x="702.50" y="479.00" class="xlabel" >360</text>
<path class="ytick" d=" M 63.0,227.0 H 702.5 M 63.0,295.5 H 702.5 M 63.0,192.8 H 702.5 M 63.0,329.7 H 702.5 M 63.0,158.6 H 702.5 M 63.0,363.9 H 702.5 M 63.0,124.4 H 702.5 M 63.0,398.1 H 702.5 M 63.0,90.2 H 702.5 M 63.0,432.3 H 702.5 M 63.0,56.0 H 702.5 M 63.0,466.5 H 702.5 " />
<text x="61.00" y="227.04" class="ylabel" >0.25</text>
<text x="61.00" y="295.46" class="ylabel" >-0.25</text>
<text x="61.00" y="192.83" class="ylabel" >0.50</text>
<text x="61.00" y="329.67" class="ylabel" >-0.50</text>
<text x="61.00" y="158.62" class="ylabel" >0.75</text>
<text x="61.00" y="363.88" class="ylabel" >-0.75</text>
<text x="61.00" y="124.42" class="ylabel" >1.00</text>
<text x="61.00" y="398.08" class="ylabel" >-1.00</text>
<text x="61.00" y="90.21" class="ylabel" >1.25</text>
<text x="61.00" y="432.29" class="ylabel" >-1.25</text>
<text x="61.00" y="56.00" class="ylabel" >1.50</text>
<text x="61.00" y="466.50" class="ylabel" >-1.50</text>
<path class="axes" d=" M 63.0,261.2 H 702.5 M 63.0,466.5 V 56.0 " />
<image x="730.00" y="56.00" width="64.00" height="64.00" href="../data/logo.svg" class="logo" preserveAspectRatio="xMaxYMin" />
<g clip-path="url(#plotable)" class="plotarea">
<path class="plot04" d=" M 63.0,261.2 m -2.1,0.0 l -1.4,-0.7 v 1.4 l 1.4,-0.7 m 2.1,-2.1 l -0.7,-1.4 h 1.4 l -0.7,1.4 m 2.1,2.1 l 1.4,-0.7 v 1.4 l -1.4,-0.7 m -2.1,2.1 l -0.7,1.4 h 1.4 l -0.7,-1.4 m 0.0,-1.4 M 67.4,255.3 m -2.1,0.0 l -1.4,-0.7 v 1.4 l 1.4,-0.7 m 2.1,-2.1 l -0.7,-1.4 h 1.4 l -0.7,1.4 m 2.1,2.1 l 1.4,-0.7 v 1.4 l -1.4,-0.7 m -2.1,2.1 l -0.7,1.4 h 1.4 l -0.7,-1.4 m 0.0,-1.4 M 71.9,249.3 m -2.1,0.0 l -1.4,-0.7 v 1.4 l 1.4,-0.7 m 2.1,-2.1 l -0.7,-1.4 h 1.4 l -0.7,1.4 m 2.1,2.1 l 1.4,-0.7 v 1.4 l -1.4,-0.7 m -2.1,2.1 l -0.7,1.4 h 1.4 l -0.7,-1.4 m 0.0,-1.4 M 76.3,243.2 m -2.1,0.0 l -1.4,-0.7 v 1.4 l 1.4,-0.7 m 2.1,-2.1 l -0.7,-1.4 h 1.4 l -0.7,1.4 m 2.1,2.1 l 1.4,-0.7 v 1.4 l -1.4,-0.7 m -2.1,2.1 l -0.7,1.4 h 1.4 l -0.7,-1.4 m 0.0,-1.4 M 80.8,237.1 m -2.1,0.0 l -1.4,-0.7 v 1.4 l 1.4,-0.7 m 2.1,-2.1 l -0.7,-1.4 h 1.4 l -0.7,1.4 m 2.1,2.1 l 1.4,-0.7 v 1.4 l -1.4,-0.7 m -2.1,2.1 l -0.7,1.4 h 1.4 l -0.7,-1.4 m 0.0,-1.4 M 85.2,230.9 m -2.1,0.0 l -1.4,-0.7 v 1.4 l 1.4,-0.7 m 2.1,-2.1 l -0.7,-1.4 h 1.4 l -0.7,1.4 m 2.1,2.1 l 1.4,-0.7 v 1.4 l -1.4,-0.7 m -2.1,2.1 l -0.7,1.4 h 1.4 l -0.7,-1.4 m 0.0,-1.4 M 89.6,224.6 m -2.1,0.0 l -1.4,-0.7 v 1.4 l 1.4,-0.7 m 2.1,-2.1 l -0.7,-1.4 h 1.4 l -0.7,1.4 m 2.1,2.1 l 1.4,-0.7 v 1.4 l -1.4,-0.7 m -2.1,2.1 l -0.7,1.4 h 1.4 l -0.7,-1.4 m 0.0,-1.4 M 94.1,218.1 m -2.1,0.0 l -1.4,-0.7 v 1.4 l 1.4,-0.7 m 2.1,-2.1 l -0.7,-1.4 h 1.4 l -0.7,1.4 m 2.1,2.1 l 1.4,-0.7 v 1.4 l -1.4,-0.7 m -2.1,2.1 l -0.7,1.4 h 1.4 l -0.7,-1.4 m 0.0,-1.4 M 98.5,211.4 m -2.1,0.0 l -1.4,-0.7 v 1.4 l 1.4,-0.7 m 2.1,-2.1 l -0.7,-1.4 h 1.4 l -0.7,1.4 m 2.1,2.1 l 1.4,-0.7 v 1.4 l -1.4,-0.7 m -2.1,2.1 l -0.7,1.4 h 1.4 l -0.7,-1.4 m 0.0,-1.4 M 103.0,204.6 m -2.1,0.0 l -1.4,-0.7 v 1.4 l 1.4,-0.7 m 2.1,-2.1 l -0.7,-1.4 h 1.4 l -0.7,1.4 m 2.1,2.1 l 1.4,-0.7 v 1.4 l -1.4,-0.7 m -2.1,2.1 l -0.7,1.4 h 1.4 l -0.7,-1.4 m 0.0,-1.4 M 107.4,197.4 m -2.1,0.0 l -1.4,-0.7 v 1.4 l 1.4,-0.7 m 2.1,-2.1 l -0.7,-1.4 h 1.4 l -0.7,1.4 m 2.1,2.1 l 1.4,-0.7 v 1.4 l -1.4,-0.7 m -2.1,2.1 l -0.7,1.4 h 1.4 l -0.7,-1.4 m 0.0,-1.4 M 111.9,190.0 m -2.1,0.0 l -1.4,-0.7 v 1.4 l 1.4,-0.7 m 2.1,-2.1 l -0.7,-1.4 h 1.4 l -0.7,1.4 m 2.1,2.1 l 1.4,-0.7 v 1.4 l -1.4,-0.7 m -2.1,2.1 l -0.7,1.4 h 1.4 l -0.7,-1.4 m 0.0,-1.4 M 116.3,182.2 m -2.1,0.0 l -1.4,-0.7 v 1.4 l 1.4,-0.7 m 2.1,-2.1 l -0.7,-1.4 h 1.4 l -0.7,1.4 m 2.1,2.1 l 1.4,-0.7 v 1.4 l -1.4,-0.7 m -2.1,2.1 l -0.7,1.4 h 1.4 l -0.7,-1.4 m 0.0,-1.4 M 120.7,174.1 m -2.1,0.0 l -1.4,-0.7 v 1.4 l 1.4,-0.7 m 2.1,-2.1 l -0.7,-1.4 h 1.4 l -0.7,1.4 m 2.1,2.1 l 1.4,-0.7 v 1.4 l -1.4,-0.7 m -2.1,2.1 l -0.7,1.4 h 1.4 l -0.7,-1.4 m 0.0,-1.4 M 125.2,165.4 m -2.1,0.0 l -1.4,-0.7 v 1.4 l 1.4,-0.7 m 2.1,-2.1 l -0.7,-1.4 h 1.4 l -0.7,1.4 m 2.1,2.1 l 1.4,-0.7 v 1.4 l -1.4,-0.7 m -2.1,2.1 l -0.7,1.4 h 1.4 l -0.7,-1.4 m 0.0,-1.4 M 129.6,156.3 m -2.1,0.0 l -1.4,-0.7 v 1.4 l 1.4,-0.7 m 2.1,-2.1 l -0.7,-1.4 h 1.4 l -0.7,1.4 m 2.1,2.1 l 1.4,-0.7 v 1.4 l -1.4,-0.7 m -2.1,2.1 l -0.7,1.4 h 1.4 l -0.7,-1.4 m 0.0,-1.4 M 134.1,146.4 m -2.1,0.0 l -1.4,-0.7 v 1.4 l 1.4,-0.7 m 2.1,-2.1 l -0.7,-1.4 h 1.4 l -0.7,1.4 m 2.1,2.1 l 1.4,-0.7 v 1.4 l -1.4,-0.7 m -2.1,2.1 l -0.7,1.4 h 1.4 l -0.7,-1.4 m 0.0,-1.4 M 138.5,135.9 m -2.1,0.0 l -1.4,-0.7 v 1.4 l 1.4,-0.7 m 2.1,-2.1 l -0.7,-1.4 h 1.4 l -0.7,1.4 m 2.1,2.1 l 1.4,-0.7 v 1.4 l -1.4,-0.7 m -2.1,2.1 l -0.7,1.4 h 1.4 l -0.7,-1.4 m 0.0,-1.4 M 142.9,124.4 m -2.1,0.0 l -1.4,-0.7 v 1.4 l 1.4,-0.7 m 2.1,-2.1 l -0.7,-1.4 h 1.4 l -0.7,1.4 m 2.1,2.1 l 1.4,-0.7 v 1.4 l -1.4,-0.7 m -2.1,2.1 l -0.7,1.4 h 1.4 l -0.7,-1.4 m 0.0,-1.4 M 147.4,111.9 m -2.1,0.0 l -1.4,-0.7 v 1.4 l 1.4,-0.7 m 2.1,-2.1 l -0.7,-1.4 h 1.4 l -0.7,1.4 m 2.1,2.1 l 1.4,-0.7 v 1.4 l -1.4,-0.7 m -2.1,2.1 l -0.7,1.4 h 1.4 l -0.7,-1.4 m 0.0,-1.4 M 151.8,98.2 m -2.1,0.0 l -1.4,-0.7 v 1.4 l 1.4,-0.7 m 2.1,-2.1 l -0.7,-1.4 h 1.4 l -0.7,1.4 m 2.1,2.1 l 1.4,-0.7 v 1.4 l -1.4,-0.7 m -2.1,2.1 l -0.7,1.4 h 1.4 l -0.7,-1.4 m 0.0,-1.4 M 156.3,82.9 m -2.1,0.0 l -1.4,-0.7 v 1.4 l 1.4,-0.7 m 2.1,-2.1 l -0.7,-1.4 h 1.4 l -0.7,1.4 m 2.1,2.1 l 1.4,-0.7 v 1.4 l -1.4,-0.7 m -2.1,2.1 l -0.7,1.4 h 1.4 l -0.7,-1.4 m 0.0,-1.4 M 160.7,65.8 m -2.1,0.0 l -1.4,-0.7 v 1.4 l 1.4,-0.7 m 2.1,-2.1 l -0.7,-1.4 h 1.4 l -0.7,1.4 m 2.1,2.1 l 1.4,-0.7 v 1.4 l -1.4,-0.7 m -2.1,2.1 l -0.7,1.4 h 1.4 l -0.7,-1.4 m 0.0,-1.4 M 165.1,46.5 m -2.1,0.0 l -1.4,-0.7 v 1.4 l 1.4,-0.7 m 2.1,-2.1 l -0.7,-1.4 h 1.4 l -0.7,1.4 m 2.1,2.1 l 1.4,-0.7 v 1.4 l -1.4,-0.7 m -2.1,2.1 l -0.7,1.4 h 1.4 l -0.7,-1.4 m 0.0,-1.4 M 169.6,24.2 m -2.1,0.0 l -1.4,-0.7 v 1.4 l 1.4,-0.7 m 2.1,-2.1 l -0.7,-1.4 h 1.4 l -0.7,1.4 m 2.1,2.1 l 1.4,-0.7 v 1.4 l -1.4,-0.7 m -2.1,2.1 l -0.7,1.4 h 1.4 l -0.7,-1.4 m 0.0,-1.4 M 174.0,-1.6 m -2.1,0.0 l -1.4,-0.7 v 1.4 l 1.4,-0.7 m 2.1,-2.1 l -0.7,-1.4 h 1.4 l -0.7,1.4 m 2.1,2.1 l 1.4,-0.7 v 1.4 l -1.4,-0.7 m -2.1,2.1 l -0.7,1.4 h 1.4 l -0.7,-1.4 m 0.0,-1.4 M 178.5,-32.2 m -2.1,0.0 l -1.4,-0.7 v 1.4 l 1.4,-0.7 m 2.1,-2.1 l -0.7,-1.4 h 1.4 l -0.7,1.4 m 2.1,2.1 l 1.4,-0.7 v 1.4 l -1.4,-0.7 m -2.1,2.1 l -0.7,1.4 h 1.4 l -0.7,-1.4 m 0.0,-1.4 M 182.9,-69.1 m -2.1,0.0 l -1.4,-0.7 v 1.4 l 1.4,-0.7 m 2.1,-2.1 l -0.7,-1.4 h 1.4 l -0.7,1.4 m 2.1,2.1 l 1.4,-0.7 v 1.4 l -1.4,-0.7 m -2.1,2.1 l -0.7,1.4 h 1.4 l -0.7,-1.4 m 0.0,-1.4 M 187.3,-114.7 m -2.1,0.0 l -1.4,-0.7 v 1.4 l 1.4,-0.7 m 2.1,-2.1 l -0.7,-1.4 h 1.4 l -0.7,1.4 m 2.1,2.1 l 1.4,-0.7 v 1.4 l -1.4,-0.7 m -2.1,2.1 l -0.7,1.4 h 1.4 l -0.7,-1.4 m 0.0,-1.4 M 191.8,-172.7 m -2.1,0.0 l -1.4,-0.7 v 1.4 l 1.4,-0.7 m 2.1,-2.1 l -0.7,-1.4 h 1.4 l -0.7,1.4 m 2.1,2.1 l 1.4,-0.7 v 1.4 l -1.4,-0.7 m -2.1,2.1 l -0.7,1.4 h 1.4 l -0.7,-1.4 m 0.0,-1.4 M 196.2,-249.4 m -2.1,0.0 l -1.4,-0.7 v 1.4 l 1.4,-0.7 m 2.1,-2.1 l -0.7,-1.4 h 1.4 l -0.7,1.4 m 2.1,2.1 l 1.4,-0.7 v 1.4 l -1.4,-0.7 m -2.1,2.1 l -0.7,1.4 h 1.4 l -0.7,-1.4 m 0.0,-1.4 M 245.1,878.5 m -2.1,0.0 l -1.4,-0.7 v 1.4 l 1.4,-0.7 m 2.1,-2.1 l -0.7,-1.4 h 1.4 l -0.7,1.4 m 2.1,2.1 l 1.4,-0.7 v 1.4 l -1.4,-0.7 m -2.1,2.1 l -0.7,1.4 h 1.4 l -0.7,-1.4 m 0.0,-1.4 M 249.5,771.9 m -2.1,0.0 l -1.4,-0.7 v 1.4 l 1.4,-0.7 m 2.1,-2.1 l -0.7,-1.4 h 1.4 l -0.7,1.4 m 2.1,2.1 l 1.4,-0.7 v 1.4 l -1.4,-0.7 m -2.1,2.1 l -0.7,1.4 h 1.4 l -0.7,-1.4 m 0.0,-1.4 M 254.0,695.2 m -2.1,0.0 l -1.4,-0.7 v 1.4 l 1.4,-0.7 m 2.1,-2.1 l -0.7,-1.4 h 1.4 l -0.7,1.4 m 2.1,2.1 l 1.4,-0.7 v 1.4 l -1.4,-0.7 m -2.1,2.1 l -0.7,1.4 h 1.4 l -0.7,-1.4 m 0.0,-1.4 M 258.4,637.2 m -2.1,0.0 l -1.4,-0.7 v 1.4 l 1.4,-0.7 m 2.1,-2.1 l -0.7,-1.4 h 1.4 l -0.7,1.4 m 2.1,2.1 l 1.4,-0.7 v 1.4 l -1.4,-0.7 m -2.1,2.1 l -0.7,1.4 h 1.4 l -0.7,-1.4 m 0.0,-1.4 M 262.8,591.6 m -2.1,0.0 l -1.4,-0.7 v 1.4 l 1.4,-0.7 m 2.1,-2.1 l -0.7,-1.4 h 1.4 l -0.7,1.4 m 2.1,2.1 l 1.4,-0.7 v 1.4 l -1.4,-0.7 m -2.1,2.1 l -0.7,1.4 h 1.4 l -0.7,-1.4 m 0.0,-1.4 M 267.3,554.7 m -2.1,0.0 l -1.4,-0.7 v 1.4 l 1.4,-0.7 m 2.1,-2.1 l -0.7,-1.4 h 1.4 l -0.7,1.4 m 2.1,2.1 l 1.4,-0.7 v 1.4 l -1.4,-0.7 m -2.1,2.1 l -0.7,1.4 h 1.4 l -0.7,-1.4 m 0.0,-1.4 M 271.7,524.1 m -2.1,0.0 l -1.4,-0.7 v 1.4 l 1.4,-0.7 m 2.1,-2.1 l -0.7,-1.4 h 1.4 l -0.7,1.4 m 2.1,2.1 l 1.4,-0.7 v 1.4 l -1.4,-0.7 m -2.1,2.1 l -0.7,1.4 h 1.4 l -0.7,-1.4 m 0.0,-1.4 M 276.2,498.3 m -2.1,0.0 l -1.4,-0.7 v 1.4 l 1.4,-0.7 m 2.1,-2.1 l -0.7,-1.4 h 1.4 l -0.7,1.4 m 2.1,2.1 l 1.4,-0.7 v 1.4 l -1.4,-0.7 m -2.1,2.1 l -0.7,1.4 h 1.4 l -0.7,-1.4 m 0.0,-1.4 M 280.6,476.0 m -2.1,0.0 l -1.4,-0.7 v 1.4 l 1.4,-0.7 m 2.1,-2.1 l -0.7,-1.4 h 1.4 l -0.7,1.4 m 2.1,2.1 l 1.4,-0.7 v 1.4 l -1.4,-0.7 m -2.1,2.1 l -0.7,1.4 h 1.4 l -0.7,-1.4 m 0.0,-1.4 M 285.0,456.7 m -2.1,0.0 l -1.4,-0.7 v 1.4 l 1.4,-0.7 m 2.1,-2.1 l -0.7,-1.4 h 1.4 l -0.7,1.4 m 2.1,2.1 l 1.4,-0.7 v 1.4 l -1.4,-0.7 m -2.1,2.1 l -0.7,1.4 h 1.4 l -0.7,-1.4 m 0.0,-1.4 M 289.5,439.6 m -2.1,0.0 l -1.4,-0.7 v 1.4 l 1.4,-0.7 m 2.1,-2.1 l -0.7,-1.4 h 1.4 l -0.7,1.4 m 2.1,2.1 l 1.4,-0.7 v 1.4 l -1.4,-0.7 m -2.1,2.1 l -0.7,1.4 h 1.4 l -0.7,-1.4 m 0.0,-1.4 M 293.9,424.3 m -2.1,0.0 l -1.4,-0.7 v 1.4 l 1.4,-0.7 m 2.1,-2.1 l -0.7,-1.4 h 1.4 l -0.7,1.4 m 2.1,2.1 l 1.4,-0.7 v 1.4 l -1.4,-0.7 m -2.1,2.1 l -0.7,1.4 h 1.4 l -0.7,-1.4 m 0.0,-1.4 M 298.4,410.6 m -2.1,0.0 l -1.4,-0.7 v 1.4 l 1.4,-0.7 m 2.1,-2.1 l -0.7,-1.4 h 1.4 l -0.7,1.4 m 2.1,2.1 l 1.4,-0.7 v 1.4 l -1.4,-0.7 m -2.1,2.1 l -0.7,1.4 h 1.4 l -0.7,-1.4 m 0.0,-1.4 M 302.8,398.1 m -2.1,0.0 l -1.4,-0.7 v 1.4 l 1.4,-0.7 m 2.1,-2.1 l -0.7,-1.4 h 1.4 l -0.7,1.4 m 2.1,2.1 l 1.4,-0.7 v 1.4 l -1.4,-0.7 m -2.1,2.1 l -0.7,1.4 h 1.4 l -0.7,-1.4 m 0.0,-1.4 M 307.3,386.6 m -2.1,0.0 l -1.4,-0.7 v 1.4 l 1.4,-0.7 m 2.1,-2.1 l -0.7,-1.4 h 1.4 l -0.7,1.4 m 2.1,2.1 l 1.4,-0.7 v 1.4 l -1.4,-0.7 m -2.1,2.1 l -0.7,1.4 h 1.4 l -0.7,-1.4 m 0.0,-1.4 M 311.7,376.1 m -2.1,0.0 l -1.4,-0.7 v 1.4 l 1.4,-0.7 m 2.1,-2.1 l -0.7,-1.4 h 1.4 l -0.7,1.4 m 2.1,2.1 l 1.4,-0.7 v 1.4 l -1.4,-0.7 m -2.1,2.1 l -0.7,1.4 h 1.4 l -0.7,-1.4 m 0.0,-1.4 M 316.1,366.2 m -2.1,0.0 l -1.4,-0.7 v 1.4 l 1.4,-0.7 m 2.1,-2.1 l -0.7,-1.4 h 1.4 l -0.7,1.4 m 2.1,2.1 l 1.4,-0.7 v 1.4 l -1.4,-0.7 m -2.1,2.1 l -0.7,1.4 h 1.4 l -0.7,-1.4 m 0.0,-1.4 M 320.6,357.1 m -2.1,0.0 l -1.4,-0.7 v 1.4 l 1.4,-0.7 m 2.1,-2.1 l -0.7,-1.4 h 1.4 l -0.7,1.4 m 2.1,2.1 l 1.4,-0.7 v 1.4 l -1.4,-0.7 m -2.1,2.1 l -0.7,1.4 h 1.4 l -0.7,-1.4 m 0.0,-1.4 M 325.0,348.4 m -2.1,0.0 l -1.4,-0.7 v 1.4 l 1.4,-0.7 m 2.1,-2.1 l -0.7,-1.4 h 1.4 l -0.7,1.4 m 2.1,2.1 l 1.4,-0.7 v 1.4 l -1.4,-0.7 m -2.1,2.1 l -0.7,1.4 h 1.4 l -0.7,-1.4 m 0.0,-1.4 M 329.5,340.3 m -2.1,0.0 l -1.4,-0.7 v 1.4 l 1.4,-0.7 m 2.1,-2.1 l -0.7,-1.4 h 1.4 l -0.7,1.4 m 2.1,2.1 l 1.4,-0.7 v 1.4 l -1.4,-0.7 m -2.1,2.1 l -0.7,1.4 h 1.4 l -0.7,-1.4 m 0.0,-1.4 M 333.9,332.5 m -2.1,0.0 l -1.4,-0.7 v 1.4 l 1.4,-0.7 m 2.1,-2.1 l -0.7,-1.4 h 1.4 l -0.7,1.4 m 2.1,2.1 l 1.4,-0.7 v 1.4 l -1.4,-0.7 m -2.1,2.1 l -0.7,1.4 h 1.4 l -0.7,-1.4 m 0.0,-1.4 M 338.3,325.1 m -2.1,0.0 l -1.4,-0.7 v 1.4 l 1.4,-0.7 m 2.1,-2.1 l -0.7,-1.4 h 1.4 l -0.7,1.4 m 2.1,2.1 l 1.4,-0.7 v 1.4 l -1.4,-0.7 m -2.1,2.1 l -0.7,1.4 h 1.4 l -0.7,-1.4 m 0.0,-1.4 M 342.8,317.9 m -2.1,0.0 l -1.4,-0.7 v 1.4 l 1.4,-0.7 m 2.1,-2.1 l -0.7,-1.4 h 1.4 l -0.7,1.4 m 2.1,2.1 l 1.4,-0.7 v 1.4 l -1.4,-0.7 m -2.1,2.1 l -0.7,1.4 h 1.4 l -0.7,-1.4 m 0.0,-1.4 M 347.2,311.1 m -2.1,0.0 l -1.4,-0.7 v 1.4 l 1.4,-0.7 m 2.1,-2.1 l -0.7,-1.4 h 1.4 l -0.7,1.4 m 2.1,2.1 l 1.4,-0.7 v 1.4 l -1.4,-0.7 m -2.1,2.1 l -0.7,1.4 h 1.4 l -0.7,-1.4 m 0.0,-1.4 M 351.7,304.4 m -2.1,0.0 l -1.4,-0.7 v 1.4 l 1.4,-0.7 m 2.1,-2.1 l -0.7,-1.4 h 1.4 l -0.7,1.4 m 2.1,2.1 l 1.4,-0.7 v 1.4 l -1.4,-0.7 m -2.1,2.1 l -0.7,1.4 h 1.4 l -0.7,-1.4 m 0.0,-1.4 M 356.1,297.9 m -2.1,0.0 l -1.4,-0.7 v 1.4 l 1.4,-0.7 m 2.1,-2.1 l -0.7,-1.4 h 1.4 l -0.7,1.4 m 2.1,2.1 l 1.4,-0.7 v 1.4 l -1.4,-0.7 m -2.1,2.1 l -0.7,1.4 h 1.4 l -0.7,-1.4 m 0.0,-1.4 M 360.5,291.6 m -2.1,0.0 l -1.4,-0.7 v 1.4 l 1.4,-0.7 m 2.1,-2.1 l -0.7,-1.4 h 1.4 l -0.7,1.4 m 2.1,2.1 l 1.4,-0.7 v 1.4 l -1.4,-0.7 m -2.1,2.1 l -0.7,1.4 h 1.4 l -0.7,-1.4 m 0.0,-1.4 M 365.0,285.4 m -2.1,0.0 l -1.4,-0.7 v 1.4 l 1.4,-0.7 m 2.1,-2.1 l -0.7,-1.4 h 1.4 l -0.7,1.4 m 2.1,2.1 l 1.4,-0.7 v 1.4 l -1.4,-0.7 m -2.1,2.1 l -0.7,1.4 h 1.4 l -0.7,-1.4 m 0.0,-1.4 M 369.4,279.3 m -2.1,0.0 l -1.4,-0.7 v 1.4 l 1.4,-0.7 m 2.1,-2.1 l -0.7,-1.4 h 1.4 l -0.7,1.4 m 2.1,2.1 l 1.4,-0.7 v 1.4 l -1.4,-0.7 m -2.1,2.1 l -0.7,1.4 h 1.4 l -0.7,-1.4 m 0.0,-1.4 M 373.9,273.2 m -2.1,0.0 l -1.4,-0.7 v 1.4 l 1.4,-0.7 m 2.1,-2.1 l -0.7,-1.4 h 1.4 l -0.7,1.4 m 2.1,2.1 l 1.4,-0.7 v 1.4 l -1.4,-0.7 m -2.1,2.1 l -0.7,1.4 h 1.4 l -0.7,-1.4 m 0.0,-1.4 M 378.3,267.2 m -2.1,0.0 l -1.4,-0.7 v 1.4 l 1.4,-0.7 m 2.1,-2.1 l -0.7,-1.4 h 1.4 l -0.7,1.4 m 2.1,2.1 l 1.4,-0.7 v 1.4 l -1.4,-0.7 m -2.1,2.1 l -0.7,1.4 h 1.4 l -0.7,-1.4 m 0.0,-1.4 M 382.8,261.2 m -2.1,0.0 l -1.4,-0.7 v 1.4 l 1.4,-0.7 m 2.1,-2.1 l -0.7,-1.4 h 1.4 l -0.7,1.4 m 2.1,2.1 l 1.4,-0.7 v 1.4 l -1.4,-0.7 m -2.1,2.1 l -0.7,1.4 h 1.4 l -0.7,-1.4 m 0.0,-1.4 M 387.2,255.3 m -2.1,0.0 l -1.4,-0.7 v 1.4 l 1.4,-0.7 m 2.1,-2.1 l -0.7,-1.4 h 1.4 l -0.7,1.4 m 2.1,2.1 l 1.4,-0.7 v 1.4 l -1.4,-0.7 m -2.1,2.1 l -0.7,1.4 h 1.4 l -0.7,-1.4 m 0.0,-1.4 M 391.6,249.3 m -2.1,0.0 l -1.4,-0.7 v 1.4 l 1.4,-0.7 m 2.1,-2.1 l -0.7,-1.4 h 1.4 l -0.7,1.4 m 2.1,2.1 l 1.4,-0.7 v 1.4 l -1.4,-0.7 m -2.1,2.1 l -0.7,1.4 h 1.4 l -0.7,-1.4 m 0.0,-1.4 M 396.1,243.2 m -2.1,0.0 l -1.4,-0.7 v 1.4 l 1.4,-0.7 m 2.1,-2.1 l -0.7,-1.4 h 1.4 l -0.7,1.4 m 2.1,2.1 l 1.4,-0.7 v 1.4 l -1.4,-0.7 m -2.1,2.1 l -0.7,1.4 h 1.4 l -0.7,-1.4 m 0.0,-1.4 M 400.5,237.1 m -2.1,0.0 l -1.4,-0.7 v 1.4 l 1.4,-0.7 m 2.1,-2.1 l -0.7,-1.4 h 1.4 l -0.7,1.4 m 2.1,2.1 l 1.4,-0.7 v 1.4 l -1.4,-0.7 m -2.1,2.1 l -0.7,1.4 h 1.4 l -0.7,-1.4 m 0.0,-1.4 M 405.0,230.9 m -2.1,0.0 l -1.4,-0.7 v 1.4 l 1.4,-0.7 m 2.1,-2.1 l -0.7,-1.4 h 1.4 l -0.7,1.4 m 2.1,2.1 l 1.4,-0.7 v 1.4 l -1.4,-0.7 m -2.1,2.1 l -0.7,1.4 h 1.4 l -0.7,-1.4 m 0.0,-1.4 M 409.4,224.6 m -2.1,0.0 l -1.4,-0.7 v 1.4 l 1.4,-0.7 m 2.1,-2.1 l -0.7,-1.4 h 1.4 l -0.7,1.4 m 2.1,2.1 l 1.4,-0.7 v 1.4 l -1.4,-0.7 m -2.1,2.1 l -0.7,1.4 h 1.4 l -0.7,-1.4 m 0.0,-1.4 M 413.8,218.1 m -2.1,0.0 l -1.4,-0.7 v 1.4 l 1.4,-0.7 m 2.1,-2.1 l -0.7,-1.4 h 1.4 l -0.7,1.4 m 2.1,2.1 l 1.4,-0.7 v 1.4 l -1.4,-0.7 m -2.1,2.1 l -0.7,1.4 h 1.4 l -0.7,-1.4 m 0.0,-1.4 M 418.3,211.4 m -2.1,0.0 l -1.4,-0.7 v 1.4 l 1.4,-0.7 m 2.1,-2.1 l -0.7,-1.4 h 1.4 l -0.7,1.4 m 2.1,2.1 l 1.4,-0.7 v 1.4 l -1.4,-0.7 m -2.1,2.1 l -0.7,1.4 h 1.4 l -0.7,-1.4 m 0.0,-1.4 M 422.7,204.6 m -2.1,0.0 l -1.4,-0.7 v 1.4 l 1.4,-0.7 m 2.1,-2.1 l -0.7,-1.4 h 1.4 l -0.7,1.4 m 2.1,2.1 l 1.4,-0.7 v 1.4 l -1.4,-0.7 m -2.1,2.1 l -0.7,1.4 h 1.4 l -0.7,-1.4 m 0.0,-1.4 M 427.2,197.4 m -2.1,0.0 l -1.4,-0.7 v 1.4 l 1.4,-0.7 m 2.1,-2.1 l -0.7,-1.4 h 1.4 l -0.7,1.4 m 2.1,2.1 l 1.4,-0.7 v 1.4 l -1.4,-0.7 m -2.1,2.1 l -0.7,1.4 h 1.4 l -0.7,-1.4 m 0.0,-1.4 M 431.6,190.0 m -2.1,0.0 l -1.4,-0.7 v 1.4 l 1.4,-0.7 m 2.1,-2.1 l -0.7,-1.4 h 1.4 l -0.7,1.4 m 2.1,2.1 l 1.4,-0.7 v 1.4 l -1.4,-0.7 m -2.1,2.1 l -0.7,1.4 h 1.4 l -0.7,-1.4 m 0.0,-1.4 M 436.0,182.2 m -2.1,0.0 l -1.4,-0.7 v 1.4 l 1.4,-0.7 m 2.1,-2.1 l -0.7,-1.4 h 1.4 l -0.7,1.4 m 2.1,2.1 l 1.4,-0.7 v 1.4 l -1.4,-0.7 m -2.1,2.1 l -0.7,1.4 h 1.4 l -0.7,-1.4 m 0.0,-1.4 M 440.5,174.1 m -2.1,0.0 l -1.4,-0.7 v 1.4 l 1.4,-0.7 m 2.1,-2.1 l -0.7,-1.4 h 1.4 l -0.7,1.4 m 2.1,2.1 l 1.4,-0.7 v 1.4 l -1.4,-0.7 m -2.1,2.1 l -0.7,1.4 h 1.4 l -0.7,-1.4 m 0.0,-1.4 M 444.9,165.4 m -2.1,0.0 l -1.4,-0.7 v 1.4 l 1.4,-0.7 m 2.1,-2.1 l -0.7,-1.4 h 1.4 l -0.7,1.4 m 2.1,2.1 l 1.4,-0.7 v 1.4 l -1.4,-0.7 m -2.1,2.1 l -0.7,1.4 h 1.4 l -0.7,-1.4 m 0.0,-1.4 M 449.4,156.3 m -2.1,0.0 l -1.4,-0.7 v 1.4 l 1.4,-0.7 m 2.1,-2.1 l -0.7,-1.4 h 1.4 l -0.7,1.4 m 2.1,2.1 l 1.4,-0.7 v 1.4 l -1.4,-0.7 m -2.1,2.1 l -0.7,1.4 h 1.4 l -0.7,-1.4 m 0.0,-1.4 M 453.8,146.4 m -2.1,0.0 l -1.4,-0.7 v 1.4 l 1.4,-0.7 m 2.1,-2.1 l -0.7,-1.4 h 1.4 l -0.7,1.4 m 2.1,2.1 l 1.4,-0.7 v 1.4 l -1.4,-0.7 m -2.1,2.1 l -0.7,1.4 h 1.4 l -0.7,-1.4 m 0.0,-1.4 M 458.2,135.9 m -2.1,0.0 l -1.4,-0.7 v 1.4 l 1.4,-0.7 m 2.1,-2.1 l -0.7,-1.4 h 1.4 l -0.7,1.4 m 2.1,2.1 l 1.4,-0.7 v 1.4 l -1.4,-0.7 m -2.1,2.1 l -0.7,1.4 h 1.4 l -0.7,-1.4 m 0.0,-1.4 M 462.7,124.4 m -2.1,0.0 l -1.4,-0.7 v 1.4 l 1.4,-0.7 m 2.1,-2.1 l -0.7,-1.4 h 1.4 l -0.7,1.4 m 2.1,2.1 l 1.4,-0.7 v 1.4 l -1.4,-0.7 m -2.1,2.1 l -0.7,1.4 h 1.4 l -0.7,-1.4 m 0.0,-1.4 M 467.1,111.9 m -2.1,0.0 l -1.4,-0.7 v 1.4 l 1.4,-0.7 m 2.1,-2.1 l -0.7,-1.4 h 1.4 l -0.7,1.4 m 2.1,2.1 l 1.4,-0.7 v 1.4 l -1.4,-0.7 m -2.1,2.1 l -0.7,1.4 h 1.4 l -0.7,-1.4 m 0.0,-1.4 M 471.6,98.2 m -2.1,0.0 l -1.4,-0.7 v 1.4 l 1.4,-0.7 m 2.1,-2.1 l -0.7,-1.4 h 1.4 l -0.7,1.4 m 2.1,2.1 l 1.4,-0.7 v 1.4 l -1.4,-0.7 m -2.1,2.1 l -0.7,1.4 h 1.4 l -0.7,-1.4 m 0.0,-1.4 M 476.0,82.9 m -2.1,0.0 l -1.4,-0.7 v 1.4 l 1.4,-0.7 m 2.1,-2.1 l -0.7,-1.4 h 1.4 l -0.7,1.4 m 2.1,2.1 l 1.4,-0.7 v 1.4 l -1.4,-0.7 m -2.1,2.1 l -0.7,1.4 h 1.4 l -0.7,-1.4 m 0.0,-1.4 M 480.5,65.8 m -2.1,0.0 l -1.4,-0.7 v 1.4 l 1.4,-0.7 m 2.1,-2.1 l -0.7,-1.4 h 1.4 l -0.7,1.4 m 2.1,2.1 l 1.4,-0.7 v 1.4 l -1.4,-0.7 m -2.1,2.1 l -0.7,1.4 h 1.4 l -0.7,-1.4 m 0.0,-1.4 M 484.9,46.5 m -2.1,0.0 l -1.4,-0.7 v 1.4 l 1.4,-0.7 m 2.1,-2.1 l -0.7,-1.4 h 1.4 l -0.7,1.4 m 2.1,2.1 l 1.4,-0.7 v 1.4 l -1.4,-0.7 m -2.1,2.1 l -0.7,1.4 h 1.4 l -0.7,-1.4 m 0.0,-1.4 M 489.3,24.2 m -2.1,0.0 l -1.4,-0.7 v 1.4 l 1.4,-0.7 m 2.1,-2.1 l -0.7,-1.4 h 1.4 l -0.7,1.4 m 2.1,2.1 l 1.4,-0.7 v 1.4 l -1.4,-0.7 m -2.1,2.1 l -0.7,1.4 h 1.4 l -0.7,-1.4 m 0.0,-1.4 M 493.8,-1.6 m -2.1,0.0 l -1.4,-0.7 v 1.4 l 1.4,-0.7 m 2.1,-2.1 l -0.7,-1.4 h 1.4 l -0.7,1.4 m 2.1,2.1 l 1.4,-0.7 v 1.4 l -1.4,-0.7 m -2.1,2.1 l -0.7,1.4 h 1.4 l -0.7,-1.4 m 0.0,-1.4 M 498.2,-32.2 m -2.1,0.0 l -1.4,-0.7 v 1.4 l 1.4,-0.7 m 2.1,-2.1 l -0.7,-1.4 h 1.4 l -0.7,1.4 m 2.1,2.1 l 1.4,-0.7 v 1.4 l -1.4,-0.7 m -2.1,2.1 l -0.7,1.4 h 1.4 l -0.7,-1.4 m 0.0,-1.4 M 502.7,-69.1 m -2.1,0.0 l -1.4,-0.7 v 1.4 l 1.4,-0.7 m 2.1,-2.1 l -0.7,-1.4 h 1.4 l -0.7,1.4 m 2.1,2.1 l 1.4,-0.7 v 1.4 l -1.4,-0.7 m -2.1,2.1 l -0.7,1.4 h 1.4 l -0.7,-1.4 m 0.0,-1.4 M 507.1,-114.7 m -2.1,0.0 l -1.4,-0.7 v 1.4 l 1.4,-0.7 m 2.1,-2.1 l -0.7,-1.4 h 1.4 l -0.7,1.4 m 2.1,2.1 l 1.4,-0.7 v 1.4 l -1.4,-0.7 m -2.1,2.1 l -0.7,1.4 h 1.4 l -0.7,-1.4 m 0.0,-1.4 M 511.5,-172.7 m -2.1,0.0 l -1.4,-0.7 v 1.4 l 1.4,-0.7 m 2.1,-2.1 l -0.7,-1.4 h 1.4 l -0.7,1.4 m 2.1,2.1 l 1.4,-0.7 v 1.4 l -1.4,-0.7 m -2.1,2.1 l -0.7,1.4 h 1.4 l -0.7,-1.4 m 0.0,-1.4 M 516.0,-249.4 m -2.1,0.0 l -1.4,-0.7 v 1.4 l 1.4,-0.7 m 2.1,-2.1 l -0.7,-1.4 h 1.4 l -0.7,1.4 m 2.1,2.1 l 1.4,-0.7 v 1.4 l -1.4,-0.7 m -2.1,2.1 l -0.7,1.4 h 1.4 l -0.7,-1.4 m 0.0,-1.4 M 564.8,878.5 m -2.1,0.0 l -1.4,-0.7 v 1.4 l 1.4,-0.7 m 2.1,-2.1 l -0.7,-1.4 h 1.4 l -0.7,1.4 m 2.1,2.1 l 1.4,-0.7 v 1.4 l -1.4,-0.7 m -2.1,2.1 l -0.7,1.4 h 1.4 l -0.7,-1.4 m 0.0,-1.4 M 569.3,771.9 m -2.1,0.0 l -1.4,-0.7 v 1.4 l 1.4,-0.7 m 2.1,-2.1 l -0.7,-1.4 h 1.4 l -0.7,1.4 m 2.1,2.1 l 1.4,-0.7 v 1.4 l -1.4,-0.7 m -2.1,2.1 l -0.7,1.4 h 1.4 l -0.7,-1.4 m 0.0,-1.4 M 573.7,695.2 m -2.1,0.0 l -1.4,-0.7 v 1.4 l 1.4,-0.7 m 2.1,-2.1 l -0.7,-1.4 h 1.4 l -0.7,1.4 m 2.1,2.1 l 1.4,-0.7 v 1.4 l -1.4,-0.7 m -2.1,2.1 l -0.7,1.4 h 1.4 l -0.7,-1.4 m 0.0,-1.4 M 578.2,637.2 m -2.1,0.0 l -1.4,-0.7 v 1.4 l 1.4,-0.7 m 2.1,-2.1 l -0.7,-1.4 h 1.4 l -0.7,1.4 m 2.1,2.1 l 1.4,-0.7 v 1.4 l -1.4,-0.7 m -2.1,2.1 l -0.7,1.4 h 1.4 l -0.7,-1.4 m 0.0,-1.4 M 582.6,591.6 m -2.1,0.0 l -1.4,-0.7 v 1.4 l 1.4,-0.7 m 2.1,-2.1 l -0.7,-1.4 h 1.4 l -0.7,1.4 m 2.1,2.1 l 1.4,-0.7 v 1.4 l -1.4,-0.7 m -2.1,2.1 l -0.7,1.4 h 1.4 l -0.7,-1.4 m 0.0,-1.4 M 587.0,554.7 m -2.1,0.0 l -1.4,-0.7 v 1.4 l 1.4,-0.7 m 2.1,-2.1 l -0.7,-1.4 h 1.4 l -0.7,1.4 m 2.1,2.1 l 1.4,-0.7 v 1.4 l -1.4,-0.7 m -2.1,2.1 l -0.7,1.4 h 1.4 l -0.7,-1.4 m 0.0,-1.4 M 591.5,524.1 m -2.1,0.0 l -1.4,-0.7 v 1.4 l 1.4,-0.7 m 2.1,-2.1 l -0.7,-1.4 h 1.4 l -0.7,1.4 m 2.1,2.1 l 1.4,-0.7 v 1.4 l -1.4,-0.7 m -2.1,2.1 l -0.7,1.4 h 1.4 l -0.7,-1.4 m 0.0,-1.4 M 595.9,498.3 m -2.1,0.0 l -1.4,-0.7 v 1.4 l 1.4,-0.7 m 2.1,-2.1 l -0.7,-1.4 h 1.4 l -0.7,1.4 m 2.1,2.1 l 1.4,-0.7 v 1.4 l -1.4,-0.7 m -2.1,2.1 l -0.7,1.4 h 1.4 l -0.7,-1.4 m 0.0,-1.4 M 600.4,476.0 m -2.1,0.0 l -1.4,-0.7 v 1.4 l 1.4,-0.7 m 2.1,-2.1 l -0.7,-1.4 h 1.4 l -0.7,1.4 m 2.1,2.1 l 1.4,-0.7 v 1.4 l -1.4,-0.7 m -2.1,2.1 l -0.7,1.4 h 1.4 l -0.7,-1.4 m 0.0,-1.4 M 604.8,456.7 m -2.1,0.0 l -1.4,-0.7 v 1.4 l 1.4,-0.7 m 2.1,-2.1 l -0.7,-1.4 h 1.4 l -0.7,1.4 m 2.1,2.1 l 1.4,-0.7 v 1.4 l -1.4,-0.7 m -2.1,2.1 l -0.7,1.4 h 1.4 l -0.7,-1.4 m 0.0,-1.4 M 609.2,439.6 m -2.1,0.0 l -1.4,-0.7 v 1.4 l 1.4,-0.7 m 2.1,-2.1 l -0.7,-1.4 h 1.4 l -0.7,1.4 m 2.1,2.1 l 1.4,-0.7 v 1.4 l -1.4,-0.7 m -2.1,2.1 l -0.7,1.4 h 1.4 l -0.7,-1.4 m 0.0,-1.4 M 613.7,424.3 m -2.1,0.0 l -1.4,-0.7 v 1.4 l 1.4,-0.7 m 2.1,-2.1 l -0.7,-1.4 h 1.4 l -0.7,1.4 m 2.1,2.1 l 1.4,-0.7 v 1.4 l -1.4,-0.7 m -2.1,2.1 l -0.7,1.4 h 1.4 l -0.7,-1.4 m 0.0,-1.4 M 618.1,410.6 m -2.1,0.0 l -1.4,-0.7 v 1.4 l 1.4,-0.7 m 2.1,-2.1 l -0.7,-1.4 h 1.4 l -0.7,1.4 m 2.1,2.1 l 1.4,-0.7 v 1.4 l -1.4,-0.7 m -2.1,2.1 l -0.7,1.4 h 1.4 l -0.7,-1.4 m 0.0,-1.4 M 622.6,398.1 m -2.1,0.0 l -1.4,-0.7 v 1.4 l 1.4,-0.7 m 2.1,-2.1 l -0.7,-1.4 h 1.4 l -0.7,1.4 m 2.1,2.1 l 1.4,-0.7 v 1.4 l -1.4,-0.7 m -2.1,2.1 l -0.7,1.4 h 1.4 l -0.7,-1.4 m 0.0,-1.4 M 627.0,386.6 m -2.1,0.0 l -1.4,-0.7 v 1.4 l 1.4,-0.7 m 2.1,-2.1 l -0.7,-1.4 h 1.4 l -0.7,1.4 m 2.1,2.1 l 1.4,-0.7 v 1.4 l -1.4,-0.7 m -2.1,2.1 l -0.7,1.4 h 1.4 l -0.7,-1.4 m 0.0,-1.4 M 631.4,376.1 m -2.1,0.0 l -1.4,-0.7 v 1.4 l 1.4,-0.7 m 2.1,-2.1 l -0.7,-1.4 h 1.4 l -0.7,1.4 m 2.1,2.1 l 1.4,-0.7 v 1.4 l -1.4,-0.7 m -2.1,2.1 l -0.7,1.4 h 1.4 l -0.7,-1.4 m 0.0,-1.4 M 635.9,366.2 m -2.1,0.0 l -1.4,-0.7 v 1.4 l 1.4,-0.7 m 2.1,-2.1 l -0.7,-1.4 h 1.4 l -0.7,1.4 m 2.1,2.1 l 1.4,-0.7 v 1.4 l -1.4,-0.7 m -2.1,2.1 l -0.7,1.4 h 1.4 l -0.7,-1.4 m 0.0,-1.4 M 640.3,357.1 m -2.1,0.0 l -1.4,-0.7 v 1.4 l 1.4,-0.7 m 2.1,-2.1 l -0.7,-1.4 h 1.4 l -0.7,1.4 m 2.1,2.1 l 1.4,-0.7 v 1.4 l -1.4,-0.7 m -2.1,2.1 l -0.7,1.4 h 1.4 l -0.7,-1.4 m 0.0,-1.4 M 644.8,348.4 m -2.1,0.0 l -1.4,-0.7 v 1.4 l 1.4,-0.7 m 2.1,-2.1 l -0.7,-1.4 h 1.4 l -0.7,1.4 m 2.1,2.1 l 1.4,-0.7 v 1.4 l -1.4,-0.7 m -2.1,2.1 l -0.7,1.4 h 1.4 l -0.7,-1.4 m 0.0,-1.4 M 649.2,340.3 m -2.1,0.0 l -1.4,-0.7 v 1.4 l 1.4,-0.7 m 2.1,-2.1 l -0.7,-1.4 h 1.4 l -0.7,1.4 m 2.1,2.1 l 1.4,-0.7 v 1.4 l -1.4,-0.7 m -2.1,2.1 l -0.7,1.4 h 1.4 l -0.7,-1.4 m 0.0,-1.4 M 653.6,332.5 m -2.1,0.0 l -1.4,-0.7 v 1.4 l 1.4,-0.7 m 2.1,-2.1 l -0.7,-1.4 h 1.4 l -0.7,1.4 m 2.1,2.1 l 1.4,-0.7 v 1.4 l -1.4,-0.7 m -2.1,2.1 l -0.7,1.4 h 1.4 l -0.7,-1.4 m 0.0,-1.4 M 658.1,325.1 m -2.1,0.0 l -1.4,-0.7 v 1.4 l 1.4,-0.7 m 2.1,-2.1 l -0.7,-1.4 h 1.4 l -0.7,1.4 m 2.1,2.1 l 1.4,-0.7 v 1.4 l -1.4,-0.7 m -2.1,2.1 l -0.7,1.4 h 1.4 l -0.7,-1.4 m 0.0,-1.4 M 662.5,317.9 m -2.1,0.0 l -1.4,-0.7 v 1.4 l 1.4,-0.7 m 2.1,-2.1 l -0.7,-1.4 h 1.4 l -0.7,1.4 m 2.1,2.1 l 1.4,-0.7 v 1.4 l -1.4,-0.7 m -2.1,2.1 l -0.7,1.4 h 1.4 l -0.7,-1.4 m 0.0,-1.4 M 667.0,311.1 m -2.1,0.0 l -1.4,-0.7 v 1.4 l 1.4,-0.7 m 2.1,-2.1 l -0.7,-1.4 h 1.4 l -0.7,1.4 m 2.1,2.1 l 1.4,-0.7 v 1.4 l -1.4,-0.7 m -2.1,2.1 l -0.7,1.4 h 1.4 l -0.7,-1.4 m 0.0,-1.4 M 671.4,304.4 m -2.1,0.0 l -1.4,-0.7 v 1.4 l 1.4,-0.7 m 2.1,-2.1 l -0.7,-1.4 h 1.4 l -0.7,1.4 m 2.1,2.1 l 1.4,-0.7 v 1.4 l -1.4,-0.7 m -2.1,2.1 l -0.7,1.4 h 1.4 l -0.7,-1.4 m 0.0,-1.4 M 675.9,297.9 m -2.1,0.0 l -1.4,-0.7 v 1.4 l 1.4,-0.7 m 2.1,-2.1 l -0.7,-1.4 h 1.4 l -0.7,1.4 m 2.1,2.1 l 1.4,-0.7 v 1.4 l -1.4,-0.7 m -2.1,2.1 l -0.7,1.4 h 1.4 l -0.7,-1.4 m 0.0,-1.4 M 680.3,291.6 m -2.1,0.0 l -1.4,-0.7 v 1.4 l 1.4,-0.7 m 2.1,-2.1 l -0.7,-1.4 h 1.4 l -0.7,1.4 m 2.1,2.1 l 1.4,-0.7 v 1.4 l -1.4,-0.7 m -2.1,2.1 l -0.7,1.4 h 1.4 l -0.7,-1.4 m 0.0,-1.4 M 684.7,285.4 m -2.1,0.0 l -1.4,-0.7 v 1.4 l 1.4,-0.7 m 2.1,-2.1 l -0.7,-1.4 h 1.4 l -0.7,1.4 m 2.1,2.1 l 1.4,-0.7 v 1.4 l -1.4,-0.7 m -2.1,2.1 l -0.7,1.4 h 1.4 l -0.7,-1.4 m 0.0,-1.4 M 689.2,279.3 m -2.1,0.0 l -1.4,-0.7 v 1.4 l 1.4,-0.7 m 2.1,-2.1 l -0.7,-1.4 h 1.4 l -0.7,1.4 m 2.1,2.1 l 1.4,-0.7 v 1.4 l -1.4,-0.7 m -2.1,2.1 l -0.7,1.4 h 1.4 l -0.7,-1.4 m 0.0,-1.4 M 693.6,273.2 m -2.1,0.0 l -1.4,-0.7 v 1.4 l 1.4,-0.7 m 2.1,-2.1 l -0.7,-1.4 h 1.4 l -0.7,1.4 m 2.1,2.1 l 1.4,-0.7 v 1.4 l -1.4,-0.7 m -2.1,2.1 l -0.7,1.4 h 1.4 l -0.7,-1.4 m 0.0,-1.4 M 698.1,267.2 m -2.1,0.0 l -1.4,-0.7 v 1.4 l 1.4,-0.7 m 2.1,-2.1 l -0.7,-1.4 h 1.4 l -0.7,1.4 m 2.1,2.1 l 1.4,-0.7 v 1.4 l -1.4,-0.7 m -2.1,2.1 l -0.7,1.4 h 1.4 l -0.7,-1.4 m 0.0,-1.4 M 702.5,261.3 m -2.1,0.0 l -1.4,-0.7 v 1.4 l 1.4,-0.7 m 2.1,-2.1 l -0.7,-1.4 h 1.4 l -0.7,1.4 m 2.1,2.1 l 1.4,-0.7 v 1.4 l -1.4,-0.7 m -2.1,2.1 l -0.7,1.4 h 1.4 l -0.7,-1.4 m 0.0,-1.4 " />
<path class="plot05" d=" M 63.0,261.2 L 67.4,261.0 L 71.9,260.2 L 76.3,258.9 L 80.8,257.1 L 85.2,254.8 L 89.6,252.1 L 94.1,248.9 L 98.5,245.2 L 103.0,241.2 L 107.4,236.8 L 111.9,232.1 L 116.3,227.0 L 120.7,221.7 L 125.2,216.2 L 129.6,210.5 L 134.1,204.7 L 138.5,198.8 L 142.9,192.8 L 147.4,186.9 L 151.8,181.0 L 156.3,175.1 L 160.7,169.4 L 165.1,163.9 L 169.6,158.6 L 174.0,153.6 L 178.5,148.9 L 182.9,144.5 L 187.3,140.4 L 191.8,136.8 L 196.2,133.6 L 200.7,130.8 L 205.1,128.5 L 209.6,126.7 L 214.0,125.5 L 218.4,124.7 L 222.9,124.4 L 227.3,124.7 L 231.8,125.5 L 236.2,126.7 L 240.6,128.5 L 245.1,130.8 L 249.5,133.6 L 254.0,136.8 L 258.4,140.4 L 262.8,144.5 L 267.3,148.9 L 271.7,153.6 L 276.2,158.6 L 280.6,163.9 L 285.0,169.4 L 289.5,175.1 L 293.9,181.0 L 298.4,186.9 L 302.8,192.8 L 307.3,198.8 L 311.7,204.7 L 316.1,210.5 L 320.6,216.2 L 325.0,221.7 L 329.5,227.0 L 333.9,232.1 L 338.3,236.8 L 342.8,241.2 L 347.2,245.2 L 351.7,248.9 L 356.1,252.1 L 360.5,254.8 L 365.0,257.1 L 369.4,258.9 L 373.9,260.2 L 378.3,261.0 L 382.8,261.2 L 387.2,261.0 L 391.6,260.2 L 396.1,258.9 L 400.5,257.1 L 405.0,254.8 L 409.4,252.1 L 413.8,248.9 L 418.3,245.2 L 422.7,241.2 L 427.2,236.8 L 431.6,232.1 L 436.0,227.0 L 440.5,221.7 L 444.9,216.2 L 449.4,210.5 L 453.8,204.7 L 458.2,198.8 L 462.7,192.8 L 467.1,186.9 L 471.6,181.0 L 476.0,175.1 L 480.5,169.4 L 484.9,163.9 L 489.3,158.6 L 493.8,153.6 L 498.2,148.9 L 502.7,144.5 L 507.1,140.4 L 511.5,136.8 L 516.0,133.6 L 520.4,130.8 L 524.9,128.5 L 529.3,126.7 L 533.7,125.5 L 538.2,124.7 L 542.6,124.4 L 547.1,124.7 L 551.5,125.5 L 555.9,126.7 L 560.4,128.5 L 564.8,130.8 L 569.3,133.6 L 573.7,136.8 L 578.2,140.4 L 582.6,144.5 L 587.0,148.9 L 591.5,153.6 L 595.9,158.6 L 600.4,163.9 L 604.8,169.4 L 609.2,175.1 L 613.7,181.0 L 618.1,186.9 L 622.6,192.8 L 627.0,198.8 L 631.4,204.7 L 635.9,210.5 L 640.3,216.2 L 644.8,221.7 L 649.2,227.0 L 653.6,232.1 L 658.1,236.8 L 662.5,241.2 L 667.0,245.2 L 671.4,248.9 L 675.9,252.1 L 680.3,254.8 L 684.7,257.1 L 689.2,258.9 L 693.6,260.2 L 698.1,261.0 L 702.5,261.2 M 63.0,261.2 m -1.8,-1.8 l -1.8,-1.8 h 1.8 l 3.5,1.8 l 1.8,-1.8 v 1.8 l -1.8,3.5 l 1.8,1.8 h -1.8 l -3.5,-1.8 l -1.8,1.8 v -1.8 l 1.8,-3.5 m 1.8,1.8 M 76.3,258.9 m -1.8,-1.8 l -1.8,-1.8 h 1.8 l 3.5,1.8 l 1.8,-1.8 v 1.8 l -1.8,3.5 l 1.8,1.8 h -1.8 l -3.5,-1.8 l -1.8,1.8 v -1.8 l 1.8,-3.5 m 1.8,1.8 M 89.6,252.1 m -1.8,-1.8 l -1.8,-1.8 h 1.8 l 3.5,1.8 l 1.8,-1.8 v 1.8 l -1.8,3.5 l 1.8,1.8 h -1.8 l -3.5,-1.8 l -1.8,1.8 v -1.8 l 1.8,-3.5 m 1.8,1.8 M 98.5,245.2 m -1.8,-1.8 l -1.8,-1.8 h 1.8 l 3.5,1.8 l 1.8,-1.8 v 1.8 l -1.8,3.5 l 1.8,1.8 h -1.8 l -3.5,-1.8 l -1.8,1.8 v -1.8 l 1.8,-3.5 m 1.8,1.8 M 107.4,236.8 m -1.8,-1.8 l -1.8,-1.8 h 1.8 l 3.5,1.8 l 1.8,-1.8 v 1.8 l -1.8,3.5 l 1.8,1.8 h -1.8 l -3.5,-1.8 l -1.8,1.8 v -1.8 l 1.8,-3.5 m 1.8,1.8 M 116.3,227.0 m -1.8,-1.8 l -1.8,-1.8 h 1.8 l 3.5,1.8 l 1.8,-1.8 v 1.8 l -1.8,3.5 l 1.8,1.8 h -1.8 l -3.5,-1.8 l -1.8,1.8 v -1.8 l 1.8,-3.5 m 1.8,1.8 M 125.2,216.2 m -1.8,-1.8 l -1.8,-1.8 h 1.8 l 3.5,1.8 l 1.8,-1.8 v 1.8 l -1.8,3.5 l 1.8,1.8 h -1.8 l -3.5,-1.8 l -1.8,1.8 v -1.8 l 1.8,-3.5 m 1.8,1.8 M 134.1,204.7 m -1.8,-1.8 l -1.8,-1.8 h 1.8 l 3.5,1.8 l 1.8,-1.8 v 1.8 l -1.8,3.5 l 1.8,1.8 h -1.8 l -3.5,-1.8 l -1.8,1.8 v -1.8 l 1.8,-3.5 m 1.8,1.8 M 142.9,192.8 m -1.8,-1.8 l -1.8,-1.8 h 1.8 l 3.5,1.8 l 1.8,-1.8 v 1.8 l -1.8,3.5 l 1.8,1.8 h -1.8 l -3.5,-1.8 l -1.8,1.8 v -1.8 l 1.8,-3.5 m 1.8,1.8 M 151.8,181.0 m -1.8,-1.8 l -1.8,-1.8 h 1.8 l 3.5,1.8 l 1.8,-1.8 v 1.8 l -1.8,3.5 l 1.8,1.8 h -1.8 l -3.5,-1.8 l -1.8,1.8 v -1.8 l 1.8,-3.5 m 1.8,1.8 M 160.7,169.4 m -1.8,-1.8 l -1.8,-1.8 h 1.8 l 3.5,1.8 l 1.8,-1.8 v 1.8 l -1.8,3.5 l 1.8,1.8 h -1.8 l -3.5,-1.8 l -1.8,1.8 v -1.8 l 1.8,-3.5 m 1.8,1.8 M 169.6,158.6 m -1.8,-1.8 l -1.8,-1.8 h 1.8 l 3.5,1.8 l 1.8,-1.8 v 1.8 l -1.8,3.5 l 1.8,1.8 h -1.8 l -3.5,-1.8 l -1.8,1.8 v -1.8 l 1.8,-3.5 m 1.8,1.8 M 178.5,148.9 m -1.8,-1.8 l -1.8,-1.8 h 1.8 l 3.5,1.8 l 1.8,-1.8 v 1.8 l -1.8,3.5 l 1.8,1.8 h -1.8 l -3.5,-1.8 l -1.8,1.8 v -1.8 l 1.8,-3.5 m 1.8,1.8 M 187.3,140.4 m -1.8,-1.8 l -1.8,-1.8 h 1.8 l 3.5,1.8 l 1.8,-1.8 v 1.8 l -1.8,3.5 l 1.8,1.8 h -1.8 l -3.5,-1.8 l -1.8,1.8 v -1.8 l 1.8,-3.5 m 1.8,1.8 M 196.2,133.6 m -1.8,-1.8 l -1.8,-1.8 h 1.8 l 3.5,1.8 l 1.8,-1.8 v 1.8 l -1.8,3.5 l 1.8,1.8 h -1.8 l -3.5,-1.8 l -1.8,1.8 v -1.8 l 1.8,-3.5 m 1.8,1.8 M 205.1,128.5 m -1.8,-1.8 l -1.8,-1.8 h 1.8 l 3.5,1.8 l 1.8,-1.8 v 1.8 l -1.8,3.5 l 1.8,1.8 h -1.8 l -3.5,-1.8 l -1.8,1.8 v -1.8 l 1.8,-3.5 m 1.8,1.8 M 218.4,124.7 m -1.8,-1.8 l -1.8,-1.8 h 1.8 l 3.5,1.8 l 1.8,-1.8 v 1.8 l -1.8,3.5 l 1.8,1.8 h -1.8 l -3.5,-1.8 l -1.8,1.8 v -1.8 l 1.8,-3.5 m 1.8,1.8 M 231.8,125.5 m -1.8,-1.8 l -1.8,-1.8 h 1.8 l 3.5,1.8 l 1.8,-1.8 v 1.8 l -1.8,3.5 l 1.8,1.8 h -1.8 l -3.5,-1.8 l -1.8,1.8 v -1.8 l 1.8,-3.5 m 1.8,1.8 M 245.1,130.8 m -1.8,-1.8 l -1.8,-1.8 h 1.8 l 3.5,1.8 l 1.8,-1.8 v 1.8 l -1.8,3.5 l 1.8,1.8 h -1.8 l -3.5,-1.8 l -1.8,1.8 v -1.8 l 1.8,-3.5 m 1.8,1.8 M 254.0,136.8 m -1.8,-1.8 l -1.8,-1.8 h 1.8 l 3.5,1.8 l 1.8,-1.8 v 1.8 l -1.8,3.5 l 1.8,1.8 h -1.8 l -3.5,-1.8 l -1.8,1.8 v -1.8 l 1.8,-3.5 m 1.8,1.8 M 262.8,144.5 m -1.8,-1.8 l -1.8,-1.8 h 1.8 l 3.5,1.8 l 1.8,-1.8 v 1.8 l -1.8,3.5 l 1.8,1.8 h -1.8 l -3.5,-1.8 l -1.8,1.8 v -1.8 l 1.8,-3.5 m 1.8,1.8 M 271.7,153.6 m -1.8,-1.8 l -1.8,-1.8 h 1.8 l 3.5,1.8 l 1.8,-1.8 v 1.8 l -1.8,3.5 l 1.8,1.8 h -1.8 l -3.5,-1.8 l -1.8,1.8 v -1.8 l 1.8,-3.5 m 1.8,1.8 M 280.6,163.9 m -1.8,-1.8 l -1.8,-1.8 h 1.8 l 3.5,1.8 l 1.8,-1.8 v 1.8 l -1.8,3.5 l 1.8,1.8 h -1.8 l -3.5,-1.8 l -1.8,1.8 v -1.8 l 1.8,-3.5 m 1.8,1.8 M 289.5,175.1 m -1.8,-1.8 l -1.8,-1.8 h 1.8 l 3.5,1.8 l 1.8,-1.8 v 1.8 l -1.8,3.5 l 1.8,1.8 h -1.8 l -3.5,-1.8 l -1.8,1.8 v -1.8 l 1.8,-3.5 m 1.8,1.8 M 298.4,186.9 m -1.8,-1.8 l -1.8,-1.8 h 1.8 l 3.5,1.8 l 1.8,-1.8 v 1.8 l -1.8,3.5 l 1.8,1.8 h -1.8 l -3.5,-1.8 l -1.8,1.8 v -1.8 l 1.8,-3.5 m 1.8,1.8 M 307.3,198.8 m -1.8,-1.8 l -1.8,-1.8 h 1.8 l 3.5,1.8 l 1.8,-1.8 v 1.8 l -1.8,3.5 l 1.8,1.8 h -1.8 l -3.5,-1.8 l -1.8,1.8 v -1.8 l 1.8,-3.5 m 1.8,1.8 M 316.1,210.5 m -1.8,-1.8 l -1.8,-1.8 h 1.8 l 3.5,1.8 l 1.8,-1.8 v 1.8 l -1.8,3.5 l 1.8,1.8 h -1.8 l -3.5,-1.8 l -1.8,1.8 v -1.8 l 1.8,-3.5 m 1.8,1.8 M 325.0,221.7 m -1.8,-1.8 l -1.8,-1.8 h 1.8 l 3.5,1.8 l 1.8,-1.8 v 1.8 l -1.8,3.5 l 1.8,1.8 h -1.8 l -3.5,-1.8 l -1.8,1.8 v -1.8 l 1.8,-3.5 m 1.8,1.8 M 333.9,232.1 m -1.8,-1.8 l -1.8,-1.8 h 1.8 l 3.5,1.8 l 1.8,-1.8 v 1.8 l -1.8,3.5 l 1.8,1.8 h -1.8 l -3.5,-1.8 l -1.8,1.8 v -1.8 l 1.8,-3.5 m 1.8,1.8 M 342.8,241.2 m -1.8,-1.8 l -1.8,-1.8 h 1.8 l 3.5,1.8 l 1.8,-1.8 v 1.8 l -1.8,3.5 l 1.8,1.8 h -1.8 l -3.5,-1.8 l -1.8,1.8 v -1.8 l 1.8,-3.5 m 1.8,1.8 M 351.7,248.9 m -1.8,-1.8 l -1.8,-1.8 h 1.8 l 3.5,1.8 l 1.8,-1.8 v 1.8 l -1.8,3.5 l 1.8,1.8 h -1.8 l -3.5,-1.8 l -1.8,1.8 v -1.8 l 1.8,-3.5 m 1.8,1.8 M 360.5,254.8 m -1.8,-1.8 l -1.8,-1.8 h 1.8 l 3.5,1.8 l 1.8,-1.8 v 1.8 l -1.8,3.5 l 1.8,1.8 h -1.8 l -3.5,-1.8 l -1.8,1.8 v -1.8 l 1.8,-3.5 m 1.8,1.8 M 373.9,260.2 m -1.8,-1.8 l -1.8,-1.8 h 1.8 l 3.5,1.8 l 1.8,-1.8 v 1.8 l -1.8,3.5 l 1.8,1.8 h -1.8 l -3.5,-1.8 l -1.8,1.8 v -1.8 l 1.8,-3.5 m 1.8,1.8 M 387.2,261.0 m -1.8,-1.8 l -1.8,-1.8 h 1.8 l 3.5,1.8 l 1.8,-1.8 v 1.8 l -1.8,3.5 l 1.8,1.8 h -1.8 l -3.5,-1.8 l -1.8,1.8 v -1.8 l 1.8,-3.5 m 1.8,1.8 M 400.5,257.1 m -1.8,-1.8 l -1.8,-1.8 h 1.8 l 3.5,1.8 l 1.8,-1.8 v 1.8 l -1.8,3.5 l 1.8,1.8 h -1.8 l -3.5,-1.8 l -1.8,1.8 v -1.8 l 1.8,-3.5 m 1.8,1.8 M 409.4,252.1 m -1.8,-1.8 l -1.8,-1.8 h 1.8 l 3.5,1.8 l 1.8,-1.8 v 1.8 l -1.8,3.5 l 1.8,1.8 h -1.8 l -3.5,-1.8 l -1.8,1.8 v -1.8 l 1.8,-3.5 m 1.8,1.8 M 418.3,245.2 m -1.8,-1.8 l -1.8,-1.8 h 1.8 l 3.5,1.8 l 1.8,-1.8 v 1.8 l -1.8,3.5 l 1.8,1.8 h -1.8 l -3.5,-1.8 l -1.8,1.8 v -1.8 l 1.8,-3.5 m 1.8,1.8 M 427.2,236.8 m -1.8,-1.8 l -1.8,-1.8 h 1.8 l 3.5,1.8 l 1.8,-1.8 v 1.8 l -1.8,3.5 l 1.8,1.8 h -1.8 l -3.5,-1.8 l -1.8,1.8 v -1.8 l 1.8,-3.5 m 1.8,1.8 M 436.0,227.0 m -1.8,-1.8 l -1.8,-1.8 h 1.8 l 3.5,1.8 l 1.8,-1.8 v 1.8 l -1.8,3.5 l 1.8,1.8 h -1.8 l -3.5,-1.8 l -1.8,1.8 v -1.8 l 1.8,-3.5 m 1.8,1.8 M 444.9,216.2 m -1.8,-1.8 l -1.8,-1.8 h 1.8 l 3.5,1.8 l 1.8,-1.8 v 1.8 l -1.8,3.5 l 1.8,1.8 h -1.8 l -3.5,-1.8 l -1.8,1.8 v -1.8 l 1.8,-3.5 m 1.8,1.8 M 453.8,204.7 m -1.8,-1.8 l -1.8,-1.8 h 1.8 l 3.5,1.8 l 1.8,-1.8 v 1.8 l -1.8,3.5 l 1.8,1.8 h -1.8 l -3.5,-1.8 l -1.8,1.8 v -1.8 l 1.8,-3.5 m 1.8,1.8 M 462.7,192.8 m -1.8,-1.8 l -1.8,-1.8 h 1.8 l 3.5,1.8 l 1.8,-1.8 v 1.8 l -1.8,3.5 l 1.8,1.8 h -1.8 l -3.5,-1.8 l -1.8,1.8 v -1.8 l 1.8,-3.5 m 1.8,1.8 M 471.6,181.0 m -1.8,-1.8 l -1.8,-1.8 h 1.8 l 3.5,1.8 l 1.8,-1.8 v 1.8 l -1.8,3.5 l 1.8,1.8 h -1.8 l -3.5,-1.8 l -1.8,1.8 v -1.8 l 1.8,-3.5 m 1.8,1.8 M 480.5,169.4 m -1.8,-1.8 l -1.8,-1.8 h 1.8 l 3.5,1.8 l 1.8,-1.8 v 1.8 l -1.8,3.5 l 1.8,1.8 h -1.8 l -3.5,-1.8 l -1.8,1.8 v -1.8 l 1.8,-3.5 m 1.8,1.8 M 489.3,158.6 m -1.8,-1.8 l -1.8,-1.8 h 1.8 l 3.5,1.8 l 1.8,-1.8 v 1.8 l -1.8,3.5 l 1.8,1.8 h -1.8 l -3.5,-1.8 l -1.8,1.8 v -1.8 l 1.8,-3.5 m 1.8,1.8 M 498.2,148.9 m -1.8,-1.8 l -1.8,-1.8 h 1.8 l 3.5,1.8 l 1.8,-1.8 v 1.8 l -1.8,3.5 l 1.8,1.8 h -1.8 l -3.5,-1.8 l -1.8,1.8 v -1.8 l 1.8,-3.5 m 1.8,1.8 M 507.1,140.4 m -1.8,-1.8 l -1.8,-1.8 h 1.8 l 3.5,1.8 l 1.8,-1.8 v 1.8 l -1.8,3.5 l 1.8,1.8 h -1.8 l -3.5,-1.8 l -1.8,1.8 v -1.8 l 1.8,-3.5 m 1.8,1.8 M 516.0,133.6 m -1.8,-1.8 l -1.8,-1.8 h 1.8 l 3.5,1.8 l 1.8,-1.8 v 1.8 l -1.8,3.5 l 1.8,1.8 h -1.8 l -3.5,-1.8 l -1.8,1.8 v -1.8 l 1.8,-3.5 m 1.8,1.8 M 524.9,128.5 m -1.8,-1.8 l -1.8,-1.8 h 1.8 l 3.5,1.8 l 1.8,-1.8 v 1.8 l -1.8,3.5 l 1.8,1.8 h -1.8 l -3.5,-1.8 l -1.8,1.8 v -1.8 l 1.8,-3.5 m 1.8,1.8 M 538.2,124.7 m -1.8,-1.8 l -1.8,-1.8 h 1.8 l 3.5,1.8 l 1.8,-1.8 v 1.8 l -1.8,3.5 l 1.8,1.8 h -1.8 l -3.5,-1.8 l -1.8,1.8 v -1.8 l 1.8,-3.5 m 1.8,1.8 M 551.5,125.5 m -1.8,-1.8 l -1.8,-1.8 h 1.8 l 3.5,1.8 l 1.8,-1.8 v 1.8 l -1.8,3.5 l 1.8,1.8 h -1.8 l -3.5,-1.8 l -1.8,1.8 v -1.8 l 1.8,-3.5 m 1.8,1.8 M 564.8,130.8 m -1.8,-1.8 l -1.8,-1.8 h 1.8 l 3.5,1.8 l 1.8,-1.8 v 1.8 l -1.8,3.5 l 1.8,1.8 h -1.8 l -3.5,-1.8 l -1.8,1.8 v -1.8 l 1.8,-3.5 m 1.8,1.8 M 573.7,136.8 m -1.8,-1.8 l -1.8,-1.8 h 1.8 l 3.5,1.8 l 1.8,-1.8 v 1.8 l -1.8,3.5 l 1.8,1.8 h -1.8 l -3.5,-1.8 l -1.8,1.8 v -1.8 l 1.8,-3.5 m 1.8,1.8 M 582.6,144.5 m -1.8,-1.8 l -1.8,-1.8 h 1.8 l 3.5,1.8 l 1.8,-1.8 v 1.8 l -1.8,3.5 l 1.8,1.8 h -1.8 l -3.5,-1.8 l -1.8,1.8 v -1.8 l 1.8,-3.5 m 1.8,1.8 M 591.5,153.6 m -1.8,-1.8 l -1.8,-1.8 h 1.8 l 3.5,1.8 l 1.8,-1.8 v 1.8 l -1.8,3.5 l 1.8,1.8 h -1.8 l -3.5,-1.8 l -1.8,1.8 v -1.8 l 1.8,-3.5 m 1.8,1.8 M 600.4,163.9 m -1.8,-1.8 l -1.8,-1.8 h 1.8 l 3.5,1.8 l 1.8,-1.8 v 1.8 l -1.8,3.5 l 1.8,1.8 h -1.8 l -3.5,-1.8 l -1.8,1.8 v -1.8 l 1.8,-3.5 m 1.8,1.8 M 609.2,175.1 m -1.8,-1.8 l -1.8,-1.8 h 1.8 l 3.5,1.8 l 1.8,-1.8 v 1.8 l -1.8,3.5 l 1.8,1.8 h -1.8 l -3.5,-1.8 l -1.8,1.8 v -1.8 l 1.8,-3.5 m 1.8,1.8 M 618.1,186.9 m -1.8,-1.8 l -1.8,-1.8 h 1.8 l 3.5,1.8 l 1.8,-1.8 v 1.8 l -1.8,3.5 l 1.8,1.8 h -1.8 l -3.5,-1.8 l -1.8,1.8 v -1.8 l 1.8,-3.5 m 1.8,1.8 M 627.0,198.8 m -1.8,-1.8 l -1.8,-1.8 h 1.8 l 3.5,1.8 l 1.8,-1.8 v 1.8 l -1.8,3.5 l 1.8,1.8 h -1.8 l -3.5,-1.8 l -1.8,1.8 v -1.8 l 1.8,-3.5 m 1.8,1.8 M 635.9,210.5 m -1.8,-1.8 l -1.8,-1.8 h 1.8 l 3.5,1.8 l 1.8,-1.8 v 1.8 l -1.8,3.5 l 1.8,1.8 h -1.8 l -3.5,-1.8 l -1.8,1.8 v -1.8 l 1.8,-3.5 m 1.8,1.8 M 644.8,221.7 m -1.8,-1.8 l -1.8,-1.8 h 1.8 l 3.5,1.8 l 1.8,-1.8 v 1.8 l -1.8,3.5 l 1.8,1.8 h -1.8 l -3.5,-1.8 l -1.8,1.8 v -1.8 l 1.8,-3.5 m 1.8,1.8 M 653.6,232.1 m -1.8,-1.8 l -1.8,-1.8 h 1.8 l 3.5,1.8 l 1.8,-1.8 v 1.8 l -1.8,3.5 l 1.8,1.8 h -1.8 l -3.5,-1.8 l -1.8,1.8 v -1.8 l 1.8,-3.5 m 1.8,1.8 M 662.5,241.2 m -1.8,-1.8 l -1.8,-1.8 h 1.8 l 3.5,1.8 l 1.8,-1.8 v 1.8 l -1.8,3.5 l 1.8,1.8 h -1.8 l -3.5,-1.8 l -1.8,1.8 v -1.8 l 1.8,-3.5 m 1.8,1.8 M 671.4,248.9 m -1.8,-1.8 l -1.8,-1.8 h 1.8 l 3.5,1.8 l 1.8,-1.8 v 1.8 l -1.8,3.5 l 1.8,1.8 h -1.8 l -3.5,-1.8 l -1.8,1.8 v -1.8 l 1.8,-3.5 m 1.8,1.8 M 680.3,254.8 m -1.8,-1.8 l -1.8,-1.8 h 1.8 l 3.5,1.8 l 1.8,-1.8 v 1.8 l -1.8,3.5 l 1.8,1.8 h -1.8 l -3.5,-1.8 l -1.8,1.8 v -1.8 l 1.8,-3.5 m 1.8,1.8 M 693.6,260.2 m -1.8,-1.8 l -1.8,-1.8 h 1.8 l 3.5,1.8 l 1.8,-1.8 v 1.8 l -1.8,3.5 l 1.8,1.8 h -1.8 l -3.5,-1.8 l -1.8,1.8 v -1.8 l 1.8,-3.5 m 1.8,1.8 " />
<path class="plot06" d=" M 67.4,-300.0 L 71.9,-300.0 M 80.8,-300.0 M 85.2,-300.0 L 89.6,-249.4 L 94.1,-172.7 L 98.5,-114.7 L 103.0,-69.1 L 107.4,-32.2 L 111.9,-1.6 L 116.3,24.2 L 120.7,46.5 L 125.2,65.8 L 129.6,82.9 L 134.1,98.2 L 138.5,111.9 L 142.9,124.4 L 147.4,135.9 L 151.8,146.4 L 156.3,156.3 L 160.7,165.4 L 165.1,174.1 L 169.6,182.2 L 174.0,190.0 L 178.5,197.4 L 182.9,204.6 L 187.3,211.4 L 191.8,218.1 L 196.2,224.6 L 200.7,230.9 L 205.1,237.1 L 209.6,243.2 L 214.0,249.3 L 218.4,255.3 L 222.9,261.2 L 227.3,267.2 L 231.8,273.2 L 236.2,279.3 L 240.6,285.4 L 245.1,291.6 L 249.5,297.9 L 254.0,304.4 L 258.4,311.1 L 262.8,317.9 L 267.3,325.1 L 271.7,332.5 L 276.2,340.3 L 280.6,348.4 L 285.0,357.1 L 289.5,366.2 L 293.9,376.1 L 298.4,386.6 L 302.8,398.1 L 307.3,410.6 L 311.7,424.3 L 316.1,439.6 L 320.6,456.7 L 325.0,476.0 L 329.5,498.3 L 333.9,524.1 L 338.3,554.7 L 342.8,591.6 L 347.2,637.2 L 351.7,695.2 L 356.1,771.9 L 360.5,878.5 L 365.0,900.0 M 373.9,900.0 M 378.3,900.0 M 382.8,900.0 M 387.2,-300.0 M 391.6,-300.0 M 396.1,-300.0 M 400.5,-300.0 M 405.0,-300.0 L 409.4,-249.4 L 413.8,-172.7 L 418.3,-114.7 L 422.7,-69.1 L 427.2,-32.2 L 431.6,-1.6 L 436.0,24.2 L 440.5,46.5 L 444.9,65.8 L 449.4,82.9 L 453.8,98.2 L 458.2,111.9 L 462.7,124.4 L 467.1,135.9 L 471.6,146.4 L 476.0,156.3 L 480.5,165.4 L 484.9,174.1 L 489.3,182.2 L 493.8,190.0 L 498.2,197.4 L 502.7,204.6 L 507.1,211.4 L 511.5,218.1 L 516.0,224.6 L 520.4,230.9 L 524.9,237.1 L 529.3,243.2 L 533.7,249.3 L 538.2,255.3 L 542.6,261.2 L 547.1,267.2 L 551.5,273.2 L 555.9,279.3 L 560.4,285.4 L 564.8,291.6 L 569.3,297.9 L 573.7,304.4 L 578.2,311.1 L 582.6,317.9 L 587.0,325.1 L 591.5,332.5 L 595.9,340.3 L 600.4,348.4 L 604.8,357.1 L 609.2,366.2 L 613.7,376.1 L 618.1,386.6 L 622.6,398.1 L 627.0,410.6 L 631.4,424.3 L 635.9,439.6 L 640.3,456.7 L 644.8,476.0 L 649.2,498.3 L 653.6,524.1 L 658.1,554.7 L 662.5,591.6 L 667.0,637.2 L 671.4,695.2 L 675.9,771.9 L 680.3,878.5 L 684.7,900.0 M 693.6,900.0 M 698.1,900.0 M 702.5,900.0 M 67.4,-300.0 " />
<path class="plot07" d=" M 142.9,164.5 M 462.7,358.0 M 142.9,164.5 m -1.8,0.0 l -1.8,-3.5 l 3.5,1.8 l 3.5,-1.8 l -1.8,3.5 l 1.8,3.5 l -3.5,-1.8 l -3.5,1.8 l 1.8,-3.5 m 1.8,0.0m 0.0,-3.5 a 3.5,3.5,0.0,1,1,0.0,7.0 a 3.5,3.5,0.0,1,1,0.0,-7.0 m 0.0,3.5 M 462.7,358.0 m -1.8,0.0 l -1.8,-3.5 l 3.5,1.8 l 3.5,-1.8 l -1.8,3.5 l 1.8,3.5 l -3.5,-1.8 l -3.5,1.8 l 1.8,-3.5 m 1.8,0.0m 0.0,-3.5 a 3.5,3.5,0.0,1,1,0.0,7.0 a 3.5,3.5,0.0,1,1,0.0,-7.0 m 0.0,3.5 " />
</g>
<text x="382.75" y="494.00" class="xtitle" >Degrees</text>
<text x="-21.00" y="-261.25" class="ytitle" transform="rotate(180)">Function Value</text>
<rect x="709.5" y="126.0" width="84.5" height="185.2" rx="6.0" class="legends" />
<text x="722.50" y="145.50" class="legends headline" >Legends:</text>
<text x="729.00" y="174.75" class="legends plot04" >tan(n)</text>
<path class="plot04" d=" M 754.8,184.5 m -2.1,0.0 l -1.4,-0.7 v 1.4 l 1.4,-0.7 m 2.1,-2.1 l -0.7,-1.4 h 1.4 l -0.7,1.4 m 2.1,2.1 l 1.4,-0.7 v 1.4 l -1.4,-0.7 m -2.1,2.1 l -0.7,1.4 h 1.4 l -0.7,-1.4 m 0.0,-1.4 " />
<text x="729.00" y="213.75" class="legends plot05" >sin²(n)</text>
<path class="plot05" d=" M 729.0,223.5 H 758.2 m -1.8,-1.8 l -1.8,-1.8 h 1.8 l 3.5,1.8 l 1.8,-1.8 v 1.8 l -1.8,3.5 l 1.8,1.8 h -1.8 l -3.5,-1.8 l -1.8,1.8 v -1.8 l 1.8,-3.5 m 1.8,1.8 H 787.5 " />
<text x="729.00" y="252.75" class="legends plot06" >cot(n)</text>
<path class="plot06" d=" M 729.0,262.5 H 787.5 " />
<text x="729.00" y="291.75" class="legends plot07" >sin=cos</text>
<text x="400.00" y="544.00" class="subtitle" >Data by numbers®</text>
<text x="400.00" y="525.25" class="title" >Trigonometric Functions</text>
<text x="150" y="35" class="layout">Data singletons</text>
<path class="layout" d="M 215 38 L 461 352 M 215 38 L 145 159" />
<text x="270" y="575" class="layout" text-anchor="middle">Title</text>
<path class="layout" d="M 270 558 L 272 528" />
<text x="540" y="544" class="layout">Sub Title</text>

</svg>
