<?xml version="1.0" encoding="UTF-8" standalone="no"?>
<svg id="svg-ex2" width="800" height="600" xmlns="http://www.w3.org/2000/svg">
<!--
    Created by csv2svg: 1.26.0-2-g774e7f8 (NewDefaults:486) https://github.com/msalmonse/csv2svg.git
  -->
<style>
svg#svg-ex2 { background-color: #ffedcc }
#svg-ex2 g.plotarea { opacity: 1.0 }
#svg-ex2 g.plotarea path:hover { stroke-width: 5.0 }
#svg-ex2 path { stroke-width: 2.0; fill: none; stroke-linecap: round }
#svg-ex2 path.axes { stroke: black }
#svg-ex2 path.xtick, #svg-ex2 path.ytick { stroke: silver; stroke-width: 1 }
#svg-ex2 text.legends { font-size: 13.0px }
#svg-ex2 text.legends.headline { font-size: 16.2px; font-weight: bold }
#svg-ex2 text.subtitle { font-size: 15.0px; text-anchor: middle }
#svg-ex2 text.title { font-size: 25.0px; text-anchor: middle }
#svg-ex2 text.xlabel { font-size: 10.0px; text-anchor: middle }
#svg-ex2 text.xtitle { font-size: 12.0px; text-anchor: middle }
#svg-ex2 text.ylabel { font-size: 10.0px; text-anchor: end; dominant-baseline: middle }
#svg-ex2 text.ytitle { font-size: 12.0px; text-anchor: middle; writing-mode: tb }
#svg-ex2 path.plot01 { stroke: #ff0000 }
#svg-ex2 text.plot01 { fill: #ff0000; stroke: #ff0000 }
#svg-ex2 path.plot02 { stroke: #008000 }
#svg-ex2 text.plot02 { fill: #008000; stroke: #008000 }
#svg-ex2 path.plot03 { stroke: #ff00ff }
#svg-ex2 text.plot03 { fill: #ff00ff; stroke: #ff00ff }
#svg-ex2 path.plot04 { stroke: #0000ff }
#svg-ex2 text.plot04 { fill: #0000ff; stroke: #0000ff }
#svg-ex2 path.plot05 { stroke: #dc143c }
#svg-ex2 text.plot05 { fill: #dc143c; stroke: #dc143c }
#svg-ex2 path.plot06 { stroke: #f4a460 }
#svg-ex2 text.plot06 { fill: #f4a460; stroke: #f4a460 }
#svg-ex2 path.plot07 { stroke: #8b008b }
#svg-ex2 text.plot07 { fill: #8b008b; stroke: #8b008b }
#svg-ex2 rect.legends { fill: silver; stroke: silver; fill-opacity: 0.1; stroke-width: 1.5 }
</style>
<defs>
<clipPath id="plotable">
<rect x="56.0" y="-1.0" width="653.5" height="524.5" rx="0.0"  />
</clipPath>
</defs>
<path class="xtick" d=" M 79.0,516.5 V 6.0 M 127.0,516.5 V 6.0 M 174.9,516.5 V 6.0 M 222.9,516.5 V 6.0 M 270.8,516.5 V 6.0 M 318.8,516.5 V 6.0 M 366.8,516.5 V 6.0 M 414.7,516.5 V 6.0 M 462.7,516.5 V 6.0 M 510.7,516.5 V 6.0 M 558.6,516.5 V 6.0 M 606.6,516.5 V 6.0 M 654.5,516.5 V 6.0 M 702.5,516.5 V 6.0 " />
<text x="78.99" y="529.00" class="xlabel" >81</text>
<text x="126.95" y="529.00" class="xlabel" >84</text>
<text x="174.91" y="529.00" class="xlabel" >87</text>
<text x="222.88" y="529.00" class="xlabel" >90</text>
<text x="270.84" y="529.00" class="xlabel" >93</text>
<text x="318.80" y="529.00" class="xlabel" >96</text>
<text x="366.76" y="529.00" class="xlabel" >99</text>
<text x="414.73" y="529.00" class="xlabel" >102</text>
<text x="462.69" y="529.00" class="xlabel" >105</text>
<text x="510.65" y="529.00" class="xlabel" >108</text>
<text x="558.61" y="529.00" class="xlabel" >111</text>
<text x="606.58" y="529.00" class="xlabel" >114</text>
<text x="654.54" y="529.00" class="xlabel" >117</text>
<text x="702.50" y="529.00" class="xlabel" >120</text>
<path class="ytick" d=" M 63.0,218.7 H 702.5 M 63.0,303.8 H 702.5 M 63.0,176.2 H 702.5 M 63.0,346.3 H 702.5 M 63.0,133.6 H 702.5 M 63.0,388.9 H 702.5 M 63.0,91.1 H 702.5 M 63.0,431.4 H 702.5 M 63.0,48.5 H 702.5 M 63.0,474.0 H 702.5 M 63.0,6.0 H 702.5 M 63.0,516.5 H 702.5 " />
<text x="61.00" y="218.71" class="ylabel" >0.25</text>
<text x="61.00" y="303.79" class="ylabel" >-0.25</text>
<text x="61.00" y="176.17" class="ylabel" >0.50</text>
<text x="61.00" y="346.33" class="ylabel" >-0.50</text>
<text x="61.00" y="133.62" class="ylabel" >0.75</text>
<text x="61.00" y="388.88" class="ylabel" >-0.75</text>
<text x="61.00" y="91.08" class="ylabel" >1.00</text>
<text x="61.00" y="431.42" class="ylabel" >-1.00</text>
<text x="61.00" y="48.54" class="ylabel" >1.25</text>
<text x="61.00" y="473.96" class="ylabel" >-1.25</text>
<text x="61.00" y="6.00" class="ylabel" >1.50</text>
<text x="61.00" y="516.50" class="ylabel" >-1.50</text>
<path class="axes" d=" M 63.0,261.2 H 702.5 " />
<g clip-path="url(#plotable)" class="plotarea">
<path class="plot02" d=" M -400.0,261.2 L -400.0,253.8 M -400.0,239.0 M -400.0,231.7 M -400.0,224.4 M -400.0,217.2 M -400.0,210.1 M -400.0,203.0 M -400.0,196.1 M -400.0,189.3 M -400.0,182.7 M -400.0,176.2 M -400.0,169.8 M -400.0,163.6 M -400.0,157.7 M -400.0,151.9 M -400.0,146.3 M -400.0,140.9 M -400.0,135.8 M -400.0,130.9 L -376.7,126.2 L -336.7,121.9 L -296.7,117.7 L -256.8,113.9 L -216.8,110.3 L -176.8,107.0 L -136.8,104.0 L -96.9,101.3 L -56.9,99.0 L -16.9,96.9 L 23.0,95.1 L 63.0,93.7 L 103.0,92.5 L 142.9,91.7 L 182.9,91.2 L 222.9,91.1 L 262.8,91.2 L 302.8,91.7 L 342.8,92.5 L 382.8,93.7 L 422.7,95.1 L 462.7,96.9 L 502.7,99.0 L 542.6,101.3 L 582.6,104.0 L 622.6,107.0 L 662.5,110.3 L 702.5,113.9 L 742.5,117.7 L 782.4,121.9 L 822.4,126.2 L 862.4,130.9 L 902.3,135.8 L 942.3,140.9 L 982.3,146.3 L 1022.2,151.9 L 1062.2,157.7 L 1102.2,163.6 L 1142.2,169.8 L 1182.1,176.2 L 1200.0,182.7 M 1200.0,196.1 M 1200.0,203.0 M 1200.0,210.1 M 1200.0,217.2 M 1200.0,224.4 M 1200.0,231.7 M 1200.0,239.0 M 1200.0,246.4 M 1200.0,253.8 M 1200.0,261.2 M 1200.0,268.7 M 1200.0,276.1 M 1200.0,283.5 M 1200.0,290.8 M 1200.0,298.1 M 1200.0,305.3 M 1200.0,312.4 M 1200.0,319.5 M 1200.0,326.4 M 1200.0,333.2 M 1200.0,339.8 M 1200.0,346.3 M 1200.0,352.7 M 1200.0,358.9 M 1200.0,364.8 M 1200.0,370.6 M 1200.0,376.2 M 1200.0,381.6 M 1200.0,386.7 M 1200.0,391.6 M 1200.0,396.3 M 1200.0,400.6 M 1200.0,404.8 M 1200.0,408.6 M 1200.0,412.2 M 1200.0,415.5 M 1200.0,418.5 M 1200.0,421.2 M 1200.0,423.5 M 1200.0,425.6 M 1200.0,427.4 M 1200.0,428.8 M 1200.0,430.0 M 1200.0,430.8 M 1200.0,431.3 M 1200.0,431.4 M 1200.0,431.3 M 1200.0,430.8 M 1200.0,430.0 M 1200.0,428.8 M 1200.0,427.4 M 1200.0,425.6 M 1200.0,423.5 M 1200.0,421.2 M 1200.0,418.5 M 1200.0,415.5 M 1200.0,412.2 M 1200.0,408.6 M 1200.0,404.8 M 1200.0,400.6 M 1200.0,396.3 M 1200.0,391.6 M 1200.0,386.7 M 1200.0,381.6 M 1200.0,376.2 M 1200.0,370.6 M 1200.0,364.8 M 1200.0,358.9 M 1200.0,352.7 M 1200.0,346.3 M 1200.0,339.8 M 1200.0,333.2 M 1200.0,326.4 M 1200.0,319.5 M 1200.0,312.4 M 1200.0,305.3 M 1200.0,298.1 M 1200.0,290.8 M 1200.0,283.5 M 1200.0,276.1 M 1200.0,268.7 M 1200.0,261.3 " />
<path class="plot03" d=" M -400.0,91.1 L -400.0,91.2 M -400.0,92.5 M -400.0,93.7 M -400.0,95.1 M -400.0,96.9 M -400.0,99.0 M -400.0,101.3 M -400.0,104.0 M -400.0,107.0 M -400.0,110.3 M -400.0,113.9 M -400.0,117.7 M -400.0,121.9 M -400.0,126.2 M -400.0,130.9 M -400.0,135.8 M -400.0,140.9 M -400.0,146.3 M -400.0,151.9 L -376.7,157.7 L -336.7,163.6 L -296.7,169.8 L -256.8,176.2 L -216.8,182.7 L -176.8,189.3 L -136.8,196.1 L -96.9,203.0 L -56.9,210.1 L -16.9,217.2 L 23.0,224.4 L 63.0,231.7 L 103.0,239.0 L 142.9,246.4 L 182.9,253.8 L 222.9,261.2 L 262.8,268.7 L 302.8,276.1 L 342.8,283.5 L 382.8,290.8 L 422.7,298.1 L 462.7,305.3 L 502.7,312.4 L 542.6,319.5 L 582.6,326.4 L 622.6,333.2 L 662.5,339.8 L 702.5,346.3 L 742.5,352.7 L 782.4,358.9 L 822.4,364.8 L 862.4,370.6 L 902.3,376.2 L 942.3,381.6 L 982.3,386.7 L 1022.2,391.6 L 1062.2,396.3 L 1102.2,400.6 L 1142.2,404.8 L 1182.1,408.6 L 1200.0,412.2 M 1200.0,418.5 M 1200.0,421.2 M 1200.0,423.5 M 1200.0,425.6 M 1200.0,427.4 M 1200.0,428.8 M 1200.0,430.0 M 1200.0,430.8 M 1200.0,431.3 M 1200.0,431.4 M 1200.0,431.3 M 1200.0,430.8 M 1200.0,430.0 M 1200.0,428.8 M 1200.0,427.4 M 1200.0,425.6 M 1200.0,423.5 M 1200.0,421.2 M 1200.0,418.5 M 1200.0,415.5 M 1200.0,412.2 M 1200.0,408.6 M 1200.0,404.8 M 1200.0,400.6 M 1200.0,396.3 M 1200.0,391.6 M 1200.0,386.7 M 1200.0,381.6 M 1200.0,376.2 M 1200.0,370.6 M 1200.0,364.8 M 1200.0,358.9 M 1200.0,352.7 M 1200.0,346.3 M 1200.0,339.8 M 1200.0,333.2 M 1200.0,326.4 M 1200.0,319.5 M 1200.0,312.4 M 1200.0,305.3 M 1200.0,298.1 M 1200.0,290.8 M 1200.0,283.5 M 1200.0,276.1 M 1200.0,268.7 M 1200.0,261.3 M 1200.0,253.8 M 1200.0,246.4 M 1200.0,239.0 M 1200.0,231.7 M 1200.0,224.4 M 1200.0,217.2 M 1200.0,210.1 M 1200.0,203.0 M 1200.0,196.1 M 1200.0,189.3 M 1200.0,182.7 M 1200.0,176.2 M 1200.0,169.8 M 1200.0,163.6 M 1200.0,157.7 M 1200.0,151.9 M 1200.0,146.3 M 1200.0,140.9 M 1200.0,135.8 M 1200.0,130.9 M 1200.0,126.2 M 1200.0,121.9 M 1200.0,117.7 M 1200.0,113.9 M 1200.0,110.3 M 1200.0,107.0 M 1200.0,104.0 M 1200.0,101.3 M 1200.0,99.0 M 1200.0,96.9 M 1200.0,95.1 M 1200.0,93.7 M 1200.0,92.5 M 1200.0,91.7 M 1200.0,91.2 M 1200.0,91.1 " />
<path class="plot04" d=" M -400.0,261.2 L -400.0,253.8 M -400.0,238.8 M -400.0,231.2 M -400.0,223.5 M -400.0,215.7 M -400.0,207.6 M -400.0,199.3 M -400.0,190.8 M -400.0,181.9 M -400.0,172.7 M -400.0,163.0 M -400.0,152.8 M -400.0,142.1 M -400.0,130.7 M -400.0,118.5 M -400.0,105.3 M -400.0,91.1 M -400.0,75.5 M -400.0,58.5 L -376.7,39.5 L -336.7,18.2 L -296.7,-5.9 L -256.8,-33.5 L -216.8,-65.6 L -176.8,-103.7 L -136.8,-149.6 L -96.9,-206.3 L -56.9,-278.4 L -16.9,-300.0 M 63.0,-300.0 M 103.0,-300.0 M 142.9,-300.0 M 182.9,-300.0 M 222.9,-300.0 M 262.8,900.0 M 302.8,900.0 M 342.8,900.0 M 382.8,900.0 M 422.7,900.0 L 462.7,896.3 L 502.7,800.9 L 542.6,728.8 L 582.6,672.1 L 622.6,626.2 L 662.5,588.1 L 702.5,556.0 L 742.5,528.4 L 782.4,504.3 L 822.4,483.0 L 862.4,464.0 L 902.3,447.0 L 942.3,431.4 L 982.3,417.2 L 1022.2,404.0 L 1062.2,391.8 L 1102.2,380.4 L 1142.2,369.7 L 1182.1,359.5 L 1200.0,349.8 M 1200.0,331.7 M 1200.0,323.2 M 1200.0,314.9 M 1200.0,306.8 M 1200.0,299.0 M 1200.0,291.3 M 1200.0,283.7 M 1200.0,276.1 M 1200.0,268.7 M 1200.0,261.2 M 1200.0,253.8 M 1200.0,246.4 M 1200.0,238.8 M 1200.0,231.2 M 1200.0,223.5 M 1200.0,215.7 M 1200.0,207.6 M 1200.0,199.3 M 1200.0,190.8 M 1200.0,181.9 M 1200.0,172.7 M 1200.0,163.0 M 1200.0,152.8 M 1200.0,142.1 M 1200.0,130.7 M 1200.0,118.5 M 1200.0,105.3 M 1200.0,91.1 M 1200.0,75.5 M 1200.0,58.5 M 1200.0,39.5 M 1200.0,18.2 M 1200.0,-5.9 M 1200.0,-33.5 M 1200.0,-65.6 M 1200.0,-103.7 M 1200.0,-149.6 M 1200.0,-206.3 M 1200.0,-278.4 M 1200.0,-300.0 M 1200.0,-300.0 M 1200.0,-300.0 M 1200.0,-300.0 M 1200.0,-300.0 M 1200.0,-300.0 M 1200.0,-300.0 M 1200.0,900.0 M 1200.0,900.0 M 1200.0,900.0 M 1200.0,900.0 M 1200.0,900.0 M 1200.0,896.3 M 1200.0,800.9 M 1200.0,728.8 M 1200.0,672.1 M 1200.0,626.2 M 1200.0,588.1 M 1200.0,556.0 M 1200.0,528.4 M 1200.0,504.3 M 1200.0,483.0 M 1200.0,464.0 M 1200.0,447.0 M 1200.0,431.4 M 1200.0,417.2 M 1200.0,404.0 M 1200.0,391.8 M 1200.0,380.4 M 1200.0,369.7 M 1200.0,359.5 M 1200.0,349.8 M 1200.0,340.6 M 1200.0,331.7 M 1200.0,323.2 M 1200.0,314.9 M 1200.0,306.8 M 1200.0,299.0 M 1200.0,291.3 M 1200.0,283.7 M 1200.0,276.1 M 1200.0,268.7 M 1200.0,261.3 " />
<path class="plot05" d=" M -400.0,261.2 L -400.0,260.9 M -400.0,258.4 M -400.0,256.1 M -400.0,253.3 M -400.0,249.9 M -400.0,245.9 M -400.0,241.3 M -400.0,236.3 M -400.0,230.9 M -400.0,225.0 M -400.0,218.7 M -400.0,212.1 M -400.0,205.3 M -400.0,198.2 M -400.0,190.9 M -400.0,183.6 M -400.0,176.2 M -400.0,168.8 M -400.0,161.4 L -376.7,154.1 L -336.7,147.1 L -296.7,140.2 L -256.8,133.6 L -216.8,127.4 L -176.8,121.5 L -136.8,116.0 L -96.9,111.0 L -56.9,106.5 L -16.9,102.5 L 23.0,99.1 L 63.0,96.2 L 103.0,94.0 L 142.9,92.4 L 182.9,91.4 L 222.9,91.1 L 262.8,91.4 L 302.8,92.4 L 342.8,94.0 L 382.8,96.2 L 422.7,99.1 L 462.7,102.5 L 502.7,106.5 L 542.6,111.0 L 582.6,116.0 L 622.6,121.5 L 662.5,127.4 L 702.5,133.6 L 742.5,140.2 L 782.4,147.1 L 822.4,154.1 L 862.4,161.4 L 902.3,168.8 L 942.3,176.2 L 982.3,183.6 L 1022.2,190.9 L 1062.2,198.2 L 1102.2,205.3 L 1142.2,212.1 L 1182.1,218.7 L 1200.0,225.0 M 1200.0,236.3 M 1200.0,241.3 M 1200.0,245.9 M 1200.0,249.9 M 1200.0,253.3 M 1200.0,256.1 M 1200.0,258.4 M 1200.0,260.0 M 1200.0,260.9 M 1200.0,261.2 M 1200.0,260.9 M 1200.0,260.0 M 1200.0,258.4 M 1200.0,256.1 M 1200.0,253.3 M 1200.0,249.9 M 1200.0,245.9 M 1200.0,241.3 M 1200.0,236.3 M 1200.0,230.9 M 1200.0,225.0 M 1200.0,218.7 M 1200.0,212.1 M 1200.0,205.3 M 1200.0,198.2 M 1200.0,190.9 M 1200.0,183.6 M 1200.0,176.2 M 1200.0,168.8 M 1200.0,161.4 M 1200.0,154.1 M 1200.0,147.1 M 1200.0,140.2 M 1200.0,133.6 M 1200.0,127.4 M 1200.0,121.5 M 1200.0,116.0 M 1200.0,111.0 M 1200.0,106.5 M 1200.0,102.5 M 1200.0,99.1 M 1200.0,96.2 M 1200.0,94.0 M 1200.0,92.4 M 1200.0,91.4 M 1200.0,91.1 M 1200.0,91.4 M 1200.0,92.4 M 1200.0,94.0 M 1200.0,96.2 M 1200.0,99.1 M 1200.0,102.5 M 1200.0,106.5 M 1200.0,111.0 M 1200.0,116.0 M 1200.0,121.5 M 1200.0,127.4 M 1200.0,133.6 M 1200.0,140.2 M 1200.0,147.1 M 1200.0,154.1 M 1200.0,161.4 M 1200.0,168.8 M 1200.0,176.2 M 1200.0,183.6 M 1200.0,190.9 M 1200.0,198.2 M 1200.0,205.3 M 1200.0,212.1 M 1200.0,218.7 M 1200.0,225.0 M 1200.0,230.9 M 1200.0,236.3 M 1200.0,241.3 M 1200.0,245.9 M 1200.0,249.9 M 1200.0,253.3 M 1200.0,256.1 M 1200.0,258.4 M 1200.0,260.0 M 1200.0,260.9 M 1200.0,261.2 " />
<path class="plot06" d=" M -400.0,-300.0 L -400.0,-300.0 M -400.0,-300.0 M -400.0,-300.0 M -400.0,-300.0 M -400.0,-278.4 M -400.0,-206.3 M -400.0,-149.6 M -400.0,-103.7 M -400.0,-65.6 M -400.0,-33.5 M -400.0,-5.9 M -400.0,18.2 M -400.0,39.5 M -400.0,58.5 M -400.0,75.5 M -400.0,91.1 M -400.0,105.3 M -400.0,118.5 L -376.7,130.7 L -336.7,142.1 L -296.7,152.8 L -256.8,163.0 L -216.8,172.7 L -176.8,181.9 L -136.8,190.8 L -96.9,199.3 L -56.9,207.6 L -16.9,215.7 L 23.0,223.5 L 63.0,231.2 L 103.0,238.8 L 142.9,246.4 L 182.9,253.8 L 222.9,261.2 L 262.8,268.7 L 302.8,276.1 L 342.8,283.7 L 382.8,291.3 L 422.7,299.0 L 462.7,306.8 L 502.7,314.9 L 542.6,323.2 L 582.6,331.7 L 622.6,340.6 L 662.5,349.8 L 702.5,359.5 L 742.5,369.7 L 782.4,380.4 L 822.4,391.8 L 862.4,404.0 L 902.3,417.2 L 942.3,431.4 L 982.3,447.0 L 1022.2,464.0 L 1062.2,483.0 L 1102.2,504.3 L 1142.2,528.4 L 1182.1,556.0 L 1200.0,588.1 M 1200.0,672.1 M 1200.0,728.8 M 1200.0,800.9 M 1200.0,896.3 M 1200.0,900.0 M 1200.0,900.0 M 1200.0,900.0 M 1200.0,900.0 M 1200.0,900.0 M 1200.0,900.0 M 1200.0,-300.0 M 1200.0,-300.0 M 1200.0,-300.0 M 1200.0,-300.0 M 1200.0,-300.0 M 1200.0,-300.0 M 1200.0,-278.4 M 1200.0,-206.3 M 1200.0,-149.6 M 1200.0,-103.7 M 1200.0,-65.6 M 1200.0,-33.5 M 1200.0,-5.9 M 1200.0,18.2 M 1200.0,39.5 M 1200.0,58.5 M 1200.0,75.5 M 1200.0,91.1 M 1200.0,105.3 M 1200.0,118.5 M 1200.0,130.7 M 1200.0,142.1 M 1200.0,152.8 M 1200.0,163.0 M 1200.0,172.7 M 1200.0,181.9 M 1200.0,190.8 M 1200.0,199.3 M 1200.0,207.6 M 1200.0,215.7 M 1200.0,223.5 M 1200.0,231.2 M 1200.0,238.8 M 1200.0,246.4 M 1200.0,253.8 M 1200.0,261.2 M 1200.0,268.7 M 1200.0,276.1 M 1200.0,283.7 M 1200.0,291.3 M 1200.0,299.0 M 1200.0,306.8 M 1200.0,314.9 M 1200.0,323.2 M 1200.0,331.7 M 1200.0,340.6 M 1200.0,349.8 M 1200.0,359.5 M 1200.0,369.7 M 1200.0,380.4 M 1200.0,391.8 M 1200.0,404.0 M 1200.0,417.2 M 1200.0,431.4 M 1200.0,447.0 M 1200.0,464.0 M 1200.0,483.0 M 1200.0,504.3 M 1200.0,528.4 M 1200.0,556.0 M 1200.0,588.1 M 1200.0,626.2 M 1200.0,672.1 M 1200.0,728.8 M 1200.0,800.9 M 1200.0,896.3 M 1200.0,900.0 M 1200.0,900.0 M 1200.0,900.0 M 1200.0,900.0 M 1200.0,900.0 M 1200.0,900.0 " />
<path class="plot07" d=" M -400.0,140.9 m 0.0,-3.5 a 3.5,3.5,0.0,1,1,0.0,7.0 a 3.5,3.5,0.0,1,1,0.0,-7.0 m 0.0,3.5 M 1200.0,381.6 m 0.0,-3.5 a 3.5,3.5,0.0,1,1,0.0,7.0 a 3.5,3.5,0.0,1,1,0.0,-7.0 m 0.0,3.5 " />
</g>
<text x="382.75" y="544.00" class="xtitle" >Degrees</text>
<text x="-21.00" y="-261.25" class="ytitle" transform="rotate(180)">Function Value</text>
<rect x="709.5" y="32.0" width="84.5" height="165.8" rx="6.0" class="legends" />
<text x="722.50" y="51.50" class="legends headline" >Legends:</text>
<text x="729.00" y="80.75" class="legends plot02" >sin(n)</text>
<text x="729.00" y="100.25" class="legends plot03" >cos(n)</text>
<text x="729.00" y="119.75" class="legends plot04" >tan(n)</text>
<text x="729.00" y="139.25" class="legends plot05" >sin²(n)</text>
<text x="729.00" y="158.75" class="legends plot06" >cot(n)</text>
<text x="729.00" y="178.25" class="legends plot07" >sin=cos</text>
<text x="400.00" y="594.00" class="subtitle" >Data by numbers®</text>
<text x="400.00" y="575.25" class="title" >Trigonometric Functions</text>
</svg>
