<?xml version="1.0" encoding="UTF-8" standalone="no"?>
<svg width="800" height="600" xmlns="http://www.w3.org/2000/svg">
<!--
    Created by csv2svg: 1.23.1-8-gaaed907-dirty (392) https://github.com/msalmonse/csv2svg.git
  -->
<defs>
<clipPath id="plotable">
<rect x="55.0" y="3.0" width="660.5" height="516.5" rx="0.0" />
</clipPath>
</defs>
<rect x="0" y="0" width="800" height="600" rx="0" style="fill: #ffedcc;stroke: none;stroke-width: 0"/>
<path d=" M 97.9,512.5 V 10.0 M 133.8,512.5 V 10.0 M 169.8,512.5 V 10.0 M 205.7,512.5 V 10.0 M 241.6,512.5 V 10.0 M 277.5,512.5 V 10.0 M 313.4,512.5 V 10.0 M 349.3,512.5 V 10.0 M 385.2,512.5 V 10.0 M 421.2,512.5 V 10.0 M 457.1,512.5 V 10.0 M 493.0,512.5 V 10.0 M 528.9,512.5 V 10.0 M 564.8,512.5 V 10.0 M 600.8,512.5 V 10.0 M 636.7,512.5 V 10.0 M 672.6,512.5 V 10.0 M 708.5,512.5 V 10.0 " style="fill: none;stroke: Silver;stroke-linecap: round;stroke-width: 1.0" />
<text x="97.92" y="525.00" style="font-size: 10.0px;text-anchor: middle" >20</text>
<text x="133.83" y="525.00" style="font-size: 10.0px;text-anchor: middle" >40</text>
<text x="169.75" y="525.00" style="font-size: 10.0px;text-anchor: middle" >60</text>
<text x="205.67" y="525.00" style="font-size: 10.0px;text-anchor: middle" >80</text>
<text x="241.58" y="525.00" style="font-size: 10.0px;text-anchor: middle" >100</text>
<text x="277.50" y="525.00" style="font-size: 10.0px;text-anchor: middle" >120</text>
<text x="313.42" y="525.00" style="font-size: 10.0px;text-anchor: middle" >140</text>
<text x="349.33" y="525.00" style="font-size: 10.0px;text-anchor: middle" >160</text>
<text x="385.25" y="525.00" style="font-size: 10.0px;text-anchor: middle" >180</text>
<text x="421.17" y="525.00" style="font-size: 10.0px;text-anchor: middle" >200</text>
<text x="457.08" y="525.00" style="font-size: 10.0px;text-anchor: middle" >220</text>
<text x="493.00" y="525.00" style="font-size: 10.0px;text-anchor: middle" >240</text>
<text x="528.92" y="525.00" style="font-size: 10.0px;text-anchor: middle" >260</text>
<text x="564.83" y="525.00" style="font-size: 10.0px;text-anchor: middle" >280</text>
<text x="600.75" y="525.00" style="font-size: 10.0px;text-anchor: middle" >300</text>
<text x="636.67" y="525.00" style="font-size: 10.0px;text-anchor: middle" >320</text>
<text x="672.58" y="525.00" style="font-size: 10.0px;text-anchor: middle" >340</text>
<text x="708.50" y="525.00" style="font-size: 10.0px;text-anchor: middle" >360</text>
<path d=" M 62.0,219.4 H 708.5 M 62.0,303.1 H 708.5 M 62.0,177.5 H 708.5 M 62.0,345.0 H 708.5 M 62.0,135.6 H 708.5 M 62.0,386.9 H 708.5 M 62.0,93.8 H 708.5 M 62.0,428.8 H 708.5 M 62.0,51.9 H 708.5 M 62.0,470.6 H 708.5 M 62.0,10.0 H 708.5 M 62.0,512.5 H 708.5 " style="fill: none;stroke: Silver;stroke-linecap: round;stroke-width: 1.0" />
<text x="60.00" y="219.38" style="dominant-baseline: middle;font-size: 10.0px;text-anchor: end" >0.25</text>
<text x="60.00" y="303.12" style="dominant-baseline: middle;font-size: 10.0px;text-anchor: end" >-0.25</text>
<text x="60.00" y="177.50" style="dominant-baseline: middle;font-size: 10.0px;text-anchor: end" >0.50</text>
<text x="60.00" y="345.00" style="dominant-baseline: middle;font-size: 10.0px;text-anchor: end" >-0.50</text>
<text x="60.00" y="135.62" style="dominant-baseline: middle;font-size: 10.0px;text-anchor: end" >0.75</text>
<text x="60.00" y="386.88" style="dominant-baseline: middle;font-size: 10.0px;text-anchor: end" >-0.75</text>
<text x="60.00" y="93.75" style="dominant-baseline: middle;font-size: 10.0px;text-anchor: end" >1.00</text>
<text x="60.00" y="428.75" style="dominant-baseline: middle;font-size: 10.0px;text-anchor: end" >-1.00</text>
<text x="60.00" y="51.88" style="dominant-baseline: middle;font-size: 10.0px;text-anchor: end" >1.25</text>
<text x="60.00" y="470.62" style="dominant-baseline: middle;font-size: 10.0px;text-anchor: end" >-1.25</text>
<text x="60.00" y="10.00" style="dominant-baseline: middle;font-size: 10.0px;text-anchor: end" >1.50</text>
<text x="60.00" y="512.50" style="dominant-baseline: middle;font-size: 10.0px;text-anchor: end" >-1.50</text>
<path d=" M 62.0,261.2 H 708.5 M 62.0,512.5 V 10.0 " style="fill: none;stroke: Black;stroke-linecap: round;stroke-width: 2.0" />
<g clip-path="url(#plotable)" opacity="1.00">
<path d=" M 62.0,261.2 L 66.5,253.9 L 71.0,246.6 L 75.5,239.2 L 80.0,231.7 L 84.4,224.1 L 88.9,216.4 L 93.4,208.4 L 97.9,200.3 L 102.4,191.9 L 106.9,183.1 L 111.4,174.1 L 115.9,164.5 L 120.4,154.5 L 124.9,144.0 L 129.3,132.7 L 133.8,120.7 L 138.3,107.8 L 142.8,93.8 L 147.3,78.5 L 151.8,61.6 L 156.3,43.0 L 160.8,22.0 L 165.3,-1.7 L 169.8,-28.9 L 174.2,-60.5 L 178.7,-98.0 L 183.2,-143.1 L 187.7,-199.0 L 192.2,-270.0 L 196.7,-300.0 M 205.7,-300.0 M 210.2,-300.0 M 214.6,-300.0 M 219.1,-300.0 M 223.6,-300.0 M 228.1,900.0 M 232.6,900.0 M 237.1,900.0 M 241.6,900.0 M 246.1,900.0 L 250.6,886.4 L 255.1,792.5 L 259.5,721.5 L 264.0,665.6 L 268.5,620.5 L 273.0,583.0 L 277.5,551.4 L 282.0,524.2 L 286.5,500.5 L 291.0,479.5 L 295.5,460.9 L 299.9,444.0 L 304.4,428.8 L 308.9,414.7 L 313.4,401.8 L 317.9,389.8 L 322.4,378.5 L 326.9,368.0 L 331.4,358.0 L 335.9,348.4 L 340.4,339.4 L 344.8,330.6 L 349.3,322.2 L 353.8,314.1 L 358.3,306.1 L 362.8,298.4 L 367.3,290.8 L 371.8,283.3 L 376.3,275.9 L 380.8,268.6 L 385.2,261.2 L 389.7,253.9 L 394.2,246.6 L 398.7,239.2 L 403.2,231.7 L 407.7,224.1 L 412.2,216.4 L 416.7,208.4 L 421.2,200.3 L 425.7,191.9 L 430.1,183.1 L 434.6,174.1 L 439.1,164.5 L 443.6,154.5 L 448.1,144.0 L 452.6,132.7 L 457.1,120.7 L 461.6,107.8 L 466.1,93.8 L 470.6,78.5 L 475.0,61.6 L 479.5,43.0 L 484.0,22.0 L 488.5,-1.7 L 493.0,-28.9 L 497.5,-60.5 L 502.0,-98.0 L 506.5,-143.1 L 511.0,-199.0 L 515.4,-270.0 L 519.9,-300.0 M 528.9,-300.0 M 533.4,-300.0 M 537.9,-300.0 M 542.4,-300.0 M 546.9,-300.0 M 551.4,900.0 M 555.9,900.0 M 560.3,900.0 M 564.8,900.0 M 569.3,900.0 L 573.8,886.4 L 578.3,792.5 L 582.8,721.5 L 587.3,665.6 L 591.8,620.5 L 596.3,583.0 L 600.8,551.4 L 605.2,524.2 L 609.7,500.5 L 614.2,479.5 L 618.7,460.9 L 623.2,444.0 L 627.7,428.8 L 632.2,414.7 L 636.7,401.8 L 641.2,389.8 L 645.6,378.5 L 650.1,368.0 L 654.6,358.0 L 659.1,348.4 L 663.6,339.4 L 668.1,330.6 L 672.6,322.2 L 677.1,314.1 L 681.6,306.1 L 686.1,298.4 L 690.5,290.8 L 695.0,283.3 L 699.5,275.9 L 704.0,268.6 L 708.5,261.3 " style="fill: none;stroke: #ff0000;stroke-linecap: round;stroke-width: 2.0" />
<path d=" M 66.5,-300.0 L 71.0,-300.0 M 80.0,-300.0 M 84.4,-300.0 M 88.9,-300.0 L 93.4,-270.0 L 97.9,-199.0 L 102.4,-143.1 L 106.9,-98.0 L 111.4,-60.5 L 115.9,-28.9 L 120.4,-1.7 L 124.9,22.0 L 129.3,43.0 L 133.8,61.6 L 138.3,78.5 L 142.8,93.8 L 147.3,107.8 L 151.8,120.7 L 156.3,132.7 L 160.8,144.0 L 165.3,154.5 L 169.8,164.5 L 174.2,174.1 L 178.7,183.1 L 183.2,191.9 L 187.7,200.3 L 192.2,208.4 L 196.7,216.4 L 201.2,224.1 L 205.7,231.7 L 210.2,239.2 L 214.6,246.6 L 219.1,253.9 L 223.6,261.2 L 228.1,268.6 L 232.6,275.9 L 237.1,283.3 L 241.6,290.8 L 246.1,298.4 L 250.6,306.1 L 255.1,314.1 L 259.5,322.2 L 264.0,330.6 L 268.5,339.4 L 273.0,348.4 L 277.5,358.0 L 282.0,368.0 L 286.5,378.5 L 291.0,389.8 L 295.5,401.8 L 299.9,414.7 L 304.4,428.8 L 308.9,444.0 L 313.4,460.9 L 317.9,479.5 L 322.4,500.5 L 326.9,524.2 L 331.4,551.4 L 335.9,583.0 L 340.4,620.5 L 344.8,665.6 L 349.3,721.5 L 353.8,792.5 L 358.3,886.4 L 362.8,900.0 M 371.8,900.0 M 376.3,900.0 M 380.8,900.0 M 385.2,900.0 M 389.7,-300.0 M 394.2,-300.0 M 398.7,-300.0 M 403.2,-300.0 M 407.7,-300.0 M 412.2,-300.0 L 416.7,-270.0 L 421.2,-199.0 L 425.7,-143.1 L 430.1,-98.0 L 434.6,-60.5 L 439.1,-28.9 L 443.6,-1.7 L 448.1,22.0 L 452.6,43.0 L 457.1,61.6 L 461.6,78.5 L 466.1,93.8 L 470.6,107.8 L 475.0,120.7 L 479.5,132.7 L 484.0,144.0 L 488.5,154.5 L 493.0,164.5 L 497.5,174.1 L 502.0,183.1 L 506.5,191.9 L 511.0,200.3 L 515.4,208.4 L 519.9,216.4 L 524.4,224.1 L 528.9,231.7 L 533.4,239.2 L 537.9,246.6 L 542.4,253.9 L 546.9,261.2 L 551.4,268.6 L 555.9,275.9 L 560.3,283.3 L 564.8,290.8 L 569.3,298.4 L 573.8,306.1 L 578.3,314.1 L 582.8,322.2 L 587.3,330.6 L 591.8,339.4 L 596.3,348.4 L 600.8,358.0 L 605.2,368.0 L 609.7,378.5 L 614.2,389.8 L 618.7,401.8 L 623.2,414.7 L 627.7,428.8 L 632.2,444.0 L 636.7,460.9 L 641.2,479.5 L 645.6,500.5 L 650.1,524.2 L 654.6,551.4 L 659.1,583.0 L 663.6,620.5 L 668.1,665.6 L 672.6,721.5 L 677.1,792.5 L 681.6,886.4 L 686.1,900.0 M 695.0,900.0 M 699.5,900.0 M 704.0,900.0 M 708.5,900.0 " style="fill: none;stroke: #008000;stroke-linecap: round;stroke-width: 2.0" />
</g>
<text x="385.25" y="540.00" style="font-size: 12.0px;text-anchor: middle" >Degrees</text>
<text x="-20.00" y="-261.25" style="font-size: 12.0px;text-anchor: middle;writing-mode: tb" transform="rotate(180)">Function Value</text>
<rect x="715.5" y="45.5" width="84.5" height="87.8" rx="6.0" style="fill: silver;fill-opacity: .1;stroke: silver;stroke-width: 1.5"/>
<text x="728.50" y="65.00" style="font-size: 13.0px;font-weight: bold" >Legends:</text>
<text x="735.00" y="94.25" style="fill: #ff0000;font-size: 13.0px;stroke: #ff0000" >tan(n)</text>
<text x="735.00" y="113.75" style="fill: #008000;font-size: 13.0px;stroke: #008000" >cot(n)</text>
<text x="400.00" y="590.00" style="font-size: 15.0px;text-anchor: middle" >Data by numbers®</text>
<text x="400.00" y="571.25" style="font-size: 25.0px;text-anchor: middle" >Trigonometric Functions</text>
</svg>
