<?xml version="1.0" encoding="UTF-8" standalone="no"?>
<svg width="800" height="600" xmlns="http://www.w3.org/2000/svg">
<!--
    Created by csv2svg: 1.20.1-2-ga71af7c (343) https://github.com/msalmonse/csv2svg.git
  -->
<defs>
<clipPath id="plotable">
<rect x="55.0" y="3.0" width="660.5" height="516.5" />
</clipPath>
</defs>
<rect
    x="0" y="0" width="800" height="600"
    style="stroke: none; stroke-width: 0; fill: #ffedcc"
/>
<path d=" M 62.0,261.2 H 708.5 " style="stroke: Black;fill: none;stroke-width: 2.0;stroke-linecap: round" />
<path d=" M 78.2,512.5 V 10.0 M 126.7,512.5 V 10.0 M 175.1,512.5 V 10.0 M 223.6,512.5 V 10.0 M 272.1,512.5 V 10.0 M 320.6,512.5 V 10.0 M 369.1,512.5 V 10.0 M 417.6,512.5 V 10.0 M 466.1,512.5 V 10.0 M 514.6,512.5 V 10.0 M 563.0,512.5 V 10.0 M 611.5,512.5 V 10.0 M 660.0,512.5 V 10.0 M 708.5,512.5 V 10.0 " style="stroke: Silver;fill: none;stroke-width: 1.0;stroke-linecap: round" />
<text x="78.16" y="525.00" style="text-anchor: middle; font-size: 10.0px">81</text>
<text x="126.65" y="525.00" style="text-anchor: middle; font-size: 10.0px">84</text>
<text x="175.14" y="525.00" style="text-anchor: middle; font-size: 10.0px">87</text>
<text x="223.63" y="525.00" style="text-anchor: middle; font-size: 10.0px">90</text>
<text x="272.11" y="525.00" style="text-anchor: middle; font-size: 10.0px">93</text>
<text x="320.60" y="525.00" style="text-anchor: middle; font-size: 10.0px">96</text>
<text x="369.09" y="525.00" style="text-anchor: middle; font-size: 10.0px">99</text>
<text x="417.58" y="525.00" style="text-anchor: middle; font-size: 10.0px">102</text>
<text x="466.06" y="525.00" style="text-anchor: middle; font-size: 10.0px">105</text>
<text x="514.55" y="525.00" style="text-anchor: middle; font-size: 10.0px">108</text>
<text x="563.04" y="525.00" style="text-anchor: middle; font-size: 10.0px">111</text>
<text x="611.53" y="525.00" style="text-anchor: middle; font-size: 10.0px">114</text>
<text x="660.01" y="525.00" style="text-anchor: middle; font-size: 10.0px">117</text>
<text x="708.50" y="525.00" style="text-anchor: middle; font-size: 10.0px">120</text>
<path d=" M 62.0,219.4 H 708.5 M 62.0,303.1 H 708.5 M 62.0,177.5 H 708.5 M 62.0,345.0 H 708.5 M 62.0,135.6 H 708.5 M 62.0,386.9 H 708.5 M 62.0,93.8 H 708.5 M 62.0,428.8 H 708.5 M 62.0,51.9 H 708.5 M 62.0,470.6 H 708.5 M 62.0,10.0 H 708.5 M 62.0,512.5 H 708.5 " style="stroke: Silver;fill: none;stroke-width: 1.0;stroke-linecap: round" />
<text x="60.00" y="219.38" dominant-baseline="middle" style="text-anchor: end; font-size: 10.0px">0.25</text>
<text x="60.00" y="303.12" dominant-baseline="middle" style="text-anchor: end; font-size: 10.0px">-0.25</text>
<text x="60.00" y="177.50" dominant-baseline="middle" style="text-anchor: end; font-size: 10.0px">0.50</text>
<text x="60.00" y="345.00" dominant-baseline="middle" style="text-anchor: end; font-size: 10.0px">-0.50</text>
<text x="60.00" y="135.62" dominant-baseline="middle" style="text-anchor: end; font-size: 10.0px">0.75</text>
<text x="60.00" y="386.88" dominant-baseline="middle" style="text-anchor: end; font-size: 10.0px">-0.75</text>
<text x="60.00" y="93.75" dominant-baseline="middle" style="text-anchor: end; font-size: 10.0px">1.00</text>
<text x="60.00" y="428.75" dominant-baseline="middle" style="text-anchor: end; font-size: 10.0px">-1.00</text>
<text x="60.00" y="51.88" dominant-baseline="middle" style="text-anchor: end; font-size: 10.0px">1.25</text>
<text x="60.00" y="470.62" dominant-baseline="middle" style="text-anchor: end; font-size: 10.0px">-1.25</text>
<text x="60.00" y="10.00" dominant-baseline="middle" style="text-anchor: end; font-size: 10.0px">1.50</text>
<text x="60.00" y="512.50" dominant-baseline="middle" style="text-anchor: end; font-size: 10.0px">-1.50</text>
<g clip-path="url(#plotable)" opacity="1.00">
<path d=" M -400.0,261.2 L -400.0,253.9 M -400.0,239.4 M -400.0,232.2 M -400.0,225.0 M -400.0,217.9 M -400.0,210.9 M -400.0,204.0 M -400.0,197.2 M -400.0,190.5 M -400.0,183.9 M -400.0,177.5 M -400.0,171.3 M -400.0,165.2 M -400.0,159.3 M -400.0,153.6 M -400.0,148.1 M -400.0,142.8 M -400.0,137.8 M -400.0,132.9 L -382.5,128.4 L -342.1,124.0 L -301.7,120.0 L -261.2,116.2 L -220.8,112.7 L -180.4,109.4 L -140.0,106.5 L -99.6,103.9 L -59.2,101.5 L -18.8,99.5 L 21.6,97.7 L 62.0,96.3 L 102.4,95.2 L 142.8,94.4 L 183.2,93.9 L 223.6,93.8 L 264.0,93.9 L 304.4,94.4 L 344.8,95.2 L 385.3,96.3 L 425.7,97.7 L 466.1,99.5 L 506.5,101.5 L 546.9,103.9 L 587.3,106.5 L 627.7,109.4 L 668.1,112.7 L 708.5,116.2 L 748.9,120.0 L 789.3,124.0 L 829.7,128.4 L 870.1,132.9 L 910.5,137.8 L 950.9,142.8 L 991.3,148.1 L 1031.8,153.6 L 1072.2,159.3 L 1112.6,165.2 L 1153.0,171.3 L 1193.4,177.5 L 1200.0,183.9 M 1200.0,197.2 M 1200.0,204.0 M 1200.0,210.9 M 1200.0,217.9 M 1200.0,225.0 M 1200.0,232.2 M 1200.0,239.4 M 1200.0,246.7 M 1200.0,253.9 M 1200.0,261.2 M 1200.0,268.6 M 1200.0,275.8 M 1200.0,283.1 M 1200.0,290.3 M 1200.0,297.5 M 1200.0,304.6 M 1200.0,311.6 M 1200.0,318.5 M 1200.0,325.3 M 1200.0,332.0 M 1200.0,338.6 M 1200.0,345.0 M 1200.0,351.2 M 1200.0,357.3 M 1200.0,363.2 M 1200.0,368.9 M 1200.0,374.4 M 1200.0,379.7 M 1200.0,384.7 M 1200.0,389.6 M 1200.0,394.1 M 1200.0,398.5 M 1200.0,402.5 M 1200.0,406.3 M 1200.0,409.8 M 1200.0,413.1 M 1200.0,416.0 M 1200.0,418.6 M 1200.0,421.0 M 1200.0,423.0 M 1200.0,424.8 M 1200.0,426.2 M 1200.0,427.3 M 1200.0,428.1 M 1200.0,428.6 M 1200.0,428.8 M 1200.0,428.6 M 1200.0,428.1 M 1200.0,427.3 M 1200.0,426.2 M 1200.0,424.8 M 1200.0,423.0 M 1200.0,421.0 M 1200.0,418.6 M 1200.0,416.0 M 1200.0,413.1 M 1200.0,409.8 M 1200.0,406.3 M 1200.0,402.5 M 1200.0,398.5 M 1200.0,394.1 M 1200.0,389.6 M 1200.0,384.7 M 1200.0,379.7 M 1200.0,374.4 M 1200.0,368.9 M 1200.0,363.2 M 1200.0,357.3 M 1200.0,351.2 M 1200.0,345.0 M 1200.0,338.6 M 1200.0,332.0 M 1200.0,325.3 M 1200.0,318.5 M 1200.0,311.6 M 1200.0,304.6 M 1200.0,297.5 M 1200.0,290.3 M 1200.0,283.1 M 1200.0,275.8 M 1200.0,268.6 M 1200.0,261.3 " style="stroke: #008000;fill: none;stroke-width: 2.0;stroke-linecap: round" />
<path d=" M -400.0,93.8 L -400.0,93.9 M -400.0,95.2 M -400.0,96.3 M -400.0,97.7 M -400.0,99.5 M -400.0,101.5 M -400.0,103.9 M -400.0,106.5 M -400.0,109.4 M -400.0,112.7 M -400.0,116.2 M -400.0,120.0 M -400.0,124.0 M -400.0,128.4 M -400.0,132.9 M -400.0,137.8 M -400.0,142.8 M -400.0,148.1 M -400.0,153.6 L -382.5,159.3 L -342.1,165.2 L -301.7,171.3 L -261.2,177.5 L -220.8,183.9 L -180.4,190.5 L -140.0,197.2 L -99.6,204.0 L -59.2,210.9 L -18.8,217.9 L 21.6,225.0 L 62.0,232.2 L 102.4,239.4 L 142.8,246.7 L 183.2,253.9 L 223.6,261.2 L 264.0,268.6 L 304.4,275.8 L 344.8,283.1 L 385.3,290.3 L 425.7,297.5 L 466.1,304.6 L 506.5,311.6 L 546.9,318.5 L 587.3,325.3 L 627.7,332.0 L 668.1,338.6 L 708.5,345.0 L 748.9,351.2 L 789.3,357.3 L 829.7,363.2 L 870.1,368.9 L 910.5,374.4 L 950.9,379.7 L 991.3,384.7 L 1031.8,389.6 L 1072.2,394.1 L 1112.6,398.5 L 1153.0,402.5 L 1193.4,406.3 L 1200.0,409.8 M 1200.0,416.0 M 1200.0,418.6 M 1200.0,421.0 M 1200.0,423.0 M 1200.0,424.8 M 1200.0,426.2 M 1200.0,427.3 M 1200.0,428.1 M 1200.0,428.6 M 1200.0,428.8 M 1200.0,428.6 M 1200.0,428.1 M 1200.0,427.3 M 1200.0,426.2 M 1200.0,424.8 M 1200.0,423.0 M 1200.0,421.0 M 1200.0,418.6 M 1200.0,416.0 M 1200.0,413.1 M 1200.0,409.8 M 1200.0,406.3 M 1200.0,402.5 M 1200.0,398.5 M 1200.0,394.1 M 1200.0,389.6 M 1200.0,384.7 M 1200.0,379.7 M 1200.0,374.4 M 1200.0,368.9 M 1200.0,363.2 M 1200.0,357.3 M 1200.0,351.2 M 1200.0,345.0 M 1200.0,338.6 M 1200.0,332.0 M 1200.0,325.3 M 1200.0,318.5 M 1200.0,311.6 M 1200.0,304.6 M 1200.0,297.5 M 1200.0,290.3 M 1200.0,283.1 M 1200.0,275.8 M 1200.0,268.6 M 1200.0,261.3 M 1200.0,253.9 M 1200.0,246.7 M 1200.0,239.4 M 1200.0,232.2 M 1200.0,225.0 M 1200.0,217.9 M 1200.0,210.9 M 1200.0,204.0 M 1200.0,197.2 M 1200.0,190.5 M 1200.0,183.9 M 1200.0,177.5 M 1200.0,171.3 M 1200.0,165.2 M 1200.0,159.3 M 1200.0,153.6 M 1200.0,148.1 M 1200.0,142.8 M 1200.0,137.8 M 1200.0,132.9 M 1200.0,128.4 M 1200.0,124.0 M 1200.0,120.0 M 1200.0,116.2 M 1200.0,112.7 M 1200.0,109.4 M 1200.0,106.5 M 1200.0,103.9 M 1200.0,101.5 M 1200.0,99.5 M 1200.0,97.7 M 1200.0,96.3 M 1200.0,95.2 M 1200.0,94.4 M 1200.0,93.9 M 1200.0,93.8 " style="stroke: #ff00ff;fill: none;stroke-width: 2.0;stroke-linecap: round" />
<path d=" M -400.0,261.2 L -400.0,253.9 M -400.0,239.2 M -400.0,231.7 M -400.0,224.1 M -400.0,216.4 M -400.0,208.4 M -400.0,200.3 M -400.0,191.9 M -400.0,183.1 M -400.0,174.1 M -400.0,164.5 M -400.0,154.5 M -400.0,144.0 M -400.0,132.7 M -400.0,120.7 M -400.0,107.8 M -400.0,93.8 M -400.0,78.5 M -400.0,61.6 L -382.5,43.0 L -342.1,22.0 L -301.7,-1.7 L -261.2,-28.9 L -220.8,-60.5 L -180.4,-98.0 L -140.0,-143.1 L -99.6,-199.0 L -59.2,-270.0 L -18.8,-300.0 M 62.0,-300.0 M 102.4,-300.0 M 142.8,-300.0 M 183.2,-300.0 M 223.6,-300.0 M 264.0,900.0 M 304.4,900.0 M 344.8,900.0 M 385.3,900.0 M 425.7,900.0 L 466.1,886.4 L 506.5,792.5 L 546.9,721.5 L 587.3,665.6 L 627.7,620.5 L 668.1,583.0 L 708.5,551.4 L 748.9,524.2 L 789.3,500.5 L 829.7,479.5 L 870.1,460.9 L 910.5,444.0 L 950.9,428.8 L 991.3,414.7 L 1031.8,401.8 L 1072.2,389.8 L 1112.6,378.5 L 1153.0,368.0 L 1193.4,358.0 L 1200.0,348.4 M 1200.0,330.6 M 1200.0,322.2 M 1200.0,314.1 M 1200.0,306.1 M 1200.0,298.4 M 1200.0,290.8 M 1200.0,283.3 M 1200.0,275.9 M 1200.0,268.6 M 1200.0,261.2 M 1200.0,253.9 M 1200.0,246.6 M 1200.0,239.2 M 1200.0,231.7 M 1200.0,224.1 M 1200.0,216.4 M 1200.0,208.4 M 1200.0,200.3 M 1200.0,191.9 M 1200.0,183.1 M 1200.0,174.1 M 1200.0,164.5 M 1200.0,154.5 M 1200.0,144.0 M 1200.0,132.7 M 1200.0,120.7 M 1200.0,107.8 M 1200.0,93.8 M 1200.0,78.5 M 1200.0,61.6 M 1200.0,43.0 M 1200.0,22.0 M 1200.0,-1.7 M 1200.0,-28.9 M 1200.0,-60.5 M 1200.0,-98.0 M 1200.0,-143.1 M 1200.0,-199.0 M 1200.0,-270.0 M 1200.0,-300.0 M 1200.0,-300.0 M 1200.0,-300.0 M 1200.0,-300.0 M 1200.0,-300.0 M 1200.0,-300.0 M 1200.0,-300.0 M 1200.0,900.0 M 1200.0,900.0 M 1200.0,900.0 M 1200.0,900.0 M 1200.0,900.0 M 1200.0,886.4 M 1200.0,792.5 M 1200.0,721.5 M 1200.0,665.6 M 1200.0,620.5 M 1200.0,583.0 M 1200.0,551.4 M 1200.0,524.2 M 1200.0,500.5 M 1200.0,479.5 M 1200.0,460.9 M 1200.0,444.0 M 1200.0,428.8 M 1200.0,414.7 M 1200.0,401.8 M 1200.0,389.8 M 1200.0,378.5 M 1200.0,368.0 M 1200.0,358.0 M 1200.0,348.4 M 1200.0,339.4 M 1200.0,330.6 M 1200.0,322.2 M 1200.0,314.1 M 1200.0,306.1 M 1200.0,298.4 M 1200.0,290.8 M 1200.0,283.3 M 1200.0,275.9 M 1200.0,268.6 M 1200.0,261.3 " style="stroke: #0000ff;fill: none;stroke-width: 2.0;stroke-linecap: round" />
<path d=" M -400.0,261.2 L -400.0,260.9 M -400.0,258.4 M -400.0,256.2 M -400.0,253.4 M -400.0,250.0 M -400.0,246.1 M -400.0,241.7 M -400.0,236.7 M -400.0,231.3 M -400.0,225.5 M -400.0,219.4 M -400.0,212.9 M -400.0,206.1 M -400.0,199.2 M -400.0,192.0 M -400.0,184.8 M -400.0,177.5 M -400.0,170.2 M -400.0,163.0 L -382.5,155.8 L -342.1,148.9 L -301.7,142.1 L -261.2,135.6 L -220.8,129.5 L -180.4,123.7 L -140.0,118.3 L -99.6,113.3 L -59.2,108.9 L -18.8,105.0 L 21.6,101.6 L 62.0,98.8 L 102.4,96.6 L 142.8,95.0 L 183.2,94.1 L 223.6,93.8 L 264.0,94.1 L 304.4,95.0 L 344.8,96.6 L 385.3,98.8 L 425.7,101.6 L 466.1,105.0 L 506.5,108.9 L 546.9,113.3 L 587.3,118.3 L 627.7,123.7 L 668.1,129.5 L 708.5,135.6 L 748.9,142.1 L 789.3,148.9 L 829.7,155.8 L 870.1,163.0 L 910.5,170.2 L 950.9,177.5 L 991.3,184.8 L 1031.8,192.0 L 1072.2,199.2 L 1112.6,206.1 L 1153.0,212.9 L 1193.4,219.4 L 1200.0,225.5 M 1200.0,236.7 M 1200.0,241.7 M 1200.0,246.1 M 1200.0,250.0 M 1200.0,253.4 M 1200.0,256.2 M 1200.0,258.4 M 1200.0,260.0 M 1200.0,260.9 M 1200.0,261.2 M 1200.0,260.9 M 1200.0,260.0 M 1200.0,258.4 M 1200.0,256.2 M 1200.0,253.4 M 1200.0,250.0 M 1200.0,246.1 M 1200.0,241.7 M 1200.0,236.7 M 1200.0,231.3 M 1200.0,225.5 M 1200.0,219.4 M 1200.0,212.9 M 1200.0,206.1 M 1200.0,199.2 M 1200.0,192.0 M 1200.0,184.8 M 1200.0,177.5 M 1200.0,170.2 M 1200.0,163.0 M 1200.0,155.8 M 1200.0,148.9 M 1200.0,142.1 M 1200.0,135.6 M 1200.0,129.5 M 1200.0,123.7 M 1200.0,118.3 M 1200.0,113.3 M 1200.0,108.9 M 1200.0,105.0 M 1200.0,101.6 M 1200.0,98.8 M 1200.0,96.6 M 1200.0,95.0 M 1200.0,94.1 M 1200.0,93.8 M 1200.0,94.1 M 1200.0,95.0 M 1200.0,96.6 M 1200.0,98.8 M 1200.0,101.6 M 1200.0,105.0 M 1200.0,108.9 M 1200.0,113.3 M 1200.0,118.3 M 1200.0,123.7 M 1200.0,129.5 M 1200.0,135.6 M 1200.0,142.1 M 1200.0,148.9 M 1200.0,155.8 M 1200.0,163.0 M 1200.0,170.2 M 1200.0,177.5 M 1200.0,184.8 M 1200.0,192.0 M 1200.0,199.2 M 1200.0,206.1 M 1200.0,212.9 M 1200.0,219.4 M 1200.0,225.5 M 1200.0,231.3 M 1200.0,236.7 M 1200.0,241.7 M 1200.0,246.1 M 1200.0,250.0 M 1200.0,253.4 M 1200.0,256.2 M 1200.0,258.4 M 1200.0,260.0 M 1200.0,260.9 M 1200.0,261.2 " style="stroke: #dc143c;fill: none;stroke-width: 2.0;stroke-linecap: round" />
<path d=" M -400.0,-300.0 L -400.0,-300.0 M -400.0,-300.0 M -400.0,-300.0 M -400.0,-300.0 M -400.0,-270.0 M -400.0,-199.0 M -400.0,-143.1 M -400.0,-98.0 M -400.0,-60.5 M -400.0,-28.9 M -400.0,-1.7 M -400.0,22.0 M -400.0,43.0 M -400.0,61.6 M -400.0,78.5 M -400.0,93.8 M -400.0,107.8 M -400.0,120.7 L -382.5,132.7 L -342.1,144.0 L -301.7,154.5 L -261.2,164.5 L -220.8,174.1 L -180.4,183.1 L -140.0,191.9 L -99.6,200.3 L -59.2,208.4 L -18.8,216.4 L 21.6,224.1 L 62.0,231.7 L 102.4,239.2 L 142.8,246.6 L 183.2,253.9 L 223.6,261.2 L 264.0,268.6 L 304.4,275.9 L 344.8,283.3 L 385.3,290.8 L 425.7,298.4 L 466.1,306.1 L 506.5,314.1 L 546.9,322.2 L 587.3,330.6 L 627.7,339.4 L 668.1,348.4 L 708.5,358.0 L 748.9,368.0 L 789.3,378.5 L 829.7,389.8 L 870.1,401.8 L 910.5,414.7 L 950.9,428.8 L 991.3,444.0 L 1031.8,460.9 L 1072.2,479.5 L 1112.6,500.5 L 1153.0,524.2 L 1193.4,551.4 L 1200.0,583.0 M 1200.0,665.6 M 1200.0,721.5 M 1200.0,792.5 M 1200.0,886.4 M 1200.0,900.0 M 1200.0,900.0 M 1200.0,900.0 M 1200.0,900.0 M 1200.0,900.0 M 1200.0,900.0 M 1200.0,-300.0 M 1200.0,-300.0 M 1200.0,-300.0 M 1200.0,-300.0 M 1200.0,-300.0 M 1200.0,-300.0 M 1200.0,-270.0 M 1200.0,-199.0 M 1200.0,-143.1 M 1200.0,-98.0 M 1200.0,-60.5 M 1200.0,-28.9 M 1200.0,-1.7 M 1200.0,22.0 M 1200.0,43.0 M 1200.0,61.6 M 1200.0,78.5 M 1200.0,93.8 M 1200.0,107.8 M 1200.0,120.7 M 1200.0,132.7 M 1200.0,144.0 M 1200.0,154.5 M 1200.0,164.5 M 1200.0,174.1 M 1200.0,183.1 M 1200.0,191.9 M 1200.0,200.3 M 1200.0,208.4 M 1200.0,216.4 M 1200.0,224.1 M 1200.0,231.7 M 1200.0,239.2 M 1200.0,246.6 M 1200.0,253.9 M 1200.0,261.2 M 1200.0,268.6 M 1200.0,275.9 M 1200.0,283.3 M 1200.0,290.8 M 1200.0,298.4 M 1200.0,306.1 M 1200.0,314.1 M 1200.0,322.2 M 1200.0,330.6 M 1200.0,339.4 M 1200.0,348.4 M 1200.0,358.0 M 1200.0,368.0 M 1200.0,378.5 M 1200.0,389.8 M 1200.0,401.8 M 1200.0,414.7 M 1200.0,428.8 M 1200.0,444.0 M 1200.0,460.9 M 1200.0,479.5 M 1200.0,500.5 M 1200.0,524.2 M 1200.0,551.4 M 1200.0,583.0 M 1200.0,620.5 M 1200.0,665.6 M 1200.0,721.5 M 1200.0,792.5 M 1200.0,886.4 M 1200.0,900.0 M 1200.0,900.0 M 1200.0,900.0 M 1200.0,900.0 M 1200.0,900.0 M 1200.0,900.0 " style="stroke: #f4a460;fill: none;stroke-width: 2.0;stroke-linecap: round" />
</g>
<text x="385.25" y="540.0" style="text-anchor: middle; font-size: 12.0px">
Degrees
</text>
<text x="-20.0" y="-261.25" style="writing-mode: tb; text-anchor: middle; font-size: 12.0px"
transform="rotate(180)">
Function Value
</text>
<rect
    x="715.5" y="45.5" height="146.2" width="84.5" rx="6.0"
    fill="silver" opacity=".1" stroke="black" stroke-width="1.5"
/>
<text x="728.5" y="65.0" font-size="13.0px" font-weight="bold">Legends:</text>
<text x="735.0" y="94.2" stroke="#008000" fill="#008000" font-size="13.0px">sin(n)</text>
<text x="735.0" y="113.8" stroke="#ff00ff" fill="#ff00ff" font-size="13.0px">cos(n)</text>
<text x="735.0" y="133.2" stroke="#0000ff" fill="#0000ff" font-size="13.0px">tan(n)</text>
<text x="735.0" y="152.8" stroke="#dc143c" fill="#dc143c" font-size="13.0px">sin²(n)</text>
<text x="735.0" y="172.2" stroke="#f4a460" fill="#f4a460" font-size="13.0px">cot(n)</text>
<text x="400.0" y="590.0" style="text-anchor: middle; font-size: 15.0px">Data by numbers®</text>
<text x="400.0" y="571.2" style="text-anchor: middle; font-size: 25.0px">Trigonometric Functions</text>
</svg>
