<?xml version="1.0" encoding="UTF-8" standalone="no"?>
<svg id="svg-ex3" width="800" height="600" xmlns="http://www.w3.org/2000/svg">
<style>
svg#svg-ex3 { background-color: #ffedcc }
#svg-ex3 g.plotarea { opacity: 1.0 }
#svg-ex3 g.plotarea path:hover { stroke-width: 5.0 }
#svg-ex3 path { stroke-width: 2.0; fill: none; stroke-linecap: round }
#svg-ex3 path.axes { stroke: black }
#svg-ex3 path.xtick, #svg-ex3 path.ytick { stroke: silver; stroke-width: 1 }
#svg-ex3 text.legends { font-size: 13.0px }
#svg-ex3 text.legends.headline { font-size: 16.2px; font-weight: bold }
#svg-ex3 text.subtitle { font-size: 15.0px; text-anchor: middle }
#svg-ex3 text.title { font-size: 25.0px; text-anchor: middle }
#svg-ex3 text.xlabel { font-size: 10.0px; text-anchor: middle }
#svg-ex3 text.xtitle { font-size: 12.0px; text-anchor: middle }
#svg-ex3 text.ylabel { font-size: 10.0px; text-anchor: end; dominant-baseline: middle }
#svg-ex3 text.ytitle { font-size: 12.0px; text-anchor: middle; writing-mode: tb }
#svg-ex3 path.plot04 { stroke: #ff0000 }
#svg-ex3 text.plot04 { fill: #ff0000; stroke: #ff0000 }
#svg-ex3 path.plot06 { stroke: #008000 }
#svg-ex3 text.plot06 { fill: #008000; stroke: #008000 }
#svg-ex3 rect.legends { fill: silver; stroke: silver; fill-opacity: 0.1; stroke-width: 1.5 }
</style>
<defs>
<clipPath id="plotable">
<rect x="56.0" y="-1.0" width="653.5" height="524.5" rx="0.0"  />
</clipPath>
</defs>
<path class="xtick" d=" M 98.5,516.5 V 6.0 M 134.1,516.5 V 6.0 M 169.6,516.5 V 6.0 M 205.1,516.5 V 6.0 M 240.6,516.5 V 6.0 M 276.2,516.5 V 6.0 M 311.7,516.5 V 6.0 M 347.2,516.5 V 6.0 M 382.8,516.5 V 6.0 M 418.3,516.5 V 6.0 M 453.8,516.5 V 6.0 M 489.3,516.5 V 6.0 M 524.9,516.5 V 6.0 M 560.4,516.5 V 6.0 M 595.9,516.5 V 6.0 M 631.4,516.5 V 6.0 M 667.0,516.5 V 6.0 M 702.5,516.5 V 6.0 " />
<text x="98.53" y="529.00" class="xlabel" >20</text>
<text x="134.06" y="529.00" class="xlabel" >40</text>
<text x="169.58" y="529.00" class="xlabel" >60</text>
<text x="205.11" y="529.00" class="xlabel" >80</text>
<text x="240.64" y="529.00" class="xlabel" >100</text>
<text x="276.17" y="529.00" class="xlabel" >120</text>
<text x="311.69" y="529.00" class="xlabel" >140</text>
<text x="347.22" y="529.00" class="xlabel" >160</text>
<text x="382.75" y="529.00" class="xlabel" >180</text>
<text x="418.28" y="529.00" class="xlabel" >200</text>
<text x="453.81" y="529.00" class="xlabel" >220</text>
<text x="489.33" y="529.00" class="xlabel" >240</text>
<text x="524.86" y="529.00" class="xlabel" >260</text>
<text x="560.39" y="529.00" class="xlabel" >280</text>
<text x="595.92" y="529.00" class="xlabel" >300</text>
<text x="631.44" y="529.00" class="xlabel" >320</text>
<text x="666.97" y="529.00" class="xlabel" >340</text>
<text x="702.50" y="529.00" class="xlabel" >360</text>
<path class="ytick" d=" M 63.0,218.7 H 702.5 M 63.0,303.8 H 702.5 M 63.0,176.2 H 702.5 M 63.0,346.3 H 702.5 M 63.0,133.6 H 702.5 M 63.0,388.9 H 702.5 M 63.0,91.1 H 702.5 M 63.0,431.4 H 702.5 M 63.0,48.5 H 702.5 M 63.0,474.0 H 702.5 M 63.0,6.0 H 702.5 M 63.0,516.5 H 702.5 " />
<text x="61.00" y="218.71" class="ylabel" >0.25</text>
<text x="61.00" y="303.79" class="ylabel" >-0.25</text>
<text x="61.00" y="176.17" class="ylabel" >0.50</text>
<text x="61.00" y="346.33" class="ylabel" >-0.50</text>
<text x="61.00" y="133.62" class="ylabel" >0.75</text>
<text x="61.00" y="388.88" class="ylabel" >-0.75</text>
<text x="61.00" y="91.08" class="ylabel" >1.00</text>
<text x="61.00" y="431.42" class="ylabel" >-1.00</text>
<text x="61.00" y="48.54" class="ylabel" >1.25</text>
<text x="61.00" y="473.96" class="ylabel" >-1.25</text>
<text x="61.00" y="6.00" class="ylabel" >1.50</text>
<text x="61.00" y="516.50" class="ylabel" >-1.50</text>
<path class="axes" d=" M 63.0,261.2 H 702.5 M 63.0,516.5 V 6.0 " />
<g clip-path="url(#plotable)" class="plotarea">
<path class="plot04" d=" M 63.0,261.2 L 67.4,253.8 L 71.9,246.4 L 76.3,238.8 L 80.8,231.2 L 85.2,223.5 L 89.6,215.7 L 94.1,207.6 L 98.5,199.3 L 103.0,190.8 L 107.4,181.9 L 111.9,172.7 L 116.3,163.0 L 120.7,152.8 L 125.2,142.1 L 129.6,130.7 L 134.1,118.5 L 138.5,105.3 L 142.9,91.1 L 147.4,75.5 L 151.8,58.5 L 156.3,39.5 L 160.7,18.2 L 165.1,-5.9 L 169.6,-33.5 L 174.0,-65.6 L 178.5,-103.7 L 182.9,-149.6 L 187.3,-206.3 L 191.8,-278.4 L 196.2,-300.0 M 205.1,-300.0 M 209.6,-300.0 M 214.0,-300.0 M 218.4,-300.0 M 222.9,-300.0 M 227.3,900.0 M 231.8,900.0 M 236.2,900.0 M 240.6,900.0 M 245.1,900.0 L 249.5,896.3 L 254.0,800.9 L 258.4,728.8 L 262.8,672.1 L 267.3,626.2 L 271.7,588.1 L 276.2,556.0 L 280.6,528.4 L 285.0,504.3 L 289.5,483.0 L 293.9,464.0 L 298.4,447.0 L 302.8,431.4 L 307.3,417.2 L 311.7,404.0 L 316.1,391.8 L 320.6,380.4 L 325.0,369.7 L 329.5,359.5 L 333.9,349.8 L 338.3,340.6 L 342.8,331.7 L 347.2,323.2 L 351.7,314.9 L 356.1,306.8 L 360.5,299.0 L 365.0,291.3 L 369.4,283.7 L 373.9,276.1 L 378.3,268.7 L 382.8,261.2 L 387.2,253.8 L 391.6,246.4 L 396.1,238.8 L 400.5,231.2 L 405.0,223.5 L 409.4,215.7 L 413.8,207.6 L 418.3,199.3 L 422.7,190.8 L 427.2,181.9 L 431.6,172.7 L 436.0,163.0 L 440.5,152.8 L 444.9,142.1 L 449.4,130.7 L 453.8,118.5 L 458.2,105.3 L 462.7,91.1 L 467.1,75.5 L 471.6,58.5 L 476.0,39.5 L 480.5,18.2 L 484.9,-5.9 L 489.3,-33.5 L 493.8,-65.6 L 498.2,-103.7 L 502.7,-149.6 L 507.1,-206.3 L 511.5,-278.4 L 516.0,-300.0 M 524.9,-300.0 M 529.3,-300.0 M 533.7,-300.0 M 538.2,-300.0 M 542.6,-300.0 M 547.1,900.0 M 551.5,900.0 M 555.9,900.0 M 560.4,900.0 M 564.8,900.0 L 569.3,896.3 L 573.7,800.9 L 578.2,728.8 L 582.6,672.1 L 587.0,626.2 L 591.5,588.1 L 595.9,556.0 L 600.4,528.4 L 604.8,504.3 L 609.2,483.0 L 613.7,464.0 L 618.1,447.0 L 622.6,431.4 L 627.0,417.2 L 631.4,404.0 L 635.9,391.8 L 640.3,380.4 L 644.8,369.7 L 649.2,359.5 L 653.6,349.8 L 658.1,340.6 L 662.5,331.7 L 667.0,323.2 L 671.4,314.9 L 675.9,306.8 L 680.3,299.0 L 684.7,291.3 L 689.2,283.7 L 693.6,276.1 L 698.1,268.7 L 702.5,261.3 M 63.0,261.2 " />
<path class="plot06" d=" M 67.4,-300.0 L 71.9,-300.0 M 80.8,-300.0 M 85.2,-300.0 M 89.6,-300.0 L 94.1,-278.4 L 98.5,-206.3 L 103.0,-149.6 L 107.4,-103.7 L 111.9,-65.6 L 116.3,-33.5 L 120.7,-5.9 L 125.2,18.2 L 129.6,39.5 L 134.1,58.5 L 138.5,75.5 L 142.9,91.1 L 147.4,105.3 L 151.8,118.5 L 156.3,130.7 L 160.7,142.1 L 165.1,152.8 L 169.6,163.0 L 174.0,172.7 L 178.5,181.9 L 182.9,190.8 L 187.3,199.3 L 191.8,207.6 L 196.2,215.7 L 200.7,223.5 L 205.1,231.2 L 209.6,238.8 L 214.0,246.4 L 218.4,253.8 L 222.9,261.2 L 227.3,268.7 L 231.8,276.1 L 236.2,283.7 L 240.6,291.3 L 245.1,299.0 L 249.5,306.8 L 254.0,314.9 L 258.4,323.2 L 262.8,331.7 L 267.3,340.6 L 271.7,349.8 L 276.2,359.5 L 280.6,369.7 L 285.0,380.4 L 289.5,391.8 L 293.9,404.0 L 298.4,417.2 L 302.8,431.4 L 307.3,447.0 L 311.7,464.0 L 316.1,483.0 L 320.6,504.3 L 325.0,528.4 L 329.5,556.0 L 333.9,588.1 L 338.3,626.2 L 342.8,672.1 L 347.2,728.8 L 351.7,800.9 L 356.1,896.3 L 360.5,900.0 M 369.4,900.0 M 373.9,900.0 M 378.3,900.0 M 382.8,900.0 M 387.2,-300.0 M 391.6,-300.0 M 396.1,-300.0 M 400.5,-300.0 M 405.0,-300.0 M 409.4,-300.0 L 413.8,-278.4 L 418.3,-206.3 L 422.7,-149.6 L 427.2,-103.7 L 431.6,-65.6 L 436.0,-33.5 L 440.5,-5.9 L 444.9,18.2 L 449.4,39.5 L 453.8,58.5 L 458.2,75.5 L 462.7,91.1 L 467.1,105.3 L 471.6,118.5 L 476.0,130.7 L 480.5,142.1 L 484.9,152.8 L 489.3,163.0 L 493.8,172.7 L 498.2,181.9 L 502.7,190.8 L 507.1,199.3 L 511.5,207.6 L 516.0,215.7 L 520.4,223.5 L 524.9,231.2 L 529.3,238.8 L 533.7,246.4 L 538.2,253.8 L 542.6,261.2 L 547.1,268.7 L 551.5,276.1 L 555.9,283.7 L 560.4,291.3 L 564.8,299.0 L 569.3,306.8 L 573.7,314.9 L 578.2,323.2 L 582.6,331.7 L 587.0,340.6 L 591.5,349.8 L 595.9,359.5 L 600.4,369.7 L 604.8,380.4 L 609.2,391.8 L 613.7,404.0 L 618.1,417.2 L 622.6,431.4 L 627.0,447.0 L 631.4,464.0 L 635.9,483.0 L 640.3,504.3 L 644.8,528.4 L 649.2,556.0 L 653.6,588.1 L 658.1,626.2 L 662.5,672.1 L 667.0,728.8 L 671.4,800.9 L 675.9,896.3 L 680.3,900.0 M 689.2,900.0 M 693.6,900.0 M 698.1,900.0 M 702.5,900.0 M 67.4,-300.0 " />
</g>
<text x="382.75" y="544.00" class="xtitle" >Degrees</text>
<text x="-21.00" y="-261.25" class="ytitle" transform="rotate(180)">Function Value</text>
<rect x="709.5" y="32.0" width="84.5" height="87.8" rx="6.0" class="legends" />
<text x="722.50" y="51.50" class="legends headline" >Legends:</text>
<text x="729.00" y="80.75" class="legends plot04" >tan(n)</text>
<text x="729.00" y="100.25" class="legends plot06" >cot(n)</text>
<text x="400.00" y="594.00" class="subtitle" >Data by numbers®</text>
<text x="400.00" y="575.25" class="title" >Trigonometric Functions</text>
</svg>
