<?xml version="1.0" encoding="UTF-8" standalone="no"?>
<svg id="svg-ex4" width="800" height="600" xmlns="http://www.w3.org/2000/svg">
<defs>
<clipPath id="plotable">
<rect x="58.0" y="1.0" width="643.0" height="519.5" rx="0.0"  />
</clipPath>
</defs>
<style>
svg#svg-ex4 { background-color: rgba(255,237,204,1.000) }
#svg-ex4 path.lightBG { fill: rgba(220,220,220,0.667) }
#svg-ex4 path.midBG { fill: rgba(120,120,120,0.667) }
#svg-ex4 path.darkBG { fill: rgba(35,35,35,0.667) }
#svg-ex4 g.plotarea { opacity: 1.0 }
#svg-ex4 g.plotarea path:hover { stroke-width: 5.0 }
#svg-ex4 path { stroke-width: 2.0; fill: none; stroke-linecap: round }
#svg-ex4 path.black { stroke: black }
#svg-ex4 path.black.fill { fill: black; stroke: black }
#svg-ex4 path.axes { stroke: rgba(0,0,0,1.000) }
#svg-ex4 path.xlabel, #svg-ex4 path.ylabel { stroke: rgba(0,0,0,0.400); stroke-width: 1 }
#svg-ex4 path.ylabel { stroke: rgba(0,0,0,0.400); stroke-width: 1 }
#svg-ex4 text { font-family: serif }
#svg-ex4 text.draft { fill: none; stroke: rgba(0,0,0,1.000); font-family: sans-serif; font-size: 200.0px; text-anchor: middle; dominant-baseline: middle }
#svg-ex4 text.legend { fill: rgba(0,0,0,1.000); stroke: rgba(0,0,0,1.000);  font-size: 13.0px; text-anchor: start;  }
#svg-ex4 text.legendheadline { fill: rgba(0,0,0,1.000); stroke: rgba(0,0,0,1.000);  font-size: 16.2px; text-anchor: start;  }
#svg-ex4 text.pielabel { fill: rgba(0,0,0,0.753); stroke: rgba(0,0,0,0.753);  font-size: 10.0px; text-anchor: ;  }
#svg-ex4 text.pielabel.start { fill: rgba(0,0,0,0.753); stroke: rgba(0,0,0,0.753);  font-size: 10.0px; text-anchor: start;  }
#svg-ex4 text.pielabel.middle { fill: rgba(0,0,0,0.753); stroke: rgba(0,0,0,0.753);  font-size: 10.0px; text-anchor: middle;  }
#svg-ex4 text.pielabel.end { fill: rgba(0,0,0,0.753); stroke: rgba(0,0,0,0.753);  font-size: 10.0px; text-anchor: end;  }
#svg-ex4 text.pielegend { fill: rgba(0,0,0,1.000); stroke: rgba(0,0,0,1.000);  font-size: 20.0px; text-anchor: middle;  }
#svg-ex4 text.piesublegend { fill: rgba(0,0,0,1.000); stroke: rgba(0,0,0,1.000);  font-size: 12.5px; text-anchor: middle;  }
#svg-ex4 text.subtitle { fill: rgba(0,0,0,1.000); stroke: rgba(0,0,0,1.000);  font-size: 15.0px; text-anchor: middle;  }
#svg-ex4 text.title { fill: rgba(0,0,0,1.000); stroke: rgba(0,0,0,1.000);  font-size: 25.0px; text-anchor: middle;  }
#svg-ex4 text.xlabel { fill: rgba(0,0,0,1.000); stroke: rgba(0,0,0,1.000);  font-size: 10.0px; text-anchor: middle;  }
#svg-ex4 text.xtags { fill: rgba(0,0,0,1.000); stroke: rgba(0,0,0,1.000);  font-size: 12.0px; text-anchor: middle;  }
#svg-ex4 text.xtitle { fill: rgba(0,0,0,1.000); stroke: rgba(0,0,0,1.000);  font-size: 12.0px; text-anchor: middle;  }
#svg-ex4 text.ylabel { fill: rgba(0,0,0,1.000); stroke: rgba(0,0,0,1.000);  font-size: 10.0px; text-anchor: end; dominant-baseline: middle }
#svg-ex4 text.ytitle { fill: rgba(0,0,0,1.000); stroke: rgba(0,0,0,1.000);  font-size: 12.0px; text-anchor: start;  }
#svg-ex4 path.plot01 { stroke: rgba(255,0,0,1.000) }
#svg-ex4 text.plot01, #svg-ex4 rect.plot01 { font-size: 13.0px; fill: rgba(255,0,0,1.000); stroke: rgba(255,0,0,1.000) }
#svg-ex4 path.plot01.fill { stroke: none; fill: rgba(255,0,0,1.000); fill-opacity: 0.75 }
#svg-ex4 path.plot02 { stroke: rgba(0,128,0,1.000) }
#svg-ex4 text.plot02, #svg-ex4 rect.plot02 { font-size: 13.0px; fill: rgba(0,128,0,1.000); stroke: rgba(0,128,0,1.000) }
#svg-ex4 path.plot02.fill { stroke: none; fill: rgba(0,128,0,1.000); fill-opacity: 0.75 }
#svg-ex4 path.plot03 { stroke: rgba(255,0,255,1.000) }
#svg-ex4 text.plot03, #svg-ex4 rect.plot03 { font-size: 13.0px; fill: rgba(255,0,255,1.000); stroke: rgba(255,0,255,1.000) }
#svg-ex4 path.plot03.fill { stroke: none; fill: rgba(255,0,255,1.000); fill-opacity: 0.75 }
#svg-ex4 path.plot04 { stroke: rgba(0,0,255,1.000) }
#svg-ex4 text.plot04, #svg-ex4 rect.plot04 { font-size: 13.0px; fill: rgba(0,0,255,1.000); stroke: rgba(0,0,255,1.000) }
#svg-ex4 path.plot04.fill { stroke: none; fill: rgba(0,0,255,1.000); fill-opacity: 0.75 }
#svg-ex4 path.plot05 { stroke: rgba(220,20,60,1.000) }
#svg-ex4 text.plot05, #svg-ex4 rect.plot05 { font-size: 13.0px; fill: rgba(220,20,60,1.000); stroke: rgba(220,20,60,1.000) }
#svg-ex4 path.plot05.fill { stroke: none; fill: rgba(220,20,60,1.000); fill-opacity: 0.75 }
#svg-ex4 path.plot06 { stroke: rgba(244,164,96,1.000) }
#svg-ex4 text.plot06, #svg-ex4 rect.plot06 { font-size: 13.0px; fill: rgba(244,164,96,1.000); stroke: rgba(244,164,96,1.000) }
#svg-ex4 path.plot06.fill { stroke: none; fill: rgba(244,164,96,1.000); fill-opacity: 0.75 }
#svg-ex4 path.plot07 { stroke: rgba(139,0,139,1.000) }
#svg-ex4 text.plot07, #svg-ex4 rect.plot07 { font-size: 13.0px; fill: rgba(139,0,139,1.000); stroke: rgba(139,0,139,1.000) }
#svg-ex4 path.plot07.fill { stroke: none; fill: rgba(139,0,139,1.000); fill-opacity: 0.75 }
#svg-ex4 path.plot08 { stroke: rgba(255,140,0,1.000) }
#svg-ex4 text.plot08, #svg-ex4 rect.plot08 { font-size: 13.0px; fill: rgba(255,140,0,1.000); stroke: rgba(255,140,0,1.000) }
#svg-ex4 path.plot08.fill { stroke: none; fill: rgba(255,140,0,1.000); fill-opacity: 0.75 }
#svg-ex4 path.legend { stroke: rgba(0,0,0,0.400); stroke-width: 1.5 }
</style>
<text x="117.42" y="526.00" class="xlabel" >30</text>
<text x="169.83" y="526.00" class="xlabel" >60</text>
<text x="222.25" y="526.00" class="xlabel" >90</text>
<text x="274.67" y="526.00" class="xlabel" >120</text>
<text x="327.08" y="526.00" class="xlabel" >150</text>
<text x="379.50" y="526.00" class="xlabel" >180</text>
<text x="431.92" y="526.00" class="xlabel" >210</text>
<text x="484.33" y="526.00" class="xlabel" >240</text>
<text x="536.75" y="526.00" class="xlabel" >270</text>
<text x="589.17" y="526.00" class="xlabel" >300</text>
<text x="641.58" y="526.00" class="xlabel" >330</text>
<text x="694.00" y="526.00" class="xlabel" >360</text>
<path class="xlabel" d=" M 117.4,513.5 V 8.0 M 169.8,513.5 V 8.0 M 222.2,513.5 V 8.0 M 274.7,513.5 V 8.0 M 327.1,513.5 V 8.0 M 379.5,513.5 V 8.0 M 431.9,513.5 V 8.0 M 484.3,513.5 V 8.0 M 536.8,513.5 V 8.0 M 589.2,513.5 V 8.0 M 641.6,513.5 V 8.0 M 694.0,513.5 V 8.0 " />
<text x="63.00" y="218.62" class="ylabel" >0.25</text>
<text x="63.00" y="302.88" class="ylabel" >-0.25</text>
<text x="63.00" y="176.50" class="ylabel" >0.50</text>
<text x="63.00" y="345.00" class="ylabel" >-0.50</text>
<text x="63.00" y="134.38" class="ylabel" >0.75</text>
<text x="63.00" y="387.12" class="ylabel" >-0.75</text>
<text x="63.00" y="92.25" class="ylabel" >1.00</text>
<text x="63.00" y="429.25" class="ylabel" >-1.00</text>
<text x="63.00" y="50.12" class="ylabel" >1.25</text>
<text x="63.00" y="471.38" class="ylabel" >-1.25</text>
<text x="63.00" y="8.00" class="ylabel" >1.50</text>
<text x="63.00" y="513.50" class="ylabel" >-1.50</text>
<path class="ylabel" d=" M 65.0,218.6 H 694.0 M 65.0,302.9 H 694.0 M 65.0,176.5 H 694.0 M 65.0,345.0 H 694.0 M 65.0,134.4 H 694.0 M 65.0,387.1 H 694.0 M 65.0,92.2 H 694.0 M 65.0,429.2 H 694.0 M 65.0,50.1 H 694.0 M 65.0,471.4 H 694.0 M 65.0,8.0 H 694.0 M 65.0,513.5 H 694.0 " />
<path class="axes" d=" M 65.0,260.8 H 694.0 M 65.0,513.5 V 8.0 " />
<g clip-path="url(#plotable)" class="plotarea">
<path class="plot02" d=" M 65.0,260.8 " />
<path class="plot02" d=" M 65.0,260.8 m -1.8,0.0 l -1.8,-3.5 l 3.5,1.8 l 3.5,-1.8 l -1.8,3.5 l 1.8,3.5 l -3.5,-1.8 l -3.5,1.8 l 1.8,-3.5 m 1.8,0.0 m 4.2,0.0  a 4.2,4.2 0,0,0 -7.6,-2.5  a 4.2,4.2 0,0,0 4.6,6.5  a 4.2,4.2 0,0,0 2.9,-4.9 m -4.2,0.0 " />
<path class="plot03" d=" M 65.0,260.8 L 69.4,253.4 L 73.7,246.1 L 78.1,238.8 L 82.5,231.5 L 86.8,224.3 L 91.2,217.1 L 95.6,210.1 L 99.9,203.1 L 104.3,196.3 L 108.7,189.5 L 113.0,182.9 L 117.4,176.5 L 121.8,170.2 L 126.2,164.1 L 130.5,158.2 L 134.9,152.4 L 139.3,146.9 L 143.6,141.6 L 148.0,136.5 L 152.4,131.7 L 156.7,127.1 L 161.1,122.7 L 165.5,118.6 L 169.8,114.8 L 174.2,111.3 L 178.6,108.0 L 182.9,105.1 L 187.3,102.4 L 191.7,100.0 L 196.0,98.0 L 200.4,96.2 L 204.8,94.8 L 209.1,93.7 L 213.5,92.9 L 217.9,92.4 L 222.2,92.2 L 226.6,92.4 L 231.0,92.9 L 235.4,93.7 L 239.7,94.8 L 244.1,96.2 L 248.5,98.0 L 252.8,100.0 L 257.2,102.4 L 261.6,105.1 L 265.9,108.0 L 270.3,111.3 L 274.7,114.8 L 279.0,118.6 L 283.4,122.7 L 287.8,127.1 L 292.1,131.7 L 296.5,136.5 L 300.9,141.6 L 305.2,146.9 L 309.6,152.4 L 314.0,158.2 L 318.3,164.1 L 322.7,170.2 L 327.1,176.5 L 331.5,182.9 L 335.8,189.5 L 340.2,196.3 L 344.6,203.1 L 348.9,210.1 L 353.3,217.1 L 357.7,224.3 L 362.0,231.5 L 366.4,238.8 L 370.8,246.1 L 375.1,253.4 L 379.5,260.8 L 383.9,268.1 L 388.2,275.4 L 392.6,282.7 L 397.0,290.0 L 401.3,297.2 L 405.7,304.4 L 410.1,311.4 L 414.4,318.4 L 418.8,325.2 L 423.2,332.0 L 427.5,338.6 L 431.9,345.0 L 436.3,351.3 L 440.7,357.4 L 445.0,363.3 L 449.4,369.1 L 453.8,374.6 L 458.1,379.9 L 462.5,385.0 L 466.9,389.8 L 471.2,394.4 L 475.6,398.8 L 480.0,402.9 L 484.3,406.7 L 488.7,410.2 L 493.1,413.5 L 497.4,416.4 L 501.8,419.1 L 506.2,421.5 L 510.5,423.5 L 514.9,425.3 L 519.3,426.7 L 523.6,427.8 L 528.0,428.6 L 532.4,429.1 L 536.8,429.2 L 541.1,429.1 L 545.5,428.6 L 549.9,427.8 L 554.2,426.7 L 558.6,425.3 L 563.0,423.5 L 567.3,421.5 L 571.7,419.1 L 576.1,416.4 L 580.4,413.5 L 584.8,410.2 L 589.2,406.7 L 593.5,402.9 L 597.9,398.8 L 602.3,394.4 L 606.6,389.8 L 611.0,385.0 L 615.4,379.9 L 619.7,374.6 L 624.1,369.1 L 628.5,363.3 L 632.8,357.4 L 637.2,351.3 L 641.6,345.0 L 646.0,338.6 L 650.3,332.0 L 654.7,325.2 L 659.1,318.4 L 663.4,311.4 L 667.8,304.4 L 672.2,297.2 L 676.5,290.0 L 680.9,282.7 L 685.3,275.4 L 689.6,268.1 L 694.0,260.8 " />
<path class="plot03" d="  " />
<path class="plot04" d=" M 65.0,92.2 L 69.4,92.4 L 73.7,92.9 L 78.1,93.7 L 82.5,94.8 L 86.8,96.2 L 91.2,98.0 L 95.6,100.0 L 99.9,102.4 L 104.3,105.1 L 108.7,108.0 L 113.0,111.3 L 117.4,114.8 L 121.8,118.6 L 126.2,122.7 L 130.5,127.1 L 134.9,131.7 L 139.3,136.5 L 143.6,141.6 L 148.0,146.9 L 152.4,152.4 L 156.7,158.2 L 161.1,164.1 L 165.5,170.2 L 169.8,176.5 L 174.2,182.9 L 178.6,189.5 L 182.9,196.3 L 187.3,203.1 L 191.7,210.1 L 196.0,217.1 L 200.4,224.3 L 204.8,231.5 L 209.1,238.8 L 213.5,246.1 L 217.9,253.4 L 222.2,260.8 L 226.6,268.1 L 231.0,275.4 L 235.4,282.7 L 239.7,290.0 L 244.1,297.2 L 248.5,304.4 L 252.8,311.4 L 257.2,318.4 L 261.6,325.2 L 265.9,332.0 L 270.3,338.6 L 274.7,345.0 L 279.0,351.3 L 283.4,357.4 L 287.8,363.3 L 292.1,369.1 L 296.5,374.6 L 300.9,379.9 L 305.2,385.0 L 309.6,389.8 L 314.0,394.4 L 318.3,398.8 L 322.7,402.9 L 327.1,406.7 L 331.5,410.2 L 335.8,413.5 L 340.2,416.4 L 344.6,419.1 L 348.9,421.5 L 353.3,423.5 L 357.7,425.3 L 362.0,426.7 L 366.4,427.8 L 370.8,428.6 L 375.1,429.1 L 379.5,429.2 L 383.9,429.1 L 388.2,428.6 L 392.6,427.8 L 397.0,426.7 L 401.3,425.3 L 405.7,423.5 L 410.1,421.5 L 414.4,419.1 L 418.8,416.4 L 423.2,413.5 L 427.5,410.2 L 431.9,406.7 L 436.3,402.9 L 440.7,398.8 L 445.0,394.4 L 449.4,389.8 L 453.8,385.0 L 458.1,379.9 L 462.5,374.6 L 466.9,369.1 L 471.2,363.3 L 475.6,357.4 L 480.0,351.3 L 484.3,345.0 L 488.7,338.6 L 493.1,332.0 L 497.4,325.2 L 501.8,318.4 L 506.2,311.4 L 510.5,304.4 L 514.9,297.2 L 519.3,290.0 L 523.6,282.7 L 528.0,275.4 L 532.4,268.1 L 536.8,260.8 L 541.1,253.4 L 545.5,246.1 L 549.9,238.8 L 554.2,231.5 L 558.6,224.3 L 563.0,217.1 L 567.3,210.1 L 571.7,203.1 L 576.1,196.3 L 580.4,189.5 L 584.8,182.9 L 589.2,176.5 L 593.5,170.2 L 597.9,164.1 L 602.3,158.2 L 606.6,152.4 L 611.0,146.9 L 615.4,141.6 L 619.7,136.5 L 624.1,131.7 L 628.5,127.1 L 632.8,122.7 L 637.2,118.6 L 641.6,114.8 L 646.0,111.3 L 650.3,108.0 L 654.7,105.1 L 659.1,102.4 L 663.4,100.0 L 667.8,98.0 L 672.2,96.2 L 676.5,94.8 L 680.9,93.7 L 685.3,92.9 L 689.6,92.4 L 694.0,92.2 " />
<path class="plot04" d=" M 65.0,92.2 m 4.2,0.0  a 4.2,4.2 0,0,0 -7.6,-2.5  a 4.2,4.2 0,0,0 4.6,6.5  a 4.2,4.2 0,0,0 2.9,-4.9 m -4.2,0.0 M 78.1,93.7 m 4.2,0.0  a 4.2,4.2 0,0,0 -7.6,-2.5  a 4.2,4.2 0,0,0 4.6,6.5  a 4.2,4.2 0,0,0 2.9,-4.9 m -4.2,0.0 M 91.2,98.0 m 4.2,0.0  a 4.2,4.2 0,0,0 -7.6,-2.5  a 4.2,4.2 0,0,0 4.6,6.5  a 4.2,4.2 0,0,0 2.9,-4.9 m -4.2,0.0 M 104.3,105.1 m 4.2,0.0  a 4.2,4.2 0,0,0 -7.6,-2.5  a 4.2,4.2 0,0,0 4.6,6.5  a 4.2,4.2 0,0,0 2.9,-4.9 m -4.2,0.0 M 113.0,111.3 m 4.2,0.0  a 4.2,4.2 0,0,0 -7.6,-2.5  a 4.2,4.2 0,0,0 4.6,6.5  a 4.2,4.2 0,0,0 2.9,-4.9 m -4.2,0.0 M 121.8,118.6 m 4.2,0.0  a 4.2,4.2 0,0,0 -7.6,-2.5  a 4.2,4.2 0,0,0 4.6,6.5  a 4.2,4.2 0,0,0 2.9,-4.9 m -4.2,0.0 M 130.5,127.1 m 4.2,0.0  a 4.2,4.2 0,0,0 -7.6,-2.5  a 4.2,4.2 0,0,0 4.6,6.5  a 4.2,4.2 0,0,0 2.9,-4.9 m -4.2,0.0 M 139.3,136.5 m 4.2,0.0  a 4.2,4.2 0,0,0 -7.6,-2.5  a 4.2,4.2 0,0,0 4.6,6.5  a 4.2,4.2 0,0,0 2.9,-4.9 m -4.2,0.0 M 148.0,146.9 m 4.2,0.0  a 4.2,4.2 0,0,0 -7.6,-2.5  a 4.2,4.2 0,0,0 4.6,6.5  a 4.2,4.2 0,0,0 2.9,-4.9 m -4.2,0.0 M 156.7,158.2 m 4.2,0.0  a 4.2,4.2 0,0,0 -7.6,-2.5  a 4.2,4.2 0,0,0 4.6,6.5  a 4.2,4.2 0,0,0 2.9,-4.9 m -4.2,0.0 M 165.5,170.2 m 4.2,0.0  a 4.2,4.2 0,0,0 -7.6,-2.5  a 4.2,4.2 0,0,0 4.6,6.5  a 4.2,4.2 0,0,0 2.9,-4.9 m -4.2,0.0 M 174.2,182.9 m 4.2,0.0  a 4.2,4.2 0,0,0 -7.6,-2.5  a 4.2,4.2 0,0,0 4.6,6.5  a 4.2,4.2 0,0,0 2.9,-4.9 m -4.2,0.0 M 182.9,196.3 m 4.2,0.0  a 4.2,4.2 0,0,0 -7.6,-2.5  a 4.2,4.2 0,0,0 4.6,6.5  a 4.2,4.2 0,0,0 2.9,-4.9 m -4.2,0.0 M 191.7,210.1 m 4.2,0.0  a 4.2,4.2 0,0,0 -7.6,-2.5  a 4.2,4.2 0,0,0 4.6,6.5  a 4.2,4.2 0,0,0 2.9,-4.9 m -4.2,0.0 M 200.4,224.3 m 4.2,0.0  a 4.2,4.2 0,0,0 -7.6,-2.5  a 4.2,4.2 0,0,0 4.6,6.5  a 4.2,4.2 0,0,0 2.9,-4.9 m -4.2,0.0 M 209.1,238.8 m 4.2,0.0  a 4.2,4.2 0,0,0 -7.6,-2.5  a 4.2,4.2 0,0,0 4.6,6.5  a 4.2,4.2 0,0,0 2.9,-4.9 m -4.2,0.0 M 217.9,253.4 m 4.2,0.0  a 4.2,4.2 0,0,0 -7.6,-2.5  a 4.2,4.2 0,0,0 4.6,6.5  a 4.2,4.2 0,0,0 2.9,-4.9 m -4.2,0.0 M 226.6,268.1 m 4.2,0.0  a 4.2,4.2 0,0,0 -7.6,-2.5  a 4.2,4.2 0,0,0 4.6,6.5  a 4.2,4.2 0,0,0 2.9,-4.9 m -4.2,0.0 M 235.4,282.7 m 4.2,0.0  a 4.2,4.2 0,0,0 -7.6,-2.5  a 4.2,4.2 0,0,0 4.6,6.5  a 4.2,4.2 0,0,0 2.9,-4.9 m -4.2,0.0 M 244.1,297.2 m 4.2,0.0  a 4.2,4.2 0,0,0 -7.6,-2.5  a 4.2,4.2 0,0,0 4.6,6.5  a 4.2,4.2 0,0,0 2.9,-4.9 m -4.2,0.0 M 252.8,311.4 m 4.2,0.0  a 4.2,4.2 0,0,0 -7.6,-2.5  a 4.2,4.2 0,0,0 4.6,6.5  a 4.2,4.2 0,0,0 2.9,-4.9 m -4.2,0.0 M 261.6,325.2 m 4.2,0.0  a 4.2,4.2 0,0,0 -7.6,-2.5  a 4.2,4.2 0,0,0 4.6,6.5  a 4.2,4.2 0,0,0 2.9,-4.9 m -4.2,0.0 M 270.3,338.6 m 4.2,0.0  a 4.2,4.2 0,0,0 -7.6,-2.5  a 4.2,4.2 0,0,0 4.6,6.5  a 4.2,4.2 0,0,0 2.9,-4.9 m -4.2,0.0 M 279.0,351.3 m 4.2,0.0  a 4.2,4.2 0,0,0 -7.6,-2.5  a 4.2,4.2 0,0,0 4.6,6.5  a 4.2,4.2 0,0,0 2.9,-4.9 m -4.2,0.0 M 287.8,363.3 m 4.2,0.0  a 4.2,4.2 0,0,0 -7.6,-2.5  a 4.2,4.2 0,0,0 4.6,6.5  a 4.2,4.2 0,0,0 2.9,-4.9 m -4.2,0.0 M 296.5,374.6 m 4.2,0.0  a 4.2,4.2 0,0,0 -7.6,-2.5  a 4.2,4.2 0,0,0 4.6,6.5  a 4.2,4.2 0,0,0 2.9,-4.9 m -4.2,0.0 M 305.2,385.0 m 4.2,0.0  a 4.2,4.2 0,0,0 -7.6,-2.5  a 4.2,4.2 0,0,0 4.6,6.5  a 4.2,4.2 0,0,0 2.9,-4.9 m -4.2,0.0 M 314.0,394.4 m 4.2,0.0  a 4.2,4.2 0,0,0 -7.6,-2.5  a 4.2,4.2 0,0,0 4.6,6.5  a 4.2,4.2 0,0,0 2.9,-4.9 m -4.2,0.0 M 322.7,402.9 m 4.2,0.0  a 4.2,4.2 0,0,0 -7.6,-2.5  a 4.2,4.2 0,0,0 4.6,6.5  a 4.2,4.2 0,0,0 2.9,-4.9 m -4.2,0.0 M 331.5,410.2 m 4.2,0.0  a 4.2,4.2 0,0,0 -7.6,-2.5  a 4.2,4.2 0,0,0 4.6,6.5  a 4.2,4.2 0,0,0 2.9,-4.9 m -4.2,0.0 M 340.2,416.4 m 4.2,0.0  a 4.2,4.2 0,0,0 -7.6,-2.5  a 4.2,4.2 0,0,0 4.6,6.5  a 4.2,4.2 0,0,0 2.9,-4.9 m -4.2,0.0 M 348.9,421.5 m 4.2,0.0  a 4.2,4.2 0,0,0 -7.6,-2.5  a 4.2,4.2 0,0,0 4.6,6.5  a 4.2,4.2 0,0,0 2.9,-4.9 m -4.2,0.0 M 362.0,426.7 m 4.2,0.0  a 4.2,4.2 0,0,0 -7.6,-2.5  a 4.2,4.2 0,0,0 4.6,6.5  a 4.2,4.2 0,0,0 2.9,-4.9 m -4.2,0.0 M 375.1,429.1 m 4.2,0.0  a 4.2,4.2 0,0,0 -7.6,-2.5  a 4.2,4.2 0,0,0 4.6,6.5  a 4.2,4.2 0,0,0 2.9,-4.9 m -4.2,0.0 M 388.2,428.6 m 4.2,0.0  a 4.2,4.2 0,0,0 -7.6,-2.5  a 4.2,4.2 0,0,0 4.6,6.5  a 4.2,4.2 0,0,0 2.9,-4.9 m -4.2,0.0 M 401.3,425.3 m 4.2,0.0  a 4.2,4.2 0,0,0 -7.6,-2.5  a 4.2,4.2 0,0,0 4.6,6.5  a 4.2,4.2 0,0,0 2.9,-4.9 m -4.2,0.0 M 414.4,419.1 m 4.2,0.0  a 4.2,4.2 0,0,0 -7.6,-2.5  a 4.2,4.2 0,0,0 4.6,6.5  a 4.2,4.2 0,0,0 2.9,-4.9 m -4.2,0.0 M 423.2,413.5 m 4.2,0.0  a 4.2,4.2 0,0,0 -7.6,-2.5  a 4.2,4.2 0,0,0 4.6,6.5  a 4.2,4.2 0,0,0 2.9,-4.9 m -4.2,0.0 M 431.9,406.7 m 4.2,0.0  a 4.2,4.2 0,0,0 -7.6,-2.5  a 4.2,4.2 0,0,0 4.6,6.5  a 4.2,4.2 0,0,0 2.9,-4.9 m -4.2,0.0 M 440.7,398.8 m 4.2,0.0  a 4.2,4.2 0,0,0 -7.6,-2.5  a 4.2,4.2 0,0,0 4.6,6.5  a 4.2,4.2 0,0,0 2.9,-4.9 m -4.2,0.0 M 449.4,389.8 m 4.2,0.0  a 4.2,4.2 0,0,0 -7.6,-2.5  a 4.2,4.2 0,0,0 4.6,6.5  a 4.2,4.2 0,0,0 2.9,-4.9 m -4.2,0.0 M 458.1,379.9 m 4.2,0.0  a 4.2,4.2 0,0,0 -7.6,-2.5  a 4.2,4.2 0,0,0 4.6,6.5  a 4.2,4.2 0,0,0 2.9,-4.9 m -4.2,0.0 M 466.9,369.1 m 4.2,0.0  a 4.2,4.2 0,0,0 -7.6,-2.5  a 4.2,4.2 0,0,0 4.6,6.5  a 4.2,4.2 0,0,0 2.9,-4.9 m -4.2,0.0 M 475.6,357.4 m 4.2,0.0  a 4.2,4.2 0,0,0 -7.6,-2.5  a 4.2,4.2 0,0,0 4.6,6.5  a 4.2,4.2 0,0,0 2.9,-4.9 m -4.2,0.0 M 484.3,345.0 m 4.2,0.0  a 4.2,4.2 0,0,0 -7.6,-2.5  a 4.2,4.2 0,0,0 4.6,6.5  a 4.2,4.2 0,0,0 2.9,-4.9 m -4.2,0.0 M 493.1,332.0 m 4.2,0.0  a 4.2,4.2 0,0,0 -7.6,-2.5  a 4.2,4.2 0,0,0 4.6,6.5  a 4.2,4.2 0,0,0 2.9,-4.9 m -4.2,0.0 M 501.8,318.4 m 4.2,0.0  a 4.2,4.2 0,0,0 -7.6,-2.5  a 4.2,4.2 0,0,0 4.6,6.5  a 4.2,4.2 0,0,0 2.9,-4.9 m -4.2,0.0 M 510.5,304.4 m 4.2,0.0  a 4.2,4.2 0,0,0 -7.6,-2.5  a 4.2,4.2 0,0,0 4.6,6.5  a 4.2,4.2 0,0,0 2.9,-4.9 m -4.2,0.0 M 519.3,290.0 m 4.2,0.0  a 4.2,4.2 0,0,0 -7.6,-2.5  a 4.2,4.2 0,0,0 4.6,6.5  a 4.2,4.2 0,0,0 2.9,-4.9 m -4.2,0.0 M 528.0,275.4 m 4.2,0.0  a 4.2,4.2 0,0,0 -7.6,-2.5  a 4.2,4.2 0,0,0 4.6,6.5  a 4.2,4.2 0,0,0 2.9,-4.9 m -4.2,0.0 M 536.8,260.8 m 4.2,0.0  a 4.2,4.2 0,0,0 -7.6,-2.5  a 4.2,4.2 0,0,0 4.6,6.5  a 4.2,4.2 0,0,0 2.9,-4.9 m -4.2,0.0 M 545.5,246.1 m 4.2,0.0  a 4.2,4.2 0,0,0 -7.6,-2.5  a 4.2,4.2 0,0,0 4.6,6.5  a 4.2,4.2 0,0,0 2.9,-4.9 m -4.2,0.0 M 554.2,231.5 m 4.2,0.0  a 4.2,4.2 0,0,0 -7.6,-2.5  a 4.2,4.2 0,0,0 4.6,6.5  a 4.2,4.2 0,0,0 2.9,-4.9 m -4.2,0.0 M 563.0,217.1 m 4.2,0.0  a 4.2,4.2 0,0,0 -7.6,-2.5  a 4.2,4.2 0,0,0 4.6,6.5  a 4.2,4.2 0,0,0 2.9,-4.9 m -4.2,0.0 M 571.7,203.1 m 4.2,0.0  a 4.2,4.2 0,0,0 -7.6,-2.5  a 4.2,4.2 0,0,0 4.6,6.5  a 4.2,4.2 0,0,0 2.9,-4.9 m -4.2,0.0 M 580.4,189.5 m 4.2,0.0  a 4.2,4.2 0,0,0 -7.6,-2.5  a 4.2,4.2 0,0,0 4.6,6.5  a 4.2,4.2 0,0,0 2.9,-4.9 m -4.2,0.0 M 589.2,176.5 m 4.2,0.0  a 4.2,4.2 0,0,0 -7.6,-2.5  a 4.2,4.2 0,0,0 4.6,6.5  a 4.2,4.2 0,0,0 2.9,-4.9 m -4.2,0.0 M 597.9,164.1 m 4.2,0.0  a 4.2,4.2 0,0,0 -7.6,-2.5  a 4.2,4.2 0,0,0 4.6,6.5  a 4.2,4.2 0,0,0 2.9,-4.9 m -4.2,0.0 M 606.6,152.4 m 4.2,0.0  a 4.2,4.2 0,0,0 -7.6,-2.5  a 4.2,4.2 0,0,0 4.6,6.5  a 4.2,4.2 0,0,0 2.9,-4.9 m -4.2,0.0 M 615.4,141.6 m 4.2,0.0  a 4.2,4.2 0,0,0 -7.6,-2.5  a 4.2,4.2 0,0,0 4.6,6.5  a 4.2,4.2 0,0,0 2.9,-4.9 m -4.2,0.0 M 624.1,131.7 m 4.2,0.0  a 4.2,4.2 0,0,0 -7.6,-2.5  a 4.2,4.2 0,0,0 4.6,6.5  a 4.2,4.2 0,0,0 2.9,-4.9 m -4.2,0.0 M 632.8,122.7 m 4.2,0.0  a 4.2,4.2 0,0,0 -7.6,-2.5  a 4.2,4.2 0,0,0 4.6,6.5  a 4.2,4.2 0,0,0 2.9,-4.9 m -4.2,0.0 M 641.6,114.8 m 4.2,0.0  a 4.2,4.2 0,0,0 -7.6,-2.5  a 4.2,4.2 0,0,0 4.6,6.5  a 4.2,4.2 0,0,0 2.9,-4.9 m -4.2,0.0 M 650.3,108.0 m 4.2,0.0  a 4.2,4.2 0,0,0 -7.6,-2.5  a 4.2,4.2 0,0,0 4.6,6.5  a 4.2,4.2 0,0,0 2.9,-4.9 m -4.2,0.0 M 659.1,102.4 m 4.2,0.0  a 4.2,4.2 0,0,0 -7.6,-2.5  a 4.2,4.2 0,0,0 4.6,6.5  a 4.2,4.2 0,0,0 2.9,-4.9 m -4.2,0.0 M 672.2,96.2 m 4.2,0.0  a 4.2,4.2 0,0,0 -7.6,-2.5  a 4.2,4.2 0,0,0 4.6,6.5  a 4.2,4.2 0,0,0 2.9,-4.9 m -4.2,0.0 M 685.3,92.9 m 4.2,0.0  a 4.2,4.2 0,0,0 -7.6,-2.5  a 4.2,4.2 0,0,0 4.6,6.5  a 4.2,4.2 0,0,0 2.9,-4.9 m -4.2,0.0 " />
<path class="plot05" d="  " />
<path class="plot05" d=" M 65.0,260.8 m -2.1,0.0 l -1.4,-0.7 v 1.4 l 1.4,-0.7 m 2.1,-2.1 l -0.7,-1.4 h 1.4 l -0.7,1.4 m 2.1,2.1 l 1.4,-0.7 v 1.4 l -1.4,-0.7 m -2.1,2.1 l -0.7,1.4 h 1.4 l -0.7,-1.4 m 0.0,-1.4 M 69.4,253.4 m -2.1,0.0 l -1.4,-0.7 v 1.4 l 1.4,-0.7 m 2.1,-2.1 l -0.7,-1.4 h 1.4 l -0.7,1.4 m 2.1,2.1 l 1.4,-0.7 v 1.4 l -1.4,-0.7 m -2.1,2.1 l -0.7,1.4 h 1.4 l -0.7,-1.4 m 0.0,-1.4 M 73.7,246.0 m -2.1,0.0 l -1.4,-0.7 v 1.4 l 1.4,-0.7 m 2.1,-2.1 l -0.7,-1.4 h 1.4 l -0.7,1.4 m 2.1,2.1 l 1.4,-0.7 v 1.4 l -1.4,-0.7 m -2.1,2.1 l -0.7,1.4 h 1.4 l -0.7,-1.4 m 0.0,-1.4 M 78.1,238.6 m -2.1,0.0 l -1.4,-0.7 v 1.4 l 1.4,-0.7 m 2.1,-2.1 l -0.7,-1.4 h 1.4 l -0.7,1.4 m 2.1,2.1 l 1.4,-0.7 v 1.4 l -1.4,-0.7 m -2.1,2.1 l -0.7,1.4 h 1.4 l -0.7,-1.4 m 0.0,-1.4 M 82.5,231.0 m -2.1,0.0 l -1.4,-0.7 v 1.4 l 1.4,-0.7 m 2.1,-2.1 l -0.7,-1.4 h 1.4 l -0.7,1.4 m 2.1,2.1 l 1.4,-0.7 v 1.4 l -1.4,-0.7 m -2.1,2.1 l -0.7,1.4 h 1.4 l -0.7,-1.4 m 0.0,-1.4 M 86.8,223.4 m -2.1,0.0 l -1.4,-0.7 v 1.4 l 1.4,-0.7 m 2.1,-2.1 l -0.7,-1.4 h 1.4 l -0.7,1.4 m 2.1,2.1 l 1.4,-0.7 v 1.4 l -1.4,-0.7 m -2.1,2.1 l -0.7,1.4 h 1.4 l -0.7,-1.4 m 0.0,-1.4 M 91.2,215.6 m -2.1,0.0 l -1.4,-0.7 v 1.4 l 1.4,-0.7 m 2.1,-2.1 l -0.7,-1.4 h 1.4 l -0.7,1.4 m 2.1,2.1 l 1.4,-0.7 v 1.4 l -1.4,-0.7 m -2.1,2.1 l -0.7,1.4 h 1.4 l -0.7,-1.4 m 0.0,-1.4 M 95.6,207.6 m -2.1,0.0 l -1.4,-0.7 v 1.4 l 1.4,-0.7 m 2.1,-2.1 l -0.7,-1.4 h 1.4 l -0.7,1.4 m 2.1,2.1 l 1.4,-0.7 v 1.4 l -1.4,-0.7 m -2.1,2.1 l -0.7,1.4 h 1.4 l -0.7,-1.4 m 0.0,-1.4 M 99.9,199.4 m -2.1,0.0 l -1.4,-0.7 v 1.4 l 1.4,-0.7 m 2.1,-2.1 l -0.7,-1.4 h 1.4 l -0.7,1.4 m 2.1,2.1 l 1.4,-0.7 v 1.4 l -1.4,-0.7 m -2.1,2.1 l -0.7,1.4 h 1.4 l -0.7,-1.4 m 0.0,-1.4 M 104.3,191.0 m -2.1,0.0 l -1.4,-0.7 v 1.4 l 1.4,-0.7 m 2.1,-2.1 l -0.7,-1.4 h 1.4 l -0.7,1.4 m 2.1,2.1 l 1.4,-0.7 v 1.4 l -1.4,-0.7 m -2.1,2.1 l -0.7,1.4 h 1.4 l -0.7,-1.4 m 0.0,-1.4 M 108.7,182.2 m -2.1,0.0 l -1.4,-0.7 v 1.4 l 1.4,-0.7 m 2.1,-2.1 l -0.7,-1.4 h 1.4 l -0.7,1.4 m 2.1,2.1 l 1.4,-0.7 v 1.4 l -1.4,-0.7 m -2.1,2.1 l -0.7,1.4 h 1.4 l -0.7,-1.4 m 0.0,-1.4 M 113.0,173.0 m -2.1,0.0 l -1.4,-0.7 v 1.4 l 1.4,-0.7 m 2.1,-2.1 l -0.7,-1.4 h 1.4 l -0.7,1.4 m 2.1,2.1 l 1.4,-0.7 v 1.4 l -1.4,-0.7 m -2.1,2.1 l -0.7,1.4 h 1.4 l -0.7,-1.4 m 0.0,-1.4 M 117.4,163.5 m -2.1,0.0 l -1.4,-0.7 v 1.4 l 1.4,-0.7 m 2.1,-2.1 l -0.7,-1.4 h 1.4 l -0.7,1.4 m 2.1,2.1 l 1.4,-0.7 v 1.4 l -1.4,-0.7 m -2.1,2.1 l -0.7,1.4 h 1.4 l -0.7,-1.4 m 0.0,-1.4 M 121.8,153.4 m -2.1,0.0 l -1.4,-0.7 v 1.4 l 1.4,-0.7 m 2.1,-2.1 l -0.7,-1.4 h 1.4 l -0.7,1.4 m 2.1,2.1 l 1.4,-0.7 v 1.4 l -1.4,-0.7 m -2.1,2.1 l -0.7,1.4 h 1.4 l -0.7,-1.4 m 0.0,-1.4 M 126.2,142.8 m -2.1,0.0 l -1.4,-0.7 v 1.4 l 1.4,-0.7 m 2.1,-2.1 l -0.7,-1.4 h 1.4 l -0.7,1.4 m 2.1,2.1 l 1.4,-0.7 v 1.4 l -1.4,-0.7 m -2.1,2.1 l -0.7,1.4 h 1.4 l -0.7,-1.4 m 0.0,-1.4 M 130.5,131.5 m -2.1,0.0 l -1.4,-0.7 v 1.4 l 1.4,-0.7 m 2.1,-2.1 l -0.7,-1.4 h 1.4 l -0.7,1.4 m 2.1,2.1 l 1.4,-0.7 v 1.4 l -1.4,-0.7 m -2.1,2.1 l -0.7,1.4 h 1.4 l -0.7,-1.4 m 0.0,-1.4 M 134.9,119.4 m -2.1,0.0 l -1.4,-0.7 v 1.4 l 1.4,-0.7 m 2.1,-2.1 l -0.7,-1.4 h 1.4 l -0.7,1.4 m 2.1,2.1 l 1.4,-0.7 v 1.4 l -1.4,-0.7 m -2.1,2.1 l -0.7,1.4 h 1.4 l -0.7,-1.4 m 0.0,-1.4 M 139.3,106.3 m -2.1,0.0 l -1.4,-0.7 v 1.4 l 1.4,-0.7 m 2.1,-2.1 l -0.7,-1.4 h 1.4 l -0.7,1.4 m 2.1,2.1 l 1.4,-0.7 v 1.4 l -1.4,-0.7 m -2.1,2.1 l -0.7,1.4 h 1.4 l -0.7,-1.4 m 0.0,-1.4 M 143.6,92.2 m -2.1,0.0 l -1.4,-0.7 v 1.4 l 1.4,-0.7 m 2.1,-2.1 l -0.7,-1.4 h 1.4 l -0.7,1.4 m 2.1,2.1 l 1.4,-0.7 v 1.4 l -1.4,-0.7 m -2.1,2.1 l -0.7,1.4 h 1.4 l -0.7,-1.4 m 0.0,-1.4 M 148.0,76.9 m -2.1,0.0 l -1.4,-0.7 v 1.4 l 1.4,-0.7 m 2.1,-2.1 l -0.7,-1.4 h 1.4 l -0.7,1.4 m 2.1,2.1 l 1.4,-0.7 v 1.4 l -1.4,-0.7 m -2.1,2.1 l -0.7,1.4 h 1.4 l -0.7,-1.4 m 0.0,-1.4 M 152.4,59.9 m -2.1,0.0 l -1.4,-0.7 v 1.4 l 1.4,-0.7 m 2.1,-2.1 l -0.7,-1.4 h 1.4 l -0.7,1.4 m 2.1,2.1 l 1.4,-0.7 v 1.4 l -1.4,-0.7 m -2.1,2.1 l -0.7,1.4 h 1.4 l -0.7,-1.4 m 0.0,-1.4 M 156.7,41.2 m -2.1,0.0 l -1.4,-0.7 v 1.4 l 1.4,-0.7 m 2.1,-2.1 l -0.7,-1.4 h 1.4 l -0.7,1.4 m 2.1,2.1 l 1.4,-0.7 v 1.4 l -1.4,-0.7 m -2.1,2.1 l -0.7,1.4 h 1.4 l -0.7,-1.4 m 0.0,-1.4 M 161.1,20.1 m -2.1,0.0 l -1.4,-0.7 v 1.4 l 1.4,-0.7 m 2.1,-2.1 l -0.7,-1.4 h 1.4 l -0.7,1.4 m 2.1,2.1 l 1.4,-0.7 v 1.4 l -1.4,-0.7 m -2.1,2.1 l -0.7,1.4 h 1.4 l -0.7,-1.4 m 0.0,-1.4 M 165.5,-3.7 m -2.1,0.0 l -1.4,-0.7 v 1.4 l 1.4,-0.7 m 2.1,-2.1 l -0.7,-1.4 h 1.4 l -0.7,1.4 m 2.1,2.1 l 1.4,-0.7 v 1.4 l -1.4,-0.7 m -2.1,2.1 l -0.7,1.4 h 1.4 l -0.7,-1.4 m 0.0,-1.4 M 169.8,-31.1 m -2.1,0.0 l -1.4,-0.7 v 1.4 l 1.4,-0.7 m 2.1,-2.1 l -0.7,-1.4 h 1.4 l -0.7,1.4 m 2.1,2.1 l 1.4,-0.7 v 1.4 l -1.4,-0.7 m -2.1,2.1 l -0.7,1.4 h 1.4 l -0.7,-1.4 m 0.0,-1.4 M 174.2,-62.9 m -2.1,0.0 l -1.4,-0.7 v 1.4 l 1.4,-0.7 m 2.1,-2.1 l -0.7,-1.4 h 1.4 l -0.7,1.4 m 2.1,2.1 l 1.4,-0.7 v 1.4 l -1.4,-0.7 m -2.1,2.1 l -0.7,1.4 h 1.4 l -0.7,-1.4 m 0.0,-1.4 M 178.6,-100.6 m -2.1,0.0 l -1.4,-0.7 v 1.4 l 1.4,-0.7 m 2.1,-2.1 l -0.7,-1.4 h 1.4 l -0.7,1.4 m 2.1,2.1 l 1.4,-0.7 v 1.4 l -1.4,-0.7 m -2.1,2.1 l -0.7,1.4 h 1.4 l -0.7,-1.4 m 0.0,-1.4 M 182.9,-146.0 m -2.1,0.0 l -1.4,-0.7 v 1.4 l 1.4,-0.7 m 2.1,-2.1 l -0.7,-1.4 h 1.4 l -0.7,1.4 m 2.1,2.1 l 1.4,-0.7 v 1.4 l -1.4,-0.7 m -2.1,2.1 l -0.7,1.4 h 1.4 l -0.7,-1.4 m 0.0,-1.4 M 187.3,-202.2 m -2.1,0.0 l -1.4,-0.7 v 1.4 l 1.4,-0.7 m 2.1,-2.1 l -0.7,-1.4 h 1.4 l -0.7,1.4 m 2.1,2.1 l 1.4,-0.7 v 1.4 l -1.4,-0.7 m -2.1,2.1 l -0.7,1.4 h 1.4 l -0.7,-1.4 m 0.0,-1.4 M 191.7,-273.7 m -2.1,0.0 l -1.4,-0.7 v 1.4 l 1.4,-0.7 m 2.1,-2.1 l -0.7,-1.4 h 1.4 l -0.7,1.4 m 2.1,2.1 l 1.4,-0.7 v 1.4 l -1.4,-0.7 m -2.1,2.1 l -0.7,1.4 h 1.4 l -0.7,-1.4 m 0.0,-1.4 M 248.5,889.6 m -2.1,0.0 l -1.4,-0.7 v 1.4 l 1.4,-0.7 m 2.1,-2.1 l -0.7,-1.4 h 1.4 l -0.7,1.4 m 2.1,2.1 l 1.4,-0.7 v 1.4 l -1.4,-0.7 m -2.1,2.1 l -0.7,1.4 h 1.4 l -0.7,-1.4 m 0.0,-1.4 M 252.8,795.2 m -2.1,0.0 l -1.4,-0.7 v 1.4 l 1.4,-0.7 m 2.1,-2.1 l -0.7,-1.4 h 1.4 l -0.7,1.4 m 2.1,2.1 l 1.4,-0.7 v 1.4 l -1.4,-0.7 m -2.1,2.1 l -0.7,1.4 h 1.4 l -0.7,-1.4 m 0.0,-1.4 M 257.2,723.7 m -2.1,0.0 l -1.4,-0.7 v 1.4 l 1.4,-0.7 m 2.1,-2.1 l -0.7,-1.4 h 1.4 l -0.7,1.4 m 2.1,2.1 l 1.4,-0.7 v 1.4 l -1.4,-0.7 m -2.1,2.1 l -0.7,1.4 h 1.4 l -0.7,-1.4 m 0.0,-1.4 M 261.6,667.5 m -2.1,0.0 l -1.4,-0.7 v 1.4 l 1.4,-0.7 m 2.1,-2.1 l -0.7,-1.4 h 1.4 l -0.7,1.4 m 2.1,2.1 l 1.4,-0.7 v 1.4 l -1.4,-0.7 m -2.1,2.1 l -0.7,1.4 h 1.4 l -0.7,-1.4 m 0.0,-1.4 M 265.9,622.1 m -2.1,0.0 l -1.4,-0.7 v 1.4 l 1.4,-0.7 m 2.1,-2.1 l -0.7,-1.4 h 1.4 l -0.7,1.4 m 2.1,2.1 l 1.4,-0.7 v 1.4 l -1.4,-0.7 m -2.1,2.1 l -0.7,1.4 h 1.4 l -0.7,-1.4 m 0.0,-1.4 M 270.3,584.4 m -2.1,0.0 l -1.4,-0.7 v 1.4 l 1.4,-0.7 m 2.1,-2.1 l -0.7,-1.4 h 1.4 l -0.7,1.4 m 2.1,2.1 l 1.4,-0.7 v 1.4 l -1.4,-0.7 m -2.1,2.1 l -0.7,1.4 h 1.4 l -0.7,-1.4 m 0.0,-1.4 M 274.7,552.6 m -2.1,0.0 l -1.4,-0.7 v 1.4 l 1.4,-0.7 m 2.1,-2.1 l -0.7,-1.4 h 1.4 l -0.7,1.4 m 2.1,2.1 l 1.4,-0.7 v 1.4 l -1.4,-0.7 m -2.1,2.1 l -0.7,1.4 h 1.4 l -0.7,-1.4 m 0.0,-1.4 M 279.0,525.2 m -2.1,0.0 l -1.4,-0.7 v 1.4 l 1.4,-0.7 m 2.1,-2.1 l -0.7,-1.4 h 1.4 l -0.7,1.4 m 2.1,2.1 l 1.4,-0.7 v 1.4 l -1.4,-0.7 m -2.1,2.1 l -0.7,1.4 h 1.4 l -0.7,-1.4 m 0.0,-1.4 M 283.4,501.4 m -2.1,0.0 l -1.4,-0.7 v 1.4 l 1.4,-0.7 m 2.1,-2.1 l -0.7,-1.4 h 1.4 l -0.7,1.4 m 2.1,2.1 l 1.4,-0.7 v 1.4 l -1.4,-0.7 m -2.1,2.1 l -0.7,1.4 h 1.4 l -0.7,-1.4 m 0.0,-1.4 M 287.8,480.3 m -2.1,0.0 l -1.4,-0.7 v 1.4 l 1.4,-0.7 m 2.1,-2.1 l -0.7,-1.4 h 1.4 l -0.7,1.4 m 2.1,2.1 l 1.4,-0.7 v 1.4 l -1.4,-0.7 m -2.1,2.1 l -0.7,1.4 h 1.4 l -0.7,-1.4 m 0.0,-1.4 M 292.1,461.6 m -2.1,0.0 l -1.4,-0.7 v 1.4 l 1.4,-0.7 m 2.1,-2.1 l -0.7,-1.4 h 1.4 l -0.7,1.4 m 2.1,2.1 l 1.4,-0.7 v 1.4 l -1.4,-0.7 m -2.1,2.1 l -0.7,1.4 h 1.4 l -0.7,-1.4 m 0.0,-1.4 M 296.5,444.6 m -2.1,0.0 l -1.4,-0.7 v 1.4 l 1.4,-0.7 m 2.1,-2.1 l -0.7,-1.4 h 1.4 l -0.7,1.4 m 2.1,2.1 l 1.4,-0.7 v 1.4 l -1.4,-0.7 m -2.1,2.1 l -0.7,1.4 h 1.4 l -0.7,-1.4 m 0.0,-1.4 M 300.9,429.2 m -2.1,0.0 l -1.4,-0.7 v 1.4 l 1.4,-0.7 m 2.1,-2.1 l -0.7,-1.4 h 1.4 l -0.7,1.4 m 2.1,2.1 l 1.4,-0.7 v 1.4 l -1.4,-0.7 m -2.1,2.1 l -0.7,1.4 h 1.4 l -0.7,-1.4 m 0.0,-1.4 M 305.2,415.2 m -2.1,0.0 l -1.4,-0.7 v 1.4 l 1.4,-0.7 m 2.1,-2.1 l -0.7,-1.4 h 1.4 l -0.7,1.4 m 2.1,2.1 l 1.4,-0.7 v 1.4 l -1.4,-0.7 m -2.1,2.1 l -0.7,1.4 h 1.4 l -0.7,-1.4 m 0.0,-1.4 M 309.6,402.1 m -2.1,0.0 l -1.4,-0.7 v 1.4 l 1.4,-0.7 m 2.1,-2.1 l -0.7,-1.4 h 1.4 l -0.7,1.4 m 2.1,2.1 l 1.4,-0.7 v 1.4 l -1.4,-0.7 m -2.1,2.1 l -0.7,1.4 h 1.4 l -0.7,-1.4 m 0.0,-1.4 M 314.0,390.0 m -2.1,0.0 l -1.4,-0.7 v 1.4 l 1.4,-0.7 m 2.1,-2.1 l -0.7,-1.4 h 1.4 l -0.7,1.4 m 2.1,2.1 l 1.4,-0.7 v 1.4 l -1.4,-0.7 m -2.1,2.1 l -0.7,1.4 h 1.4 l -0.7,-1.4 m 0.0,-1.4 M 318.3,378.7 m -2.1,0.0 l -1.4,-0.7 v 1.4 l 1.4,-0.7 m 2.1,-2.1 l -0.7,-1.4 h 1.4 l -0.7,1.4 m 2.1,2.1 l 1.4,-0.7 v 1.4 l -1.4,-0.7 m -2.1,2.1 l -0.7,1.4 h 1.4 l -0.7,-1.4 m 0.0,-1.4 M 322.7,368.1 m -2.1,0.0 l -1.4,-0.7 v 1.4 l 1.4,-0.7 m 2.1,-2.1 l -0.7,-1.4 h 1.4 l -0.7,1.4 m 2.1,2.1 l 1.4,-0.7 v 1.4 l -1.4,-0.7 m -2.1,2.1 l -0.7,1.4 h 1.4 l -0.7,-1.4 m 0.0,-1.4 M 327.1,358.0 m -2.1,0.0 l -1.4,-0.7 v 1.4 l 1.4,-0.7 m 2.1,-2.1 l -0.7,-1.4 h 1.4 l -0.7,1.4 m 2.1,2.1 l 1.4,-0.7 v 1.4 l -1.4,-0.7 m -2.1,2.1 l -0.7,1.4 h 1.4 l -0.7,-1.4 m 0.0,-1.4 M 331.5,348.5 m -2.1,0.0 l -1.4,-0.7 v 1.4 l 1.4,-0.7 m 2.1,-2.1 l -0.7,-1.4 h 1.4 l -0.7,1.4 m 2.1,2.1 l 1.4,-0.7 v 1.4 l -1.4,-0.7 m -2.1,2.1 l -0.7,1.4 h 1.4 l -0.7,-1.4 m 0.0,-1.4 M 335.8,339.3 m -2.1,0.0 l -1.4,-0.7 v 1.4 l 1.4,-0.7 m 2.1,-2.1 l -0.7,-1.4 h 1.4 l -0.7,1.4 m 2.1,2.1 l 1.4,-0.7 v 1.4 l -1.4,-0.7 m -2.1,2.1 l -0.7,1.4 h 1.4 l -0.7,-1.4 m 0.0,-1.4 M 340.2,330.5 m -2.1,0.0 l -1.4,-0.7 v 1.4 l 1.4,-0.7 m 2.1,-2.1 l -0.7,-1.4 h 1.4 l -0.7,1.4 m 2.1,2.1 l 1.4,-0.7 v 1.4 l -1.4,-0.7 m -2.1,2.1 l -0.7,1.4 h 1.4 l -0.7,-1.4 m 0.0,-1.4 M 344.6,322.1 m -2.1,0.0 l -1.4,-0.7 v 1.4 l 1.4,-0.7 m 2.1,-2.1 l -0.7,-1.4 h 1.4 l -0.7,1.4 m 2.1,2.1 l 1.4,-0.7 v 1.4 l -1.4,-0.7 m -2.1,2.1 l -0.7,1.4 h 1.4 l -0.7,-1.4 m 0.0,-1.4 M 348.9,313.9 m -2.1,0.0 l -1.4,-0.7 v 1.4 l 1.4,-0.7 m 2.1,-2.1 l -0.7,-1.4 h 1.4 l -0.7,1.4 m 2.1,2.1 l 1.4,-0.7 v 1.4 l -1.4,-0.7 m -2.1,2.1 l -0.7,1.4 h 1.4 l -0.7,-1.4 m 0.0,-1.4 M 353.3,305.9 m -2.1,0.0 l -1.4,-0.7 v 1.4 l 1.4,-0.7 m 2.1,-2.1 l -0.7,-1.4 h 1.4 l -0.7,1.4 m 2.1,2.1 l 1.4,-0.7 v 1.4 l -1.4,-0.7 m -2.1,2.1 l -0.7,1.4 h 1.4 l -0.7,-1.4 m 0.0,-1.4 M 357.7,298.1 m -2.1,0.0 l -1.4,-0.7 v 1.4 l 1.4,-0.7 m 2.1,-2.1 l -0.7,-1.4 h 1.4 l -0.7,1.4 m 2.1,2.1 l 1.4,-0.7 v 1.4 l -1.4,-0.7 m -2.1,2.1 l -0.7,1.4 h 1.4 l -0.7,-1.4 m 0.0,-1.4 M 362.0,290.5 m -2.1,0.0 l -1.4,-0.7 v 1.4 l 1.4,-0.7 m 2.1,-2.1 l -0.7,-1.4 h 1.4 l -0.7,1.4 m 2.1,2.1 l 1.4,-0.7 v 1.4 l -1.4,-0.7 m -2.1,2.1 l -0.7,1.4 h 1.4 l -0.7,-1.4 m 0.0,-1.4 M 366.4,282.9 m -2.1,0.0 l -1.4,-0.7 v 1.4 l 1.4,-0.7 m 2.1,-2.1 l -0.7,-1.4 h 1.4 l -0.7,1.4 m 2.1,2.1 l 1.4,-0.7 v 1.4 l -1.4,-0.7 m -2.1,2.1 l -0.7,1.4 h 1.4 l -0.7,-1.4 m 0.0,-1.4 M 370.8,275.5 m -2.1,0.0 l -1.4,-0.7 v 1.4 l 1.4,-0.7 m 2.1,-2.1 l -0.7,-1.4 h 1.4 l -0.7,1.4 m 2.1,2.1 l 1.4,-0.7 v 1.4 l -1.4,-0.7 m -2.1,2.1 l -0.7,1.4 h 1.4 l -0.7,-1.4 m 0.0,-1.4 M 375.1,268.1 m -2.1,0.0 l -1.4,-0.7 v 1.4 l 1.4,-0.7 m 2.1,-2.1 l -0.7,-1.4 h 1.4 l -0.7,1.4 m 2.1,2.1 l 1.4,-0.7 v 1.4 l -1.4,-0.7 m -2.1,2.1 l -0.7,1.4 h 1.4 l -0.7,-1.4 m 0.0,-1.4 M 379.5,260.8 m -2.1,0.0 l -1.4,-0.7 v 1.4 l 1.4,-0.7 m 2.1,-2.1 l -0.7,-1.4 h 1.4 l -0.7,1.4 m 2.1,2.1 l 1.4,-0.7 v 1.4 l -1.4,-0.7 m -2.1,2.1 l -0.7,1.4 h 1.4 l -0.7,-1.4 m 0.0,-1.4 M 383.9,253.4 m -2.1,0.0 l -1.4,-0.7 v 1.4 l 1.4,-0.7 m 2.1,-2.1 l -0.7,-1.4 h 1.4 l -0.7,1.4 m 2.1,2.1 l 1.4,-0.7 v 1.4 l -1.4,-0.7 m -2.1,2.1 l -0.7,1.4 h 1.4 l -0.7,-1.4 m 0.0,-1.4 M 388.2,246.0 m -2.1,0.0 l -1.4,-0.7 v 1.4 l 1.4,-0.7 m 2.1,-2.1 l -0.7,-1.4 h 1.4 l -0.7,1.4 m 2.1,2.1 l 1.4,-0.7 v 1.4 l -1.4,-0.7 m -2.1,2.1 l -0.7,1.4 h 1.4 l -0.7,-1.4 m 0.0,-1.4 M 392.6,238.6 m -2.1,0.0 l -1.4,-0.7 v 1.4 l 1.4,-0.7 m 2.1,-2.1 l -0.7,-1.4 h 1.4 l -0.7,1.4 m 2.1,2.1 l 1.4,-0.7 v 1.4 l -1.4,-0.7 m -2.1,2.1 l -0.7,1.4 h 1.4 l -0.7,-1.4 m 0.0,-1.4 M 397.0,231.0 m -2.1,0.0 l -1.4,-0.7 v 1.4 l 1.4,-0.7 m 2.1,-2.1 l -0.7,-1.4 h 1.4 l -0.7,1.4 m 2.1,2.1 l 1.4,-0.7 v 1.4 l -1.4,-0.7 m -2.1,2.1 l -0.7,1.4 h 1.4 l -0.7,-1.4 m 0.0,-1.4 M 401.3,223.4 m -2.1,0.0 l -1.4,-0.7 v 1.4 l 1.4,-0.7 m 2.1,-2.1 l -0.7,-1.4 h 1.4 l -0.7,1.4 m 2.1,2.1 l 1.4,-0.7 v 1.4 l -1.4,-0.7 m -2.1,2.1 l -0.7,1.4 h 1.4 l -0.7,-1.4 m 0.0,-1.4 M 405.7,215.6 m -2.1,0.0 l -1.4,-0.7 v 1.4 l 1.4,-0.7 m 2.1,-2.1 l -0.7,-1.4 h 1.4 l -0.7,1.4 m 2.1,2.1 l 1.4,-0.7 v 1.4 l -1.4,-0.7 m -2.1,2.1 l -0.7,1.4 h 1.4 l -0.7,-1.4 m 0.0,-1.4 M 410.1,207.6 m -2.1,0.0 l -1.4,-0.7 v 1.4 l 1.4,-0.7 m 2.1,-2.1 l -0.7,-1.4 h 1.4 l -0.7,1.4 m 2.1,2.1 l 1.4,-0.7 v 1.4 l -1.4,-0.7 m -2.1,2.1 l -0.7,1.4 h 1.4 l -0.7,-1.4 m 0.0,-1.4 M 414.4,199.4 m -2.1,0.0 l -1.4,-0.7 v 1.4 l 1.4,-0.7 m 2.1,-2.1 l -0.7,-1.4 h 1.4 l -0.7,1.4 m 2.1,2.1 l 1.4,-0.7 v 1.4 l -1.4,-0.7 m -2.1,2.1 l -0.7,1.4 h 1.4 l -0.7,-1.4 m 0.0,-1.4 M 418.8,191.0 m -2.1,0.0 l -1.4,-0.7 v 1.4 l 1.4,-0.7 m 2.1,-2.1 l -0.7,-1.4 h 1.4 l -0.7,1.4 m 2.1,2.1 l 1.4,-0.7 v 1.4 l -1.4,-0.7 m -2.1,2.1 l -0.7,1.4 h 1.4 l -0.7,-1.4 m 0.0,-1.4 M 423.2,182.2 m -2.1,0.0 l -1.4,-0.7 v 1.4 l 1.4,-0.7 m 2.1,-2.1 l -0.7,-1.4 h 1.4 l -0.7,1.4 m 2.1,2.1 l 1.4,-0.7 v 1.4 l -1.4,-0.7 m -2.1,2.1 l -0.7,1.4 h 1.4 l -0.7,-1.4 m 0.0,-1.4 M 427.5,173.0 m -2.1,0.0 l -1.4,-0.7 v 1.4 l 1.4,-0.7 m 2.1,-2.1 l -0.7,-1.4 h 1.4 l -0.7,1.4 m 2.1,2.1 l 1.4,-0.7 v 1.4 l -1.4,-0.7 m -2.1,2.1 l -0.7,1.4 h 1.4 l -0.7,-1.4 m 0.0,-1.4 M 431.9,163.5 m -2.1,0.0 l -1.4,-0.7 v 1.4 l 1.4,-0.7 m 2.1,-2.1 l -0.7,-1.4 h 1.4 l -0.7,1.4 m 2.1,2.1 l 1.4,-0.7 v 1.4 l -1.4,-0.7 m -2.1,2.1 l -0.7,1.4 h 1.4 l -0.7,-1.4 m 0.0,-1.4 M 436.3,153.4 m -2.1,0.0 l -1.4,-0.7 v 1.4 l 1.4,-0.7 m 2.1,-2.1 l -0.7,-1.4 h 1.4 l -0.7,1.4 m 2.1,2.1 l 1.4,-0.7 v 1.4 l -1.4,-0.7 m -2.1,2.1 l -0.7,1.4 h 1.4 l -0.7,-1.4 m 0.0,-1.4 M 440.7,142.8 m -2.1,0.0 l -1.4,-0.7 v 1.4 l 1.4,-0.7 m 2.1,-2.1 l -0.7,-1.4 h 1.4 l -0.7,1.4 m 2.1,2.1 l 1.4,-0.7 v 1.4 l -1.4,-0.7 m -2.1,2.1 l -0.7,1.4 h 1.4 l -0.7,-1.4 m 0.0,-1.4 M 445.0,131.5 m -2.1,0.0 l -1.4,-0.7 v 1.4 l 1.4,-0.7 m 2.1,-2.1 l -0.7,-1.4 h 1.4 l -0.7,1.4 m 2.1,2.1 l 1.4,-0.7 v 1.4 l -1.4,-0.7 m -2.1,2.1 l -0.7,1.4 h 1.4 l -0.7,-1.4 m 0.0,-1.4 M 449.4,119.4 m -2.1,0.0 l -1.4,-0.7 v 1.4 l 1.4,-0.7 m 2.1,-2.1 l -0.7,-1.4 h 1.4 l -0.7,1.4 m 2.1,2.1 l 1.4,-0.7 v 1.4 l -1.4,-0.7 m -2.1,2.1 l -0.7,1.4 h 1.4 l -0.7,-1.4 m 0.0,-1.4 M 453.8,106.3 m -2.1,0.0 l -1.4,-0.7 v 1.4 l 1.4,-0.7 m 2.1,-2.1 l -0.7,-1.4 h 1.4 l -0.7,1.4 m 2.1,2.1 l 1.4,-0.7 v 1.4 l -1.4,-0.7 m -2.1,2.1 l -0.7,1.4 h 1.4 l -0.7,-1.4 m 0.0,-1.4 M 458.1,92.2 m -2.1,0.0 l -1.4,-0.7 v 1.4 l 1.4,-0.7 m 2.1,-2.1 l -0.7,-1.4 h 1.4 l -0.7,1.4 m 2.1,2.1 l 1.4,-0.7 v 1.4 l -1.4,-0.7 m -2.1,2.1 l -0.7,1.4 h 1.4 l -0.7,-1.4 m 0.0,-1.4 M 462.5,76.9 m -2.1,0.0 l -1.4,-0.7 v 1.4 l 1.4,-0.7 m 2.1,-2.1 l -0.7,-1.4 h 1.4 l -0.7,1.4 m 2.1,2.1 l 1.4,-0.7 v 1.4 l -1.4,-0.7 m -2.1,2.1 l -0.7,1.4 h 1.4 l -0.7,-1.4 m 0.0,-1.4 M 466.9,59.9 m -2.1,0.0 l -1.4,-0.7 v 1.4 l 1.4,-0.7 m 2.1,-2.1 l -0.7,-1.4 h 1.4 l -0.7,1.4 m 2.1,2.1 l 1.4,-0.7 v 1.4 l -1.4,-0.7 m -2.1,2.1 l -0.7,1.4 h 1.4 l -0.7,-1.4 m 0.0,-1.4 M 471.2,41.2 m -2.1,0.0 l -1.4,-0.7 v 1.4 l 1.4,-0.7 m 2.1,-2.1 l -0.7,-1.4 h 1.4 l -0.7,1.4 m 2.1,2.1 l 1.4,-0.7 v 1.4 l -1.4,-0.7 m -2.1,2.1 l -0.7,1.4 h 1.4 l -0.7,-1.4 m 0.0,-1.4 M 475.6,20.1 m -2.1,0.0 l -1.4,-0.7 v 1.4 l 1.4,-0.7 m 2.1,-2.1 l -0.7,-1.4 h 1.4 l -0.7,1.4 m 2.1,2.1 l 1.4,-0.7 v 1.4 l -1.4,-0.7 m -2.1,2.1 l -0.7,1.4 h 1.4 l -0.7,-1.4 m 0.0,-1.4 M 480.0,-3.7 m -2.1,0.0 l -1.4,-0.7 v 1.4 l 1.4,-0.7 m 2.1,-2.1 l -0.7,-1.4 h 1.4 l -0.7,1.4 m 2.1,2.1 l 1.4,-0.7 v 1.4 l -1.4,-0.7 m -2.1,2.1 l -0.7,1.4 h 1.4 l -0.7,-1.4 m 0.0,-1.4 M 484.3,-31.1 m -2.1,0.0 l -1.4,-0.7 v 1.4 l 1.4,-0.7 m 2.1,-2.1 l -0.7,-1.4 h 1.4 l -0.7,1.4 m 2.1,2.1 l 1.4,-0.7 v 1.4 l -1.4,-0.7 m -2.1,2.1 l -0.7,1.4 h 1.4 l -0.7,-1.4 m 0.0,-1.4 M 488.7,-62.9 m -2.1,0.0 l -1.4,-0.7 v 1.4 l 1.4,-0.7 m 2.1,-2.1 l -0.7,-1.4 h 1.4 l -0.7,1.4 m 2.1,2.1 l 1.4,-0.7 v 1.4 l -1.4,-0.7 m -2.1,2.1 l -0.7,1.4 h 1.4 l -0.7,-1.4 m 0.0,-1.4 M 493.1,-100.6 m -2.1,0.0 l -1.4,-0.7 v 1.4 l 1.4,-0.7 m 2.1,-2.1 l -0.7,-1.4 h 1.4 l -0.7,1.4 m 2.1,2.1 l 1.4,-0.7 v 1.4 l -1.4,-0.7 m -2.1,2.1 l -0.7,1.4 h 1.4 l -0.7,-1.4 m 0.0,-1.4 M 497.4,-146.0 m -2.1,0.0 l -1.4,-0.7 v 1.4 l 1.4,-0.7 m 2.1,-2.1 l -0.7,-1.4 h 1.4 l -0.7,1.4 m 2.1,2.1 l 1.4,-0.7 v 1.4 l -1.4,-0.7 m -2.1,2.1 l -0.7,1.4 h 1.4 l -0.7,-1.4 m 0.0,-1.4 M 501.8,-202.2 m -2.1,0.0 l -1.4,-0.7 v 1.4 l 1.4,-0.7 m 2.1,-2.1 l -0.7,-1.4 h 1.4 l -0.7,1.4 m 2.1,2.1 l 1.4,-0.7 v 1.4 l -1.4,-0.7 m -2.1,2.1 l -0.7,1.4 h 1.4 l -0.7,-1.4 m 0.0,-1.4 M 506.2,-273.7 m -2.1,0.0 l -1.4,-0.7 v 1.4 l 1.4,-0.7 m 2.1,-2.1 l -0.7,-1.4 h 1.4 l -0.7,1.4 m 2.1,2.1 l 1.4,-0.7 v 1.4 l -1.4,-0.7 m -2.1,2.1 l -0.7,1.4 h 1.4 l -0.7,-1.4 m 0.0,-1.4 M 563.0,889.6 m -2.1,0.0 l -1.4,-0.7 v 1.4 l 1.4,-0.7 m 2.1,-2.1 l -0.7,-1.4 h 1.4 l -0.7,1.4 m 2.1,2.1 l 1.4,-0.7 v 1.4 l -1.4,-0.7 m -2.1,2.1 l -0.7,1.4 h 1.4 l -0.7,-1.4 m 0.0,-1.4 M 567.3,795.2 m -2.1,0.0 l -1.4,-0.7 v 1.4 l 1.4,-0.7 m 2.1,-2.1 l -0.7,-1.4 h 1.4 l -0.7,1.4 m 2.1,2.1 l 1.4,-0.7 v 1.4 l -1.4,-0.7 m -2.1,2.1 l -0.7,1.4 h 1.4 l -0.7,-1.4 m 0.0,-1.4 M 571.7,723.7 m -2.1,0.0 l -1.4,-0.7 v 1.4 l 1.4,-0.7 m 2.1,-2.1 l -0.7,-1.4 h 1.4 l -0.7,1.4 m 2.1,2.1 l 1.4,-0.7 v 1.4 l -1.4,-0.7 m -2.1,2.1 l -0.7,1.4 h 1.4 l -0.7,-1.4 m 0.0,-1.4 M 576.1,667.5 m -2.1,0.0 l -1.4,-0.7 v 1.4 l 1.4,-0.7 m 2.1,-2.1 l -0.7,-1.4 h 1.4 l -0.7,1.4 m 2.1,2.1 l 1.4,-0.7 v 1.4 l -1.4,-0.7 m -2.1,2.1 l -0.7,1.4 h 1.4 l -0.7,-1.4 m 0.0,-1.4 M 580.4,622.1 m -2.1,0.0 l -1.4,-0.7 v 1.4 l 1.4,-0.7 m 2.1,-2.1 l -0.7,-1.4 h 1.4 l -0.7,1.4 m 2.1,2.1 l 1.4,-0.7 v 1.4 l -1.4,-0.7 m -2.1,2.1 l -0.7,1.4 h 1.4 l -0.7,-1.4 m 0.0,-1.4 M 584.8,584.4 m -2.1,0.0 l -1.4,-0.7 v 1.4 l 1.4,-0.7 m 2.1,-2.1 l -0.7,-1.4 h 1.4 l -0.7,1.4 m 2.1,2.1 l 1.4,-0.7 v 1.4 l -1.4,-0.7 m -2.1,2.1 l -0.7,1.4 h 1.4 l -0.7,-1.4 m 0.0,-1.4 M 589.2,552.6 m -2.1,0.0 l -1.4,-0.7 v 1.4 l 1.4,-0.7 m 2.1,-2.1 l -0.7,-1.4 h 1.4 l -0.7,1.4 m 2.1,2.1 l 1.4,-0.7 v 1.4 l -1.4,-0.7 m -2.1,2.1 l -0.7,1.4 h 1.4 l -0.7,-1.4 m 0.0,-1.4 M 593.5,525.2 m -2.1,0.0 l -1.4,-0.7 v 1.4 l 1.4,-0.7 m 2.1,-2.1 l -0.7,-1.4 h 1.4 l -0.7,1.4 m 2.1,2.1 l 1.4,-0.7 v 1.4 l -1.4,-0.7 m -2.1,2.1 l -0.7,1.4 h 1.4 l -0.7,-1.4 m 0.0,-1.4 M 597.9,501.4 m -2.1,0.0 l -1.4,-0.7 v 1.4 l 1.4,-0.7 m 2.1,-2.1 l -0.7,-1.4 h 1.4 l -0.7,1.4 m 2.1,2.1 l 1.4,-0.7 v 1.4 l -1.4,-0.7 m -2.1,2.1 l -0.7,1.4 h 1.4 l -0.7,-1.4 m 0.0,-1.4 M 602.3,480.3 m -2.1,0.0 l -1.4,-0.7 v 1.4 l 1.4,-0.7 m 2.1,-2.1 l -0.7,-1.4 h 1.4 l -0.7,1.4 m 2.1,2.1 l 1.4,-0.7 v 1.4 l -1.4,-0.7 m -2.1,2.1 l -0.7,1.4 h 1.4 l -0.7,-1.4 m 0.0,-1.4 M 606.6,461.6 m -2.1,0.0 l -1.4,-0.7 v 1.4 l 1.4,-0.7 m 2.1,-2.1 l -0.7,-1.4 h 1.4 l -0.7,1.4 m 2.1,2.1 l 1.4,-0.7 v 1.4 l -1.4,-0.7 m -2.1,2.1 l -0.7,1.4 h 1.4 l -0.7,-1.4 m 0.0,-1.4 M 611.0,444.6 m -2.1,0.0 l -1.4,-0.7 v 1.4 l 1.4,-0.7 m 2.1,-2.1 l -0.7,-1.4 h 1.4 l -0.7,1.4 m 2.1,2.1 l 1.4,-0.7 v 1.4 l -1.4,-0.7 m -2.1,2.1 l -0.7,1.4 h 1.4 l -0.7,-1.4 m 0.0,-1.4 M 615.4,429.2 m -2.1,0.0 l -1.4,-0.7 v 1.4 l 1.4,-0.7 m 2.1,-2.1 l -0.7,-1.4 h 1.4 l -0.7,1.4 m 2.1,2.1 l 1.4,-0.7 v 1.4 l -1.4,-0.7 m -2.1,2.1 l -0.7,1.4 h 1.4 l -0.7,-1.4 m 0.0,-1.4 M 619.7,415.2 m -2.1,0.0 l -1.4,-0.7 v 1.4 l 1.4,-0.7 m 2.1,-2.1 l -0.7,-1.4 h 1.4 l -0.7,1.4 m 2.1,2.1 l 1.4,-0.7 v 1.4 l -1.4,-0.7 m -2.1,2.1 l -0.7,1.4 h 1.4 l -0.7,-1.4 m 0.0,-1.4 M 624.1,402.1 m -2.1,0.0 l -1.4,-0.7 v 1.4 l 1.4,-0.7 m 2.1,-2.1 l -0.7,-1.4 h 1.4 l -0.7,1.4 m 2.1,2.1 l 1.4,-0.7 v 1.4 l -1.4,-0.7 m -2.1,2.1 l -0.7,1.4 h 1.4 l -0.7,-1.4 m 0.0,-1.4 M 628.5,390.0 m -2.1,0.0 l -1.4,-0.7 v 1.4 l 1.4,-0.7 m 2.1,-2.1 l -0.7,-1.4 h 1.4 l -0.7,1.4 m 2.1,2.1 l 1.4,-0.7 v 1.4 l -1.4,-0.7 m -2.1,2.1 l -0.7,1.4 h 1.4 l -0.7,-1.4 m 0.0,-1.4 M 632.8,378.7 m -2.1,0.0 l -1.4,-0.7 v 1.4 l 1.4,-0.7 m 2.1,-2.1 l -0.7,-1.4 h 1.4 l -0.7,1.4 m 2.1,2.1 l 1.4,-0.7 v 1.4 l -1.4,-0.7 m -2.1,2.1 l -0.7,1.4 h 1.4 l -0.7,-1.4 m 0.0,-1.4 M 637.2,368.1 m -2.1,0.0 l -1.4,-0.7 v 1.4 l 1.4,-0.7 m 2.1,-2.1 l -0.7,-1.4 h 1.4 l -0.7,1.4 m 2.1,2.1 l 1.4,-0.7 v 1.4 l -1.4,-0.7 m -2.1,2.1 l -0.7,1.4 h 1.4 l -0.7,-1.4 m 0.0,-1.4 M 641.6,358.0 m -2.1,0.0 l -1.4,-0.7 v 1.4 l 1.4,-0.7 m 2.1,-2.1 l -0.7,-1.4 h 1.4 l -0.7,1.4 m 2.1,2.1 l 1.4,-0.7 v 1.4 l -1.4,-0.7 m -2.1,2.1 l -0.7,1.4 h 1.4 l -0.7,-1.4 m 0.0,-1.4 M 646.0,348.5 m -2.1,0.0 l -1.4,-0.7 v 1.4 l 1.4,-0.7 m 2.1,-2.1 l -0.7,-1.4 h 1.4 l -0.7,1.4 m 2.1,2.1 l 1.4,-0.7 v 1.4 l -1.4,-0.7 m -2.1,2.1 l -0.7,1.4 h 1.4 l -0.7,-1.4 m 0.0,-1.4 M 650.3,339.3 m -2.1,0.0 l -1.4,-0.7 v 1.4 l 1.4,-0.7 m 2.1,-2.1 l -0.7,-1.4 h 1.4 l -0.7,1.4 m 2.1,2.1 l 1.4,-0.7 v 1.4 l -1.4,-0.7 m -2.1,2.1 l -0.7,1.4 h 1.4 l -0.7,-1.4 m 0.0,-1.4 M 654.7,330.5 m -2.1,0.0 l -1.4,-0.7 v 1.4 l 1.4,-0.7 m 2.1,-2.1 l -0.7,-1.4 h 1.4 l -0.7,1.4 m 2.1,2.1 l 1.4,-0.7 v 1.4 l -1.4,-0.7 m -2.1,2.1 l -0.7,1.4 h 1.4 l -0.7,-1.4 m 0.0,-1.4 M 659.1,322.1 m -2.1,0.0 l -1.4,-0.7 v 1.4 l 1.4,-0.7 m 2.1,-2.1 l -0.7,-1.4 h 1.4 l -0.7,1.4 m 2.1,2.1 l 1.4,-0.7 v 1.4 l -1.4,-0.7 m -2.1,2.1 l -0.7,1.4 h 1.4 l -0.7,-1.4 m 0.0,-1.4 M 663.4,313.9 m -2.1,0.0 l -1.4,-0.7 v 1.4 l 1.4,-0.7 m 2.1,-2.1 l -0.7,-1.4 h 1.4 l -0.7,1.4 m 2.1,2.1 l 1.4,-0.7 v 1.4 l -1.4,-0.7 m -2.1,2.1 l -0.7,1.4 h 1.4 l -0.7,-1.4 m 0.0,-1.4 M 667.8,305.9 m -2.1,0.0 l -1.4,-0.7 v 1.4 l 1.4,-0.7 m 2.1,-2.1 l -0.7,-1.4 h 1.4 l -0.7,1.4 m 2.1,2.1 l 1.4,-0.7 v 1.4 l -1.4,-0.7 m -2.1,2.1 l -0.7,1.4 h 1.4 l -0.7,-1.4 m 0.0,-1.4 M 672.2,298.1 m -2.1,0.0 l -1.4,-0.7 v 1.4 l 1.4,-0.7 m 2.1,-2.1 l -0.7,-1.4 h 1.4 l -0.7,1.4 m 2.1,2.1 l 1.4,-0.7 v 1.4 l -1.4,-0.7 m -2.1,2.1 l -0.7,1.4 h 1.4 l -0.7,-1.4 m 0.0,-1.4 M 676.5,290.5 m -2.1,0.0 l -1.4,-0.7 v 1.4 l 1.4,-0.7 m 2.1,-2.1 l -0.7,-1.4 h 1.4 l -0.7,1.4 m 2.1,2.1 l 1.4,-0.7 v 1.4 l -1.4,-0.7 m -2.1,2.1 l -0.7,1.4 h 1.4 l -0.7,-1.4 m 0.0,-1.4 M 680.9,282.9 m -2.1,0.0 l -1.4,-0.7 v 1.4 l 1.4,-0.7 m 2.1,-2.1 l -0.7,-1.4 h 1.4 l -0.7,1.4 m 2.1,2.1 l 1.4,-0.7 v 1.4 l -1.4,-0.7 m -2.1,2.1 l -0.7,1.4 h 1.4 l -0.7,-1.4 m 0.0,-1.4 M 685.3,275.5 m -2.1,0.0 l -1.4,-0.7 v 1.4 l 1.4,-0.7 m 2.1,-2.1 l -0.7,-1.4 h 1.4 l -0.7,1.4 m 2.1,2.1 l 1.4,-0.7 v 1.4 l -1.4,-0.7 m -2.1,2.1 l -0.7,1.4 h 1.4 l -0.7,-1.4 m 0.0,-1.4 M 689.6,268.1 m -2.1,0.0 l -1.4,-0.7 v 1.4 l 1.4,-0.7 m 2.1,-2.1 l -0.7,-1.4 h 1.4 l -0.7,1.4 m 2.1,2.1 l 1.4,-0.7 v 1.4 l -1.4,-0.7 m -2.1,2.1 l -0.7,1.4 h 1.4 l -0.7,-1.4 m 0.0,-1.4 M 694.0,260.8 m -2.1,0.0 l -1.4,-0.7 v 1.4 l 1.4,-0.7 m 2.1,-2.1 l -0.7,-1.4 h 1.4 l -0.7,1.4 m 2.1,2.1 l 1.4,-0.7 v 1.4 l -1.4,-0.7 m -2.1,2.1 l -0.7,1.4 h 1.4 l -0.7,-1.4 m 0.0,-1.4 " />
<path class="plot06" d=" M 65.0,260.8 L 69.4,260.4 L 73.7,259.5 L 78.1,257.9 L 82.5,255.7 L 86.8,252.9 L 91.2,249.5 L 95.6,245.5 L 99.9,241.0 L 104.3,236.1 L 108.7,230.7 L 113.0,224.8 L 117.4,218.6 L 121.8,212.1 L 126.2,205.3 L 130.5,198.3 L 134.9,191.1 L 139.3,183.8 L 143.6,176.5 L 148.0,169.2 L 152.4,161.9 L 156.7,154.7 L 161.1,147.7 L 165.5,140.9 L 169.8,134.4 L 174.2,128.2 L 178.6,122.3 L 182.9,116.9 L 187.3,112.0 L 191.7,107.5 L 196.0,103.5 L 200.4,100.1 L 204.8,97.3 L 209.1,95.1 L 213.5,93.5 L 217.9,92.6 L 222.2,92.2 L 226.6,92.6 L 231.0,93.5 L 235.4,95.1 L 239.7,97.3 L 244.1,100.1 L 248.5,103.5 L 252.8,107.5 L 257.2,112.0 L 261.6,116.9 L 265.9,122.3 L 270.3,128.2 L 274.7,134.4 L 279.0,140.9 L 283.4,147.7 L 287.8,154.7 L 292.1,161.9 L 296.5,169.2 L 300.9,176.5 L 305.2,183.8 L 309.6,191.1 L 314.0,198.3 L 318.3,205.3 L 322.7,212.1 L 327.1,218.6 L 331.5,224.8 L 335.8,230.7 L 340.2,236.1 L 344.6,241.0 L 348.9,245.5 L 353.3,249.5 L 357.7,252.9 L 362.0,255.7 L 366.4,257.9 L 370.8,259.5 L 375.1,260.4 L 379.5,260.8 L 383.9,260.4 L 388.2,259.5 L 392.6,257.9 L 397.0,255.7 L 401.3,252.9 L 405.7,249.5 L 410.1,245.5 L 414.4,241.0 L 418.8,236.1 L 423.2,230.7 L 427.5,224.8 L 431.9,218.6 L 436.3,212.1 L 440.7,205.3 L 445.0,198.3 L 449.4,191.1 L 453.8,183.8 L 458.1,176.5 L 462.5,169.2 L 466.9,161.9 L 471.2,154.7 L 475.6,147.7 L 480.0,140.9 L 484.3,134.4 L 488.7,128.2 L 493.1,122.3 L 497.4,116.9 L 501.8,112.0 L 506.2,107.5 L 510.5,103.5 L 514.9,100.1 L 519.3,97.3 L 523.6,95.1 L 528.0,93.5 L 532.4,92.6 L 536.8,92.2 L 541.1,92.6 L 545.5,93.5 L 549.9,95.1 L 554.2,97.3 L 558.6,100.1 L 563.0,103.5 L 567.3,107.5 L 571.7,112.0 L 576.1,116.9 L 580.4,122.3 L 584.8,128.2 L 589.2,134.4 L 593.5,140.9 L 597.9,147.7 L 602.3,154.7 L 606.6,161.9 L 611.0,169.2 L 615.4,176.5 L 619.7,183.8 L 624.1,191.1 L 628.5,198.3 L 632.8,205.3 L 637.2,212.1 L 641.6,218.6 L 646.0,224.8 L 650.3,230.7 L 654.7,236.1 L 659.1,241.0 L 663.4,245.5 L 667.8,249.5 L 672.2,252.9 L 676.5,255.7 L 680.9,257.9 L 685.3,259.5 L 689.6,260.4 L 694.0,260.8 " />
<path class="plot06" d="  " />
<path class="plot07" d=" M 69.4,-300.0 L 73.7,-300.0 L 78.1,-300.0 M 82.5,-300.0 M 86.8,-300.0 M 91.2,-300.0 L 95.6,-273.7 L 99.9,-202.2 L 104.3,-146.0 L 108.7,-100.6 L 113.0,-62.9 L 117.4,-31.1 L 121.8,-3.7 L 126.2,20.1 L 130.5,41.2 L 134.9,59.9 L 139.3,76.9 L 143.6,92.2 L 148.0,106.3 L 152.4,119.4 L 156.7,131.5 L 161.1,142.8 L 165.5,153.4 L 169.8,163.5 L 174.2,173.0 L 178.6,182.2 L 182.9,191.0 L 187.3,199.4 L 191.7,207.6 L 196.0,215.6 L 200.4,223.4 L 204.8,231.0 L 209.1,238.6 L 213.5,246.0 L 217.9,253.4 L 222.2,260.8 L 226.6,268.1 L 231.0,275.5 L 235.4,282.9 L 239.7,290.5 L 244.1,298.1 L 248.5,305.9 L 252.8,313.9 L 257.2,322.1 L 261.6,330.5 L 265.9,339.3 L 270.3,348.5 L 274.7,358.0 L 279.0,368.1 L 283.4,378.7 L 287.8,390.0 L 292.1,402.1 L 296.5,415.2 L 300.9,429.2 L 305.2,444.6 L 309.6,461.6 L 314.0,480.3 L 318.3,501.4 L 322.7,525.2 L 327.1,552.6 L 331.5,584.4 L 335.8,622.1 L 340.2,667.5 L 344.6,723.7 L 348.9,795.2 L 353.3,889.6 L 357.7,900.0 L 362.0,900.0 M 366.4,900.0 M 370.8,900.0 M 375.1,900.0 M 379.5,900.0 M 383.9,-300.0 M 388.2,-300.0 M 392.6,-300.0 M 397.0,-300.0 M 401.3,-300.0 M 405.7,-300.0 L 410.1,-273.7 L 414.4,-202.2 L 418.8,-146.0 L 423.2,-100.6 L 427.5,-62.9 L 431.9,-31.1 L 436.3,-3.7 L 440.7,20.1 L 445.0,41.2 L 449.4,59.9 L 453.8,76.9 L 458.1,92.2 L 462.5,106.3 L 466.9,119.4 L 471.2,131.5 L 475.6,142.8 L 480.0,153.4 L 484.3,163.5 L 488.7,173.0 L 493.1,182.2 L 497.4,191.0 L 501.8,199.4 L 506.2,207.6 L 510.5,215.6 L 514.9,223.4 L 519.3,231.0 L 523.6,238.6 L 528.0,246.0 L 532.4,253.4 L 536.8,260.7 L 541.1,268.1 L 545.5,275.5 L 549.9,282.9 L 554.2,290.5 L 558.6,298.1 L 563.0,305.9 L 567.3,313.9 L 571.7,322.1 L 576.1,330.5 L 580.4,339.3 L 584.8,348.5 L 589.2,358.0 L 593.5,368.1 L 597.9,378.7 L 602.3,390.0 L 606.6,402.1 L 611.0,415.2 L 615.4,429.2 L 619.7,444.6 L 624.1,461.6 L 628.5,480.3 L 632.8,501.4 L 637.2,525.2 L 641.6,552.6 L 646.0,584.4 L 650.3,622.1 L 654.7,667.5 L 659.1,723.7 L 663.4,795.2 L 667.8,889.6 L 672.2,900.0 L 676.5,900.0 M 680.9,900.0 M 685.3,900.0 M 689.6,900.0 M 694.0,900.0 " />
<path class="plot07" d="  " />
<path class="plot08" d=" M 143.6,141.6 M 458.1,379.9 " />
<path class="plot08" d=" M 143.6,141.6 m -1.8,0.0 l -1.8,-3.5 l 3.5,1.8 l 3.5,-1.8 l -1.8,3.5 l 1.8,3.5 l -3.5,-1.8 l -3.5,1.8 l 1.8,-3.5 m 1.8,0.0 m 4.2,0.0  a 4.2,4.2 0,0,0 -7.6,-2.5  a 4.2,4.2 0,0,0 4.6,6.5  a 4.2,4.2 0,0,0 2.9,-4.9 m -4.2,0.0 M 458.1,379.9 m -1.8,0.0 l -1.8,-3.5 l 3.5,1.8 l 3.5,-1.8 l -1.8,3.5 l 1.8,3.5 l -3.5,-1.8 l -3.5,1.8 l 1.8,-3.5 m 1.8,0.0 m 4.2,0.0  a 4.2,4.2 0,0,0 -7.6,-2.5  a 4.2,4.2 0,0,0 4.6,6.5  a 4.2,4.2 0,0,0 2.9,-4.9 m -4.2,0.0 " />
</g>
<text x="379.50" y="541.00" class="xtitle" >Degrees</text>
<text x="23.00" y="260.75" class="ytitle" transform="matrix(0.00,-1.00,1.00,0.00,-237.75,283.75)">Function Value</text>
<text x="714.00" y="63.25" class="legendheadline" >Legends:</text>
<text x="720.50" y="82.75" class="plot02" >π</text>
<text x="720.50" y="102.25" class="plot03" >sin(n)</text>
<text x="720.50" y="121.75" class="plot04" >cos(n)</text>
<path class="plot04" d=" M 720.5,131.5 H 753.0 m 4.2,0.0  a 4.2,4.2 0,0,0 -7.6,-2.5  a 4.2,4.2 0,0,0 4.6,6.5  a 4.2,4.2 0,0,0 2.9,-4.9 m -4.2,0.0 H 785.5 " />
<text x="720.50" y="160.75" class="plot05" >tan(n)</text>
<path class="plot05" d=" M 749.5,170.5 m -2.1,0.0 l -1.4,-0.7 v 1.4 l 1.4,-0.7 m 2.1,-2.1 l -0.7,-1.4 h 1.4 l -0.7,1.4 m 2.1,2.1 l 1.4,-0.7 v 1.4 l -1.4,-0.7 m -2.1,2.1 l -0.7,1.4 h 1.4 l -0.7,-1.4 m 0.0,-1.4 " />
<text x="720.50" y="199.75" class="plot06" >sin²(n)</text>
<text x="720.50" y="219.25" class="plot07" >cot(n)</text>
<text x="720.50" y="238.75" class="plot08" >sin=cos</text>
<path class="legend" d=" M 786.0,34.0 Q 792.0,34.0, 792.0,40.0 L 792.0,252.2 Q 792.0,258.2, 786.0,258.2 L 707.0,258.2 Q 701.0,258.2, 701.0,252.2 L 701.0,40.0 Q 701.0,34.0, 707.0,34.0 Z " />
<text x="379.50" y="592.00" class="subtitle" >Data by numbers®</text>
<text x="379.50" y="573.00" class="title" >Trigonometric Functions</text>

</svg>
