<?xml version="1.0" encoding="UTF-8" standalone="no"?>
<svg id="svg-ex2" width="800" height="600" xmlns="http://www.w3.org/2000/svg">
<defs>
<clipPath id="plotable">
<rect x="57.5" y="0.5" width="650.5" height="521.5" rx="0.0"  />
</clipPath>
</defs>
<style>
svg#svg-ex2 { background-color: #ffedcc }
#svg-ex2 g.plotarea { opacity: 1.0 }
#svg-ex2 g.plotarea path:hover { stroke-width: 5.0 }
#svg-ex2 path { stroke-width: 2.0; fill: none; stroke-linecap: round }
#svg-ex2 path.axes { stroke: black }
#svg-ex2 path.xlabel, #svg-ex2 path.ylabel { stroke: silver; stroke-width: 1 }
#svg-ex2 text { font-family: serif }
#svg-ex2 text.legend { font-size: 13.0px }
#svg-ex2 text.legend.headline { font-size: 16.2px; font-weight: bold }
#svg-ex2 text.subtitle { font-size: 15.0px; text-anchor: middle }
#svg-ex2 text.title { font-size: 25.0px; text-anchor: middle }
#svg-ex2 text.xlabel { font-size: 10.0px; text-anchor: middle }
#svg-ex2 text.xtitle, #svg-ex2 text.ytitle { font-size: 12.0px; text-anchor: middle }
#svg-ex2 text.ylabel { font-size: 10.0px; text-anchor: end; dominant-baseline: middle }
#svg-ex2 path.plot03 { stroke: #ff0000; fill: none; fill-opacity: 0.75 }
#svg-ex2 text.plot03, #svg-ex2 rect.plot03 { fill: #ff0000; stroke: #ff0000 }
#svg-ex2 path.plot04 { stroke: #008000; fill: none; fill-opacity: 0.75 }
#svg-ex2 text.plot04, #svg-ex2 rect.plot04 { fill: #008000; stroke: #008000 }
#svg-ex2 path.plot05 { stroke: #ff00ff; fill: none; fill-opacity: 0.75 }
#svg-ex2 text.plot05, #svg-ex2 rect.plot05 { fill: #ff00ff; stroke: #ff00ff }
#svg-ex2 path.plot06 { stroke: #0000ff; fill: none; fill-opacity: 0.75 }
#svg-ex2 text.plot06, #svg-ex2 rect.plot06 { fill: #0000ff; stroke: #0000ff }
#svg-ex2 path.plot07 { stroke: #dc143c; fill: none; fill-opacity: 0.75 }
#svg-ex2 text.plot07, #svg-ex2 rect.plot07 { fill: #dc143c; stroke: #dc143c }
#svg-ex2 path.plot08 { stroke: #f4a460; fill: none; fill-opacity: 0.75 }
#svg-ex2 text.plot08, #svg-ex2 rect.plot08 { fill: #f4a460; stroke: #f4a460 }
#svg-ex2 rect.legend { fill: silver; stroke: silver; fill-opacity: 0.1; stroke-width: 1.5 }
</style>
<path class="xlabel" d=" M 80.4,515.0 V 7.5 M 128.1,515.0 V 7.5 M 175.9,515.0 V 7.5 M 223.6,515.0 V 7.5 M 271.4,515.0 V 7.5 M 319.1,515.0 V 7.5 M 366.8,515.0 V 7.5 M 414.6,515.0 V 7.5 M 462.3,515.0 V 7.5 M 510.0,515.0 V 7.5 M 557.8,515.0 V 7.5 M 605.5,515.0 V 7.5 M 653.3,515.0 V 7.5 M 701.0,515.0 V 7.5 " />
<text x="80.41" y="527.50" class="xlabel" >81</text>
<text x="128.15" y="527.50" class="xlabel" >84</text>
<text x="175.89" y="527.50" class="xlabel" >87</text>
<text x="223.62" y="527.50" class="xlabel" >90</text>
<text x="271.36" y="527.50" class="xlabel" >93</text>
<text x="319.10" y="527.50" class="xlabel" >96</text>
<text x="366.84" y="527.50" class="xlabel" >99</text>
<text x="414.58" y="527.50" class="xlabel" >102</text>
<text x="462.31" y="527.50" class="xlabel" >105</text>
<text x="510.05" y="527.50" class="xlabel" >108</text>
<text x="557.79" y="527.50" class="xlabel" >111</text>
<text x="605.52" y="527.50" class="xlabel" >114</text>
<text x="653.26" y="527.50" class="xlabel" >117</text>
<text x="701.00" y="527.50" class="xlabel" >120</text>
<path class="ylabel" d=" M 64.5,219.0 H 701.0 M 64.5,303.5 H 701.0 M 64.5,176.7 H 701.0 M 64.5,345.8 H 701.0 M 64.5,134.4 H 701.0 M 64.5,388.1 H 701.0 M 64.5,92.1 H 701.0 M 64.5,430.4 H 701.0 M 64.5,49.8 H 701.0 M 64.5,472.7 H 701.0 M 64.5,7.5 H 701.0 M 64.5,515.0 H 701.0 " />
<text x="62.50" y="218.96" class="ylabel" >0.25</text>
<text x="62.50" y="303.54" class="ylabel" >-0.25</text>
<text x="62.50" y="176.67" class="ylabel" >0.50</text>
<text x="62.50" y="345.83" class="ylabel" >-0.50</text>
<text x="62.50" y="134.38" class="ylabel" >0.75</text>
<text x="62.50" y="388.12" class="ylabel" >-0.75</text>
<text x="62.50" y="92.08" class="ylabel" >1.00</text>
<text x="62.50" y="430.42" class="ylabel" >-1.00</text>
<text x="62.50" y="49.79" class="ylabel" >1.25</text>
<text x="62.50" y="472.71" class="ylabel" >-1.25</text>
<text x="62.50" y="7.50" class="ylabel" >1.50</text>
<text x="62.50" y="515.00" class="ylabel" >-1.50</text>
<path class="axes" d=" M 64.5,261.2 H 701.0 " />
<g clip-path="url(#plotable)" class="plotarea">
<path class="plot03" d=" M -400.0,261.2 L -400.0,253.9 M -400.0,239.2 M -400.0,231.9 M -400.0,224.6 M -400.0,217.5 M -400.0,210.4 M -400.0,203.4 M -400.0,196.5 M -400.0,189.8 M -400.0,183.1 M -400.0,176.7 M -400.0,170.4 M -400.0,164.2 M -400.0,158.3 M -400.0,152.5 M -400.0,147.0 M -400.0,141.6 M -400.0,136.5 M -400.0,131.7 L -373.1,127.0 L -333.3,122.7 L -293.5,118.6 L -253.8,114.7 L -214.0,111.2 L -174.2,107.9 L -134.4,105.0 L -94.6,102.3 L -54.8,99.9 L -15.1,97.8 L 24.7,96.1 L 64.5,94.7 L 104.3,93.5 L 144.1,92.7 L 183.8,92.2 L 223.6,92.1 L 263.4,92.2 L 303.2,92.7 L 343.0,93.5 L 382.8,94.7 L 422.5,96.1 L 462.3,97.8 L 502.1,99.9 L 541.9,102.3 L 581.7,105.0 L 621.4,107.9 L 661.2,111.2 L 701.0,114.7 L 740.8,118.6 L 780.6,122.7 L 820.3,127.0 L 860.1,131.7 L 899.9,136.5 L 939.7,141.6 L 979.5,147.0 L 1019.2,152.5 L 1059.0,158.3 L 1098.8,164.2 L 1138.6,170.4 L 1178.4,176.7 L 1200.0,183.1 M 1200.0,196.5 M 1200.0,203.4 M 1200.0,210.4 M 1200.0,217.5 M 1200.0,224.6 M 1200.0,231.9 M 1200.0,239.2 M 1200.0,246.5 M 1200.0,253.9 M 1200.0,261.2 M 1200.0,268.6 M 1200.0,276.0 M 1200.0,283.3 M 1200.0,290.6 M 1200.0,297.9 M 1200.0,305.0 M 1200.0,312.1 M 1200.0,319.1 M 1200.0,326.0 M 1200.0,332.7 M 1200.0,339.4 M 1200.0,345.8 M 1200.0,352.1 M 1200.0,358.3 M 1200.0,364.2 M 1200.0,370.0 M 1200.0,375.5 M 1200.0,380.9 M 1200.0,386.0 M 1200.0,390.8 M 1200.0,395.5 M 1200.0,399.8 M 1200.0,403.9 M 1200.0,407.8 M 1200.0,411.3 M 1200.0,414.6 M 1200.0,417.5 M 1200.0,420.2 M 1200.0,422.6 M 1200.0,424.7 M 1200.0,426.4 M 1200.0,427.8 M 1200.0,429.0 M 1200.0,429.8 M 1200.0,430.3 M 1200.0,430.4 M 1200.0,430.3 M 1200.0,429.8 M 1200.0,429.0 M 1200.0,427.8 M 1200.0,426.4 M 1200.0,424.7 M 1200.0,422.6 M 1200.0,420.2 M 1200.0,417.5 M 1200.0,414.6 M 1200.0,411.3 M 1200.0,407.8 M 1200.0,403.9 M 1200.0,399.8 M 1200.0,395.5 M 1200.0,390.8 M 1200.0,386.0 M 1200.0,380.9 M 1200.0,375.5 M 1200.0,370.0 M 1200.0,364.2 M 1200.0,358.3 M 1200.0,352.1 M 1200.0,345.8 M 1200.0,339.4 M 1200.0,332.7 M 1200.0,326.0 M 1200.0,319.1 M 1200.0,312.1 M 1200.0,305.0 M 1200.0,297.9 M 1200.0,290.6 M 1200.0,283.3 M 1200.0,276.0 M 1200.0,268.6 M 1200.0,261.3 M -400.0,261.2 " />
<path class="plot04" d=" M -400.0,92.1 L -400.0,92.2 M -400.0,93.5 M -400.0,94.7 M -400.0,96.1 M -400.0,97.8 M -400.0,99.9 M -400.0,102.3 M -400.0,105.0 M -400.0,107.9 M -400.0,111.2 M -400.0,114.7 M -400.0,118.6 M -400.0,122.7 M -400.0,127.0 M -400.0,131.7 M -400.0,136.5 M -400.0,141.6 M -400.0,147.0 M -400.0,152.5 L -373.1,158.3 L -333.3,164.2 L -293.5,170.4 L -253.8,176.7 L -214.0,183.1 L -174.2,189.8 L -134.4,196.5 L -94.6,203.4 L -54.8,210.4 L -15.1,217.5 L 24.7,224.6 L 64.5,231.9 L 104.3,239.2 L 144.1,246.5 L 183.8,253.9 L 223.6,261.2 L 263.4,268.6 L 303.2,276.0 L 343.0,283.3 L 382.8,290.6 L 422.5,297.9 L 462.3,305.0 L 502.1,312.1 L 541.9,319.1 L 581.7,326.0 L 621.4,332.7 L 661.2,339.4 L 701.0,345.8 L 740.8,352.1 L 780.6,358.3 L 820.3,364.2 L 860.1,370.0 L 899.9,375.5 L 939.7,380.9 L 979.5,386.0 L 1019.2,390.8 L 1059.0,395.5 L 1098.8,399.8 L 1138.6,403.9 L 1178.4,407.8 L 1200.0,411.3 M 1200.0,417.5 M 1200.0,420.2 M 1200.0,422.6 M 1200.0,424.7 M 1200.0,426.4 M 1200.0,427.8 M 1200.0,429.0 M 1200.0,429.8 M 1200.0,430.3 M 1200.0,430.4 M 1200.0,430.3 M 1200.0,429.8 M 1200.0,429.0 M 1200.0,427.8 M 1200.0,426.4 M 1200.0,424.7 M 1200.0,422.6 M 1200.0,420.2 M 1200.0,417.5 M 1200.0,414.6 M 1200.0,411.3 M 1200.0,407.8 M 1200.0,403.9 M 1200.0,399.8 M 1200.0,395.5 M 1200.0,390.8 M 1200.0,386.0 M 1200.0,380.9 M 1200.0,375.5 M 1200.0,370.0 M 1200.0,364.2 M 1200.0,358.3 M 1200.0,352.1 M 1200.0,345.8 M 1200.0,339.4 M 1200.0,332.7 M 1200.0,326.0 M 1200.0,319.1 M 1200.0,312.1 M 1200.0,305.0 M 1200.0,297.9 M 1200.0,290.6 M 1200.0,283.3 M 1200.0,276.0 M 1200.0,268.6 M 1200.0,261.3 M 1200.0,253.9 M 1200.0,246.5 M 1200.0,239.2 M 1200.0,231.9 M 1200.0,224.6 M 1200.0,217.5 M 1200.0,210.4 M 1200.0,203.4 M 1200.0,196.5 M 1200.0,189.8 M 1200.0,183.1 M 1200.0,176.7 M 1200.0,170.4 M 1200.0,164.2 M 1200.0,158.3 M 1200.0,152.5 M 1200.0,147.0 M 1200.0,141.6 M 1200.0,136.5 M 1200.0,131.7 M 1200.0,127.0 M 1200.0,122.7 M 1200.0,118.6 M 1200.0,114.7 M 1200.0,111.2 M 1200.0,107.9 M 1200.0,105.0 M 1200.0,102.3 M 1200.0,99.9 M 1200.0,97.8 M 1200.0,96.1 M 1200.0,94.7 M 1200.0,93.5 M 1200.0,92.7 M 1200.0,92.2 M 1200.0,92.1 M -400.0,92.1 " />
<path class="plot05" d=" M -400.0,261.2 L -400.0,253.9 M -400.0,239.0 M -400.0,231.4 M -400.0,223.7 M -400.0,215.9 M -400.0,207.9 M -400.0,199.7 M -400.0,191.2 M -400.0,182.4 M -400.0,173.2 M -400.0,163.6 M -400.0,153.5 M -400.0,142.8 M -400.0,131.4 M -400.0,119.3 M -400.0,106.2 M -400.0,92.1 M -400.0,76.6 M -400.0,59.6 L -373.1,40.8 L -333.3,19.7 L -293.5,-4.3 L -253.8,-31.8 L -214.0,-63.7 L -174.2,-101.5 L -134.4,-147.2 L -94.6,-203.5 L -54.8,-275.3 L -15.1,-300.0 M 64.5,-300.0 M 104.3,-300.0 M 144.1,-300.0 M 183.8,-300.0 M 223.6,-300.0 M 263.4,900.0 M 303.2,900.0 M 343.0,900.0 M 382.8,900.0 M 422.5,900.0 L 462.3,892.6 L 502.1,797.8 L 541.9,726.0 L 581.7,669.7 L 621.4,624.0 L 661.2,586.2 L 701.0,554.3 L 740.8,526.8 L 780.6,502.8 L 820.3,481.7 L 860.1,462.9 L 899.9,445.9 L 939.7,430.4 L 979.5,416.3 L 1019.2,403.2 L 1059.0,391.1 L 1098.8,379.7 L 1138.6,369.0 L 1178.4,358.9 L 1200.0,349.3 M 1200.0,331.3 M 1200.0,322.8 M 1200.0,314.6 M 1200.0,306.6 M 1200.0,298.8 M 1200.0,291.1 M 1200.0,283.5 M 1200.0,276.1 M 1200.0,268.6 M 1200.0,261.2 M 1200.0,253.9 M 1200.0,246.4 M 1200.0,239.0 M 1200.0,231.4 M 1200.0,223.7 M 1200.0,215.9 M 1200.0,207.9 M 1200.0,199.7 M 1200.0,191.2 M 1200.0,182.4 M 1200.0,173.2 M 1200.0,163.6 M 1200.0,153.5 M 1200.0,142.8 M 1200.0,131.4 M 1200.0,119.3 M 1200.0,106.2 M 1200.0,92.1 M 1200.0,76.6 M 1200.0,59.6 M 1200.0,40.8 M 1200.0,19.7 M 1200.0,-4.3 M 1200.0,-31.8 M 1200.0,-63.7 M 1200.0,-101.5 M 1200.0,-147.2 M 1200.0,-203.5 M 1200.0,-275.3 M 1200.0,-300.0 M 1200.0,-300.0 M 1200.0,-300.0 M 1200.0,-300.0 M 1200.0,-300.0 M 1200.0,-300.0 M 1200.0,-300.0 M 1200.0,900.0 M 1200.0,900.0 M 1200.0,900.0 M 1200.0,900.0 M 1200.0,900.0 M 1200.0,892.6 M 1200.0,797.8 M 1200.0,726.0 M 1200.0,669.7 M 1200.0,624.0 M 1200.0,586.2 M 1200.0,554.3 M 1200.0,526.8 M 1200.0,502.8 M 1200.0,481.7 M 1200.0,462.9 M 1200.0,445.9 M 1200.0,430.4 M 1200.0,416.3 M 1200.0,403.2 M 1200.0,391.1 M 1200.0,379.7 M 1200.0,369.0 M 1200.0,358.9 M 1200.0,349.3 M 1200.0,340.1 M 1200.0,331.3 M 1200.0,322.8 M 1200.0,314.6 M 1200.0,306.6 M 1200.0,298.8 M 1200.0,291.1 M 1200.0,283.5 M 1200.0,276.1 M 1200.0,268.6 M 1200.0,261.3 M -400.0,261.2 " />
<path class="plot06" d=" M -400.0,261.2 L -400.0,260.9 M -400.0,258.4 M -400.0,256.1 M -400.0,253.3 M -400.0,249.9 M -400.0,246.0 M -400.0,241.5 M -400.0,236.5 M -400.0,231.0 M -400.0,225.2 M -400.0,219.0 M -400.0,212.4 M -400.0,205.6 M -400.0,198.6 M -400.0,191.4 M -400.0,184.0 M -400.0,176.7 M -400.0,169.3 M -400.0,162.0 L -373.1,154.8 L -333.3,147.7 L -293.5,140.9 L -253.8,134.4 L -214.0,128.2 L -174.2,122.3 L -134.4,116.9 L -94.6,111.9 L -54.8,107.4 L -15.1,103.4 L 24.7,100.0 L 64.5,97.2 L 104.3,95.0 L 144.1,93.4 L 183.8,92.4 L 223.6,92.1 L 263.4,92.4 L 303.2,93.4 L 343.0,95.0 L 382.8,97.2 L 422.5,100.0 L 462.3,103.4 L 502.1,107.4 L 541.9,111.9 L 581.7,116.9 L 621.4,122.3 L 661.2,128.2 L 701.0,134.4 L 740.8,140.9 L 780.6,147.7 L 820.3,154.8 L 860.1,162.0 L 899.9,169.3 L 939.7,176.7 L 979.5,184.0 L 1019.2,191.4 L 1059.0,198.6 L 1098.8,205.6 L 1138.6,212.4 L 1178.4,219.0 L 1200.0,225.2 M 1200.0,236.5 M 1200.0,241.5 M 1200.0,246.0 M 1200.0,249.9 M 1200.0,253.3 M 1200.0,256.1 M 1200.0,258.4 M 1200.0,260.0 M 1200.0,260.9 M 1200.0,261.2 M 1200.0,260.9 M 1200.0,260.0 M 1200.0,258.4 M 1200.0,256.1 M 1200.0,253.3 M 1200.0,249.9 M 1200.0,246.0 M 1200.0,241.5 M 1200.0,236.5 M 1200.0,231.0 M 1200.0,225.2 M 1200.0,219.0 M 1200.0,212.4 M 1200.0,205.6 M 1200.0,198.6 M 1200.0,191.4 M 1200.0,184.0 M 1200.0,176.7 M 1200.0,169.3 M 1200.0,162.0 M 1200.0,154.8 M 1200.0,147.7 M 1200.0,140.9 M 1200.0,134.4 M 1200.0,128.2 M 1200.0,122.3 M 1200.0,116.9 M 1200.0,111.9 M 1200.0,107.4 M 1200.0,103.4 M 1200.0,100.0 M 1200.0,97.2 M 1200.0,95.0 M 1200.0,93.4 M 1200.0,92.4 M 1200.0,92.1 M 1200.0,92.4 M 1200.0,93.4 M 1200.0,95.0 M 1200.0,97.2 M 1200.0,100.0 M 1200.0,103.4 M 1200.0,107.4 M 1200.0,111.9 M 1200.0,116.9 M 1200.0,122.3 M 1200.0,128.2 M 1200.0,134.4 M 1200.0,140.9 M 1200.0,147.7 M 1200.0,154.8 M 1200.0,162.0 M 1200.0,169.3 M 1200.0,176.7 M 1200.0,184.0 M 1200.0,191.4 M 1200.0,198.6 M 1200.0,205.6 M 1200.0,212.4 M 1200.0,219.0 M 1200.0,225.2 M 1200.0,231.0 M 1200.0,236.5 M 1200.0,241.5 M 1200.0,246.0 M 1200.0,249.9 M 1200.0,253.3 M 1200.0,256.1 M 1200.0,258.4 M 1200.0,260.0 M 1200.0,260.9 M 1200.0,261.2 M -400.0,261.2 " />
<path class="plot07" d=" M -400.0,-300.0 L -400.0,-300.0 M -400.0,-300.0 M -400.0,-300.0 M -400.0,-300.0 M -400.0,-275.3 M -400.0,-203.5 M -400.0,-147.2 M -400.0,-101.5 M -400.0,-63.7 M -400.0,-31.8 M -400.0,-4.3 M -400.0,19.7 M -400.0,40.8 M -400.0,59.6 M -400.0,76.6 M -400.0,92.1 M -400.0,106.2 M -400.0,119.3 L -373.1,131.4 L -333.3,142.8 L -293.5,153.5 L -253.8,163.6 L -214.0,173.2 L -174.2,182.4 L -134.4,191.2 L -94.6,199.7 L -54.8,207.9 L -15.1,215.9 L 24.7,223.7 L 64.5,231.4 L 104.3,239.0 L 144.1,246.4 L 183.8,253.9 L 223.6,261.2 L 263.4,268.6 L 303.2,276.1 L 343.0,283.5 L 382.8,291.1 L 422.5,298.8 L 462.3,306.6 L 502.1,314.6 L 541.9,322.8 L 581.7,331.3 L 621.4,340.1 L 661.2,349.3 L 701.0,358.9 L 740.8,369.0 L 780.6,379.7 L 820.3,391.1 L 860.1,403.2 L 899.9,416.3 L 939.7,430.4 L 979.5,445.9 L 1019.2,462.9 L 1059.0,481.7 L 1098.8,502.8 L 1138.6,526.8 L 1178.4,554.3 L 1200.0,586.2 M 1200.0,669.7 M 1200.0,726.0 M 1200.0,797.8 M 1200.0,892.6 M 1200.0,900.0 M 1200.0,900.0 M 1200.0,900.0 M 1200.0,900.0 M 1200.0,900.0 M 1200.0,900.0 M 1200.0,-300.0 M 1200.0,-300.0 M 1200.0,-300.0 M 1200.0,-300.0 M 1200.0,-300.0 M 1200.0,-300.0 M 1200.0,-275.3 M 1200.0,-203.5 M 1200.0,-147.2 M 1200.0,-101.5 M 1200.0,-63.7 M 1200.0,-31.8 M 1200.0,-4.3 M 1200.0,19.7 M 1200.0,40.8 M 1200.0,59.6 M 1200.0,76.6 M 1200.0,92.1 M 1200.0,106.2 M 1200.0,119.3 M 1200.0,131.4 M 1200.0,142.8 M 1200.0,153.5 M 1200.0,163.6 M 1200.0,173.2 M 1200.0,182.4 M 1200.0,191.2 M 1200.0,199.7 M 1200.0,207.9 M 1200.0,215.9 M 1200.0,223.7 M 1200.0,231.4 M 1200.0,239.0 M 1200.0,246.4 M 1200.0,253.9 M 1200.0,261.2 M 1200.0,268.6 M 1200.0,276.1 M 1200.0,283.5 M 1200.0,291.1 M 1200.0,298.8 M 1200.0,306.6 M 1200.0,314.6 M 1200.0,322.8 M 1200.0,331.3 M 1200.0,340.1 M 1200.0,349.3 M 1200.0,358.9 M 1200.0,369.0 M 1200.0,379.7 M 1200.0,391.1 M 1200.0,403.2 M 1200.0,416.3 M 1200.0,430.4 M 1200.0,445.9 M 1200.0,462.9 M 1200.0,481.7 M 1200.0,502.8 M 1200.0,526.8 M 1200.0,554.3 M 1200.0,586.2 M 1200.0,624.0 M 1200.0,669.7 M 1200.0,726.0 M 1200.0,797.8 M 1200.0,892.6 M 1200.0,900.0 M 1200.0,900.0 M 1200.0,900.0 M 1200.0,900.0 M 1200.0,900.0 M 1200.0,900.0 M -400.0,-300.0 " />
<path class="plot08" d=" M -400.0,141.6 M 1200.0,380.9 M -400.0,141.6 m -1.8,0.0 l -1.8,-3.5 l 3.5,1.8 l 3.5,-1.8 l -1.8,3.5 l 1.8,3.5 l -3.5,-1.8 l -3.5,1.8 l 1.8,-3.5 m 1.8,0.0m 0.0,-3.5 a 3.5,3.5,0.0,1,1,0.0,7.0 a 3.5,3.5,0.0,1,1,0.0,-7.0 m 0.0,3.5 M 1200.0,380.9 m -1.8,0.0 l -1.8,-3.5 l 3.5,1.8 l 3.5,-1.8 l -1.8,3.5 l 1.8,3.5 l -3.5,-1.8 l -3.5,1.8 l 1.8,-3.5 m 1.8,0.0m 0.0,-3.5 a 3.5,3.5,0.0,1,1,0.0,7.0 a 3.5,3.5,0.0,1,1,0.0,-7.0 m 0.0,3.5 " />
</g>
<text x="382.75" y="542.50" class="xtitle" >Degrees</text>
<text x="22.50" y="261.25" class="ytitle" transform="matrix(0.00,-1.00,1.00,0.00,-238.75,283.75)">Function Value</text>
<rect x="708.0" y="33.5" width="84.5" height="165.8" rx="6.0" class="legend" />
<text x="721.00" y="53.00" class="legend headline" >Legends:</text>
<text x="727.50" y="82.25" class="plot03 legend" >sin(n)</text>
<text x="727.50" y="101.75" class="plot04 legend" >cos(n)</text>
<text x="727.50" y="121.25" class="plot05 legend" >tan(n)</text>
<text x="727.50" y="140.75" class="plot06 legend" >sin²(n)</text>
<text x="727.50" y="160.25" class="plot07 legend" >cot(n)</text>
<text x="727.50" y="179.75" class="plot08 legend" >sin=cos</text>
<text x="400.00" y="592.50" class="subtitle" >Data by numbers®</text>
<text x="400.00" y="573.75" class="title" >Trigonometric Functions</text>
</svg>
