<?xml version="1.0" encoding="UTF-8" standalone="no"?>
<svg id="svg-ex2" width="800" height="600" xmlns="http://www.w3.org/2000/svg">
<defs>
<clipPath id="plotable">
<rect x="58.0" y="1.0" width="643.0" height="519.5" rx="0.0"  />
</clipPath>
</defs>
<style>
svg#svg-ex2 { background-color: rgba(255,237,204,1.000) }
#svg-ex2 path.lightBG { fill: rgba(220,220,220,0.667) }
#svg-ex2 path.midBG { fill: rgba(120,120,120,0.667) }
#svg-ex2 path.darkBG { fill: rgba(35,35,35,0.667) }
#svg-ex2 g.plotarea { opacity: 1.0 }
#svg-ex2 g.plotarea path:hover { stroke-width: 5.0 }
#svg-ex2 path { stroke-width: 2.0; fill: none; stroke-linecap: round }
#svg-ex2 path.black { stroke: black }
#svg-ex2 path.black.fill { fill: black; stroke: black }
#svg-ex2 path.axes { stroke: rgba(0,0,0,1.000) }
#svg-ex2 path.xlabel, #svg-ex2 path.ylabel { stroke: rgba(0,0,0,0.400); stroke-width: 1 }
#svg-ex2 path.ylabel { stroke: rgba(0,0,0,0.400); stroke-width: 1 }
#svg-ex2 text { font-family: serif }
#svg-ex2 text.draft { fill: none; stroke: rgba(0,0,0,1.000); font-family: sans-serif; font-size: 200.0px; text-anchor: middle; dominant-baseline: middle }
#svg-ex2 text.legend { fill: rgba(0,0,0,1.000); stroke: rgba(0,0,0,1.000);  font-size: 13.0px; text-anchor: start;  }
#svg-ex2 text.legendheadline { fill: rgba(0,0,0,1.000); stroke: rgba(0,0,0,1.000);  font-size: 16.2px; text-anchor: start;  }
#svg-ex2 text.pielabel { fill: rgba(0,0,0,0.753); stroke: rgba(0,0,0,0.753);  font-size: 10.0px; text-anchor: ;  }
#svg-ex2 text.pielabel.start { fill: rgba(0,0,0,0.753); stroke: rgba(0,0,0,0.753);  font-size: 10.0px; text-anchor: start;  }
#svg-ex2 text.pielabel.middle { fill: rgba(0,0,0,0.753); stroke: rgba(0,0,0,0.753);  font-size: 10.0px; text-anchor: middle;  }
#svg-ex2 text.pielabel.end { fill: rgba(0,0,0,0.753); stroke: rgba(0,0,0,0.753);  font-size: 10.0px; text-anchor: end;  }
#svg-ex2 text.pielegend { fill: rgba(0,0,0,1.000); stroke: rgba(0,0,0,1.000);  font-size: 20.0px; text-anchor: middle;  }
#svg-ex2 text.piesublegend { fill: rgba(0,0,0,1.000); stroke: rgba(0,0,0,1.000);  font-size: 12.5px; text-anchor: middle;  }
#svg-ex2 text.subtitle { fill: rgba(0,0,0,1.000); stroke: rgba(0,0,0,1.000);  font-size: 15.0px; text-anchor: middle;  }
#svg-ex2 text.title { fill: rgba(0,0,0,1.000); stroke: rgba(0,0,0,1.000);  font-size: 25.0px; text-anchor: middle;  }
#svg-ex2 text.xlabel { fill: rgba(0,0,0,1.000); stroke: rgba(0,0,0,1.000);  font-size: 10.0px; text-anchor: middle;  }
#svg-ex2 text.xtags { fill: rgba(0,0,0,1.000); stroke: rgba(0,0,0,1.000);  font-size: 12.0px; text-anchor: middle;  }
#svg-ex2 text.xtitle { fill: rgba(0,0,0,1.000); stroke: rgba(0,0,0,1.000);  font-size: 12.0px; text-anchor: middle;  }
#svg-ex2 text.ylabel { fill: rgba(0,0,0,1.000); stroke: rgba(0,0,0,1.000);  font-size: 10.0px; text-anchor: end; dominant-baseline: middle }
#svg-ex2 text.ytitle { fill: rgba(0,0,0,1.000); stroke: rgba(0,0,0,1.000);  font-size: 12.0px; text-anchor: start;  }
#svg-ex2 path.plot03 { stroke: rgba(255,0,0,1.000) }
#svg-ex2 text.plot03, #svg-ex2 rect.plot03 { font-size: 13.0px; fill: rgba(255,0,0,1.000); stroke: rgba(255,0,0,1.000) }
#svg-ex2 path.plot03.fill { stroke: none; fill: rgba(255,0,0,1.000); fill-opacity: 0.75 }
#svg-ex2 path.plot04 { stroke: rgba(0,128,0,1.000) }
#svg-ex2 text.plot04, #svg-ex2 rect.plot04 { font-size: 13.0px; fill: rgba(0,128,0,1.000); stroke: rgba(0,128,0,1.000) }
#svg-ex2 path.plot04.fill { stroke: none; fill: rgba(0,128,0,1.000); fill-opacity: 0.75 }
#svg-ex2 path.plot05 { stroke: rgba(255,0,255,1.000) }
#svg-ex2 text.plot05, #svg-ex2 rect.plot05 { font-size: 13.0px; fill: rgba(255,0,255,1.000); stroke: rgba(255,0,255,1.000) }
#svg-ex2 path.plot05.fill { stroke: none; fill: rgba(255,0,255,1.000); fill-opacity: 0.75 }
#svg-ex2 path.plot06 { stroke: rgba(0,0,255,1.000) }
#svg-ex2 text.plot06, #svg-ex2 rect.plot06 { font-size: 13.0px; fill: rgba(0,0,255,1.000); stroke: rgba(0,0,255,1.000) }
#svg-ex2 path.plot06.fill { stroke: none; fill: rgba(0,0,255,1.000); fill-opacity: 0.75 }
#svg-ex2 path.plot07 { stroke: rgba(220,20,60,1.000) }
#svg-ex2 text.plot07, #svg-ex2 rect.plot07 { font-size: 13.0px; fill: rgba(220,20,60,1.000); stroke: rgba(220,20,60,1.000) }
#svg-ex2 path.plot07.fill { stroke: none; fill: rgba(220,20,60,1.000); fill-opacity: 0.75 }
#svg-ex2 path.plot08 { stroke: rgba(244,164,96,1.000) }
#svg-ex2 text.plot08, #svg-ex2 rect.plot08 { font-size: 13.0px; fill: rgba(244,164,96,1.000); stroke: rgba(244,164,96,1.000) }
#svg-ex2 path.plot08.fill { stroke: none; fill: rgba(244,164,96,1.000); fill-opacity: 0.75 }
#svg-ex2 path.legend { stroke: rgba(0,0,0,0.400); stroke-width: 1.5 }
</style>
<text x="80.72" y="526.00" class="xlabel" >81</text>
<text x="127.90" y="526.00" class="xlabel" >84</text>
<text x="175.08" y="526.00" class="xlabel" >87</text>
<text x="222.25" y="526.00" class="xlabel" >90</text>
<text x="269.42" y="526.00" class="xlabel" >93</text>
<text x="316.60" y="526.00" class="xlabel" >96</text>
<text x="363.77" y="526.00" class="xlabel" >99</text>
<text x="410.95" y="526.00" class="xlabel" >102</text>
<text x="458.12" y="526.00" class="xlabel" >105</text>
<text x="505.30" y="526.00" class="xlabel" >108</text>
<text x="552.47" y="526.00" class="xlabel" >111</text>
<text x="599.65" y="526.00" class="xlabel" >114</text>
<text x="646.83" y="526.00" class="xlabel" >117</text>
<text x="694.00" y="526.00" class="xlabel" >120</text>
<path class="xlabel" d=" M 80.7,513.5 V 8.0 M 127.9,513.5 V 8.0 M 175.1,513.5 V 8.0 M 222.2,513.5 V 8.0 M 269.4,513.5 V 8.0 M 316.6,513.5 V 8.0 M 363.8,513.5 V 8.0 M 411.0,513.5 V 8.0 M 458.1,513.5 V 8.0 M 505.3,513.5 V 8.0 M 552.5,513.5 V 8.0 M 599.6,513.5 V 8.0 M 646.8,513.5 V 8.0 M 694.0,513.5 V 8.0 " />
<text x="63.00" y="218.62" class="ylabel" >0.25</text>
<text x="63.00" y="302.88" class="ylabel" >-0.25</text>
<text x="63.00" y="176.50" class="ylabel" >0.50</text>
<text x="63.00" y="345.00" class="ylabel" >-0.50</text>
<text x="63.00" y="134.38" class="ylabel" >0.75</text>
<text x="63.00" y="387.12" class="ylabel" >-0.75</text>
<text x="63.00" y="92.25" class="ylabel" >1.00</text>
<text x="63.00" y="429.25" class="ylabel" >-1.00</text>
<text x="63.00" y="50.12" class="ylabel" >1.25</text>
<text x="63.00" y="471.38" class="ylabel" >-1.25</text>
<text x="63.00" y="8.00" class="ylabel" >1.50</text>
<text x="63.00" y="513.50" class="ylabel" >-1.50</text>
<path class="ylabel" d=" M 65.0,218.6 H 694.0 M 65.0,302.9 H 694.0 M 65.0,176.5 H 694.0 M 65.0,345.0 H 694.0 M 65.0,134.4 H 694.0 M 65.0,387.1 H 694.0 M 65.0,92.2 H 694.0 M 65.0,429.2 H 694.0 M 65.0,50.1 H 694.0 M 65.0,471.4 H 694.0 M 65.0,8.0 H 694.0 M 65.0,513.5 H 694.0 " />
<path class="axes" d=" M 65.0,260.8 H 694.0 " />
<g clip-path="url(#plotable)" class="plotarea">
<path class="plot03" d=" M -400.0,260.8 L -400.0,253.4 L -400.0,246.1 M -400.0,238.8 M -400.0,231.5 M -400.0,224.3 M -400.0,217.1 M -400.0,210.1 M -400.0,203.1 M -400.0,196.3 M -400.0,189.5 M -400.0,182.9 M -400.0,176.5 M -400.0,170.2 M -400.0,164.1 M -400.0,158.2 M -400.0,152.4 M -400.0,146.9 M -400.0,141.6 M -400.0,136.5 M -400.0,131.7 L -367.4,127.1 L -328.1,122.7 L -288.8,118.6 L -249.5,114.8 L -210.2,111.3 L -170.9,108.0 L -131.6,105.1 L -92.2,102.4 L -52.9,100.0 L -13.6,98.0 L 25.7,96.2 L 65.0,94.8 L 104.3,93.7 L 143.6,92.9 L 182.9,92.4 L 222.2,92.2 L 261.6,92.4 L 300.9,92.9 L 340.2,93.7 L 379.5,94.8 L 418.8,96.2 L 458.1,98.0 L 497.4,100.0 L 536.8,102.4 L 576.1,105.1 L 615.4,108.0 L 654.7,111.3 L 694.0,114.8 L 733.3,118.6 L 772.6,122.7 L 811.9,127.1 L 851.2,131.7 L 890.6,136.5 L 929.9,141.6 L 969.2,146.9 L 1008.5,152.4 L 1047.8,158.2 L 1087.1,164.1 L 1126.4,170.2 L 1165.8,176.5 L 1200.0,182.9 L 1200.0,189.5 M 1200.0,196.3 M 1200.0,203.1 M 1200.0,210.1 M 1200.0,217.1 M 1200.0,224.3 M 1200.0,231.5 M 1200.0,238.8 M 1200.0,246.1 M 1200.0,253.4 M 1200.0,260.8 M 1200.0,268.1 M 1200.0,275.4 M 1200.0,282.7 M 1200.0,290.0 M 1200.0,297.2 M 1200.0,304.4 M 1200.0,311.4 M 1200.0,318.4 M 1200.0,325.2 M 1200.0,332.0 M 1200.0,338.6 M 1200.0,345.0 M 1200.0,351.3 M 1200.0,357.4 M 1200.0,363.3 M 1200.0,369.1 M 1200.0,374.6 M 1200.0,379.9 M 1200.0,385.0 M 1200.0,389.8 M 1200.0,394.4 M 1200.0,398.8 M 1200.0,402.9 M 1200.0,406.7 M 1200.0,410.2 M 1200.0,413.5 M 1200.0,416.4 M 1200.0,419.1 M 1200.0,421.5 M 1200.0,423.5 M 1200.0,425.3 M 1200.0,426.7 M 1200.0,427.8 M 1200.0,428.6 M 1200.0,429.1 M 1200.0,429.2 M 1200.0,429.1 M 1200.0,428.6 M 1200.0,427.8 M 1200.0,426.7 M 1200.0,425.3 M 1200.0,423.5 M 1200.0,421.5 M 1200.0,419.1 M 1200.0,416.4 M 1200.0,413.5 M 1200.0,410.2 M 1200.0,406.7 M 1200.0,402.9 M 1200.0,398.8 M 1200.0,394.4 M 1200.0,389.8 M 1200.0,385.0 M 1200.0,379.9 M 1200.0,374.6 M 1200.0,369.1 M 1200.0,363.3 M 1200.0,357.4 M 1200.0,351.3 M 1200.0,345.0 M 1200.0,338.6 M 1200.0,332.0 M 1200.0,325.2 M 1200.0,318.4 M 1200.0,311.4 M 1200.0,304.4 M 1200.0,297.2 M 1200.0,290.0 M 1200.0,282.7 M 1200.0,275.4 M 1200.0,268.1 M 1200.0,260.8 " />
<path class="plot03" d="  " />
<path class="plot04" d=" M -400.0,92.2 L -400.0,92.4 L -400.0,92.9 M -400.0,93.7 M -400.0,94.8 M -400.0,96.2 M -400.0,98.0 M -400.0,100.0 M -400.0,102.4 M -400.0,105.1 M -400.0,108.0 M -400.0,111.3 M -400.0,114.8 M -400.0,118.6 M -400.0,122.7 M -400.0,127.1 M -400.0,131.7 M -400.0,136.5 M -400.0,141.6 M -400.0,146.9 M -400.0,152.4 L -367.4,158.2 L -328.1,164.1 L -288.8,170.2 L -249.5,176.5 L -210.2,182.9 L -170.9,189.5 L -131.6,196.3 L -92.2,203.1 L -52.9,210.1 L -13.6,217.1 L 25.7,224.3 L 65.0,231.5 L 104.3,238.8 L 143.6,246.1 L 182.9,253.4 L 222.2,260.8 L 261.6,268.1 L 300.9,275.4 L 340.2,282.7 L 379.5,290.0 L 418.8,297.2 L 458.1,304.4 L 497.4,311.4 L 536.8,318.4 L 576.1,325.2 L 615.4,332.0 L 654.7,338.6 L 694.0,345.0 L 733.3,351.3 L 772.6,357.4 L 811.9,363.3 L 851.2,369.1 L 890.6,374.6 L 929.9,379.9 L 969.2,385.0 L 1008.5,389.8 L 1047.8,394.4 L 1087.1,398.8 L 1126.4,402.9 L 1165.8,406.7 L 1200.0,410.2 L 1200.0,413.5 M 1200.0,416.4 M 1200.0,419.1 M 1200.0,421.5 M 1200.0,423.5 M 1200.0,425.3 M 1200.0,426.7 M 1200.0,427.8 M 1200.0,428.6 M 1200.0,429.1 M 1200.0,429.2 M 1200.0,429.1 M 1200.0,428.6 M 1200.0,427.8 M 1200.0,426.7 M 1200.0,425.3 M 1200.0,423.5 M 1200.0,421.5 M 1200.0,419.1 M 1200.0,416.4 M 1200.0,413.5 M 1200.0,410.2 M 1200.0,406.7 M 1200.0,402.9 M 1200.0,398.8 M 1200.0,394.4 M 1200.0,389.8 M 1200.0,385.0 M 1200.0,379.9 M 1200.0,374.6 M 1200.0,369.1 M 1200.0,363.3 M 1200.0,357.4 M 1200.0,351.3 M 1200.0,345.0 M 1200.0,338.6 M 1200.0,332.0 M 1200.0,325.2 M 1200.0,318.4 M 1200.0,311.4 M 1200.0,304.4 M 1200.0,297.2 M 1200.0,290.0 M 1200.0,282.7 M 1200.0,275.4 M 1200.0,268.1 M 1200.0,260.8 M 1200.0,253.4 M 1200.0,246.1 M 1200.0,238.8 M 1200.0,231.5 M 1200.0,224.3 M 1200.0,217.1 M 1200.0,210.1 M 1200.0,203.1 M 1200.0,196.3 M 1200.0,189.5 M 1200.0,182.9 M 1200.0,176.5 M 1200.0,170.2 M 1200.0,164.1 M 1200.0,158.2 M 1200.0,152.4 M 1200.0,146.9 M 1200.0,141.6 M 1200.0,136.5 M 1200.0,131.7 M 1200.0,127.1 M 1200.0,122.7 M 1200.0,118.6 M 1200.0,114.8 M 1200.0,111.3 M 1200.0,108.0 M 1200.0,105.1 M 1200.0,102.4 M 1200.0,100.0 M 1200.0,98.0 M 1200.0,96.2 M 1200.0,94.8 M 1200.0,93.7 M 1200.0,92.9 M 1200.0,92.4 M 1200.0,92.2 " />
<path class="plot04" d="  " />
<path class="plot05" d=" M -400.0,260.8 L -400.0,253.4 L -400.0,246.0 M -400.0,238.6 M -400.0,231.0 M -400.0,223.4 M -400.0,215.6 M -400.0,207.6 M -400.0,199.4 M -400.0,191.0 M -400.0,182.2 M -400.0,173.0 M -400.0,163.5 M -400.0,153.4 M -400.0,142.8 M -400.0,131.5 M -400.0,119.4 M -400.0,106.3 M -400.0,92.2 M -400.0,76.9 M -400.0,59.9 L -367.4,41.2 L -328.1,20.1 L -288.8,-3.7 L -249.5,-31.1 L -210.2,-62.9 L -170.9,-100.6 L -131.6,-146.0 L -92.2,-202.2 L -52.9,-273.7 L -13.6,-300.0 L 25.7,-300.0 M 65.0,-300.0 M 104.3,-300.0 M 143.6,-300.0 M 182.9,-300.0 M 222.2,-300.0 M 261.6,900.0 M 300.9,900.0 M 340.2,900.0 M 379.5,900.0 M 418.8,900.0 L 458.1,889.6 L 497.4,795.2 L 536.8,723.7 L 576.1,667.5 L 615.4,622.1 L 654.7,584.4 L 694.0,552.6 L 733.3,525.2 L 772.6,501.4 L 811.9,480.3 L 851.2,461.6 L 890.6,444.6 L 929.9,429.2 L 969.2,415.2 L 1008.5,402.1 L 1047.8,390.0 L 1087.1,378.7 L 1126.4,368.1 L 1165.8,358.0 L 1200.0,348.5 L 1200.0,339.3 M 1200.0,330.5 M 1200.0,322.1 M 1200.0,313.9 M 1200.0,305.9 M 1200.0,298.1 M 1200.0,290.5 M 1200.0,282.9 M 1200.0,275.5 M 1200.0,268.1 M 1200.0,260.8 M 1200.0,253.4 M 1200.0,246.0 M 1200.0,238.6 M 1200.0,231.0 M 1200.0,223.4 M 1200.0,215.6 M 1200.0,207.6 M 1200.0,199.4 M 1200.0,191.0 M 1200.0,182.2 M 1200.0,173.0 M 1200.0,163.5 M 1200.0,153.4 M 1200.0,142.8 M 1200.0,131.5 M 1200.0,119.4 M 1200.0,106.3 M 1200.0,92.2 M 1200.0,76.9 M 1200.0,59.9 M 1200.0,41.2 M 1200.0,20.1 M 1200.0,-3.7 M 1200.0,-31.1 M 1200.0,-62.9 M 1200.0,-100.6 M 1200.0,-146.0 M 1200.0,-202.2 M 1200.0,-273.7 M 1200.0,-300.0 M 1200.0,-300.0 M 1200.0,-300.0 M 1200.0,-300.0 M 1200.0,-300.0 M 1200.0,-300.0 M 1200.0,-300.0 M 1200.0,900.0 M 1200.0,900.0 M 1200.0,900.0 M 1200.0,900.0 M 1200.0,900.0 M 1200.0,889.6 M 1200.0,795.2 M 1200.0,723.7 M 1200.0,667.5 M 1200.0,622.1 M 1200.0,584.4 M 1200.0,552.6 M 1200.0,525.2 M 1200.0,501.4 M 1200.0,480.3 M 1200.0,461.6 M 1200.0,444.6 M 1200.0,429.2 M 1200.0,415.2 M 1200.0,402.1 M 1200.0,390.0 M 1200.0,378.7 M 1200.0,368.1 M 1200.0,358.0 M 1200.0,348.5 M 1200.0,339.3 M 1200.0,330.5 M 1200.0,322.1 M 1200.0,313.9 M 1200.0,305.9 M 1200.0,298.1 M 1200.0,290.5 M 1200.0,282.9 M 1200.0,275.5 M 1200.0,268.1 M 1200.0,260.8 " />
<path class="plot05" d="  " />
<path class="plot06" d=" M -400.0,260.8 L -400.0,260.4 L -400.0,259.5 M -400.0,257.9 M -400.0,255.7 M -400.0,252.9 M -400.0,249.5 M -400.0,245.5 M -400.0,241.0 M -400.0,236.1 M -400.0,230.7 M -400.0,224.8 M -400.0,218.6 M -400.0,212.1 M -400.0,205.3 M -400.0,198.3 M -400.0,191.1 M -400.0,183.8 M -400.0,176.5 M -400.0,169.2 M -400.0,161.9 L -367.4,154.7 L -328.1,147.7 L -288.8,140.9 L -249.5,134.4 L -210.2,128.2 L -170.9,122.3 L -131.6,116.9 L -92.2,112.0 L -52.9,107.5 L -13.6,103.5 L 25.7,100.1 L 65.0,97.3 L 104.3,95.1 L 143.6,93.5 L 182.9,92.6 L 222.2,92.2 L 261.6,92.6 L 300.9,93.5 L 340.2,95.1 L 379.5,97.3 L 418.8,100.1 L 458.1,103.5 L 497.4,107.5 L 536.8,112.0 L 576.1,116.9 L 615.4,122.3 L 654.7,128.2 L 694.0,134.4 L 733.3,140.9 L 772.6,147.7 L 811.9,154.7 L 851.2,161.9 L 890.6,169.2 L 929.9,176.5 L 969.2,183.8 L 1008.5,191.1 L 1047.8,198.3 L 1087.1,205.3 L 1126.4,212.1 L 1165.8,218.6 L 1200.0,224.8 L 1200.0,230.7 M 1200.0,236.1 M 1200.0,241.0 M 1200.0,245.5 M 1200.0,249.5 M 1200.0,252.9 M 1200.0,255.7 M 1200.0,257.9 M 1200.0,259.5 M 1200.0,260.4 M 1200.0,260.8 M 1200.0,260.4 M 1200.0,259.5 M 1200.0,257.9 M 1200.0,255.7 M 1200.0,252.9 M 1200.0,249.5 M 1200.0,245.5 M 1200.0,241.0 M 1200.0,236.1 M 1200.0,230.7 M 1200.0,224.8 M 1200.0,218.6 M 1200.0,212.1 M 1200.0,205.3 M 1200.0,198.3 M 1200.0,191.1 M 1200.0,183.8 M 1200.0,176.5 M 1200.0,169.2 M 1200.0,161.9 M 1200.0,154.7 M 1200.0,147.7 M 1200.0,140.9 M 1200.0,134.4 M 1200.0,128.2 M 1200.0,122.3 M 1200.0,116.9 M 1200.0,112.0 M 1200.0,107.5 M 1200.0,103.5 M 1200.0,100.1 M 1200.0,97.3 M 1200.0,95.1 M 1200.0,93.5 M 1200.0,92.6 M 1200.0,92.2 M 1200.0,92.6 M 1200.0,93.5 M 1200.0,95.1 M 1200.0,97.3 M 1200.0,100.1 M 1200.0,103.5 M 1200.0,107.5 M 1200.0,112.0 M 1200.0,116.9 M 1200.0,122.3 M 1200.0,128.2 M 1200.0,134.4 M 1200.0,140.9 M 1200.0,147.7 M 1200.0,154.7 M 1200.0,161.9 M 1200.0,169.2 M 1200.0,176.5 M 1200.0,183.8 M 1200.0,191.1 M 1200.0,198.3 M 1200.0,205.3 M 1200.0,212.1 M 1200.0,218.6 M 1200.0,224.8 M 1200.0,230.7 M 1200.0,236.1 M 1200.0,241.0 M 1200.0,245.5 M 1200.0,249.5 M 1200.0,252.9 M 1200.0,255.7 M 1200.0,257.9 M 1200.0,259.5 M 1200.0,260.4 M 1200.0,260.8 " />
<path class="plot06" d="  " />
<path class="plot07" d=" M -400.0,-300.0 L -400.0,-300.0 L -400.0,-300.0 M -400.0,-300.0 M -400.0,-300.0 M -400.0,-300.0 M -400.0,-273.7 M -400.0,-202.2 M -400.0,-146.0 M -400.0,-100.6 M -400.0,-62.9 M -400.0,-31.1 M -400.0,-3.7 M -400.0,20.1 M -400.0,41.2 M -400.0,59.9 M -400.0,76.9 M -400.0,92.2 M -400.0,106.3 M -400.0,119.4 L -367.4,131.5 L -328.1,142.8 L -288.8,153.4 L -249.5,163.5 L -210.2,173.0 L -170.9,182.2 L -131.6,191.0 L -92.2,199.4 L -52.9,207.6 L -13.6,215.6 L 25.7,223.4 L 65.0,231.0 L 104.3,238.6 L 143.6,246.0 L 182.9,253.4 L 222.2,260.8 L 261.6,268.1 L 300.9,275.5 L 340.2,282.9 L 379.5,290.5 L 418.8,298.1 L 458.1,305.9 L 497.4,313.9 L 536.8,322.1 L 576.1,330.5 L 615.4,339.3 L 654.7,348.5 L 694.0,358.0 L 733.3,368.1 L 772.6,378.7 L 811.9,390.0 L 851.2,402.1 L 890.6,415.2 L 929.9,429.2 L 969.2,444.6 L 1008.5,461.6 L 1047.8,480.3 L 1087.1,501.4 L 1126.4,525.2 L 1165.8,552.6 L 1200.0,584.4 L 1200.0,622.1 M 1200.0,667.5 M 1200.0,723.7 M 1200.0,795.2 M 1200.0,889.6 M 1200.0,900.0 M 1200.0,900.0 M 1200.0,900.0 M 1200.0,900.0 M 1200.0,900.0 M 1200.0,900.0 M 1200.0,-300.0 M 1200.0,-300.0 M 1200.0,-300.0 M 1200.0,-300.0 M 1200.0,-300.0 M 1200.0,-300.0 M 1200.0,-273.7 M 1200.0,-202.2 M 1200.0,-146.0 M 1200.0,-100.6 M 1200.0,-62.9 M 1200.0,-31.1 M 1200.0,-3.7 M 1200.0,20.1 M 1200.0,41.2 M 1200.0,59.9 M 1200.0,76.9 M 1200.0,92.2 M 1200.0,106.3 M 1200.0,119.4 M 1200.0,131.5 M 1200.0,142.8 M 1200.0,153.4 M 1200.0,163.5 M 1200.0,173.0 M 1200.0,182.2 M 1200.0,191.0 M 1200.0,199.4 M 1200.0,207.6 M 1200.0,215.6 M 1200.0,223.4 M 1200.0,231.0 M 1200.0,238.6 M 1200.0,246.0 M 1200.0,253.4 M 1200.0,260.7 M 1200.0,268.1 M 1200.0,275.5 M 1200.0,282.9 M 1200.0,290.5 M 1200.0,298.1 M 1200.0,305.9 M 1200.0,313.9 M 1200.0,322.1 M 1200.0,330.5 M 1200.0,339.3 M 1200.0,348.5 M 1200.0,358.0 M 1200.0,368.1 M 1200.0,378.7 M 1200.0,390.0 M 1200.0,402.1 M 1200.0,415.2 M 1200.0,429.2 M 1200.0,444.6 M 1200.0,461.6 M 1200.0,480.3 M 1200.0,501.4 M 1200.0,525.2 M 1200.0,552.6 M 1200.0,584.4 M 1200.0,622.1 M 1200.0,667.5 M 1200.0,723.7 M 1200.0,795.2 M 1200.0,889.6 M 1200.0,900.0 M 1200.0,900.0 M 1200.0,900.0 M 1200.0,900.0 M 1200.0,900.0 M 1200.0,900.0 " />
<path class="plot07" d="  " />
<path class="plot08" d=" M -400.0,141.6 M 1200.0,379.9 " />
<path class="plot08" d=" M -400.0,141.6 m -1.8,0.0 l -1.8,-3.5 l 3.5,1.8 l 3.5,-1.8 l -1.8,3.5 l 1.8,3.5 l -3.5,-1.8 l -3.5,1.8 l 1.8,-3.5 m 1.8,0.0 m 4.2,0.0  a 4.2,4.2 0,0,0 -7.6,-2.5  a 4.2,4.2 0,0,0 4.6,6.5  a 4.2,4.2 0,0,0 2.9,-4.9 m -4.2,0.0 M 1200.0,379.9 m -1.8,0.0 l -1.8,-3.5 l 3.5,1.8 l 3.5,-1.8 l -1.8,3.5 l 1.8,3.5 l -3.5,-1.8 l -3.5,1.8 l 1.8,-3.5 m 1.8,0.0 m 4.2,0.0  a 4.2,4.2 0,0,0 -7.6,-2.5  a 4.2,4.2 0,0,0 4.6,6.5  a 4.2,4.2 0,0,0 2.9,-4.9 m -4.2,0.0 " />
</g>
<text x="379.50" y="541.00" class="xtitle" >Degrees</text>
<text x="23.00" y="260.75" class="ytitle" transform="matrix(0.00,-1.00,1.00,0.00,-237.75,283.75)">Function Value</text>
<text x="714.00" y="63.25" class="legendheadline" >Legends:</text>
<text x="720.50" y="82.75" class="plot03" >sin(n)</text>
<text x="720.50" y="102.25" class="plot04" >cos(n)</text>
<text x="720.50" y="121.75" class="plot05" >tan(n)</text>
<text x="720.50" y="141.25" class="plot06" >sin²(n)</text>
<text x="720.50" y="160.75" class="plot07" >cot(n)</text>
<text x="720.50" y="180.25" class="plot08" >sin=cos</text>
<path class="legend" d=" M 786.0,34.0 Q 792.0,34.0, 792.0,40.0 L 792.0,193.8 Q 792.0,199.8, 786.0,199.8 L 707.0,199.8 Q 701.0,199.8, 701.0,193.8 L 701.0,40.0 Q 701.0,34.0, 707.0,34.0 Z " />
<text x="379.50" y="592.00" class="subtitle" >Data by numbers®</text>
<text x="379.50" y="573.00" class="title" >Trigonometric Functions</text>

</svg>
