<?xml version="1.0" encoding="UTF-8" standalone="no"?>
<svg id="svg-ex5" width="800" height="600" xmlns="http://www.w3.org/2000/svg">
<defs>
<clipPath id="plotable">
<rect x="58.0" y="1.0" width="643.0" height="519.0" rx="0.0"  />
</clipPath>
</defs>
<style>
svg#svg-ex5 { background-color: #ffedcc }
#svg-ex5 path.lightBG { fill: lightGrey }
#svg-ex5 path.midBG { fill: grey }
#svg-ex5 path.darkBG { fill: black }
#svg-ex5 g.plotarea { opacity: 1.0 }
#svg-ex5 g.plotarea path:hover { stroke-width: 5.0 }
#svg-ex5 path { stroke-width: 2.0; fill: none; stroke-linecap: round }
#svg-ex5 path.axes { stroke: black }
#svg-ex5 path.xlabel, #svg-ex5 path.ylabel { stroke: silver; stroke-width: 1 }
#svg-ex5 text { font-family: serif }
#svg-ex5 text.legend { font-size: 13.0px }
#svg-ex5 text.legend.headline { font-size: 16.2px; font-weight: bold }
#svg-ex5 text.subtitle { font-size: 15.0px; text-anchor: middle }
#svg-ex5 text.title { font-size: 25.0px; text-anchor: middle }
#svg-ex5 text.xlabel { font-size: 10.0px; text-anchor: middle }
#svg-ex5 text.xtitle, #svg-ex5 text.ytitle { font-size: 12.0px; text-anchor: middle }
#svg-ex5 text.ylabel { font-size: 10.0px; text-anchor: end; dominant-baseline: middle }
#svg-ex5 path.plot03 { stroke: #ff0000 }
#svg-ex5 text.plot03, #svg-ex5 rect.plot03 { fill: #ff0000; stroke: #ff0000 }
#svg-ex5 path.plot03.fill { stroke: #ff0000; fill: #ff0000; fill-opacity: 0.75 }
#svg-ex5 path.plot04 { stroke: #008000 }
#svg-ex5 text.plot04, #svg-ex5 rect.plot04 { fill: #008000; stroke: #008000 }
#svg-ex5 path.plot04.fill { stroke: #008000; fill: #008000; fill-opacity: 0.75 }
#svg-ex5 path.plot05 { stroke: #ff00ff }
#svg-ex5 text.plot05, #svg-ex5 rect.plot05 { fill: #ff00ff; stroke: #ff00ff }
#svg-ex5 path.plot05.fill { stroke: #ff00ff; fill: #ff00ff; fill-opacity: 0.75 }
#svg-ex5 path.plot06 { stroke: #0000ff }
#svg-ex5 text.plot06, #svg-ex5 rect.plot06 { fill: #0000ff; stroke: #0000ff }
#svg-ex5 path.plot06.fill { stroke: #0000ff; fill: #0000ff; fill-opacity: 0.75 }
#svg-ex5 path.plot07 { stroke: #dc143c }
#svg-ex5 text.plot07, #svg-ex5 rect.plot07 { fill: #dc143c; stroke: #dc143c }
#svg-ex5 path.plot07.fill { stroke: #dc143c; fill: #dc143c; fill-opacity: 0.75 }
#svg-ex5 path.plot08 { stroke: #f4a460 }
#svg-ex5 text.plot08, #svg-ex5 rect.plot08 { fill: #f4a460; stroke: #f4a460 }
#svg-ex5 path.plot08.fill { stroke: #f4a460; fill: #f4a460; fill-opacity: 0.75 }
#svg-ex5 rect.legend { fill: silver; stroke: silver; fill-opacity: 0.1; stroke-width: 1.5 }
</style>
<text x="117.42" y="526.00" class="xlabel" >30</text>
<text x="169.83" y="526.00" class="xlabel" >60</text>
<text x="222.25" y="526.00" class="xlabel" >90</text>
<text x="274.67" y="526.00" class="xlabel" >120</text>
<text x="327.08" y="526.00" class="xlabel" >150</text>
<text x="379.50" y="526.00" class="xlabel" >180</text>
<text x="431.92" y="526.00" class="xlabel" >210</text>
<text x="484.33" y="526.00" class="xlabel" >240</text>
<text x="536.75" y="526.00" class="xlabel" >270</text>
<text x="589.17" y="526.00" class="xlabel" >300</text>
<text x="641.58" y="526.00" class="xlabel" >330</text>
<text x="694.00" y="526.00" class="xlabel" >360</text>
<path class="xlabel" d=" M 117.4,513.0 V 8.0 M 169.8,513.0 V 8.0 M 222.2,513.0 V 8.0 M 274.7,513.0 V 8.0 M 327.1,513.0 V 8.0 M 379.5,513.0 V 8.0 M 431.9,513.0 V 8.0 M 484.3,513.0 V 8.0 M 536.8,513.0 V 8.0 M 589.2,513.0 V 8.0 M 641.6,513.0 V 8.0 M 694.0,513.0 V 8.0 " />
<text x="63.00" y="218.42" class="ylabel" >0.25</text>
<text x="63.00" y="302.58" class="ylabel" >-0.25</text>
<text x="63.00" y="176.33" class="ylabel" >0.50</text>
<text x="63.00" y="344.67" class="ylabel" >-0.50</text>
<text x="63.00" y="134.25" class="ylabel" >0.75</text>
<text x="63.00" y="386.75" class="ylabel" >-0.75</text>
<text x="63.00" y="92.17" class="ylabel" >1.00</text>
<text x="63.00" y="428.83" class="ylabel" >-1.00</text>
<text x="63.00" y="50.08" class="ylabel" >1.25</text>
<text x="63.00" y="470.92" class="ylabel" >-1.25</text>
<text x="63.00" y="8.00" class="ylabel" >1.50</text>
<text x="63.00" y="513.00" class="ylabel" >-1.50</text>
<path class="ylabel" d=" M 65.0,218.4 H 694.0 M 65.0,302.6 H 694.0 M 65.0,176.3 H 694.0 M 65.0,344.7 H 694.0 M 65.0,134.2 H 694.0 M 65.0,386.8 H 694.0 M 65.0,92.2 H 694.0 M 65.0,428.8 H 694.0 M 65.0,50.1 H 694.0 M 65.0,470.9 H 694.0 M 65.0,8.0 H 694.0 M 65.0,513.0 H 694.0 " />
<path class="axes" d=" M 65.0,260.5 H 694.0 M 65.0,513.0 V 8.0 " />
<g clip-path="url(#plotable)" class="plotarea">
<path class="plot03" d=" M 65.0,260.5 L 69.4,253.2 L 73.7,245.8 L 78.1,238.5 L 82.5,231.3 L 86.8,224.1 L 91.2,216.9 L 95.6,209.9 L 99.9,202.9 L 104.3,196.1 L 108.7,189.4 L 113.0,182.8 L 117.4,176.3 L 121.8,170.1 L 126.2,163.9 L 130.5,158.0 L 134.9,152.3 L 139.3,146.8 L 143.6,141.5 L 148.0,136.4 L 152.4,131.5 L 156.7,127.0 L 161.1,122.6 L 165.5,118.5 L 169.8,114.7 L 174.2,111.2 L 178.6,107.9 L 182.9,105.0 L 187.3,102.3 L 191.7,100.0 L 196.0,97.9 L 200.4,96.2 L 204.8,94.7 L 209.1,93.6 L 213.5,92.8 L 217.9,92.3 L 222.2,92.2 L 226.6,92.3 L 231.0,92.8 L 235.4,93.6 L 239.7,94.7 L 244.1,96.2 L 248.5,97.9 L 252.8,100.0 L 257.2,102.3 L 261.6,105.0 L 265.9,107.9 L 270.3,111.2 L 274.7,114.7 L 279.0,118.5 L 283.4,122.6 L 287.8,127.0 L 292.1,131.5 L 296.5,136.4 L 300.9,141.5 L 305.2,146.8 L 309.6,152.3 L 314.0,158.0 L 318.3,163.9 L 322.7,170.1 L 327.1,176.3 L 331.5,182.8 L 335.8,189.4 L 340.2,196.1 L 344.6,202.9 L 348.9,209.9 L 353.3,216.9 L 357.7,224.1 L 362.0,231.3 L 366.4,238.5 L 370.8,245.8 L 375.1,253.2 L 379.5,260.5 L 383.9,267.8 L 388.2,275.2 L 392.6,282.5 L 397.0,289.7 L 401.3,296.9 L 405.7,304.1 L 410.1,311.1 L 414.4,318.1 L 418.8,324.9 L 423.2,331.6 L 427.5,338.2 L 431.9,344.7 L 436.3,350.9 L 440.7,357.1 L 445.0,363.0 L 449.4,368.7 L 453.8,374.2 L 458.1,379.5 L 462.5,384.6 L 466.9,389.5 L 471.2,394.0 L 475.6,398.4 L 480.0,402.5 L 484.3,406.3 L 488.7,409.8 L 493.1,413.1 L 497.4,416.0 L 501.8,418.7 L 506.2,421.0 L 510.5,423.1 L 514.9,424.8 L 519.3,426.3 L 523.6,427.4 L 528.0,428.2 L 532.4,428.7 L 536.8,428.8 L 541.1,428.7 L 545.5,428.2 L 549.9,427.4 L 554.2,426.3 L 558.6,424.8 L 563.0,423.1 L 567.3,421.0 L 571.7,418.7 L 576.1,416.0 L 580.4,413.1 L 584.8,409.8 L 589.2,406.3 L 593.5,402.5 L 597.9,398.4 L 602.3,394.0 L 606.6,389.5 L 611.0,384.6 L 615.4,379.5 L 619.7,374.2 L 624.1,368.7 L 628.5,363.0 L 632.8,357.1 L 637.2,350.9 L 641.6,344.7 L 646.0,338.2 L 650.3,331.6 L 654.7,324.9 L 659.1,318.1 L 663.4,311.1 L 667.8,304.1 L 672.2,296.9 L 676.5,289.7 L 680.9,282.5 L 685.3,275.2 L 689.6,267.8 L 694.0,260.5 M 65.0,260.5 " />
<path class="plot04" d=" M 65.0,92.2 L 69.4,92.3 L 73.7,92.8 L 78.1,93.6 L 82.5,94.7 L 86.8,96.2 L 91.2,97.9 L 95.6,100.0 L 99.9,102.3 L 104.3,105.0 L 108.7,107.9 L 113.0,111.2 L 117.4,114.7 L 121.8,118.5 L 126.2,122.6 L 130.5,127.0 L 134.9,131.5 L 139.3,136.4 L 143.6,141.5 L 148.0,146.8 L 152.4,152.3 L 156.7,158.0 L 161.1,163.9 L 165.5,170.1 L 169.8,176.3 L 174.2,182.8 L 178.6,189.4 L 182.9,196.1 L 187.3,202.9 L 191.7,209.9 L 196.0,216.9 L 200.4,224.1 L 204.8,231.3 L 209.1,238.5 L 213.5,245.8 L 217.9,253.2 L 222.2,260.5 L 226.6,267.8 L 231.0,275.2 L 235.4,282.5 L 239.7,289.7 L 244.1,296.9 L 248.5,304.1 L 252.8,311.1 L 257.2,318.1 L 261.6,324.9 L 265.9,331.6 L 270.3,338.2 L 274.7,344.7 L 279.0,350.9 L 283.4,357.1 L 287.8,363.0 L 292.1,368.7 L 296.5,374.2 L 300.9,379.5 L 305.2,384.6 L 309.6,389.5 L 314.0,394.0 L 318.3,398.4 L 322.7,402.5 L 327.1,406.3 L 331.5,409.8 L 335.8,413.1 L 340.2,416.0 L 344.6,418.7 L 348.9,421.0 L 353.3,423.1 L 357.7,424.8 L 362.0,426.3 L 366.4,427.4 L 370.8,428.2 L 375.1,428.7 L 379.5,428.8 L 383.9,428.7 L 388.2,428.2 L 392.6,427.4 L 397.0,426.3 L 401.3,424.8 L 405.7,423.1 L 410.1,421.0 L 414.4,418.7 L 418.8,416.0 L 423.2,413.1 L 427.5,409.8 L 431.9,406.3 L 436.3,402.5 L 440.7,398.4 L 445.0,394.0 L 449.4,389.5 L 453.8,384.6 L 458.1,379.5 L 462.5,374.2 L 466.9,368.7 L 471.2,363.0 L 475.6,357.1 L 480.0,350.9 L 484.3,344.7 L 488.7,338.2 L 493.1,331.6 L 497.4,324.9 L 501.8,318.1 L 506.2,311.1 L 510.5,304.1 L 514.9,296.9 L 519.3,289.7 L 523.6,282.5 L 528.0,275.2 L 532.4,267.8 L 536.8,260.5 L 541.1,253.2 L 545.5,245.8 L 549.9,238.5 L 554.2,231.3 L 558.6,224.1 L 563.0,216.9 L 567.3,209.9 L 571.7,202.9 L 576.1,196.1 L 580.4,189.4 L 584.8,182.8 L 589.2,176.3 L 593.5,170.1 L 597.9,163.9 L 602.3,158.0 L 606.6,152.3 L 611.0,146.8 L 615.4,141.5 L 619.7,136.4 L 624.1,131.5 L 628.5,127.0 L 632.8,122.6 L 637.2,118.5 L 641.6,114.7 L 646.0,111.2 L 650.3,107.9 L 654.7,105.0 L 659.1,102.3 L 663.4,100.0 L 667.8,97.9 L 672.2,96.2 L 676.5,94.7 L 680.9,93.6 L 685.3,92.8 L 689.6,92.3 L 694.0,92.2 M 65.0,92.2 " />
<path class="plot05" d=" M 65.0,260.5 L 69.4,253.2 L 73.7,245.8 L 78.1,238.3 L 82.5,230.8 L 86.8,223.2 L 91.2,215.4 L 95.6,207.4 L 99.9,199.2 L 104.3,190.8 L 108.7,182.0 L 113.0,172.9 L 117.4,163.3 L 121.8,153.3 L 126.2,142.6 L 130.5,131.3 L 134.9,119.3 L 139.3,106.3 L 143.6,92.2 L 148.0,76.8 L 152.4,59.9 L 156.7,41.1 L 161.1,20.1 L 165.5,-3.7 L 169.8,-31.1 L 174.2,-62.9 L 178.6,-100.5 L 182.9,-145.9 L 187.3,-202.0 L 191.7,-273.4 L 196.0,-300.0 M 204.8,-300.0 M 209.1,-300.0 M 213.5,-300.0 M 217.9,-300.0 M 222.2,-300.0 M 226.6,900.0 M 231.0,900.0 M 235.4,900.0 M 239.7,900.0 M 244.1,900.0 L 248.5,888.7 L 252.8,794.4 L 257.2,723.0 L 261.6,666.9 L 265.9,621.5 L 270.3,583.9 L 274.7,552.1 L 279.0,524.7 L 283.4,500.9 L 287.8,479.9 L 292.1,461.1 L 296.5,444.2 L 300.9,428.8 L 305.2,414.7 L 309.6,401.7 L 314.0,389.7 L 318.3,378.4 L 322.7,367.7 L 327.1,357.7 L 331.5,348.1 L 335.8,339.0 L 340.2,330.2 L 344.6,321.8 L 348.9,313.6 L 353.3,305.6 L 357.7,297.8 L 362.0,290.2 L 366.4,282.7 L 370.8,275.2 L 375.1,267.8 L 379.5,260.5 L 383.9,253.2 L 388.2,245.8 L 392.6,238.3 L 397.0,230.8 L 401.3,223.2 L 405.7,215.4 L 410.1,207.4 L 414.4,199.2 L 418.8,190.8 L 423.2,182.0 L 427.5,172.9 L 431.9,163.3 L 436.3,153.3 L 440.7,142.6 L 445.0,131.3 L 449.4,119.3 L 453.8,106.3 L 458.1,92.2 L 462.5,76.8 L 466.9,59.9 L 471.2,41.1 L 475.6,20.1 L 480.0,-3.7 L 484.3,-31.1 L 488.7,-62.9 L 493.1,-100.5 L 497.4,-145.9 L 501.8,-202.0 L 506.2,-273.4 L 510.5,-300.0 M 519.3,-300.0 M 523.6,-300.0 M 528.0,-300.0 M 532.4,-300.0 M 536.8,-300.0 M 541.1,900.0 M 545.5,900.0 M 549.9,900.0 M 554.2,900.0 M 558.6,900.0 L 563.0,888.7 L 567.3,794.4 L 571.7,723.0 L 576.1,666.9 L 580.4,621.5 L 584.8,583.9 L 589.2,552.1 L 593.5,524.7 L 597.9,500.9 L 602.3,479.9 L 606.6,461.1 L 611.0,444.2 L 615.4,428.8 L 619.7,414.7 L 624.1,401.7 L 628.5,389.7 L 632.8,378.4 L 637.2,367.7 L 641.6,357.7 L 646.0,348.1 L 650.3,339.0 L 654.7,330.2 L 659.1,321.8 L 663.4,313.6 L 667.8,305.6 L 672.2,297.8 L 676.5,290.2 L 680.9,282.7 L 685.3,275.2 L 689.6,267.8 L 694.0,260.5 M 65.0,260.5 " />
<path class="plot06" d=" M 65.0,260.5 L 69.4,260.2 L 73.7,259.2 L 78.1,257.6 L 82.5,255.4 L 86.8,252.6 L 91.2,249.2 L 95.6,245.3 L 99.9,240.8 L 104.3,235.8 L 108.7,230.4 L 113.0,224.6 L 117.4,218.4 L 121.8,211.9 L 126.2,205.1 L 130.5,198.1 L 134.9,190.9 L 139.3,183.7 L 143.6,176.3 L 148.0,169.0 L 152.4,161.7 L 156.7,154.5 L 161.1,147.5 L 165.5,140.8 L 169.8,134.2 L 174.2,128.1 L 178.6,122.2 L 182.9,116.8 L 187.3,111.9 L 191.7,107.4 L 196.0,103.4 L 200.4,100.1 L 204.8,97.2 L 209.1,95.0 L 213.5,93.4 L 217.9,92.5 L 222.2,92.2 L 226.6,92.5 L 231.0,93.4 L 235.4,95.0 L 239.7,97.2 L 244.1,100.1 L 248.5,103.4 L 252.8,107.4 L 257.2,111.9 L 261.6,116.8 L 265.9,122.2 L 270.3,128.1 L 274.7,134.2 L 279.0,140.8 L 283.4,147.5 L 287.8,154.5 L 292.1,161.7 L 296.5,169.0 L 300.9,176.3 L 305.2,183.7 L 309.6,190.9 L 314.0,198.1 L 318.3,205.1 L 322.7,211.9 L 327.1,218.4 L 331.5,224.6 L 335.8,230.4 L 340.2,235.8 L 344.6,240.8 L 348.9,245.3 L 353.3,249.2 L 357.7,252.6 L 362.0,255.4 L 366.4,257.6 L 370.8,259.2 L 375.1,260.2 L 379.5,260.5 L 383.9,260.2 L 388.2,259.2 L 392.6,257.6 L 397.0,255.4 L 401.3,252.6 L 405.7,249.2 L 410.1,245.3 L 414.4,240.8 L 418.8,235.8 L 423.2,230.4 L 427.5,224.6 L 431.9,218.4 L 436.3,211.9 L 440.7,205.1 L 445.0,198.1 L 449.4,190.9 L 453.8,183.7 L 458.1,176.3 L 462.5,169.0 L 466.9,161.7 L 471.2,154.5 L 475.6,147.5 L 480.0,140.8 L 484.3,134.3 L 488.7,128.1 L 493.1,122.2 L 497.4,116.8 L 501.8,111.9 L 506.2,107.4 L 510.5,103.4 L 514.9,100.1 L 519.3,97.2 L 523.6,95.0 L 528.0,93.4 L 532.4,92.5 L 536.8,92.2 L 541.1,92.5 L 545.5,93.4 L 549.9,95.0 L 554.2,97.2 L 558.6,100.1 L 563.0,103.4 L 567.3,107.4 L 571.7,111.9 L 576.1,116.8 L 580.4,122.2 L 584.8,128.1 L 589.2,134.2 L 593.5,140.8 L 597.9,147.5 L 602.3,154.5 L 606.6,161.7 L 611.0,169.0 L 615.4,176.3 L 619.7,183.7 L 624.1,190.9 L 628.5,198.1 L 632.8,205.1 L 637.2,211.9 L 641.6,218.4 L 646.0,224.6 L 650.3,230.4 L 654.7,235.8 L 659.1,240.8 L 663.4,245.3 L 667.8,249.2 L 672.2,252.6 L 676.5,255.4 L 680.9,257.6 L 685.3,259.2 L 689.6,260.2 L 694.0,260.5 M 65.0,260.5 " />
<path class="plot07" d=" M 69.4,-300.0 L 73.7,-300.0 M 82.5,-300.0 M 86.8,-300.0 M 91.2,-300.0 L 95.6,-273.4 L 99.9,-202.0 L 104.3,-145.9 L 108.7,-100.5 L 113.0,-62.9 L 117.4,-31.1 L 121.8,-3.7 L 126.2,20.1 L 130.5,41.1 L 134.9,59.9 L 139.3,76.8 L 143.6,92.2 L 148.0,106.3 L 152.4,119.3 L 156.7,131.3 L 161.1,142.6 L 165.5,153.3 L 169.8,163.3 L 174.2,172.9 L 178.6,182.0 L 182.9,190.8 L 187.3,199.2 L 191.7,207.4 L 196.0,215.4 L 200.4,223.2 L 204.8,230.8 L 209.1,238.3 L 213.5,245.8 L 217.9,253.2 L 222.2,260.5 L 226.6,267.8 L 231.0,275.2 L 235.4,282.7 L 239.7,290.2 L 244.1,297.8 L 248.5,305.6 L 252.8,313.6 L 257.2,321.8 L 261.6,330.2 L 265.9,339.0 L 270.3,348.1 L 274.7,357.7 L 279.0,367.7 L 283.4,378.4 L 287.8,389.7 L 292.1,401.7 L 296.5,414.7 L 300.9,428.8 L 305.2,444.2 L 309.6,461.1 L 314.0,479.9 L 318.3,500.9 L 322.7,524.7 L 327.1,552.1 L 331.5,583.9 L 335.8,621.5 L 340.2,666.9 L 344.6,723.0 L 348.9,794.4 L 353.3,888.7 L 357.7,900.0 M 366.4,900.0 M 370.8,900.0 M 375.1,900.0 M 379.5,900.0 M 383.9,-300.0 M 388.2,-300.0 M 392.6,-300.0 M 397.0,-300.0 M 401.3,-300.0 M 405.7,-300.0 L 410.1,-273.4 L 414.4,-202.0 L 418.8,-145.9 L 423.2,-100.5 L 427.5,-62.9 L 431.9,-31.1 L 436.3,-3.7 L 440.7,20.1 L 445.0,41.1 L 449.4,59.9 L 453.8,76.8 L 458.1,92.2 L 462.5,106.3 L 466.9,119.3 L 471.2,131.3 L 475.6,142.6 L 480.0,153.3 L 484.3,163.3 L 488.7,172.9 L 493.1,182.0 L 497.4,190.8 L 501.8,199.2 L 506.2,207.4 L 510.5,215.4 L 514.9,223.2 L 519.3,230.8 L 523.6,238.3 L 528.0,245.8 L 532.4,253.2 L 536.8,260.5 L 541.1,267.8 L 545.5,275.2 L 549.9,282.7 L 554.2,290.2 L 558.6,297.8 L 563.0,305.6 L 567.3,313.6 L 571.7,321.8 L 576.1,330.2 L 580.4,339.0 L 584.8,348.1 L 589.2,357.7 L 593.5,367.7 L 597.9,378.4 L 602.3,389.7 L 606.6,401.7 L 611.0,414.7 L 615.4,428.8 L 619.7,444.2 L 624.1,461.1 L 628.5,479.9 L 632.8,500.9 L 637.2,524.7 L 641.6,552.1 L 646.0,583.9 L 650.3,621.5 L 654.7,666.9 L 659.1,723.0 L 663.4,794.4 L 667.8,888.7 L 672.2,900.0 M 680.9,900.0 M 685.3,900.0 M 689.6,900.0 M 694.0,900.0 M 69.4,-300.0 " />
<path class="plot08 fill" d=" M 143.6,260.5 H 138.6 V 141.8 Q 138.6,141.5, 138.9,141.5 h 9.4 Q 148.6,141.5, 148.6,141.8 V 260.5 Z M 458.1,260.5 H 453.1 V 379.8 Q 453.1,379.5, 453.4,379.5 h 9.4 Q 463.1,379.5, 463.1,379.8 V 260.5 Z " />
</g>
<text x="379.50" y="541.00" class="xtitle" >Degrees</text>
<text x="23.00" y="260.50" class="ytitle" transform="matrix(0.00,-1.00,1.00,0.00,-237.50,283.50)">Function Value</text>
<text x="714.00" y="63.25" class="legend headline" >Legends:</text>
<text x="720.50" y="82.75" class="plot03 legend" >sin(n)</text>
<text x="720.50" y="102.25" class="plot04 legend" >cos(n)</text>
<text x="720.50" y="121.75" class="plot05 legend" >tan(n)</text>
<text x="720.50" y="141.25" class="plot06 legend" >sin²(n)</text>
<text x="720.50" y="160.75" class="plot07 legend" >cot(n)</text>
<text x="720.50" y="180.25" class="plot08 legend" >sin=cos</text>
<path class="legend" d=" M 786.0,34.0 Q 792.0,34.0, 792.0,40.0 L 792.0,193.8 Q 792.0,199.8, 786.0,199.8 L 707.0,199.8 Q 701.0,199.8, 701.0,193.8 L 701.0,40.0 Q 701.0,34.0, 707.0,34.0 Z " />
<text x="400.00" y="592.00" class="subtitle" >Data by numbers®</text>
<text x="400.00" y="573.00" class="title" >Trigonometric Functions</text>

</svg>
