<?xml version="1.0" encoding="UTF-8" standalone="no"?>
<svg id="svg-ex2" width="800" height="600" xmlns="http://www.w3.org/2000/svg">
<defs>
<clipPath id="plotable">
<rect x="58.0" y="1.0" width="643.0" height="519.0" rx="0.0"  />
</clipPath>
</defs>
<style>
svg#svg-ex2 { background-color: #ffedcc }
#svg-ex2 g.plotarea { opacity: 1.0 }
#svg-ex2 g.plotarea path:hover { stroke-width: 5.0 }
#svg-ex2 path { stroke-width: 2.0; fill: none; stroke-linecap: round }
#svg-ex2 path.axes { stroke: black }
#svg-ex2 path.xlabel, #svg-ex2 path.ylabel { stroke: silver; stroke-width: 1 }
#svg-ex2 text { font-family: serif }
#svg-ex2 text.legend { font-size: 13.0px }
#svg-ex2 text.legend.headline { font-size: 16.2px; font-weight: bold }
#svg-ex2 text.subtitle { font-size: 15.0px; text-anchor: middle }
#svg-ex2 text.title { font-size: 25.0px; text-anchor: middle }
#svg-ex2 text.xlabel { font-size: 10.0px; text-anchor: middle }
#svg-ex2 text.xtitle, #svg-ex2 text.ytitle { font-size: 12.0px; text-anchor: middle }
#svg-ex2 text.ylabel { font-size: 10.0px; text-anchor: end; dominant-baseline: middle }
#svg-ex2 path.plot03 { stroke: #ff0000 }
#svg-ex2 text.plot03, #svg-ex2 rect.plot03 { fill: #ff0000; stroke: #ff0000 }
#svg-ex2 path.plot03.fill { stroke: #ff0000; fill: #ff0000; fill-opacity: 0.75 }
#svg-ex2 path.plot04 { stroke: #008000 }
#svg-ex2 text.plot04, #svg-ex2 rect.plot04 { fill: #008000; stroke: #008000 }
#svg-ex2 path.plot04.fill { stroke: #008000; fill: #008000; fill-opacity: 0.75 }
#svg-ex2 path.plot05 { stroke: #ff00ff }
#svg-ex2 text.plot05, #svg-ex2 rect.plot05 { fill: #ff00ff; stroke: #ff00ff }
#svg-ex2 path.plot05.fill { stroke: #ff00ff; fill: #ff00ff; fill-opacity: 0.75 }
#svg-ex2 path.plot06 { stroke: #0000ff }
#svg-ex2 text.plot06, #svg-ex2 rect.plot06 { fill: #0000ff; stroke: #0000ff }
#svg-ex2 path.plot06.fill { stroke: #0000ff; fill: #0000ff; fill-opacity: 0.75 }
#svg-ex2 path.plot07 { stroke: #dc143c }
#svg-ex2 text.plot07, #svg-ex2 rect.plot07 { fill: #dc143c; stroke: #dc143c }
#svg-ex2 path.plot07.fill { stroke: #dc143c; fill: #dc143c; fill-opacity: 0.75 }
#svg-ex2 path.plot08 { stroke: #f4a460 }
#svg-ex2 text.plot08, #svg-ex2 rect.plot08 { fill: #f4a460; stroke: #f4a460 }
#svg-ex2 path.plot08.fill { stroke: #f4a460; fill: #f4a460; fill-opacity: 0.75 }
#svg-ex2 rect.legend { fill: silver; stroke: silver; fill-opacity: 0.1; stroke-width: 1.5 }
</style>
<text x="80.72" y="526.00" class="xlabel" >81</text>
<text x="127.90" y="526.00" class="xlabel" >84</text>
<text x="175.08" y="526.00" class="xlabel" >87</text>
<text x="222.25" y="526.00" class="xlabel" >90</text>
<text x="269.42" y="526.00" class="xlabel" >93</text>
<text x="316.60" y="526.00" class="xlabel" >96</text>
<text x="363.77" y="526.00" class="xlabel" >99</text>
<text x="410.95" y="526.00" class="xlabel" >102</text>
<text x="458.12" y="526.00" class="xlabel" >105</text>
<text x="505.30" y="526.00" class="xlabel" >108</text>
<text x="552.47" y="526.00" class="xlabel" >111</text>
<text x="599.65" y="526.00" class="xlabel" >114</text>
<text x="646.83" y="526.00" class="xlabel" >117</text>
<text x="694.00" y="526.00" class="xlabel" >120</text>
<path class="xlabel" d=" M 80.7,513.0 V 8.0 M 127.9,513.0 V 8.0 M 175.1,513.0 V 8.0 M 222.2,513.0 V 8.0 M 269.4,513.0 V 8.0 M 316.6,513.0 V 8.0 M 363.8,513.0 V 8.0 M 411.0,513.0 V 8.0 M 458.1,513.0 V 8.0 M 505.3,513.0 V 8.0 M 552.5,513.0 V 8.0 M 599.6,513.0 V 8.0 M 646.8,513.0 V 8.0 M 694.0,513.0 V 8.0 " />
<text x="63.00" y="218.42" class="ylabel" >0.25</text>
<text x="63.00" y="302.58" class="ylabel" >-0.25</text>
<text x="63.00" y="176.33" class="ylabel" >0.50</text>
<text x="63.00" y="344.67" class="ylabel" >-0.50</text>
<text x="63.00" y="134.25" class="ylabel" >0.75</text>
<text x="63.00" y="386.75" class="ylabel" >-0.75</text>
<text x="63.00" y="92.17" class="ylabel" >1.00</text>
<text x="63.00" y="428.83" class="ylabel" >-1.00</text>
<text x="63.00" y="50.08" class="ylabel" >1.25</text>
<text x="63.00" y="470.92" class="ylabel" >-1.25</text>
<text x="63.00" y="8.00" class="ylabel" >1.50</text>
<text x="63.00" y="513.00" class="ylabel" >-1.50</text>
<path class="ylabel" d=" M 65.0,218.4 H 694.0 M 65.0,302.6 H 694.0 M 65.0,176.3 H 694.0 M 65.0,344.7 H 694.0 M 65.0,134.2 H 694.0 M 65.0,386.8 H 694.0 M 65.0,92.2 H 694.0 M 65.0,428.8 H 694.0 M 65.0,50.1 H 694.0 M 65.0,470.9 H 694.0 M 65.0,8.0 H 694.0 M 65.0,513.0 H 694.0 " />
<path class="axes" d=" M 65.0,260.5 H 694.0 " />
<g clip-path="url(#plotable)" class="plotarea">
<path class="plot03" d=" M -400.0,260.5 L -400.0,253.2 M -400.0,238.5 M -400.0,231.3 M -400.0,224.1 M -400.0,216.9 M -400.0,209.9 M -400.0,202.9 M -400.0,196.1 M -400.0,189.4 M -400.0,182.8 M -400.0,176.3 M -400.0,170.1 M -400.0,163.9 M -400.0,158.0 M -400.0,152.3 M -400.0,146.8 M -400.0,141.5 M -400.0,136.4 M -400.0,131.5 L -367.4,127.0 L -328.1,122.6 L -288.8,118.5 L -249.5,114.7 L -210.2,111.2 L -170.9,107.9 L -131.6,105.0 L -92.2,102.3 L -52.9,100.0 L -13.6,97.9 L 25.7,96.2 L 65.0,94.7 L 104.3,93.6 L 143.6,92.8 L 182.9,92.3 L 222.2,92.2 L 261.6,92.3 L 300.9,92.8 L 340.2,93.6 L 379.5,94.7 L 418.8,96.2 L 458.1,97.9 L 497.4,100.0 L 536.8,102.3 L 576.1,105.0 L 615.4,107.9 L 654.7,111.2 L 694.0,114.7 L 733.3,118.5 L 772.6,122.6 L 811.9,127.0 L 851.2,131.5 L 890.6,136.4 L 929.9,141.5 L 969.2,146.8 L 1008.5,152.3 L 1047.8,158.0 L 1087.1,163.9 L 1126.4,170.1 L 1165.8,176.3 L 1200.0,182.8 M 1200.0,196.1 M 1200.0,202.9 M 1200.0,209.9 M 1200.0,216.9 M 1200.0,224.1 M 1200.0,231.3 M 1200.0,238.5 M 1200.0,245.8 M 1200.0,253.2 M 1200.0,260.5 M 1200.0,267.8 M 1200.0,275.2 M 1200.0,282.5 M 1200.0,289.7 M 1200.0,296.9 M 1200.0,304.1 M 1200.0,311.1 M 1200.0,318.1 M 1200.0,324.9 M 1200.0,331.6 M 1200.0,338.2 M 1200.0,344.7 M 1200.0,350.9 M 1200.0,357.1 M 1200.0,363.0 M 1200.0,368.7 M 1200.0,374.2 M 1200.0,379.5 M 1200.0,384.6 M 1200.0,389.5 M 1200.0,394.0 M 1200.0,398.4 M 1200.0,402.5 M 1200.0,406.3 M 1200.0,409.8 M 1200.0,413.1 M 1200.0,416.0 M 1200.0,418.7 M 1200.0,421.0 M 1200.0,423.1 M 1200.0,424.8 M 1200.0,426.3 M 1200.0,427.4 M 1200.0,428.2 M 1200.0,428.7 M 1200.0,428.8 M 1200.0,428.7 M 1200.0,428.2 M 1200.0,427.4 M 1200.0,426.3 M 1200.0,424.8 M 1200.0,423.1 M 1200.0,421.0 M 1200.0,418.7 M 1200.0,416.0 M 1200.0,413.1 M 1200.0,409.8 M 1200.0,406.3 M 1200.0,402.5 M 1200.0,398.4 M 1200.0,394.0 M 1200.0,389.5 M 1200.0,384.6 M 1200.0,379.5 M 1200.0,374.2 M 1200.0,368.7 M 1200.0,363.0 M 1200.0,357.1 M 1200.0,350.9 M 1200.0,344.7 M 1200.0,338.2 M 1200.0,331.6 M 1200.0,324.9 M 1200.0,318.1 M 1200.0,311.1 M 1200.0,304.1 M 1200.0,296.9 M 1200.0,289.7 M 1200.0,282.5 M 1200.0,275.2 M 1200.0,267.8 M 1200.0,260.5 M -400.0,260.5 " />
<path class="plot04" d=" M -400.0,92.2 L -400.0,92.3 M -400.0,93.6 M -400.0,94.7 M -400.0,96.2 M -400.0,97.9 M -400.0,100.0 M -400.0,102.3 M -400.0,105.0 M -400.0,107.9 M -400.0,111.2 M -400.0,114.7 M -400.0,118.5 M -400.0,122.6 M -400.0,127.0 M -400.0,131.5 M -400.0,136.4 M -400.0,141.5 M -400.0,146.8 M -400.0,152.3 L -367.4,158.0 L -328.1,163.9 L -288.8,170.1 L -249.5,176.3 L -210.2,182.8 L -170.9,189.4 L -131.6,196.1 L -92.2,202.9 L -52.9,209.9 L -13.6,216.9 L 25.7,224.1 L 65.0,231.3 L 104.3,238.5 L 143.6,245.8 L 182.9,253.2 L 222.2,260.5 L 261.6,267.8 L 300.9,275.2 L 340.2,282.5 L 379.5,289.7 L 418.8,296.9 L 458.1,304.1 L 497.4,311.1 L 536.8,318.1 L 576.1,324.9 L 615.4,331.6 L 654.7,338.2 L 694.0,344.7 L 733.3,350.9 L 772.6,357.1 L 811.9,363.0 L 851.2,368.7 L 890.6,374.2 L 929.9,379.5 L 969.2,384.6 L 1008.5,389.5 L 1047.8,394.0 L 1087.1,398.4 L 1126.4,402.5 L 1165.8,406.3 L 1200.0,409.8 M 1200.0,416.0 M 1200.0,418.7 M 1200.0,421.0 M 1200.0,423.1 M 1200.0,424.8 M 1200.0,426.3 M 1200.0,427.4 M 1200.0,428.2 M 1200.0,428.7 M 1200.0,428.8 M 1200.0,428.7 M 1200.0,428.2 M 1200.0,427.4 M 1200.0,426.3 M 1200.0,424.8 M 1200.0,423.1 M 1200.0,421.0 M 1200.0,418.7 M 1200.0,416.0 M 1200.0,413.1 M 1200.0,409.8 M 1200.0,406.3 M 1200.0,402.5 M 1200.0,398.4 M 1200.0,394.0 M 1200.0,389.5 M 1200.0,384.6 M 1200.0,379.5 M 1200.0,374.2 M 1200.0,368.7 M 1200.0,363.0 M 1200.0,357.1 M 1200.0,350.9 M 1200.0,344.7 M 1200.0,338.2 M 1200.0,331.6 M 1200.0,324.9 M 1200.0,318.1 M 1200.0,311.1 M 1200.0,304.1 M 1200.0,296.9 M 1200.0,289.7 M 1200.0,282.5 M 1200.0,275.2 M 1200.0,267.8 M 1200.0,260.5 M 1200.0,253.2 M 1200.0,245.8 M 1200.0,238.5 M 1200.0,231.3 M 1200.0,224.1 M 1200.0,216.9 M 1200.0,209.9 M 1200.0,202.9 M 1200.0,196.1 M 1200.0,189.4 M 1200.0,182.8 M 1200.0,176.3 M 1200.0,170.1 M 1200.0,163.9 M 1200.0,158.0 M 1200.0,152.3 M 1200.0,146.8 M 1200.0,141.5 M 1200.0,136.4 M 1200.0,131.5 M 1200.0,127.0 M 1200.0,122.6 M 1200.0,118.5 M 1200.0,114.7 M 1200.0,111.2 M 1200.0,107.9 M 1200.0,105.0 M 1200.0,102.3 M 1200.0,100.0 M 1200.0,97.9 M 1200.0,96.2 M 1200.0,94.7 M 1200.0,93.6 M 1200.0,92.8 M 1200.0,92.3 M 1200.0,92.2 M -400.0,92.2 " />
<path class="plot05" d=" M -400.0,260.5 L -400.0,253.2 M -400.0,238.3 M -400.0,230.8 M -400.0,223.2 M -400.0,215.4 M -400.0,207.4 M -400.0,199.2 M -400.0,190.8 M -400.0,182.0 M -400.0,172.9 M -400.0,163.3 M -400.0,153.3 M -400.0,142.6 M -400.0,131.3 M -400.0,119.3 M -400.0,106.3 M -400.0,92.2 M -400.0,76.8 M -400.0,59.9 L -367.4,41.1 L -328.1,20.1 L -288.8,-3.7 L -249.5,-31.1 L -210.2,-62.9 L -170.9,-100.5 L -131.6,-145.9 L -92.2,-202.0 L -52.9,-273.4 L -13.6,-300.0 M 65.0,-300.0 M 104.3,-300.0 M 143.6,-300.0 M 182.9,-300.0 M 222.2,-300.0 M 261.6,900.0 M 300.9,900.0 M 340.2,900.0 M 379.5,900.0 M 418.8,900.0 L 458.1,888.7 L 497.4,794.4 L 536.8,723.0 L 576.1,666.9 L 615.4,621.5 L 654.7,583.9 L 694.0,552.1 L 733.3,524.7 L 772.6,500.9 L 811.9,479.9 L 851.2,461.1 L 890.6,444.2 L 929.9,428.8 L 969.2,414.7 L 1008.5,401.7 L 1047.8,389.7 L 1087.1,378.4 L 1126.4,367.7 L 1165.8,357.7 L 1200.0,348.1 M 1200.0,330.2 M 1200.0,321.8 M 1200.0,313.6 M 1200.0,305.6 M 1200.0,297.8 M 1200.0,290.2 M 1200.0,282.7 M 1200.0,275.2 M 1200.0,267.8 M 1200.0,260.5 M 1200.0,253.2 M 1200.0,245.8 M 1200.0,238.3 M 1200.0,230.8 M 1200.0,223.2 M 1200.0,215.4 M 1200.0,207.4 M 1200.0,199.2 M 1200.0,190.8 M 1200.0,182.0 M 1200.0,172.9 M 1200.0,163.3 M 1200.0,153.3 M 1200.0,142.6 M 1200.0,131.3 M 1200.0,119.3 M 1200.0,106.3 M 1200.0,92.2 M 1200.0,76.8 M 1200.0,59.9 M 1200.0,41.1 M 1200.0,20.1 M 1200.0,-3.7 M 1200.0,-31.1 M 1200.0,-62.9 M 1200.0,-100.5 M 1200.0,-145.9 M 1200.0,-202.0 M 1200.0,-273.4 M 1200.0,-300.0 M 1200.0,-300.0 M 1200.0,-300.0 M 1200.0,-300.0 M 1200.0,-300.0 M 1200.0,-300.0 M 1200.0,-300.0 M 1200.0,900.0 M 1200.0,900.0 M 1200.0,900.0 M 1200.0,900.0 M 1200.0,900.0 M 1200.0,888.7 M 1200.0,794.4 M 1200.0,723.0 M 1200.0,666.9 M 1200.0,621.5 M 1200.0,583.9 M 1200.0,552.1 M 1200.0,524.7 M 1200.0,500.9 M 1200.0,479.9 M 1200.0,461.1 M 1200.0,444.2 M 1200.0,428.8 M 1200.0,414.7 M 1200.0,401.7 M 1200.0,389.7 M 1200.0,378.4 M 1200.0,367.7 M 1200.0,357.7 M 1200.0,348.1 M 1200.0,339.0 M 1200.0,330.2 M 1200.0,321.8 M 1200.0,313.6 M 1200.0,305.6 M 1200.0,297.8 M 1200.0,290.2 M 1200.0,282.7 M 1200.0,275.2 M 1200.0,267.8 M 1200.0,260.5 M -400.0,260.5 " />
<path class="plot06" d=" M -400.0,260.5 L -400.0,260.2 M -400.0,257.6 M -400.0,255.4 M -400.0,252.6 M -400.0,249.2 M -400.0,245.3 M -400.0,240.8 M -400.0,235.8 M -400.0,230.4 M -400.0,224.6 M -400.0,218.4 M -400.0,211.9 M -400.0,205.1 M -400.0,198.1 M -400.0,190.9 M -400.0,183.7 M -400.0,176.3 M -400.0,169.0 M -400.0,161.7 L -367.4,154.5 L -328.1,147.5 L -288.8,140.8 L -249.5,134.2 L -210.2,128.1 L -170.9,122.2 L -131.6,116.8 L -92.2,111.9 L -52.9,107.4 L -13.6,103.4 L 25.7,100.1 L 65.0,97.2 L 104.3,95.0 L 143.6,93.4 L 182.9,92.5 L 222.2,92.2 L 261.6,92.5 L 300.9,93.4 L 340.2,95.0 L 379.5,97.2 L 418.8,100.1 L 458.1,103.4 L 497.4,107.4 L 536.8,111.9 L 576.1,116.8 L 615.4,122.2 L 654.7,128.1 L 694.0,134.2 L 733.3,140.8 L 772.6,147.5 L 811.9,154.5 L 851.2,161.7 L 890.6,169.0 L 929.9,176.3 L 969.2,183.7 L 1008.5,190.9 L 1047.8,198.1 L 1087.1,205.1 L 1126.4,211.9 L 1165.8,218.4 L 1200.0,224.6 M 1200.0,235.8 M 1200.0,240.8 M 1200.0,245.3 M 1200.0,249.2 M 1200.0,252.6 M 1200.0,255.4 M 1200.0,257.6 M 1200.0,259.2 M 1200.0,260.2 M 1200.0,260.5 M 1200.0,260.2 M 1200.0,259.2 M 1200.0,257.6 M 1200.0,255.4 M 1200.0,252.6 M 1200.0,249.2 M 1200.0,245.3 M 1200.0,240.8 M 1200.0,235.8 M 1200.0,230.4 M 1200.0,224.6 M 1200.0,218.4 M 1200.0,211.9 M 1200.0,205.1 M 1200.0,198.1 M 1200.0,190.9 M 1200.0,183.7 M 1200.0,176.3 M 1200.0,169.0 M 1200.0,161.7 M 1200.0,154.5 M 1200.0,147.5 M 1200.0,140.8 M 1200.0,134.3 M 1200.0,128.1 M 1200.0,122.2 M 1200.0,116.8 M 1200.0,111.9 M 1200.0,107.4 M 1200.0,103.4 M 1200.0,100.1 M 1200.0,97.2 M 1200.0,95.0 M 1200.0,93.4 M 1200.0,92.5 M 1200.0,92.2 M 1200.0,92.5 M 1200.0,93.4 M 1200.0,95.0 M 1200.0,97.2 M 1200.0,100.1 M 1200.0,103.4 M 1200.0,107.4 M 1200.0,111.9 M 1200.0,116.8 M 1200.0,122.2 M 1200.0,128.1 M 1200.0,134.2 M 1200.0,140.8 M 1200.0,147.5 M 1200.0,154.5 M 1200.0,161.7 M 1200.0,169.0 M 1200.0,176.3 M 1200.0,183.7 M 1200.0,190.9 M 1200.0,198.1 M 1200.0,205.1 M 1200.0,211.9 M 1200.0,218.4 M 1200.0,224.6 M 1200.0,230.4 M 1200.0,235.8 M 1200.0,240.8 M 1200.0,245.3 M 1200.0,249.2 M 1200.0,252.6 M 1200.0,255.4 M 1200.0,257.6 M 1200.0,259.2 M 1200.0,260.2 M 1200.0,260.5 M -400.0,260.5 " />
<path class="plot07" d=" M -400.0,-300.0 L -400.0,-300.0 M -400.0,-300.0 M -400.0,-300.0 M -400.0,-300.0 M -400.0,-273.4 M -400.0,-202.0 M -400.0,-145.9 M -400.0,-100.5 M -400.0,-62.9 M -400.0,-31.1 M -400.0,-3.7 M -400.0,20.1 M -400.0,41.1 M -400.0,59.9 M -400.0,76.8 M -400.0,92.2 M -400.0,106.3 M -400.0,119.3 L -367.4,131.3 L -328.1,142.6 L -288.8,153.3 L -249.5,163.3 L -210.2,172.9 L -170.9,182.0 L -131.6,190.8 L -92.2,199.2 L -52.9,207.4 L -13.6,215.4 L 25.7,223.2 L 65.0,230.8 L 104.3,238.3 L 143.6,245.8 L 182.9,253.2 L 222.2,260.5 L 261.6,267.8 L 300.9,275.2 L 340.2,282.7 L 379.5,290.2 L 418.8,297.8 L 458.1,305.6 L 497.4,313.6 L 536.8,321.8 L 576.1,330.2 L 615.4,339.0 L 654.7,348.1 L 694.0,357.7 L 733.3,367.7 L 772.6,378.4 L 811.9,389.7 L 851.2,401.7 L 890.6,414.7 L 929.9,428.8 L 969.2,444.2 L 1008.5,461.1 L 1047.8,479.9 L 1087.1,500.9 L 1126.4,524.7 L 1165.8,552.1 L 1200.0,583.9 M 1200.0,666.9 M 1200.0,723.0 M 1200.0,794.4 M 1200.0,888.7 M 1200.0,900.0 M 1200.0,900.0 M 1200.0,900.0 M 1200.0,900.0 M 1200.0,900.0 M 1200.0,900.0 M 1200.0,-300.0 M 1200.0,-300.0 M 1200.0,-300.0 M 1200.0,-300.0 M 1200.0,-300.0 M 1200.0,-300.0 M 1200.0,-273.4 M 1200.0,-202.0 M 1200.0,-145.9 M 1200.0,-100.5 M 1200.0,-62.9 M 1200.0,-31.1 M 1200.0,-3.7 M 1200.0,20.1 M 1200.0,41.1 M 1200.0,59.9 M 1200.0,76.8 M 1200.0,92.2 M 1200.0,106.3 M 1200.0,119.3 M 1200.0,131.3 M 1200.0,142.6 M 1200.0,153.3 M 1200.0,163.3 M 1200.0,172.9 M 1200.0,182.0 M 1200.0,190.8 M 1200.0,199.2 M 1200.0,207.4 M 1200.0,215.4 M 1200.0,223.2 M 1200.0,230.8 M 1200.0,238.3 M 1200.0,245.8 M 1200.0,253.2 M 1200.0,260.5 M 1200.0,267.8 M 1200.0,275.2 M 1200.0,282.7 M 1200.0,290.2 M 1200.0,297.8 M 1200.0,305.6 M 1200.0,313.6 M 1200.0,321.8 M 1200.0,330.2 M 1200.0,339.0 M 1200.0,348.1 M 1200.0,357.7 M 1200.0,367.7 M 1200.0,378.4 M 1200.0,389.7 M 1200.0,401.7 M 1200.0,414.7 M 1200.0,428.8 M 1200.0,444.2 M 1200.0,461.1 M 1200.0,479.9 M 1200.0,500.9 M 1200.0,524.7 M 1200.0,552.1 M 1200.0,583.9 M 1200.0,621.5 M 1200.0,666.9 M 1200.0,723.0 M 1200.0,794.4 M 1200.0,888.7 M 1200.0,900.0 M 1200.0,900.0 M 1200.0,900.0 M 1200.0,900.0 M 1200.0,900.0 M 1200.0,900.0 M -400.0,-300.0 " />
<path class="plot08" d=" M -400.0,141.5 M 1200.0,379.5 M -400.0,141.5 m -1.8,0.0 l -1.8,-3.5 l 3.5,1.8 l 3.5,-1.8 l -1.8,3.5 l 1.8,3.5 l -3.5,-1.8 l -3.5,1.8 l 1.8,-3.5 m 1.8,0.0 m 0.0,-4.2 c 2.3,0.0 4.2,2.3 4.2,4.2 c 0.0,2.3 -2.3,4.2 -4.2,4.2 c -2.3,0.0 -4.2,-2.3 -4.2,-4.2 c 0.0,-2.3 2.3,-4.2 4.2,-4.2 m 0.0,4.2 M 1200.0,379.5 m -1.8,0.0 l -1.8,-3.5 l 3.5,1.8 l 3.5,-1.8 l -1.8,3.5 l 1.8,3.5 l -3.5,-1.8 l -3.5,1.8 l 1.8,-3.5 m 1.8,0.0 m 0.0,-4.2 c 2.3,0.0 4.2,2.3 4.2,4.2 c 0.0,2.3 -2.3,4.2 -4.2,4.2 c -2.3,0.0 -4.2,-2.3 -4.2,-4.2 c 0.0,-2.3 2.3,-4.2 4.2,-4.2 m 0.0,4.2 " />
</g>
<text x="379.50" y="541.00" class="xtitle" >Degrees</text>
<text x="23.00" y="260.50" class="ytitle" transform="matrix(0.00,-1.00,1.00,0.00,-237.50,283.50)">Function Value</text>
<text x="714.00" y="63.25" class="legend headline" >Legends:</text>
<text x="720.50" y="82.75" class="plot03 legend" >sin(n)</text>
<text x="720.50" y="102.25" class="plot04 legend" >cos(n)</text>
<text x="720.50" y="121.75" class="plot05 legend" >tan(n)</text>
<text x="720.50" y="141.25" class="plot06 legend" >sin²(n)</text>
<text x="720.50" y="160.75" class="plot07 legend" >cot(n)</text>
<text x="720.50" y="180.25" class="plot08 legend" >sin=cos</text>
<path class="legend" d=" M 786.0,34.0 Q 792.0,34.0, 792.0,40.0 L 792.0,193.8 Q 792.0,199.8, 786.0,199.8 L 707.0,199.8 Q 701.0,199.8, 701.0,193.8 L 701.0,40.0 Q 701.0,34.0, 707.0,34.0 Z " />
<text x="400.00" y="592.00" class="subtitle" >Data by numbers®</text>
<text x="400.00" y="573.00" class="title" >Trigonometric Functions</text>

</svg>
