<?xml version="1.0" encoding="UTF-8" standalone="no"?>
<svg id="svg-ex3" width="800" height="600" xmlns="http://www.w3.org/2000/svg">
<defs>
<clipPath id="plotable">
<rect x="58.0" y="1.0" width="643.0" height="519.5" rx="0.0"  />
</clipPath>
</defs>
<style>
svg#svg-ex3 { background-color: #ffedcc }
#svg-ex3 path.lightBG { fill: rgba(220,220,220,0.667) }
#svg-ex3 path.midBG { fill: rgba(120,120,120,0.667) }
#svg-ex3 path.darkBG { fill: rgba(35,35,35,0.667) }
#svg-ex3 g.plotarea { opacity: 1.0 }
#svg-ex3 g.plotarea path:hover { stroke-width: 5.0 }
#svg-ex3 path { stroke-width: 2.0; fill: none; stroke-linecap: round }
#svg-ex3 path.axes { stroke: black }
#svg-ex3 path.xlabel, #svg-ex3 path.ylabel { stroke: silver; stroke-width: 1 }
#svg-ex3 text { font-family: serif }
#svg-ex3 text.legend { font-size: 13.0px }
#svg-ex3 text.legend.headline { font-size: 16.2px; font-weight: bold }
#svg-ex3 text.subtitle { font-size: 15.0px; text-anchor: middle }
#svg-ex3 text.title { font-size: 25.0px; text-anchor: middle }
#svg-ex3 text.xlabel { font-size: 10.0px; text-anchor: middle }
#svg-ex3 text.xtitle, #svg-ex3 text.ytitle { font-size: 12.0px; text-anchor: middle }
#svg-ex3 text.ylabel { font-size: 10.0px; text-anchor: end; dominant-baseline: middle }
#svg-ex3 path.plot05 { stroke: #ff0000 }
#svg-ex3 text.plot05, #svg-ex3 rect.plot05 { fill: #ff0000; stroke: #ff0000 }
#svg-ex3 path.plot05.fill { stroke: #ff0000; fill: #ff0000; fill-opacity: 0.75 }
#svg-ex3 path.plot07 { stroke: #008000 }
#svg-ex3 text.plot07, #svg-ex3 rect.plot07 { fill: #008000; stroke: #008000 }
#svg-ex3 path.plot07.fill { stroke: #008000; fill: #008000; fill-opacity: 0.75 }
#svg-ex3 rect.legend { fill: silver; stroke: silver; fill-opacity: 0.1; stroke-width: 1.5 }
</style>
<text x="117.42" y="526.00" class="xlabel" >30</text>
<text x="169.83" y="526.00" class="xlabel" >60</text>
<text x="222.25" y="526.00" class="xlabel" >90</text>
<text x="274.67" y="526.00" class="xlabel" >120</text>
<text x="327.08" y="526.00" class="xlabel" >150</text>
<text x="379.50" y="526.00" class="xlabel" >180</text>
<text x="431.92" y="526.00" class="xlabel" >210</text>
<text x="484.33" y="526.00" class="xlabel" >240</text>
<text x="536.75" y="526.00" class="xlabel" >270</text>
<text x="589.17" y="526.00" class="xlabel" >300</text>
<text x="641.58" y="526.00" class="xlabel" >330</text>
<text x="694.00" y="526.00" class="xlabel" >360</text>
<path class="xlabel" d=" M 117.4,513.5 V 8.0 M 169.8,513.5 V 8.0 M 222.2,513.5 V 8.0 M 274.7,513.5 V 8.0 M 327.1,513.5 V 8.0 M 379.5,513.5 V 8.0 M 431.9,513.5 V 8.0 M 484.3,513.5 V 8.0 M 536.8,513.5 V 8.0 M 589.2,513.5 V 8.0 M 641.6,513.5 V 8.0 M 694.0,513.5 V 8.0 " />
<text x="63.00" y="218.62" class="ylabel" >0.25</text>
<text x="63.00" y="302.88" class="ylabel" >-0.25</text>
<text x="63.00" y="176.50" class="ylabel" >0.50</text>
<text x="63.00" y="345.00" class="ylabel" >-0.50</text>
<text x="63.00" y="134.38" class="ylabel" >0.75</text>
<text x="63.00" y="387.12" class="ylabel" >-0.75</text>
<text x="63.00" y="92.25" class="ylabel" >1.00</text>
<text x="63.00" y="429.25" class="ylabel" >-1.00</text>
<text x="63.00" y="50.12" class="ylabel" >1.25</text>
<text x="63.00" y="471.38" class="ylabel" >-1.25</text>
<text x="63.00" y="8.00" class="ylabel" >1.50</text>
<text x="63.00" y="513.50" class="ylabel" >-1.50</text>
<path class="ylabel" d=" M 65.0,218.6 H 694.0 M 65.0,302.9 H 694.0 M 65.0,176.5 H 694.0 M 65.0,345.0 H 694.0 M 65.0,134.4 H 694.0 M 65.0,387.1 H 694.0 M 65.0,92.2 H 694.0 M 65.0,429.2 H 694.0 M 65.0,50.1 H 694.0 M 65.0,471.4 H 694.0 M 65.0,8.0 H 694.0 M 65.0,513.5 H 694.0 " />
<path class="axes" d=" M 65.0,260.8 H 694.0 M 65.0,513.5 V 8.0 " />
<g clip-path="url(#plotable)" class="plotarea">
<path class="plot05" d=" M 65.0,260.8 L 69.4,253.4 L 73.7,246.0 L 78.1,238.6 L 82.5,231.0 L 86.8,223.4 L 91.2,215.6 L 95.6,207.6 L 99.9,199.4 L 104.3,191.0 L 108.7,182.2 L 113.0,173.0 L 117.4,163.5 L 121.8,153.4 L 126.2,142.8 L 130.5,131.5 L 134.9,119.4 L 139.3,106.3 L 143.6,92.2 L 148.0,76.9 L 152.4,59.9 L 156.7,41.2 L 161.1,20.1 L 165.5,-3.7 L 169.8,-31.1 L 174.2,-62.9 L 178.6,-100.6 L 182.9,-146.0 L 187.3,-202.2 L 191.7,-273.7 L 196.0,-300.0 M 204.8,-300.0 M 209.1,-300.0 M 213.5,-300.0 M 217.9,-300.0 M 222.2,-300.0 M 226.6,900.0 M 231.0,900.0 M 235.4,900.0 M 239.7,900.0 M 244.1,900.0 L 248.5,889.6 L 252.8,795.2 L 257.2,723.7 L 261.6,667.5 L 265.9,622.1 L 270.3,584.4 L 274.7,552.6 L 279.0,525.2 L 283.4,501.4 L 287.8,480.3 L 292.1,461.6 L 296.5,444.6 L 300.9,429.2 L 305.2,415.2 L 309.6,402.1 L 314.0,390.0 L 318.3,378.7 L 322.7,368.1 L 327.1,358.0 L 331.5,348.5 L 335.8,339.3 L 340.2,330.5 L 344.6,322.1 L 348.9,313.9 L 353.3,305.9 L 357.7,298.1 L 362.0,290.5 L 366.4,282.9 L 370.8,275.5 L 375.1,268.1 L 379.5,260.8 L 383.9,253.4 L 388.2,246.0 L 392.6,238.6 L 397.0,231.0 L 401.3,223.4 L 405.7,215.6 L 410.1,207.6 L 414.4,199.4 L 418.8,191.0 L 423.2,182.2 L 427.5,173.0 L 431.9,163.5 L 436.3,153.4 L 440.7,142.8 L 445.0,131.5 L 449.4,119.4 L 453.8,106.3 L 458.1,92.2 L 462.5,76.9 L 466.9,59.9 L 471.2,41.2 L 475.6,20.1 L 480.0,-3.7 L 484.3,-31.1 L 488.7,-62.9 L 493.1,-100.6 L 497.4,-146.0 L 501.8,-202.2 L 506.2,-273.7 L 510.5,-300.0 M 519.3,-300.0 M 523.6,-300.0 M 528.0,-300.0 M 532.4,-300.0 M 536.8,-300.0 M 541.1,900.0 M 545.5,900.0 M 549.9,900.0 M 554.2,900.0 M 558.6,900.0 L 563.0,889.6 L 567.3,795.2 L 571.7,723.7 L 576.1,667.5 L 580.4,622.1 L 584.8,584.4 L 589.2,552.6 L 593.5,525.2 L 597.9,501.4 L 602.3,480.3 L 606.6,461.6 L 611.0,444.6 L 615.4,429.2 L 619.7,415.2 L 624.1,402.1 L 628.5,390.0 L 632.8,378.7 L 637.2,368.1 L 641.6,358.0 L 646.0,348.5 L 650.3,339.3 L 654.7,330.5 L 659.1,322.1 L 663.4,313.9 L 667.8,305.9 L 672.2,298.1 L 676.5,290.5 L 680.9,282.9 L 685.3,275.5 L 689.6,268.1 L 694.0,260.8 M 65.0,260.8 " />
<path class="plot07" d=" M 69.4,-300.0 L 73.7,-300.0 M 82.5,-300.0 M 86.8,-300.0 M 91.2,-300.0 L 95.6,-273.7 L 99.9,-202.2 L 104.3,-146.0 L 108.7,-100.6 L 113.0,-62.9 L 117.4,-31.1 L 121.8,-3.7 L 126.2,20.1 L 130.5,41.2 L 134.9,59.9 L 139.3,76.9 L 143.6,92.2 L 148.0,106.3 L 152.4,119.4 L 156.7,131.5 L 161.1,142.8 L 165.5,153.4 L 169.8,163.5 L 174.2,173.0 L 178.6,182.2 L 182.9,191.0 L 187.3,199.4 L 191.7,207.6 L 196.0,215.6 L 200.4,223.4 L 204.8,231.0 L 209.1,238.6 L 213.5,246.0 L 217.9,253.4 L 222.2,260.8 L 226.6,268.1 L 231.0,275.5 L 235.4,282.9 L 239.7,290.5 L 244.1,298.1 L 248.5,305.9 L 252.8,313.9 L 257.2,322.1 L 261.6,330.5 L 265.9,339.3 L 270.3,348.5 L 274.7,358.0 L 279.0,368.1 L 283.4,378.7 L 287.8,390.0 L 292.1,402.1 L 296.5,415.2 L 300.9,429.2 L 305.2,444.6 L 309.6,461.6 L 314.0,480.3 L 318.3,501.4 L 322.7,525.2 L 327.1,552.6 L 331.5,584.4 L 335.8,622.1 L 340.2,667.5 L 344.6,723.7 L 348.9,795.2 L 353.3,889.6 L 357.7,900.0 M 366.4,900.0 M 370.8,900.0 M 375.1,900.0 M 379.5,900.0 M 383.9,-300.0 M 388.2,-300.0 M 392.6,-300.0 M 397.0,-300.0 M 401.3,-300.0 M 405.7,-300.0 L 410.1,-273.7 L 414.4,-202.2 L 418.8,-146.0 L 423.2,-100.6 L 427.5,-62.9 L 431.9,-31.1 L 436.3,-3.7 L 440.7,20.1 L 445.0,41.2 L 449.4,59.9 L 453.8,76.9 L 458.1,92.2 L 462.5,106.3 L 466.9,119.4 L 471.2,131.5 L 475.6,142.8 L 480.0,153.4 L 484.3,163.5 L 488.7,173.0 L 493.1,182.2 L 497.4,191.0 L 501.8,199.4 L 506.2,207.6 L 510.5,215.6 L 514.9,223.4 L 519.3,231.0 L 523.6,238.6 L 528.0,246.0 L 532.4,253.4 L 536.8,260.7 L 541.1,268.1 L 545.5,275.5 L 549.9,282.9 L 554.2,290.5 L 558.6,298.1 L 563.0,305.9 L 567.3,313.9 L 571.7,322.1 L 576.1,330.5 L 580.4,339.3 L 584.8,348.5 L 589.2,358.0 L 593.5,368.1 L 597.9,378.7 L 602.3,390.0 L 606.6,402.1 L 611.0,415.2 L 615.4,429.2 L 619.7,444.6 L 624.1,461.6 L 628.5,480.3 L 632.8,501.4 L 637.2,525.2 L 641.6,552.6 L 646.0,584.4 L 650.3,622.1 L 654.7,667.5 L 659.1,723.7 L 663.4,795.2 L 667.8,889.6 L 672.2,900.0 M 680.9,900.0 M 685.3,900.0 M 689.6,900.0 M 694.0,900.0 M 69.4,-300.0 " />
</g>
<text x="379.50" y="541.00" class="xtitle" >Degrees</text>
<text x="23.00" y="260.75" class="ytitle" transform="matrix(0.00,-1.00,1.00,0.00,-237.75,283.75)">Function Value</text>
<text x="714.00" y="63.25" class="legend headline" >Legends:</text>
<text x="720.50" y="82.75" class="plot05 legend" >tan(n)</text>
<text x="720.50" y="102.25" class="plot07 legend" >cot(n)</text>
<path class="legend" d=" M 786.0,34.0 Q 792.0,34.0, 792.0,40.0 L 792.0,115.8 Q 792.0,121.8, 786.0,121.8 L 707.0,121.8 Q 701.0,121.8, 701.0,115.8 L 701.0,40.0 Q 701.0,34.0, 707.0,34.0 Z " />
<text x="400.00" y="592.00" class="subtitle" >Data by numbers®</text>
<text x="400.00" y="573.00" class="title" >Trigonometric Functions</text>

</svg>
