<?xml version="1.0" encoding="UTF-8" standalone="no"?>
<svg id="svg-ex4" width="800" height="600" xmlns="http://www.w3.org/2000/svg">
<defs>
<clipPath id="plotable">
<rect x="57.5" y="0.5" width="650.5" height="521.5" rx="0.0"  />
</clipPath>
</defs>
<style>
svg#svg-ex4 { background-color: #ffedcc }
#svg-ex4 g.plotarea { opacity: 1.0 }
#svg-ex4 g.plotarea path:hover { stroke-width: 5.0 }
#svg-ex4 path { stroke-width: 2.0; fill: none; stroke-linecap: round }
#svg-ex4 path.axes { stroke: black }
#svg-ex4 path.xlabel, #svg-ex4 path.ylabel { stroke: silver; stroke-width: 1 }
#svg-ex4 text { font-family: serif }
#svg-ex4 text.legend { font-size: 13.0px }
#svg-ex4 text.legend.headline { font-size: 16.2px; font-weight: bold }
#svg-ex4 text.subtitle { font-size: 15.0px; text-anchor: middle }
#svg-ex4 text.title { font-size: 25.0px; text-anchor: middle }
#svg-ex4 text.xlabel { font-size: 10.0px; text-anchor: middle }
#svg-ex4 text.xtitle, #svg-ex4 text.ytitle { font-size: 12.0px; text-anchor: middle }
#svg-ex4 text.ylabel { font-size: 10.0px; text-anchor: end; dominant-baseline: middle }
#svg-ex4 path.plot03 { stroke: #ff0000; fill: none; fill-opacity: 0.75 }
#svg-ex4 text.plot03, #svg-ex4 rect.plot03 { fill: #ff0000; stroke: #ff0000 }
#svg-ex4 path.plot04 { stroke: #008000; fill: none; fill-opacity: 0.75 }
#svg-ex4 text.plot04, #svg-ex4 rect.plot04 { fill: #008000; stroke: #008000 }
#svg-ex4 path.plot05 { stroke: #ff00ff; fill: none; fill-opacity: 0.75 }
#svg-ex4 text.plot05, #svg-ex4 rect.plot05 { fill: #ff00ff; stroke: #ff00ff }
#svg-ex4 path.plot06 { stroke: #0000ff; fill: none; fill-opacity: 0.75 }
#svg-ex4 text.plot06, #svg-ex4 rect.plot06 { fill: #0000ff; stroke: #0000ff }
#svg-ex4 path.plot07 { stroke: #dc143c; fill: none; fill-opacity: 0.75 }
#svg-ex4 text.plot07, #svg-ex4 rect.plot07 { fill: #dc143c; stroke: #dc143c }
#svg-ex4 path.plot08 { stroke: #f4a460; fill: none; fill-opacity: 0.75 }
#svg-ex4 text.plot08, #svg-ex4 rect.plot08 { fill: #f4a460; stroke: #f4a460 }
#svg-ex4 rect.legend { fill: silver; stroke: silver; fill-opacity: 0.1; stroke-width: 1.5 }
</style>
<path class="xlabel" d=" M 99.9,515.0 V 7.5 M 135.2,515.0 V 7.5 M 170.6,515.0 V 7.5 M 205.9,515.0 V 7.5 M 241.3,515.0 V 7.5 M 276.7,515.0 V 7.5 M 312.0,515.0 V 7.5 M 347.4,515.0 V 7.5 M 382.8,515.0 V 7.5 M 418.1,515.0 V 7.5 M 453.5,515.0 V 7.5 M 488.8,515.0 V 7.5 M 524.2,515.0 V 7.5 M 559.6,515.0 V 7.5 M 594.9,515.0 V 7.5 M 630.3,515.0 V 7.5 M 665.6,515.0 V 7.5 M 701.0,515.0 V 7.5 " />
<text x="99.86" y="527.50" class="xlabel" >20</text>
<text x="135.22" y="527.50" class="xlabel" >40</text>
<text x="170.58" y="527.50" class="xlabel" >60</text>
<text x="205.94" y="527.50" class="xlabel" >80</text>
<text x="241.31" y="527.50" class="xlabel" >100</text>
<text x="276.67" y="527.50" class="xlabel" >120</text>
<text x="312.03" y="527.50" class="xlabel" >140</text>
<text x="347.39" y="527.50" class="xlabel" >160</text>
<text x="382.75" y="527.50" class="xlabel" >180</text>
<text x="418.11" y="527.50" class="xlabel" >200</text>
<text x="453.47" y="527.50" class="xlabel" >220</text>
<text x="488.83" y="527.50" class="xlabel" >240</text>
<text x="524.19" y="527.50" class="xlabel" >260</text>
<text x="559.56" y="527.50" class="xlabel" >280</text>
<text x="594.92" y="527.50" class="xlabel" >300</text>
<text x="630.28" y="527.50" class="xlabel" >320</text>
<text x="665.64" y="527.50" class="xlabel" >340</text>
<text x="701.00" y="527.50" class="xlabel" >360</text>
<path class="ylabel" d=" M 64.5,219.0 H 701.0 M 64.5,303.5 H 701.0 M 64.5,176.7 H 701.0 M 64.5,345.8 H 701.0 M 64.5,134.4 H 701.0 M 64.5,388.1 H 701.0 M 64.5,92.1 H 701.0 M 64.5,430.4 H 701.0 M 64.5,49.8 H 701.0 M 64.5,472.7 H 701.0 M 64.5,7.5 H 701.0 M 64.5,515.0 H 701.0 " />
<text x="62.50" y="218.96" class="ylabel" >0.25</text>
<text x="62.50" y="303.54" class="ylabel" >-0.25</text>
<text x="62.50" y="176.67" class="ylabel" >0.50</text>
<text x="62.50" y="345.83" class="ylabel" >-0.50</text>
<text x="62.50" y="134.38" class="ylabel" >0.75</text>
<text x="62.50" y="388.12" class="ylabel" >-0.75</text>
<text x="62.50" y="92.08" class="ylabel" >1.00</text>
<text x="62.50" y="430.42" class="ylabel" >-1.00</text>
<text x="62.50" y="49.79" class="ylabel" >1.25</text>
<text x="62.50" y="472.71" class="ylabel" >-1.25</text>
<text x="62.50" y="7.50" class="ylabel" >1.50</text>
<text x="62.50" y="515.00" class="ylabel" >-1.50</text>
<path class="axes" d=" M 64.5,261.2 H 701.0 M 64.5,515.0 V 7.5 " />
<g clip-path="url(#plotable)" class="plotarea">
<path class="plot03" d=" M 64.5,261.2 L 68.9,253.9 L 73.3,246.5 L 77.8,239.2 L 82.2,231.9 L 86.6,224.6 L 91.0,217.5 L 95.4,210.4 L 99.9,203.4 L 104.3,196.5 L 108.7,189.8 L 113.1,183.1 L 117.5,176.7 L 122.0,170.4 L 126.4,164.2 L 130.8,158.3 L 135.2,152.5 L 139.6,147.0 L 144.1,141.6 L 148.5,136.5 L 152.9,131.7 L 157.3,127.0 L 161.7,122.7 L 166.2,118.6 L 170.6,114.7 L 175.0,111.2 L 179.4,107.9 L 183.8,105.0 L 188.3,102.3 L 192.7,99.9 L 197.1,97.8 L 201.5,96.1 L 205.9,94.7 L 210.4,93.5 L 214.8,92.7 L 219.2,92.2 L 223.6,92.1 L 228.0,92.2 L 232.5,92.7 L 236.9,93.5 L 241.3,94.7 L 245.7,96.1 L 250.1,97.8 L 254.6,99.9 L 259.0,102.3 L 263.4,105.0 L 267.8,107.9 L 272.2,111.2 L 276.7,114.7 L 281.1,118.6 L 285.5,122.7 L 289.9,127.0 L 294.3,131.7 L 298.8,136.5 L 303.2,141.6 L 307.6,147.0 L 312.0,152.5 L 316.4,158.3 L 320.9,164.2 L 325.3,170.4 L 329.7,176.7 L 334.1,183.1 L 338.5,189.8 L 343.0,196.5 L 347.4,203.4 L 351.8,210.4 L 356.2,217.5 L 360.6,224.6 L 365.1,231.9 L 369.5,239.2 L 373.9,246.5 L 378.3,253.9 L 382.8,261.2 L 387.2,268.6 L 391.6,276.0 L 396.0,283.3 L 400.4,290.6 L 404.9,297.9 L 409.3,305.0 L 413.7,312.1 L 418.1,319.1 L 422.5,326.0 L 427.0,332.7 L 431.4,339.4 L 435.8,345.8 L 440.2,352.1 L 444.6,358.3 L 449.1,364.2 L 453.5,370.0 L 457.9,375.5 L 462.3,380.9 L 466.7,386.0 L 471.2,390.8 L 475.6,395.5 L 480.0,399.8 L 484.4,403.9 L 488.8,407.8 L 493.3,411.3 L 497.7,414.6 L 502.1,417.5 L 506.5,420.2 L 510.9,422.6 L 515.4,424.7 L 519.8,426.4 L 524.2,427.8 L 528.6,429.0 L 533.0,429.8 L 537.5,430.3 L 541.9,430.4 L 546.3,430.3 L 550.7,429.8 L 555.1,429.0 L 559.6,427.8 L 564.0,426.4 L 568.4,424.7 L 572.8,422.6 L 577.2,420.2 L 581.7,417.5 L 586.1,414.6 L 590.5,411.3 L 594.9,407.8 L 599.3,403.9 L 603.8,399.8 L 608.2,395.5 L 612.6,390.8 L 617.0,386.0 L 621.4,380.9 L 625.9,375.5 L 630.3,370.0 L 634.7,364.2 L 639.1,358.3 L 643.5,352.1 L 648.0,345.8 L 652.4,339.4 L 656.8,332.7 L 661.2,326.0 L 665.6,319.1 L 670.1,312.1 L 674.5,305.0 L 678.9,297.9 L 683.3,290.6 L 687.7,283.3 L 692.2,276.0 L 696.6,268.6 L 701.0,261.3 M 64.5,261.2 " />
<path class="plot04" d=" M 64.5,92.1 L 68.9,92.2 L 73.3,92.7 L 77.8,93.5 L 82.2,94.7 L 86.6,96.1 L 91.0,97.8 L 95.4,99.9 L 99.9,102.3 L 104.3,105.0 L 108.7,107.9 L 113.1,111.2 L 117.5,114.7 L 122.0,118.6 L 126.4,122.7 L 130.8,127.0 L 135.2,131.7 L 139.6,136.5 L 144.1,141.6 L 148.5,147.0 L 152.9,152.5 L 157.3,158.3 L 161.7,164.2 L 166.2,170.4 L 170.6,176.7 L 175.0,183.1 L 179.4,189.8 L 183.8,196.5 L 188.3,203.4 L 192.7,210.4 L 197.1,217.5 L 201.5,224.6 L 205.9,231.9 L 210.4,239.2 L 214.8,246.5 L 219.2,253.9 L 223.6,261.2 L 228.0,268.6 L 232.5,276.0 L 236.9,283.3 L 241.3,290.6 L 245.7,297.9 L 250.1,305.0 L 254.6,312.1 L 259.0,319.1 L 263.4,326.0 L 267.8,332.7 L 272.2,339.4 L 276.7,345.8 L 281.1,352.1 L 285.5,358.3 L 289.9,364.2 L 294.3,370.0 L 298.8,375.5 L 303.2,380.9 L 307.6,386.0 L 312.0,390.8 L 316.4,395.5 L 320.9,399.8 L 325.3,403.9 L 329.7,407.8 L 334.1,411.3 L 338.5,414.6 L 343.0,417.5 L 347.4,420.2 L 351.8,422.6 L 356.2,424.7 L 360.6,426.4 L 365.1,427.8 L 369.5,429.0 L 373.9,429.8 L 378.3,430.3 L 382.8,430.4 L 387.2,430.3 L 391.6,429.8 L 396.0,429.0 L 400.4,427.8 L 404.9,426.4 L 409.3,424.7 L 413.7,422.6 L 418.1,420.2 L 422.5,417.5 L 427.0,414.6 L 431.4,411.3 L 435.8,407.8 L 440.2,403.9 L 444.6,399.8 L 449.1,395.5 L 453.5,390.8 L 457.9,386.0 L 462.3,380.9 L 466.7,375.5 L 471.2,370.0 L 475.6,364.2 L 480.0,358.3 L 484.4,352.1 L 488.8,345.8 L 493.3,339.4 L 497.7,332.7 L 502.1,326.0 L 506.5,319.1 L 510.9,312.1 L 515.4,305.0 L 519.8,297.9 L 524.2,290.6 L 528.6,283.3 L 533.0,276.0 L 537.5,268.6 L 541.9,261.3 L 546.3,253.9 L 550.7,246.5 L 555.1,239.2 L 559.6,231.9 L 564.0,224.6 L 568.4,217.5 L 572.8,210.4 L 577.2,203.4 L 581.7,196.5 L 586.1,189.8 L 590.5,183.1 L 594.9,176.7 L 599.3,170.4 L 603.8,164.2 L 608.2,158.3 L 612.6,152.5 L 617.0,147.0 L 621.4,141.6 L 625.9,136.5 L 630.3,131.7 L 634.7,127.0 L 639.1,122.7 L 643.5,118.6 L 648.0,114.7 L 652.4,111.2 L 656.8,107.9 L 661.2,105.0 L 665.6,102.3 L 670.1,99.9 L 674.5,97.8 L 678.9,96.1 L 683.3,94.7 L 687.7,93.5 L 692.2,92.7 L 696.6,92.2 L 701.0,92.1 M 64.5,92.1 m -1.8,0.9 l -1.8,-3.5 v -1.8 h 1.8 l 3.5,3.5 l 1.8,3.5 v 1.8 h -1.8 l -3.5,-3.5 m 1.8,-0.9 M 77.8,93.5 m -1.8,0.9 l -1.8,-3.5 v -1.8 h 1.8 l 3.5,3.5 l 1.8,3.5 v 1.8 h -1.8 l -3.5,-3.5 m 1.8,-0.9 M 91.0,97.8 m -1.8,0.9 l -1.8,-3.5 v -1.8 h 1.8 l 3.5,3.5 l 1.8,3.5 v 1.8 h -1.8 l -3.5,-3.5 m 1.8,-0.9 M 104.3,105.0 m -1.8,0.9 l -1.8,-3.5 v -1.8 h 1.8 l 3.5,3.5 l 1.8,3.5 v 1.8 h -1.8 l -3.5,-3.5 m 1.8,-0.9 M 113.1,111.2 m -1.8,0.9 l -1.8,-3.5 v -1.8 h 1.8 l 3.5,3.5 l 1.8,3.5 v 1.8 h -1.8 l -3.5,-3.5 m 1.8,-0.9 M 122.0,118.6 m -1.8,0.9 l -1.8,-3.5 v -1.8 h 1.8 l 3.5,3.5 l 1.8,3.5 v 1.8 h -1.8 l -3.5,-3.5 m 1.8,-0.9 M 130.8,127.0 m -1.8,0.9 l -1.8,-3.5 v -1.8 h 1.8 l 3.5,3.5 l 1.8,3.5 v 1.8 h -1.8 l -3.5,-3.5 m 1.8,-0.9 M 139.6,136.5 m -1.8,0.9 l -1.8,-3.5 v -1.8 h 1.8 l 3.5,3.5 l 1.8,3.5 v 1.8 h -1.8 l -3.5,-3.5 m 1.8,-0.9 M 148.5,147.0 m -1.8,0.9 l -1.8,-3.5 v -1.8 h 1.8 l 3.5,3.5 l 1.8,3.5 v 1.8 h -1.8 l -3.5,-3.5 m 1.8,-0.9 M 157.3,158.3 m -1.8,0.9 l -1.8,-3.5 v -1.8 h 1.8 l 3.5,3.5 l 1.8,3.5 v 1.8 h -1.8 l -3.5,-3.5 m 1.8,-0.9 M 166.2,170.4 m -1.8,0.9 l -1.8,-3.5 v -1.8 h 1.8 l 3.5,3.5 l 1.8,3.5 v 1.8 h -1.8 l -3.5,-3.5 m 1.8,-0.9 M 175.0,183.1 m -1.8,0.9 l -1.8,-3.5 v -1.8 h 1.8 l 3.5,3.5 l 1.8,3.5 v 1.8 h -1.8 l -3.5,-3.5 m 1.8,-0.9 M 183.8,196.5 m -1.8,0.9 l -1.8,-3.5 v -1.8 h 1.8 l 3.5,3.5 l 1.8,3.5 v 1.8 h -1.8 l -3.5,-3.5 m 1.8,-0.9 M 192.7,210.4 m -1.8,0.9 l -1.8,-3.5 v -1.8 h 1.8 l 3.5,3.5 l 1.8,3.5 v 1.8 h -1.8 l -3.5,-3.5 m 1.8,-0.9 M 201.5,224.6 m -1.8,0.9 l -1.8,-3.5 v -1.8 h 1.8 l 3.5,3.5 l 1.8,3.5 v 1.8 h -1.8 l -3.5,-3.5 m 1.8,-0.9 M 210.4,239.2 m -1.8,0.9 l -1.8,-3.5 v -1.8 h 1.8 l 3.5,3.5 l 1.8,3.5 v 1.8 h -1.8 l -3.5,-3.5 m 1.8,-0.9 M 219.2,253.9 m -1.8,0.9 l -1.8,-3.5 v -1.8 h 1.8 l 3.5,3.5 l 1.8,3.5 v 1.8 h -1.8 l -3.5,-3.5 m 1.8,-0.9 M 228.0,268.6 m -1.8,0.9 l -1.8,-3.5 v -1.8 h 1.8 l 3.5,3.5 l 1.8,3.5 v 1.8 h -1.8 l -3.5,-3.5 m 1.8,-0.9 M 236.9,283.3 m -1.8,0.9 l -1.8,-3.5 v -1.8 h 1.8 l 3.5,3.5 l 1.8,3.5 v 1.8 h -1.8 l -3.5,-3.5 m 1.8,-0.9 M 245.7,297.9 m -1.8,0.9 l -1.8,-3.5 v -1.8 h 1.8 l 3.5,3.5 l 1.8,3.5 v 1.8 h -1.8 l -3.5,-3.5 m 1.8,-0.9 M 254.6,312.1 m -1.8,0.9 l -1.8,-3.5 v -1.8 h 1.8 l 3.5,3.5 l 1.8,3.5 v 1.8 h -1.8 l -3.5,-3.5 m 1.8,-0.9 M 263.4,326.0 m -1.8,0.9 l -1.8,-3.5 v -1.8 h 1.8 l 3.5,3.5 l 1.8,3.5 v 1.8 h -1.8 l -3.5,-3.5 m 1.8,-0.9 M 272.2,339.4 m -1.8,0.9 l -1.8,-3.5 v -1.8 h 1.8 l 3.5,3.5 l 1.8,3.5 v 1.8 h -1.8 l -3.5,-3.5 m 1.8,-0.9 M 281.1,352.1 m -1.8,0.9 l -1.8,-3.5 v -1.8 h 1.8 l 3.5,3.5 l 1.8,3.5 v 1.8 h -1.8 l -3.5,-3.5 m 1.8,-0.9 M 289.9,364.2 m -1.8,0.9 l -1.8,-3.5 v -1.8 h 1.8 l 3.5,3.5 l 1.8,3.5 v 1.8 h -1.8 l -3.5,-3.5 m 1.8,-0.9 M 298.8,375.5 m -1.8,0.9 l -1.8,-3.5 v -1.8 h 1.8 l 3.5,3.5 l 1.8,3.5 v 1.8 h -1.8 l -3.5,-3.5 m 1.8,-0.9 M 307.6,386.0 m -1.8,0.9 l -1.8,-3.5 v -1.8 h 1.8 l 3.5,3.5 l 1.8,3.5 v 1.8 h -1.8 l -3.5,-3.5 m 1.8,-0.9 M 316.4,395.5 m -1.8,0.9 l -1.8,-3.5 v -1.8 h 1.8 l 3.5,3.5 l 1.8,3.5 v 1.8 h -1.8 l -3.5,-3.5 m 1.8,-0.9 M 325.3,403.9 m -1.8,0.9 l -1.8,-3.5 v -1.8 h 1.8 l 3.5,3.5 l 1.8,3.5 v 1.8 h -1.8 l -3.5,-3.5 m 1.8,-0.9 M 334.1,411.3 m -1.8,0.9 l -1.8,-3.5 v -1.8 h 1.8 l 3.5,3.5 l 1.8,3.5 v 1.8 h -1.8 l -3.5,-3.5 m 1.8,-0.9 M 343.0,417.5 m -1.8,0.9 l -1.8,-3.5 v -1.8 h 1.8 l 3.5,3.5 l 1.8,3.5 v 1.8 h -1.8 l -3.5,-3.5 m 1.8,-0.9 M 351.8,422.6 m -1.8,0.9 l -1.8,-3.5 v -1.8 h 1.8 l 3.5,3.5 l 1.8,3.5 v 1.8 h -1.8 l -3.5,-3.5 m 1.8,-0.9 M 365.1,427.8 m -1.8,0.9 l -1.8,-3.5 v -1.8 h 1.8 l 3.5,3.5 l 1.8,3.5 v 1.8 h -1.8 l -3.5,-3.5 m 1.8,-0.9 M 378.3,430.3 m -1.8,0.9 l -1.8,-3.5 v -1.8 h 1.8 l 3.5,3.5 l 1.8,3.5 v 1.8 h -1.8 l -3.5,-3.5 m 1.8,-0.9 M 391.6,429.8 m -1.8,0.9 l -1.8,-3.5 v -1.8 h 1.8 l 3.5,3.5 l 1.8,3.5 v 1.8 h -1.8 l -3.5,-3.5 m 1.8,-0.9 M 404.9,426.4 m -1.8,0.9 l -1.8,-3.5 v -1.8 h 1.8 l 3.5,3.5 l 1.8,3.5 v 1.8 h -1.8 l -3.5,-3.5 m 1.8,-0.9 M 418.1,420.2 m -1.8,0.9 l -1.8,-3.5 v -1.8 h 1.8 l 3.5,3.5 l 1.8,3.5 v 1.8 h -1.8 l -3.5,-3.5 m 1.8,-0.9 M 427.0,414.6 m -1.8,0.9 l -1.8,-3.5 v -1.8 h 1.8 l 3.5,3.5 l 1.8,3.5 v 1.8 h -1.8 l -3.5,-3.5 m 1.8,-0.9 M 435.8,407.8 m -1.8,0.9 l -1.8,-3.5 v -1.8 h 1.8 l 3.5,3.5 l 1.8,3.5 v 1.8 h -1.8 l -3.5,-3.5 m 1.8,-0.9 M 444.6,399.8 m -1.8,0.9 l -1.8,-3.5 v -1.8 h 1.8 l 3.5,3.5 l 1.8,3.5 v 1.8 h -1.8 l -3.5,-3.5 m 1.8,-0.9 M 453.5,390.8 m -1.8,0.9 l -1.8,-3.5 v -1.8 h 1.8 l 3.5,3.5 l 1.8,3.5 v 1.8 h -1.8 l -3.5,-3.5 m 1.8,-0.9 M 462.3,380.9 m -1.8,0.9 l -1.8,-3.5 v -1.8 h 1.8 l 3.5,3.5 l 1.8,3.5 v 1.8 h -1.8 l -3.5,-3.5 m 1.8,-0.9 M 471.2,370.0 m -1.8,0.9 l -1.8,-3.5 v -1.8 h 1.8 l 3.5,3.5 l 1.8,3.5 v 1.8 h -1.8 l -3.5,-3.5 m 1.8,-0.9 M 480.0,358.3 m -1.8,0.9 l -1.8,-3.5 v -1.8 h 1.8 l 3.5,3.5 l 1.8,3.5 v 1.8 h -1.8 l -3.5,-3.5 m 1.8,-0.9 M 488.8,345.8 m -1.8,0.9 l -1.8,-3.5 v -1.8 h 1.8 l 3.5,3.5 l 1.8,3.5 v 1.8 h -1.8 l -3.5,-3.5 m 1.8,-0.9 M 497.7,332.7 m -1.8,0.9 l -1.8,-3.5 v -1.8 h 1.8 l 3.5,3.5 l 1.8,3.5 v 1.8 h -1.8 l -3.5,-3.5 m 1.8,-0.9 M 506.5,319.1 m -1.8,0.9 l -1.8,-3.5 v -1.8 h 1.8 l 3.5,3.5 l 1.8,3.5 v 1.8 h -1.8 l -3.5,-3.5 m 1.8,-0.9 M 515.4,305.0 m -1.8,0.9 l -1.8,-3.5 v -1.8 h 1.8 l 3.5,3.5 l 1.8,3.5 v 1.8 h -1.8 l -3.5,-3.5 m 1.8,-0.9 M 524.2,290.6 m -1.8,0.9 l -1.8,-3.5 v -1.8 h 1.8 l 3.5,3.5 l 1.8,3.5 v 1.8 h -1.8 l -3.5,-3.5 m 1.8,-0.9 M 533.0,276.0 m -1.8,0.9 l -1.8,-3.5 v -1.8 h 1.8 l 3.5,3.5 l 1.8,3.5 v 1.8 h -1.8 l -3.5,-3.5 m 1.8,-0.9 M 541.9,261.3 m -1.8,0.9 l -1.8,-3.5 v -1.8 h 1.8 l 3.5,3.5 l 1.8,3.5 v 1.8 h -1.8 l -3.5,-3.5 m 1.8,-0.9 M 550.7,246.5 m -1.8,0.9 l -1.8,-3.5 v -1.8 h 1.8 l 3.5,3.5 l 1.8,3.5 v 1.8 h -1.8 l -3.5,-3.5 m 1.8,-0.9 M 559.6,231.9 m -1.8,0.9 l -1.8,-3.5 v -1.8 h 1.8 l 3.5,3.5 l 1.8,3.5 v 1.8 h -1.8 l -3.5,-3.5 m 1.8,-0.9 M 568.4,217.5 m -1.8,0.9 l -1.8,-3.5 v -1.8 h 1.8 l 3.5,3.5 l 1.8,3.5 v 1.8 h -1.8 l -3.5,-3.5 m 1.8,-0.9 M 577.2,203.4 m -1.8,0.9 l -1.8,-3.5 v -1.8 h 1.8 l 3.5,3.5 l 1.8,3.5 v 1.8 h -1.8 l -3.5,-3.5 m 1.8,-0.9 M 586.1,189.8 m -1.8,0.9 l -1.8,-3.5 v -1.8 h 1.8 l 3.5,3.5 l 1.8,3.5 v 1.8 h -1.8 l -3.5,-3.5 m 1.8,-0.9 M 594.9,176.7 m -1.8,0.9 l -1.8,-3.5 v -1.8 h 1.8 l 3.5,3.5 l 1.8,3.5 v 1.8 h -1.8 l -3.5,-3.5 m 1.8,-0.9 M 603.8,164.2 m -1.8,0.9 l -1.8,-3.5 v -1.8 h 1.8 l 3.5,3.5 l 1.8,3.5 v 1.8 h -1.8 l -3.5,-3.5 m 1.8,-0.9 M 612.6,152.5 m -1.8,0.9 l -1.8,-3.5 v -1.8 h 1.8 l 3.5,3.5 l 1.8,3.5 v 1.8 h -1.8 l -3.5,-3.5 m 1.8,-0.9 M 621.4,141.6 m -1.8,0.9 l -1.8,-3.5 v -1.8 h 1.8 l 3.5,3.5 l 1.8,3.5 v 1.8 h -1.8 l -3.5,-3.5 m 1.8,-0.9 M 630.3,131.7 m -1.8,0.9 l -1.8,-3.5 v -1.8 h 1.8 l 3.5,3.5 l 1.8,3.5 v 1.8 h -1.8 l -3.5,-3.5 m 1.8,-0.9 M 639.1,122.7 m -1.8,0.9 l -1.8,-3.5 v -1.8 h 1.8 l 3.5,3.5 l 1.8,3.5 v 1.8 h -1.8 l -3.5,-3.5 m 1.8,-0.9 M 648.0,114.7 m -1.8,0.9 l -1.8,-3.5 v -1.8 h 1.8 l 3.5,3.5 l 1.8,3.5 v 1.8 h -1.8 l -3.5,-3.5 m 1.8,-0.9 M 656.8,107.9 m -1.8,0.9 l -1.8,-3.5 v -1.8 h 1.8 l 3.5,3.5 l 1.8,3.5 v 1.8 h -1.8 l -3.5,-3.5 m 1.8,-0.9 M 665.6,102.3 m -1.8,0.9 l -1.8,-3.5 v -1.8 h 1.8 l 3.5,3.5 l 1.8,3.5 v 1.8 h -1.8 l -3.5,-3.5 m 1.8,-0.9 M 678.9,96.1 m -1.8,0.9 l -1.8,-3.5 v -1.8 h 1.8 l 3.5,3.5 l 1.8,3.5 v 1.8 h -1.8 l -3.5,-3.5 m 1.8,-0.9 M 692.2,92.7 m -1.8,0.9 l -1.8,-3.5 v -1.8 h 1.8 l 3.5,3.5 l 1.8,3.5 v 1.8 h -1.8 l -3.5,-3.5 m 1.8,-0.9 " />
<path class="plot05" d=" M 64.5,261.2 m 0.0,-3.5 a 3.5,3.5,0.0,1,1,0.0,7.0 a 3.5,3.5,0.0,1,1,0.0,-7.0 m 0.0,3.5 M 68.9,253.9 m 0.0,-3.5 a 3.5,3.5,0.0,1,1,0.0,7.0 a 3.5,3.5,0.0,1,1,0.0,-7.0 m 0.0,3.5 M 73.3,246.4 m 0.0,-3.5 a 3.5,3.5,0.0,1,1,0.0,7.0 a 3.5,3.5,0.0,1,1,0.0,-7.0 m 0.0,3.5 M 77.8,239.0 m 0.0,-3.5 a 3.5,3.5,0.0,1,1,0.0,7.0 a 3.5,3.5,0.0,1,1,0.0,-7.0 m 0.0,3.5 M 82.2,231.4 m 0.0,-3.5 a 3.5,3.5,0.0,1,1,0.0,7.0 a 3.5,3.5,0.0,1,1,0.0,-7.0 m 0.0,3.5 M 86.6,223.7 m 0.0,-3.5 a 3.5,3.5,0.0,1,1,0.0,7.0 a 3.5,3.5,0.0,1,1,0.0,-7.0 m 0.0,3.5 M 91.0,215.9 m 0.0,-3.5 a 3.5,3.5,0.0,1,1,0.0,7.0 a 3.5,3.5,0.0,1,1,0.0,-7.0 m 0.0,3.5 M 95.4,207.9 m 0.0,-3.5 a 3.5,3.5,0.0,1,1,0.0,7.0 a 3.5,3.5,0.0,1,1,0.0,-7.0 m 0.0,3.5 M 99.9,199.7 m 0.0,-3.5 a 3.5,3.5,0.0,1,1,0.0,7.0 a 3.5,3.5,0.0,1,1,0.0,-7.0 m 0.0,3.5 M 104.3,191.2 m 0.0,-3.5 a 3.5,3.5,0.0,1,1,0.0,7.0 a 3.5,3.5,0.0,1,1,0.0,-7.0 m 0.0,3.5 M 108.7,182.4 m 0.0,-3.5 a 3.5,3.5,0.0,1,1,0.0,7.0 a 3.5,3.5,0.0,1,1,0.0,-7.0 m 0.0,3.5 M 113.1,173.2 m 0.0,-3.5 a 3.5,3.5,0.0,1,1,0.0,7.0 a 3.5,3.5,0.0,1,1,0.0,-7.0 m 0.0,3.5 M 117.5,163.6 m 0.0,-3.5 a 3.5,3.5,0.0,1,1,0.0,7.0 a 3.5,3.5,0.0,1,1,0.0,-7.0 m 0.0,3.5 M 122.0,153.5 m 0.0,-3.5 a 3.5,3.5,0.0,1,1,0.0,7.0 a 3.5,3.5,0.0,1,1,0.0,-7.0 m 0.0,3.5 M 126.4,142.8 m 0.0,-3.5 a 3.5,3.5,0.0,1,1,0.0,7.0 a 3.5,3.5,0.0,1,1,0.0,-7.0 m 0.0,3.5 M 130.8,131.4 m 0.0,-3.5 a 3.5,3.5,0.0,1,1,0.0,7.0 a 3.5,3.5,0.0,1,1,0.0,-7.0 m 0.0,3.5 M 135.2,119.3 m 0.0,-3.5 a 3.5,3.5,0.0,1,1,0.0,7.0 a 3.5,3.5,0.0,1,1,0.0,-7.0 m 0.0,3.5 M 139.6,106.2 m 0.0,-3.5 a 3.5,3.5,0.0,1,1,0.0,7.0 a 3.5,3.5,0.0,1,1,0.0,-7.0 m 0.0,3.5 M 144.1,92.1 m 0.0,-3.5 a 3.5,3.5,0.0,1,1,0.0,7.0 a 3.5,3.5,0.0,1,1,0.0,-7.0 m 0.0,3.5 M 148.5,76.6 m 0.0,-3.5 a 3.5,3.5,0.0,1,1,0.0,7.0 a 3.5,3.5,0.0,1,1,0.0,-7.0 m 0.0,3.5 M 152.9,59.6 m 0.0,-3.5 a 3.5,3.5,0.0,1,1,0.0,7.0 a 3.5,3.5,0.0,1,1,0.0,-7.0 m 0.0,3.5 M 157.3,40.8 m 0.0,-3.5 a 3.5,3.5,0.0,1,1,0.0,7.0 a 3.5,3.5,0.0,1,1,0.0,-7.0 m 0.0,3.5 M 161.7,19.7 m 0.0,-3.5 a 3.5,3.5,0.0,1,1,0.0,7.0 a 3.5,3.5,0.0,1,1,0.0,-7.0 m 0.0,3.5 M 166.2,-4.3 m 0.0,-3.5 a 3.5,3.5,0.0,1,1,0.0,7.0 a 3.5,3.5,0.0,1,1,0.0,-7.0 m 0.0,3.5 M 170.6,-31.8 m 0.0,-3.5 a 3.5,3.5,0.0,1,1,0.0,7.0 a 3.5,3.5,0.0,1,1,0.0,-7.0 m 0.0,3.5 M 175.0,-63.7 m 0.0,-3.5 a 3.5,3.5,0.0,1,1,0.0,7.0 a 3.5,3.5,0.0,1,1,0.0,-7.0 m 0.0,3.5 M 179.4,-101.5 m 0.0,-3.5 a 3.5,3.5,0.0,1,1,0.0,7.0 a 3.5,3.5,0.0,1,1,0.0,-7.0 m 0.0,3.5 M 183.8,-147.2 m 0.0,-3.5 a 3.5,3.5,0.0,1,1,0.0,7.0 a 3.5,3.5,0.0,1,1,0.0,-7.0 m 0.0,3.5 M 188.3,-203.5 m 0.0,-3.5 a 3.5,3.5,0.0,1,1,0.0,7.0 a 3.5,3.5,0.0,1,1,0.0,-7.0 m 0.0,3.5 M 192.7,-275.3 m 0.0,-3.5 a 3.5,3.5,0.0,1,1,0.0,7.0 a 3.5,3.5,0.0,1,1,0.0,-7.0 m 0.0,3.5 M 250.1,892.6 m 0.0,-3.5 a 3.5,3.5,0.0,1,1,0.0,7.0 a 3.5,3.5,0.0,1,1,0.0,-7.0 m 0.0,3.5 M 254.6,797.8 m 0.0,-3.5 a 3.5,3.5,0.0,1,1,0.0,7.0 a 3.5,3.5,0.0,1,1,0.0,-7.0 m 0.0,3.5 M 259.0,726.0 m 0.0,-3.5 a 3.5,3.5,0.0,1,1,0.0,7.0 a 3.5,3.5,0.0,1,1,0.0,-7.0 m 0.0,3.5 M 263.4,669.7 m 0.0,-3.5 a 3.5,3.5,0.0,1,1,0.0,7.0 a 3.5,3.5,0.0,1,1,0.0,-7.0 m 0.0,3.5 M 267.8,624.0 m 0.0,-3.5 a 3.5,3.5,0.0,1,1,0.0,7.0 a 3.5,3.5,0.0,1,1,0.0,-7.0 m 0.0,3.5 M 272.2,586.2 m 0.0,-3.5 a 3.5,3.5,0.0,1,1,0.0,7.0 a 3.5,3.5,0.0,1,1,0.0,-7.0 m 0.0,3.5 M 276.7,554.3 m 0.0,-3.5 a 3.5,3.5,0.0,1,1,0.0,7.0 a 3.5,3.5,0.0,1,1,0.0,-7.0 m 0.0,3.5 M 281.1,526.8 m 0.0,-3.5 a 3.5,3.5,0.0,1,1,0.0,7.0 a 3.5,3.5,0.0,1,1,0.0,-7.0 m 0.0,3.5 M 285.5,502.8 m 0.0,-3.5 a 3.5,3.5,0.0,1,1,0.0,7.0 a 3.5,3.5,0.0,1,1,0.0,-7.0 m 0.0,3.5 M 289.9,481.7 m 0.0,-3.5 a 3.5,3.5,0.0,1,1,0.0,7.0 a 3.5,3.5,0.0,1,1,0.0,-7.0 m 0.0,3.5 M 294.3,462.9 m 0.0,-3.5 a 3.5,3.5,0.0,1,1,0.0,7.0 a 3.5,3.5,0.0,1,1,0.0,-7.0 m 0.0,3.5 M 298.8,445.9 m 0.0,-3.5 a 3.5,3.5,0.0,1,1,0.0,7.0 a 3.5,3.5,0.0,1,1,0.0,-7.0 m 0.0,3.5 M 303.2,430.4 m 0.0,-3.5 a 3.5,3.5,0.0,1,1,0.0,7.0 a 3.5,3.5,0.0,1,1,0.0,-7.0 m 0.0,3.5 M 307.6,416.3 m 0.0,-3.5 a 3.5,3.5,0.0,1,1,0.0,7.0 a 3.5,3.5,0.0,1,1,0.0,-7.0 m 0.0,3.5 M 312.0,403.2 m 0.0,-3.5 a 3.5,3.5,0.0,1,1,0.0,7.0 a 3.5,3.5,0.0,1,1,0.0,-7.0 m 0.0,3.5 M 316.4,391.1 m 0.0,-3.5 a 3.5,3.5,0.0,1,1,0.0,7.0 a 3.5,3.5,0.0,1,1,0.0,-7.0 m 0.0,3.5 M 320.9,379.7 m 0.0,-3.5 a 3.5,3.5,0.0,1,1,0.0,7.0 a 3.5,3.5,0.0,1,1,0.0,-7.0 m 0.0,3.5 M 325.3,369.0 m 0.0,-3.5 a 3.5,3.5,0.0,1,1,0.0,7.0 a 3.5,3.5,0.0,1,1,0.0,-7.0 m 0.0,3.5 M 329.7,358.9 m 0.0,-3.5 a 3.5,3.5,0.0,1,1,0.0,7.0 a 3.5,3.5,0.0,1,1,0.0,-7.0 m 0.0,3.5 M 334.1,349.3 m 0.0,-3.5 a 3.5,3.5,0.0,1,1,0.0,7.0 a 3.5,3.5,0.0,1,1,0.0,-7.0 m 0.0,3.5 M 338.5,340.1 m 0.0,-3.5 a 3.5,3.5,0.0,1,1,0.0,7.0 a 3.5,3.5,0.0,1,1,0.0,-7.0 m 0.0,3.5 M 343.0,331.3 m 0.0,-3.5 a 3.5,3.5,0.0,1,1,0.0,7.0 a 3.5,3.5,0.0,1,1,0.0,-7.0 m 0.0,3.5 M 347.4,322.8 m 0.0,-3.5 a 3.5,3.5,0.0,1,1,0.0,7.0 a 3.5,3.5,0.0,1,1,0.0,-7.0 m 0.0,3.5 M 351.8,314.6 m 0.0,-3.5 a 3.5,3.5,0.0,1,1,0.0,7.0 a 3.5,3.5,0.0,1,1,0.0,-7.0 m 0.0,3.5 M 356.2,306.6 m 0.0,-3.5 a 3.5,3.5,0.0,1,1,0.0,7.0 a 3.5,3.5,0.0,1,1,0.0,-7.0 m 0.0,3.5 M 360.6,298.8 m 0.0,-3.5 a 3.5,3.5,0.0,1,1,0.0,7.0 a 3.5,3.5,0.0,1,1,0.0,-7.0 m 0.0,3.5 M 365.1,291.1 m 0.0,-3.5 a 3.5,3.5,0.0,1,1,0.0,7.0 a 3.5,3.5,0.0,1,1,0.0,-7.0 m 0.0,3.5 M 369.5,283.5 m 0.0,-3.5 a 3.5,3.5,0.0,1,1,0.0,7.0 a 3.5,3.5,0.0,1,1,0.0,-7.0 m 0.0,3.5 M 373.9,276.1 m 0.0,-3.5 a 3.5,3.5,0.0,1,1,0.0,7.0 a 3.5,3.5,0.0,1,1,0.0,-7.0 m 0.0,3.5 M 378.3,268.6 m 0.0,-3.5 a 3.5,3.5,0.0,1,1,0.0,7.0 a 3.5,3.5,0.0,1,1,0.0,-7.0 m 0.0,3.5 M 382.8,261.2 m 0.0,-3.5 a 3.5,3.5,0.0,1,1,0.0,7.0 a 3.5,3.5,0.0,1,1,0.0,-7.0 m 0.0,3.5 M 387.2,253.9 m 0.0,-3.5 a 3.5,3.5,0.0,1,1,0.0,7.0 a 3.5,3.5,0.0,1,1,0.0,-7.0 m 0.0,3.5 M 391.6,246.4 m 0.0,-3.5 a 3.5,3.5,0.0,1,1,0.0,7.0 a 3.5,3.5,0.0,1,1,0.0,-7.0 m 0.0,3.5 M 396.0,239.0 m 0.0,-3.5 a 3.5,3.5,0.0,1,1,0.0,7.0 a 3.5,3.5,0.0,1,1,0.0,-7.0 m 0.0,3.5 M 400.4,231.4 m 0.0,-3.5 a 3.5,3.5,0.0,1,1,0.0,7.0 a 3.5,3.5,0.0,1,1,0.0,-7.0 m 0.0,3.5 M 404.9,223.7 m 0.0,-3.5 a 3.5,3.5,0.0,1,1,0.0,7.0 a 3.5,3.5,0.0,1,1,0.0,-7.0 m 0.0,3.5 M 409.3,215.9 m 0.0,-3.5 a 3.5,3.5,0.0,1,1,0.0,7.0 a 3.5,3.5,0.0,1,1,0.0,-7.0 m 0.0,3.5 M 413.7,207.9 m 0.0,-3.5 a 3.5,3.5,0.0,1,1,0.0,7.0 a 3.5,3.5,0.0,1,1,0.0,-7.0 m 0.0,3.5 M 418.1,199.7 m 0.0,-3.5 a 3.5,3.5,0.0,1,1,0.0,7.0 a 3.5,3.5,0.0,1,1,0.0,-7.0 m 0.0,3.5 M 422.5,191.2 m 0.0,-3.5 a 3.5,3.5,0.0,1,1,0.0,7.0 a 3.5,3.5,0.0,1,1,0.0,-7.0 m 0.0,3.5 M 427.0,182.4 m 0.0,-3.5 a 3.5,3.5,0.0,1,1,0.0,7.0 a 3.5,3.5,0.0,1,1,0.0,-7.0 m 0.0,3.5 M 431.4,173.2 m 0.0,-3.5 a 3.5,3.5,0.0,1,1,0.0,7.0 a 3.5,3.5,0.0,1,1,0.0,-7.0 m 0.0,3.5 M 435.8,163.6 m 0.0,-3.5 a 3.5,3.5,0.0,1,1,0.0,7.0 a 3.5,3.5,0.0,1,1,0.0,-7.0 m 0.0,3.5 M 440.2,153.5 m 0.0,-3.5 a 3.5,3.5,0.0,1,1,0.0,7.0 a 3.5,3.5,0.0,1,1,0.0,-7.0 m 0.0,3.5 M 444.6,142.8 m 0.0,-3.5 a 3.5,3.5,0.0,1,1,0.0,7.0 a 3.5,3.5,0.0,1,1,0.0,-7.0 m 0.0,3.5 M 449.1,131.4 m 0.0,-3.5 a 3.5,3.5,0.0,1,1,0.0,7.0 a 3.5,3.5,0.0,1,1,0.0,-7.0 m 0.0,3.5 M 453.5,119.3 m 0.0,-3.5 a 3.5,3.5,0.0,1,1,0.0,7.0 a 3.5,3.5,0.0,1,1,0.0,-7.0 m 0.0,3.5 M 457.9,106.2 m 0.0,-3.5 a 3.5,3.5,0.0,1,1,0.0,7.0 a 3.5,3.5,0.0,1,1,0.0,-7.0 m 0.0,3.5 M 462.3,92.1 m 0.0,-3.5 a 3.5,3.5,0.0,1,1,0.0,7.0 a 3.5,3.5,0.0,1,1,0.0,-7.0 m 0.0,3.5 M 466.7,76.6 m 0.0,-3.5 a 3.5,3.5,0.0,1,1,0.0,7.0 a 3.5,3.5,0.0,1,1,0.0,-7.0 m 0.0,3.5 M 471.2,59.6 m 0.0,-3.5 a 3.5,3.5,0.0,1,1,0.0,7.0 a 3.5,3.5,0.0,1,1,0.0,-7.0 m 0.0,3.5 M 475.6,40.8 m 0.0,-3.5 a 3.5,3.5,0.0,1,1,0.0,7.0 a 3.5,3.5,0.0,1,1,0.0,-7.0 m 0.0,3.5 M 480.0,19.7 m 0.0,-3.5 a 3.5,3.5,0.0,1,1,0.0,7.0 a 3.5,3.5,0.0,1,1,0.0,-7.0 m 0.0,3.5 M 484.4,-4.3 m 0.0,-3.5 a 3.5,3.5,0.0,1,1,0.0,7.0 a 3.5,3.5,0.0,1,1,0.0,-7.0 m 0.0,3.5 M 488.8,-31.8 m 0.0,-3.5 a 3.5,3.5,0.0,1,1,0.0,7.0 a 3.5,3.5,0.0,1,1,0.0,-7.0 m 0.0,3.5 M 493.3,-63.7 m 0.0,-3.5 a 3.5,3.5,0.0,1,1,0.0,7.0 a 3.5,3.5,0.0,1,1,0.0,-7.0 m 0.0,3.5 M 497.7,-101.5 m 0.0,-3.5 a 3.5,3.5,0.0,1,1,0.0,7.0 a 3.5,3.5,0.0,1,1,0.0,-7.0 m 0.0,3.5 M 502.1,-147.2 m 0.0,-3.5 a 3.5,3.5,0.0,1,1,0.0,7.0 a 3.5,3.5,0.0,1,1,0.0,-7.0 m 0.0,3.5 M 506.5,-203.5 m 0.0,-3.5 a 3.5,3.5,0.0,1,1,0.0,7.0 a 3.5,3.5,0.0,1,1,0.0,-7.0 m 0.0,3.5 M 510.9,-275.3 m 0.0,-3.5 a 3.5,3.5,0.0,1,1,0.0,7.0 a 3.5,3.5,0.0,1,1,0.0,-7.0 m 0.0,3.5 M 568.4,892.6 m 0.0,-3.5 a 3.5,3.5,0.0,1,1,0.0,7.0 a 3.5,3.5,0.0,1,1,0.0,-7.0 m 0.0,3.5 M 572.8,797.8 m 0.0,-3.5 a 3.5,3.5,0.0,1,1,0.0,7.0 a 3.5,3.5,0.0,1,1,0.0,-7.0 m 0.0,3.5 M 577.2,726.0 m 0.0,-3.5 a 3.5,3.5,0.0,1,1,0.0,7.0 a 3.5,3.5,0.0,1,1,0.0,-7.0 m 0.0,3.5 M 581.7,669.7 m 0.0,-3.5 a 3.5,3.5,0.0,1,1,0.0,7.0 a 3.5,3.5,0.0,1,1,0.0,-7.0 m 0.0,3.5 M 586.1,624.0 m 0.0,-3.5 a 3.5,3.5,0.0,1,1,0.0,7.0 a 3.5,3.5,0.0,1,1,0.0,-7.0 m 0.0,3.5 M 590.5,586.2 m 0.0,-3.5 a 3.5,3.5,0.0,1,1,0.0,7.0 a 3.5,3.5,0.0,1,1,0.0,-7.0 m 0.0,3.5 M 594.9,554.3 m 0.0,-3.5 a 3.5,3.5,0.0,1,1,0.0,7.0 a 3.5,3.5,0.0,1,1,0.0,-7.0 m 0.0,3.5 M 599.3,526.8 m 0.0,-3.5 a 3.5,3.5,0.0,1,1,0.0,7.0 a 3.5,3.5,0.0,1,1,0.0,-7.0 m 0.0,3.5 M 603.8,502.8 m 0.0,-3.5 a 3.5,3.5,0.0,1,1,0.0,7.0 a 3.5,3.5,0.0,1,1,0.0,-7.0 m 0.0,3.5 M 608.2,481.7 m 0.0,-3.5 a 3.5,3.5,0.0,1,1,0.0,7.0 a 3.5,3.5,0.0,1,1,0.0,-7.0 m 0.0,3.5 M 612.6,462.9 m 0.0,-3.5 a 3.5,3.5,0.0,1,1,0.0,7.0 a 3.5,3.5,0.0,1,1,0.0,-7.0 m 0.0,3.5 M 617.0,445.9 m 0.0,-3.5 a 3.5,3.5,0.0,1,1,0.0,7.0 a 3.5,3.5,0.0,1,1,0.0,-7.0 m 0.0,3.5 M 621.4,430.4 m 0.0,-3.5 a 3.5,3.5,0.0,1,1,0.0,7.0 a 3.5,3.5,0.0,1,1,0.0,-7.0 m 0.0,3.5 M 625.9,416.3 m 0.0,-3.5 a 3.5,3.5,0.0,1,1,0.0,7.0 a 3.5,3.5,0.0,1,1,0.0,-7.0 m 0.0,3.5 M 630.3,403.2 m 0.0,-3.5 a 3.5,3.5,0.0,1,1,0.0,7.0 a 3.5,3.5,0.0,1,1,0.0,-7.0 m 0.0,3.5 M 634.7,391.1 m 0.0,-3.5 a 3.5,3.5,0.0,1,1,0.0,7.0 a 3.5,3.5,0.0,1,1,0.0,-7.0 m 0.0,3.5 M 639.1,379.7 m 0.0,-3.5 a 3.5,3.5,0.0,1,1,0.0,7.0 a 3.5,3.5,0.0,1,1,0.0,-7.0 m 0.0,3.5 M 643.5,369.0 m 0.0,-3.5 a 3.5,3.5,0.0,1,1,0.0,7.0 a 3.5,3.5,0.0,1,1,0.0,-7.0 m 0.0,3.5 M 648.0,358.9 m 0.0,-3.5 a 3.5,3.5,0.0,1,1,0.0,7.0 a 3.5,3.5,0.0,1,1,0.0,-7.0 m 0.0,3.5 M 652.4,349.3 m 0.0,-3.5 a 3.5,3.5,0.0,1,1,0.0,7.0 a 3.5,3.5,0.0,1,1,0.0,-7.0 m 0.0,3.5 M 656.8,340.1 m 0.0,-3.5 a 3.5,3.5,0.0,1,1,0.0,7.0 a 3.5,3.5,0.0,1,1,0.0,-7.0 m 0.0,3.5 M 661.2,331.3 m 0.0,-3.5 a 3.5,3.5,0.0,1,1,0.0,7.0 a 3.5,3.5,0.0,1,1,0.0,-7.0 m 0.0,3.5 M 665.6,322.8 m 0.0,-3.5 a 3.5,3.5,0.0,1,1,0.0,7.0 a 3.5,3.5,0.0,1,1,0.0,-7.0 m 0.0,3.5 M 670.1,314.6 m 0.0,-3.5 a 3.5,3.5,0.0,1,1,0.0,7.0 a 3.5,3.5,0.0,1,1,0.0,-7.0 m 0.0,3.5 M 674.5,306.6 m 0.0,-3.5 a 3.5,3.5,0.0,1,1,0.0,7.0 a 3.5,3.5,0.0,1,1,0.0,-7.0 m 0.0,3.5 M 678.9,298.8 m 0.0,-3.5 a 3.5,3.5,0.0,1,1,0.0,7.0 a 3.5,3.5,0.0,1,1,0.0,-7.0 m 0.0,3.5 M 683.3,291.1 m 0.0,-3.5 a 3.5,3.5,0.0,1,1,0.0,7.0 a 3.5,3.5,0.0,1,1,0.0,-7.0 m 0.0,3.5 M 687.7,283.5 m 0.0,-3.5 a 3.5,3.5,0.0,1,1,0.0,7.0 a 3.5,3.5,0.0,1,1,0.0,-7.0 m 0.0,3.5 M 692.2,276.1 m 0.0,-3.5 a 3.5,3.5,0.0,1,1,0.0,7.0 a 3.5,3.5,0.0,1,1,0.0,-7.0 m 0.0,3.5 M 696.6,268.6 m 0.0,-3.5 a 3.5,3.5,0.0,1,1,0.0,7.0 a 3.5,3.5,0.0,1,1,0.0,-7.0 m 0.0,3.5 M 701.0,261.3 m 0.0,-3.5 a 3.5,3.5,0.0,1,1,0.0,7.0 a 3.5,3.5,0.0,1,1,0.0,-7.0 m 0.0,3.5 " />
<path class="plot06" d=" M 64.5,261.2 L 68.9,260.9 L 73.3,260.0 L 77.8,258.4 L 82.2,256.1 L 86.6,253.3 L 91.0,249.9 L 95.4,246.0 L 99.9,241.5 L 104.3,236.5 L 108.7,231.0 L 113.1,225.2 L 117.5,219.0 L 122.0,212.4 L 126.4,205.6 L 130.8,198.6 L 135.2,191.4 L 139.6,184.0 L 144.1,176.7 L 148.5,169.3 L 152.9,162.0 L 157.3,154.8 L 161.7,147.7 L 166.2,140.9 L 170.6,134.4 L 175.0,128.2 L 179.4,122.3 L 183.8,116.9 L 188.3,111.9 L 192.7,107.4 L 197.1,103.4 L 201.5,100.0 L 205.9,97.2 L 210.4,95.0 L 214.8,93.4 L 219.2,92.4 L 223.6,92.1 L 228.0,92.4 L 232.5,93.4 L 236.9,95.0 L 241.3,97.2 L 245.7,100.0 L 250.1,103.4 L 254.6,107.4 L 259.0,111.9 L 263.4,116.9 L 267.8,122.3 L 272.2,128.2 L 276.7,134.4 L 281.1,140.9 L 285.5,147.7 L 289.9,154.8 L 294.3,162.0 L 298.8,169.3 L 303.2,176.7 L 307.6,184.0 L 312.0,191.4 L 316.4,198.6 L 320.9,205.6 L 325.3,212.4 L 329.7,219.0 L 334.1,225.2 L 338.5,231.0 L 343.0,236.5 L 347.4,241.5 L 351.8,246.0 L 356.2,249.9 L 360.6,253.3 L 365.1,256.1 L 369.5,258.4 L 373.9,260.0 L 378.3,260.9 L 382.8,261.2 L 387.2,260.9 L 391.6,260.0 L 396.0,258.4 L 400.4,256.1 L 404.9,253.3 L 409.3,249.9 L 413.7,246.0 L 418.1,241.5 L 422.5,236.5 L 427.0,231.0 L 431.4,225.2 L 435.8,219.0 L 440.2,212.4 L 444.6,205.6 L 449.1,198.6 L 453.5,191.4 L 457.9,184.0 L 462.3,176.7 L 466.7,169.3 L 471.2,162.0 L 475.6,154.8 L 480.0,147.7 L 484.4,140.9 L 488.8,134.4 L 493.3,128.2 L 497.7,122.3 L 502.1,116.9 L 506.5,111.9 L 510.9,107.4 L 515.4,103.4 L 519.8,100.0 L 524.2,97.2 L 528.6,95.0 L 533.0,93.4 L 537.5,92.4 L 541.9,92.1 L 546.3,92.4 L 550.7,93.4 L 555.1,95.0 L 559.6,97.2 L 564.0,100.0 L 568.4,103.4 L 572.8,107.4 L 577.2,111.9 L 581.7,116.9 L 586.1,122.3 L 590.5,128.2 L 594.9,134.4 L 599.3,140.9 L 603.8,147.7 L 608.2,154.8 L 612.6,162.0 L 617.0,169.3 L 621.4,176.7 L 625.9,184.0 L 630.3,191.4 L 634.7,198.6 L 639.1,205.6 L 643.5,212.4 L 648.0,219.0 L 652.4,225.2 L 656.8,231.0 L 661.2,236.5 L 665.6,241.5 L 670.1,246.0 L 674.5,249.9 L 678.9,253.3 L 683.3,256.1 L 687.7,258.4 L 692.2,260.0 L 696.6,260.9 L 701.0,261.2 M 64.5,261.2 " />
<path class="plot07" d=" M 68.9,-300.0 L 73.3,-300.0 M 82.2,-300.0 M 86.6,-300.0 M 91.0,-300.0 L 95.4,-275.3 L 99.9,-203.5 L 104.3,-147.2 L 108.7,-101.5 L 113.1,-63.7 L 117.5,-31.8 L 122.0,-4.3 L 126.4,19.7 L 130.8,40.8 L 135.2,59.6 L 139.6,76.6 L 144.1,92.1 L 148.5,106.2 L 152.9,119.3 L 157.3,131.4 L 161.7,142.8 L 166.2,153.5 L 170.6,163.6 L 175.0,173.2 L 179.4,182.4 L 183.8,191.2 L 188.3,199.7 L 192.7,207.9 L 197.1,215.9 L 201.5,223.7 L 205.9,231.4 L 210.4,239.0 L 214.8,246.4 L 219.2,253.9 L 223.6,261.2 L 228.0,268.6 L 232.5,276.1 L 236.9,283.5 L 241.3,291.1 L 245.7,298.8 L 250.1,306.6 L 254.6,314.6 L 259.0,322.8 L 263.4,331.3 L 267.8,340.1 L 272.2,349.3 L 276.7,358.9 L 281.1,369.0 L 285.5,379.7 L 289.9,391.1 L 294.3,403.2 L 298.8,416.3 L 303.2,430.4 L 307.6,445.9 L 312.0,462.9 L 316.4,481.7 L 320.9,502.8 L 325.3,526.8 L 329.7,554.3 L 334.1,586.2 L 338.5,624.0 L 343.0,669.7 L 347.4,726.0 L 351.8,797.8 L 356.2,892.6 L 360.6,900.0 M 369.5,900.0 M 373.9,900.0 M 378.3,900.0 M 382.8,900.0 M 387.2,-300.0 M 391.6,-300.0 M 396.0,-300.0 M 400.4,-300.0 M 404.9,-300.0 M 409.3,-300.0 L 413.7,-275.3 L 418.1,-203.5 L 422.5,-147.2 L 427.0,-101.5 L 431.4,-63.7 L 435.8,-31.8 L 440.2,-4.3 L 444.6,19.7 L 449.1,40.8 L 453.5,59.6 L 457.9,76.6 L 462.3,92.1 L 466.7,106.2 L 471.2,119.3 L 475.6,131.4 L 480.0,142.8 L 484.4,153.5 L 488.8,163.6 L 493.3,173.2 L 497.7,182.4 L 502.1,191.2 L 506.5,199.7 L 510.9,207.9 L 515.4,215.9 L 519.8,223.7 L 524.2,231.4 L 528.6,239.0 L 533.0,246.4 L 537.5,253.9 L 541.9,261.2 L 546.3,268.6 L 550.7,276.1 L 555.1,283.5 L 559.6,291.1 L 564.0,298.8 L 568.4,306.6 L 572.8,314.6 L 577.2,322.8 L 581.7,331.3 L 586.1,340.1 L 590.5,349.3 L 594.9,358.9 L 599.3,369.0 L 603.8,379.7 L 608.2,391.1 L 612.6,403.2 L 617.0,416.3 L 621.4,430.4 L 625.9,445.9 L 630.3,462.9 L 634.7,481.7 L 639.1,502.8 L 643.5,526.8 L 648.0,554.3 L 652.4,586.2 L 656.8,624.0 L 661.2,669.7 L 665.6,726.0 L 670.1,797.8 L 674.5,892.6 L 678.9,900.0 M 687.7,900.0 M 692.2,900.0 M 696.6,900.0 M 701.0,900.0 M 68.9,-300.0 " />
<path class="plot08" d=" M 144.1,141.6 M 462.3,380.9 M 144.1,141.6 m -1.8,0.0 l -1.8,-3.5 l 3.5,1.8 l 3.5,-1.8 l -1.8,3.5 l 1.8,3.5 l -3.5,-1.8 l -3.5,1.8 l 1.8,-3.5 m 1.8,0.0m 0.0,-3.5 a 3.5,3.5,0.0,1,1,0.0,7.0 a 3.5,3.5,0.0,1,1,0.0,-7.0 m 0.0,3.5 M 462.3,380.9 m -1.8,0.0 l -1.8,-3.5 l 3.5,1.8 l 3.5,-1.8 l -1.8,3.5 l 1.8,3.5 l -3.5,-1.8 l -3.5,1.8 l 1.8,-3.5 m 1.8,0.0m 0.0,-3.5 a 3.5,3.5,0.0,1,1,0.0,7.0 a 3.5,3.5,0.0,1,1,0.0,-7.0 m 0.0,3.5 " />
</g>
<text x="382.75" y="542.50" class="xtitle" >Degrees</text>
<text x="22.50" y="261.25" class="ytitle" transform="matrix(0.00,-1.00,1.00,0.00,-238.75,283.75)">Function Value</text>
<rect x="708.0" y="33.5" width="84.5" height="204.8" rx="6.0" class="legend" />
<text x="721.00" y="53.00" class="legend headline" >Legends:</text>
<text x="727.50" y="82.25" class="plot03 legend" >sin(n)</text>
<text x="727.50" y="101.75" class="plot04 legend" >cos(n)</text>
<path class="plot04 legend" d=" M 727.5,111.5 H 756.8 m -1.8,0.9 l -1.8,-3.5 v -1.8 h 1.8 l 3.5,3.5 l 1.8,3.5 v 1.8 h -1.8 l -3.5,-3.5 m 1.8,-0.9 H 786.0 " />
<text x="727.50" y="140.75" class="plot05 legend" >tan(n)</text>
<path class="plot05 legend" d=" M 753.2,150.5 m 0.0,-3.5 a 3.5,3.5,0.0,1,1,0.0,7.0 a 3.5,3.5,0.0,1,1,0.0,-7.0 m 0.0,3.5 " />
<text x="727.50" y="179.75" class="plot06 legend" >sin²(n)</text>
<text x="727.50" y="199.25" class="plot07 legend" >cot(n)</text>
<text x="727.50" y="218.75" class="plot08 legend" >sin=cos</text>
<text x="400.00" y="592.50" class="subtitle" >Data by numbers®</text>
<text x="400.00" y="573.75" class="title" >Trigonometric Functions</text>
</svg>
