<?xml version="1.0" encoding="UTF-8" standalone="no"?>
<svg id="svg-ex3" width="800" height="600" xmlns="http://www.w3.org/2000/svg">
<defs>
<clipPath id="plotable">
<rect x="57.5" y="0.5" width="650.5" height="521.5" rx="0.0"  />
</clipPath>
</defs>
<style>
svg#svg-ex3 { background-color: #ffedcc }
#svg-ex3 g.plotarea { opacity: 1.0 }
#svg-ex3 g.plotarea path:hover { stroke-width: 5.0 }
#svg-ex3 path { stroke-width: 2.0; fill: none; stroke-linecap: round }
#svg-ex3 path.axes { stroke: black }
#svg-ex3 path.xlabel, #svg-ex3 path.ylabel { stroke: silver; stroke-width: 1 }
#svg-ex3 text { font-family: serif }
#svg-ex3 text.legend { font-size: 13.0px }
#svg-ex3 text.legend.headline { font-size: 16.2px; font-weight: bold }
#svg-ex3 text.subtitle { font-size: 15.0px; text-anchor: middle }
#svg-ex3 text.title { font-size: 25.0px; text-anchor: middle }
#svg-ex3 text.xlabel { font-size: 10.0px; text-anchor: middle }
#svg-ex3 text.xtitle, #svg-ex3 text.ytitle { font-size: 12.0px; text-anchor: middle }
#svg-ex3 text.ylabel { font-size: 10.0px; text-anchor: end; dominant-baseline: middle }
#svg-ex3 path.plot05 { stroke: #ff0000 }
#svg-ex3 text.plot05, #svg-ex3 rect.plot05 { fill: #ff0000; stroke: #ff0000 }
#svg-ex3 path.plot07 { stroke: #008000 }
#svg-ex3 text.plot07, #svg-ex3 rect.plot07 { fill: #008000; stroke: #008000 }
#svg-ex3 rect.legend { fill: silver; stroke: silver; fill-opacity: 0.1; stroke-width: 1.5 }
</style>
<path class="xlabel" d=" M 99.9,515.0 V 7.5 M 135.2,515.0 V 7.5 M 170.6,515.0 V 7.5 M 205.9,515.0 V 7.5 M 241.3,515.0 V 7.5 M 276.7,515.0 V 7.5 M 312.0,515.0 V 7.5 M 347.4,515.0 V 7.5 M 382.8,515.0 V 7.5 M 418.1,515.0 V 7.5 M 453.5,515.0 V 7.5 M 488.8,515.0 V 7.5 M 524.2,515.0 V 7.5 M 559.6,515.0 V 7.5 M 594.9,515.0 V 7.5 M 630.3,515.0 V 7.5 M 665.6,515.0 V 7.5 M 701.0,515.0 V 7.5 " />
<text x="99.86" y="527.50" class="xlabel" >20</text>
<text x="135.22" y="527.50" class="xlabel" >40</text>
<text x="170.58" y="527.50" class="xlabel" >60</text>
<text x="205.94" y="527.50" class="xlabel" >80</text>
<text x="241.31" y="527.50" class="xlabel" >100</text>
<text x="276.67" y="527.50" class="xlabel" >120</text>
<text x="312.03" y="527.50" class="xlabel" >140</text>
<text x="347.39" y="527.50" class="xlabel" >160</text>
<text x="382.75" y="527.50" class="xlabel" >180</text>
<text x="418.11" y="527.50" class="xlabel" >200</text>
<text x="453.47" y="527.50" class="xlabel" >220</text>
<text x="488.83" y="527.50" class="xlabel" >240</text>
<text x="524.19" y="527.50" class="xlabel" >260</text>
<text x="559.56" y="527.50" class="xlabel" >280</text>
<text x="594.92" y="527.50" class="xlabel" >300</text>
<text x="630.28" y="527.50" class="xlabel" >320</text>
<text x="665.64" y="527.50" class="xlabel" >340</text>
<text x="701.00" y="527.50" class="xlabel" >360</text>
<path class="ylabel" d=" M 64.5,219.0 H 701.0 M 64.5,303.5 H 701.0 M 64.5,176.7 H 701.0 M 64.5,345.8 H 701.0 M 64.5,134.4 H 701.0 M 64.5,388.1 H 701.0 M 64.5,92.1 H 701.0 M 64.5,430.4 H 701.0 M 64.5,49.8 H 701.0 M 64.5,472.7 H 701.0 M 64.5,7.5 H 701.0 M 64.5,515.0 H 701.0 " />
<text x="62.50" y="218.96" class="ylabel" >0.25</text>
<text x="62.50" y="303.54" class="ylabel" >-0.25</text>
<text x="62.50" y="176.67" class="ylabel" >0.50</text>
<text x="62.50" y="345.83" class="ylabel" >-0.50</text>
<text x="62.50" y="134.38" class="ylabel" >0.75</text>
<text x="62.50" y="388.12" class="ylabel" >-0.75</text>
<text x="62.50" y="92.08" class="ylabel" >1.00</text>
<text x="62.50" y="430.42" class="ylabel" >-1.00</text>
<text x="62.50" y="49.79" class="ylabel" >1.25</text>
<text x="62.50" y="472.71" class="ylabel" >-1.25</text>
<text x="62.50" y="7.50" class="ylabel" >1.50</text>
<text x="62.50" y="515.00" class="ylabel" >-1.50</text>
<path class="axes" d=" M 64.5,261.2 H 701.0 M 64.5,515.0 V 7.5 " />
<g clip-path="url(#plotable)" class="plotarea">
<path class="plot05" d=" M 64.5,261.2 L 68.9,253.9 L 73.3,246.4 L 77.8,239.0 L 82.2,231.4 L 86.6,223.7 L 91.0,215.9 L 95.4,207.9 L 99.9,199.7 L 104.3,191.2 L 108.7,182.4 L 113.1,173.2 L 117.5,163.6 L 122.0,153.5 L 126.4,142.8 L 130.8,131.4 L 135.2,119.3 L 139.6,106.2 L 144.1,92.1 L 148.5,76.6 L 152.9,59.6 L 157.3,40.8 L 161.7,19.7 L 166.2,-4.3 L 170.6,-31.8 L 175.0,-63.7 L 179.4,-101.5 L 183.8,-147.2 L 188.3,-203.5 L 192.7,-275.3 L 197.1,-300.0 M 205.9,-300.0 M 210.4,-300.0 M 214.8,-300.0 M 219.2,-300.0 M 223.6,-300.0 M 228.0,900.0 M 232.5,900.0 M 236.9,900.0 M 241.3,900.0 M 245.7,900.0 L 250.1,892.6 L 254.6,797.8 L 259.0,726.0 L 263.4,669.7 L 267.8,624.0 L 272.2,586.2 L 276.7,554.3 L 281.1,526.8 L 285.5,502.8 L 289.9,481.7 L 294.3,462.9 L 298.8,445.9 L 303.2,430.4 L 307.6,416.3 L 312.0,403.2 L 316.4,391.1 L 320.9,379.7 L 325.3,369.0 L 329.7,358.9 L 334.1,349.3 L 338.5,340.1 L 343.0,331.3 L 347.4,322.8 L 351.8,314.6 L 356.2,306.6 L 360.6,298.8 L 365.1,291.1 L 369.5,283.5 L 373.9,276.1 L 378.3,268.6 L 382.8,261.2 L 387.2,253.9 L 391.6,246.4 L 396.0,239.0 L 400.4,231.4 L 404.9,223.7 L 409.3,215.9 L 413.7,207.9 L 418.1,199.7 L 422.5,191.2 L 427.0,182.4 L 431.4,173.2 L 435.8,163.6 L 440.2,153.5 L 444.6,142.8 L 449.1,131.4 L 453.5,119.3 L 457.9,106.2 L 462.3,92.1 L 466.7,76.6 L 471.2,59.6 L 475.6,40.8 L 480.0,19.7 L 484.4,-4.3 L 488.8,-31.8 L 493.3,-63.7 L 497.7,-101.5 L 502.1,-147.2 L 506.5,-203.5 L 510.9,-275.3 L 515.4,-300.0 M 524.2,-300.0 M 528.6,-300.0 M 533.0,-300.0 M 537.5,-300.0 M 541.9,-300.0 M 546.3,900.0 M 550.7,900.0 M 555.1,900.0 M 559.6,900.0 M 564.0,900.0 L 568.4,892.6 L 572.8,797.8 L 577.2,726.0 L 581.7,669.7 L 586.1,624.0 L 590.5,586.2 L 594.9,554.3 L 599.3,526.8 L 603.8,502.8 L 608.2,481.7 L 612.6,462.9 L 617.0,445.9 L 621.4,430.4 L 625.9,416.3 L 630.3,403.2 L 634.7,391.1 L 639.1,379.7 L 643.5,369.0 L 648.0,358.9 L 652.4,349.3 L 656.8,340.1 L 661.2,331.3 L 665.6,322.8 L 670.1,314.6 L 674.5,306.6 L 678.9,298.8 L 683.3,291.1 L 687.7,283.5 L 692.2,276.1 L 696.6,268.6 L 701.0,261.3 M 64.5,261.2 " />
<path class="plot07" d=" M 68.9,-300.0 L 73.3,-300.0 M 82.2,-300.0 M 86.6,-300.0 M 91.0,-300.0 L 95.4,-275.3 L 99.9,-203.5 L 104.3,-147.2 L 108.7,-101.5 L 113.1,-63.7 L 117.5,-31.8 L 122.0,-4.3 L 126.4,19.7 L 130.8,40.8 L 135.2,59.6 L 139.6,76.6 L 144.1,92.1 L 148.5,106.2 L 152.9,119.3 L 157.3,131.4 L 161.7,142.8 L 166.2,153.5 L 170.6,163.6 L 175.0,173.2 L 179.4,182.4 L 183.8,191.2 L 188.3,199.7 L 192.7,207.9 L 197.1,215.9 L 201.5,223.7 L 205.9,231.4 L 210.4,239.0 L 214.8,246.4 L 219.2,253.9 L 223.6,261.2 L 228.0,268.6 L 232.5,276.1 L 236.9,283.5 L 241.3,291.1 L 245.7,298.8 L 250.1,306.6 L 254.6,314.6 L 259.0,322.8 L 263.4,331.3 L 267.8,340.1 L 272.2,349.3 L 276.7,358.9 L 281.1,369.0 L 285.5,379.7 L 289.9,391.1 L 294.3,403.2 L 298.8,416.3 L 303.2,430.4 L 307.6,445.9 L 312.0,462.9 L 316.4,481.7 L 320.9,502.8 L 325.3,526.8 L 329.7,554.3 L 334.1,586.2 L 338.5,624.0 L 343.0,669.7 L 347.4,726.0 L 351.8,797.8 L 356.2,892.6 L 360.6,900.0 M 369.5,900.0 M 373.9,900.0 M 378.3,900.0 M 382.8,900.0 M 387.2,-300.0 M 391.6,-300.0 M 396.0,-300.0 M 400.4,-300.0 M 404.9,-300.0 M 409.3,-300.0 L 413.7,-275.3 L 418.1,-203.5 L 422.5,-147.2 L 427.0,-101.5 L 431.4,-63.7 L 435.8,-31.8 L 440.2,-4.3 L 444.6,19.7 L 449.1,40.8 L 453.5,59.6 L 457.9,76.6 L 462.3,92.1 L 466.7,106.2 L 471.2,119.3 L 475.6,131.4 L 480.0,142.8 L 484.4,153.5 L 488.8,163.6 L 493.3,173.2 L 497.7,182.4 L 502.1,191.2 L 506.5,199.7 L 510.9,207.9 L 515.4,215.9 L 519.8,223.7 L 524.2,231.4 L 528.6,239.0 L 533.0,246.4 L 537.5,253.9 L 541.9,261.2 L 546.3,268.6 L 550.7,276.1 L 555.1,283.5 L 559.6,291.1 L 564.0,298.8 L 568.4,306.6 L 572.8,314.6 L 577.2,322.8 L 581.7,331.3 L 586.1,340.1 L 590.5,349.3 L 594.9,358.9 L 599.3,369.0 L 603.8,379.7 L 608.2,391.1 L 612.6,403.2 L 617.0,416.3 L 621.4,430.4 L 625.9,445.9 L 630.3,462.9 L 634.7,481.7 L 639.1,502.8 L 643.5,526.8 L 648.0,554.3 L 652.4,586.2 L 656.8,624.0 L 661.2,669.7 L 665.6,726.0 L 670.1,797.8 L 674.5,892.6 L 678.9,900.0 M 687.7,900.0 M 692.2,900.0 M 696.6,900.0 M 701.0,900.0 M 68.9,-300.0 " />
</g>
<text x="382.75" y="542.50" class="xtitle" >Degrees</text>
<text x="22.50" y="261.25" class="ytitle" transform="matrix(0.00,-1.00,1.00,0.00,-238.75,283.75)">Function Value</text>
<rect x="708.0" y="33.5" width="84.5" height="87.8" rx="6.0" class="legend" />
<text x="721.00" y="53.00" class="legend headline" >Legends:</text>
<text x="727.50" y="82.25" class="plot05 legend" >tan(n)</text>
<text x="727.50" y="101.75" class="plot07 legend" >cot(n)</text>
<text x="400.00" y="592.50" class="subtitle" >Data by numbers®</text>
<text x="400.00" y="573.75" class="title" >Trigonometric Functions</text>
</svg>
