<?xml version="1.0" encoding="UTF-8" standalone="no"?>
<svg id="svg-ex4" width="800" height="600" xmlns="http://www.w3.org/2000/svg">
<style>
svg#svg-ex4 { background-color: #ffedcc }
#svg-ex4 g.plotarea { opacity: 1.0 }
#svg-ex4 g.plotarea path:hover { stroke-width: 5.0 }
#svg-ex4 path { stroke-width: 2.0; fill: none; stroke-linecap: round }
#svg-ex4 path.axes { stroke: black }
#svg-ex4 path.xtick, #svg-ex4 path.ytick { stroke: silver; stroke-width: 1 }
#svg-ex4 text.legends { font-size: 13.0px }
#svg-ex4 text.legends.headline { font-size: 16.2px; font-weight: bold }
#svg-ex4 text.subtitle { font-size: 15.0px; text-anchor: middle }
#svg-ex4 text.title { font-size: 25.0px; text-anchor: middle }
#svg-ex4 text.xlabel { font-size: 10.0px; text-anchor: middle }
#svg-ex4 text.xtitle { font-size: 12.0px; text-anchor: middle }
#svg-ex4 text.ylabel { font-size: 10.0px; text-anchor: end; dominant-baseline: middle }
#svg-ex4 text.ytitle { font-size: 12.0px; text-anchor: middle; writing-mode: tb }
#svg-ex4 path.plot01 { stroke: #ff0000 }
#svg-ex4 text.plot01 { fill: #ff0000; stroke: #ff0000 }
#svg-ex4 path.plot02 { stroke: #008000 }
#svg-ex4 text.plot02 { fill: #008000; stroke: #008000 }
#svg-ex4 path.plot03 { stroke: #ff00ff }
#svg-ex4 text.plot03 { fill: #ff00ff; stroke: #ff00ff }
#svg-ex4 path.plot04 { stroke: #0000ff }
#svg-ex4 text.plot04 { fill: #0000ff; stroke: #0000ff }
#svg-ex4 path.plot05 { stroke: #dc143c }
#svg-ex4 text.plot05 { fill: #dc143c; stroke: #dc143c }
#svg-ex4 path.plot06 { stroke: #f4a460 }
#svg-ex4 text.plot06 { fill: #f4a460; stroke: #f4a460 }
#svg-ex4 path.plot07 { stroke: #8b008b }
#svg-ex4 text.plot07 { fill: #8b008b; stroke: #8b008b }
#svg-ex4 rect.legends { fill: silver; stroke: silver; fill-opacity: 0.1; stroke-width: 1.5 }
</style>
<defs>
<clipPath id="plotable">
<rect x="56.0" y="-1.0" width="653.5" height="524.5" rx="0.0"  />
</clipPath>
</defs>
<path class="xtick" d=" M 98.5,516.5 V 6.0 M 134.1,516.5 V 6.0 M 169.6,516.5 V 6.0 M 205.1,516.5 V 6.0 M 240.6,516.5 V 6.0 M 276.2,516.5 V 6.0 M 311.7,516.5 V 6.0 M 347.2,516.5 V 6.0 M 382.8,516.5 V 6.0 M 418.3,516.5 V 6.0 M 453.8,516.5 V 6.0 M 489.3,516.5 V 6.0 M 524.9,516.5 V 6.0 M 560.4,516.5 V 6.0 M 595.9,516.5 V 6.0 M 631.4,516.5 V 6.0 M 667.0,516.5 V 6.0 M 702.5,516.5 V 6.0 " />
<text x="98.53" y="529.00" class="xlabel" >20</text>
<text x="134.06" y="529.00" class="xlabel" >40</text>
<text x="169.58" y="529.00" class="xlabel" >60</text>
<text x="205.11" y="529.00" class="xlabel" >80</text>
<text x="240.64" y="529.00" class="xlabel" >100</text>
<text x="276.17" y="529.00" class="xlabel" >120</text>
<text x="311.69" y="529.00" class="xlabel" >140</text>
<text x="347.22" y="529.00" class="xlabel" >160</text>
<text x="382.75" y="529.00" class="xlabel" >180</text>
<text x="418.28" y="529.00" class="xlabel" >200</text>
<text x="453.81" y="529.00" class="xlabel" >220</text>
<text x="489.33" y="529.00" class="xlabel" >240</text>
<text x="524.86" y="529.00" class="xlabel" >260</text>
<text x="560.39" y="529.00" class="xlabel" >280</text>
<text x="595.92" y="529.00" class="xlabel" >300</text>
<text x="631.44" y="529.00" class="xlabel" >320</text>
<text x="666.97" y="529.00" class="xlabel" >340</text>
<text x="702.50" y="529.00" class="xlabel" >360</text>
<path class="ytick" d=" M 63.0,218.7 H 702.5 M 63.0,303.8 H 702.5 M 63.0,176.2 H 702.5 M 63.0,346.3 H 702.5 M 63.0,133.6 H 702.5 M 63.0,388.9 H 702.5 M 63.0,91.1 H 702.5 M 63.0,431.4 H 702.5 M 63.0,48.5 H 702.5 M 63.0,474.0 H 702.5 M 63.0,6.0 H 702.5 M 63.0,516.5 H 702.5 " />
<text x="61.00" y="218.71" class="ylabel" >0.25</text>
<text x="61.00" y="303.79" class="ylabel" >-0.25</text>
<text x="61.00" y="176.17" class="ylabel" >0.50</text>
<text x="61.00" y="346.33" class="ylabel" >-0.50</text>
<text x="61.00" y="133.62" class="ylabel" >0.75</text>
<text x="61.00" y="388.88" class="ylabel" >-0.75</text>
<text x="61.00" y="91.08" class="ylabel" >1.00</text>
<text x="61.00" y="431.42" class="ylabel" >-1.00</text>
<text x="61.00" y="48.54" class="ylabel" >1.25</text>
<text x="61.00" y="473.96" class="ylabel" >-1.25</text>
<text x="61.00" y="6.00" class="ylabel" >1.50</text>
<text x="61.00" y="516.50" class="ylabel" >-1.50</text>
<path class="axes" d=" M 63.0,261.2 H 702.5 M 63.0,516.5 V 6.0 " />
<g clip-path="url(#plotable)" class="plotarea">
<path class="plot02" d=" M 63.0,261.2 L 67.4,253.8 L 71.9,246.4 L 76.3,239.0 L 80.8,231.7 L 85.2,224.4 L 89.6,217.2 L 94.1,210.1 L 98.5,203.0 L 103.0,196.1 L 107.4,189.3 L 111.9,182.7 L 116.3,176.2 L 120.7,169.8 L 125.2,163.6 L 129.6,157.7 L 134.1,151.9 L 138.5,146.3 L 142.9,140.9 L 147.4,135.8 L 151.8,130.9 L 156.3,126.2 L 160.7,121.9 L 165.1,117.7 L 169.6,113.9 L 174.0,110.3 L 178.5,107.0 L 182.9,104.0 L 187.3,101.3 L 191.8,99.0 L 196.2,96.9 L 200.7,95.1 L 205.1,93.7 L 209.6,92.5 L 214.0,91.7 L 218.4,91.2 L 222.9,91.1 L 227.3,91.2 L 231.8,91.7 L 236.2,92.5 L 240.6,93.7 L 245.1,95.1 L 249.5,96.9 L 254.0,99.0 L 258.4,101.3 L 262.8,104.0 L 267.3,107.0 L 271.7,110.3 L 276.2,113.9 L 280.6,117.7 L 285.0,121.9 L 289.5,126.2 L 293.9,130.9 L 298.4,135.8 L 302.8,140.9 L 307.3,146.3 L 311.7,151.9 L 316.1,157.7 L 320.6,163.6 L 325.0,169.8 L 329.5,176.2 L 333.9,182.7 L 338.3,189.3 L 342.8,196.1 L 347.2,203.0 L 351.7,210.1 L 356.1,217.2 L 360.5,224.4 L 365.0,231.7 L 369.4,239.0 L 373.9,246.4 L 378.3,253.8 L 382.8,261.2 L 387.2,268.7 L 391.6,276.1 L 396.1,283.5 L 400.5,290.8 L 405.0,298.1 L 409.4,305.3 L 413.8,312.4 L 418.3,319.5 L 422.7,326.4 L 427.2,333.2 L 431.6,339.8 L 436.0,346.3 L 440.5,352.7 L 444.9,358.9 L 449.4,364.8 L 453.8,370.6 L 458.2,376.2 L 462.7,381.6 L 467.1,386.7 L 471.6,391.6 L 476.0,396.3 L 480.5,400.6 L 484.9,404.8 L 489.3,408.6 L 493.8,412.2 L 498.2,415.5 L 502.7,418.5 L 507.1,421.2 L 511.5,423.5 L 516.0,425.6 L 520.4,427.4 L 524.9,428.8 L 529.3,430.0 L 533.7,430.8 L 538.2,431.3 L 542.6,431.4 L 547.1,431.3 L 551.5,430.8 L 555.9,430.0 L 560.4,428.8 L 564.8,427.4 L 569.3,425.6 L 573.7,423.5 L 578.2,421.2 L 582.6,418.5 L 587.0,415.5 L 591.5,412.2 L 595.9,408.6 L 600.4,404.8 L 604.8,400.6 L 609.2,396.3 L 613.7,391.6 L 618.1,386.7 L 622.6,381.6 L 627.0,376.2 L 631.4,370.6 L 635.9,364.8 L 640.3,358.9 L 644.8,352.7 L 649.2,346.3 L 653.6,339.8 L 658.1,333.2 L 662.5,326.4 L 667.0,319.5 L 671.4,312.4 L 675.9,305.3 L 680.3,298.1 L 684.7,290.8 L 689.2,283.5 L 693.6,276.1 L 698.1,268.7 L 702.5,261.3 M 63.0,261.2 " />
<path class="plot03" d=" M 63.0,91.1 L 67.4,91.2 L 71.9,91.7 L 76.3,92.5 L 80.8,93.7 L 85.2,95.1 L 89.6,96.9 L 94.1,99.0 L 98.5,101.3 L 103.0,104.0 L 107.4,107.0 L 111.9,110.3 L 116.3,113.9 L 120.7,117.7 L 125.2,121.9 L 129.6,126.2 L 134.1,130.9 L 138.5,135.8 L 142.9,140.9 L 147.4,146.3 L 151.8,151.9 L 156.3,157.7 L 160.7,163.6 L 165.1,169.8 L 169.6,176.2 L 174.0,182.7 L 178.5,189.3 L 182.9,196.1 L 187.3,203.0 L 191.8,210.1 L 196.2,217.2 L 200.7,224.4 L 205.1,231.7 L 209.6,239.0 L 214.0,246.4 L 218.4,253.8 L 222.9,261.2 L 227.3,268.7 L 231.8,276.1 L 236.2,283.5 L 240.6,290.8 L 245.1,298.1 L 249.5,305.3 L 254.0,312.4 L 258.4,319.5 L 262.8,326.4 L 267.3,333.2 L 271.7,339.8 L 276.2,346.3 L 280.6,352.7 L 285.0,358.9 L 289.5,364.8 L 293.9,370.6 L 298.4,376.2 L 302.8,381.6 L 307.3,386.7 L 311.7,391.6 L 316.1,396.3 L 320.6,400.6 L 325.0,404.8 L 329.5,408.6 L 333.9,412.2 L 338.3,415.5 L 342.8,418.5 L 347.2,421.2 L 351.7,423.5 L 356.1,425.6 L 360.5,427.4 L 365.0,428.8 L 369.4,430.0 L 373.9,430.8 L 378.3,431.3 L 382.8,431.4 L 387.2,431.3 L 391.6,430.8 L 396.1,430.0 L 400.5,428.8 L 405.0,427.4 L 409.4,425.6 L 413.8,423.5 L 418.3,421.2 L 422.7,418.5 L 427.2,415.5 L 431.6,412.2 L 436.0,408.6 L 440.5,404.8 L 444.9,400.6 L 449.4,396.3 L 453.8,391.6 L 458.2,386.7 L 462.7,381.6 L 467.1,376.2 L 471.6,370.6 L 476.0,364.8 L 480.5,358.9 L 484.9,352.7 L 489.3,346.3 L 493.8,339.8 L 498.2,333.2 L 502.7,326.4 L 507.1,319.5 L 511.5,312.4 L 516.0,305.3 L 520.4,298.1 L 524.9,290.8 L 529.3,283.5 L 533.7,276.1 L 538.2,268.7 L 542.6,261.3 L 547.1,253.8 L 551.5,246.4 L 555.9,239.0 L 560.4,231.7 L 564.8,224.4 L 569.3,217.2 L 573.7,210.1 L 578.2,203.0 L 582.6,196.1 L 587.0,189.3 L 591.5,182.7 L 595.9,176.2 L 600.4,169.8 L 604.8,163.6 L 609.2,157.7 L 613.7,151.9 L 618.1,146.3 L 622.6,140.9 L 627.0,135.8 L 631.4,130.9 L 635.9,126.2 L 640.3,121.9 L 644.8,117.7 L 649.2,113.9 L 653.6,110.3 L 658.1,107.0 L 662.5,104.0 L 667.0,101.3 L 671.4,99.0 L 675.9,96.9 L 680.3,95.1 L 684.7,93.7 L 689.2,92.5 L 693.6,91.7 L 698.1,91.2 L 702.5,91.1 M 63.0,91.1 " />
<path class="plot04" d=" M 63.0,261.2 L 67.4,253.8 L 71.9,246.4 L 76.3,238.8 L 80.8,231.2 L 85.2,223.5 L 89.6,215.7 L 94.1,207.6 L 98.5,199.3 L 103.0,190.8 L 107.4,181.9 L 111.9,172.7 L 116.3,163.0 L 120.7,152.8 L 125.2,142.1 L 129.6,130.7 L 134.1,118.5 L 138.5,105.3 L 142.9,91.1 L 147.4,75.5 L 151.8,58.5 L 156.3,39.5 L 160.7,18.2 L 165.1,-5.9 L 169.6,-33.5 L 174.0,-65.6 L 178.5,-103.7 L 182.9,-149.6 L 187.3,-206.3 L 191.8,-278.4 L 196.2,-300.0 M 205.1,-300.0 M 209.6,-300.0 M 214.0,-300.0 M 218.4,-300.0 M 222.9,-300.0 M 227.3,900.0 M 231.8,900.0 M 236.2,900.0 M 240.6,900.0 M 245.1,900.0 L 249.5,896.3 L 254.0,800.9 L 258.4,728.8 L 262.8,672.1 L 267.3,626.2 L 271.7,588.1 L 276.2,556.0 L 280.6,528.4 L 285.0,504.3 L 289.5,483.0 L 293.9,464.0 L 298.4,447.0 L 302.8,431.4 L 307.3,417.2 L 311.7,404.0 L 316.1,391.8 L 320.6,380.4 L 325.0,369.7 L 329.5,359.5 L 333.9,349.8 L 338.3,340.6 L 342.8,331.7 L 347.2,323.2 L 351.7,314.9 L 356.1,306.8 L 360.5,299.0 L 365.0,291.3 L 369.4,283.7 L 373.9,276.1 L 378.3,268.7 L 382.8,261.2 L 387.2,253.8 L 391.6,246.4 L 396.1,238.8 L 400.5,231.2 L 405.0,223.5 L 409.4,215.7 L 413.8,207.6 L 418.3,199.3 L 422.7,190.8 L 427.2,181.9 L 431.6,172.7 L 436.0,163.0 L 440.5,152.8 L 444.9,142.1 L 449.4,130.7 L 453.8,118.5 L 458.2,105.3 L 462.7,91.1 L 467.1,75.5 L 471.6,58.5 L 476.0,39.5 L 480.5,18.2 L 484.9,-5.9 L 489.3,-33.5 L 493.8,-65.6 L 498.2,-103.7 L 502.7,-149.6 L 507.1,-206.3 L 511.5,-278.4 L 516.0,-300.0 M 524.9,-300.0 M 529.3,-300.0 M 533.7,-300.0 M 538.2,-300.0 M 542.6,-300.0 M 547.1,900.0 M 551.5,900.0 M 555.9,900.0 M 560.4,900.0 M 564.8,900.0 L 569.3,896.3 L 573.7,800.9 L 578.2,728.8 L 582.6,672.1 L 587.0,626.2 L 591.5,588.1 L 595.9,556.0 L 600.4,528.4 L 604.8,504.3 L 609.2,483.0 L 613.7,464.0 L 618.1,447.0 L 622.6,431.4 L 627.0,417.2 L 631.4,404.0 L 635.9,391.8 L 640.3,380.4 L 644.8,369.7 L 649.2,359.5 L 653.6,349.8 L 658.1,340.6 L 662.5,331.7 L 667.0,323.2 L 671.4,314.9 L 675.9,306.8 L 680.3,299.0 L 684.7,291.3 L 689.2,283.7 L 693.6,276.1 L 698.1,268.7 L 702.5,261.3 M 63.0,261.2 m -1.8,0.9 l -1.8,-3.5 v -1.8 h 1.8 l 3.5,3.5 l 1.8,3.5 v 1.8 h -1.8 l -3.5,-3.5 m 1.8,-0.9 M 71.9,246.4 m -1.8,0.9 l -1.8,-3.5 v -1.8 h 1.8 l 3.5,3.5 l 1.8,3.5 v 1.8 h -1.8 l -3.5,-3.5 m 1.8,-0.9 M 80.8,231.2 m -1.8,0.9 l -1.8,-3.5 v -1.8 h 1.8 l 3.5,3.5 l 1.8,3.5 v 1.8 h -1.8 l -3.5,-3.5 m 1.8,-0.9 M 89.6,215.7 m -1.8,0.9 l -1.8,-3.5 v -1.8 h 1.8 l 3.5,3.5 l 1.8,3.5 v 1.8 h -1.8 l -3.5,-3.5 m 1.8,-0.9 M 98.5,199.3 m -1.8,0.9 l -1.8,-3.5 v -1.8 h 1.8 l 3.5,3.5 l 1.8,3.5 v 1.8 h -1.8 l -3.5,-3.5 m 1.8,-0.9 M 107.4,181.9 m -1.8,0.9 l -1.8,-3.5 v -1.8 h 1.8 l 3.5,3.5 l 1.8,3.5 v 1.8 h -1.8 l -3.5,-3.5 m 1.8,-0.9 M 111.9,172.7 m -1.8,0.9 l -1.8,-3.5 v -1.8 h 1.8 l 3.5,3.5 l 1.8,3.5 v 1.8 h -1.8 l -3.5,-3.5 m 1.8,-0.9 M 116.3,163.0 m -1.8,0.9 l -1.8,-3.5 v -1.8 h 1.8 l 3.5,3.5 l 1.8,3.5 v 1.8 h -1.8 l -3.5,-3.5 m 1.8,-0.9 M 120.7,152.8 m -1.8,0.9 l -1.8,-3.5 v -1.8 h 1.8 l 3.5,3.5 l 1.8,3.5 v 1.8 h -1.8 l -3.5,-3.5 m 1.8,-0.9 M 125.2,142.1 m -1.8,0.9 l -1.8,-3.5 v -1.8 h 1.8 l 3.5,3.5 l 1.8,3.5 v 1.8 h -1.8 l -3.5,-3.5 m 1.8,-0.9 M 129.6,130.7 m -1.8,0.9 l -1.8,-3.5 v -1.8 h 1.8 l 3.5,3.5 l 1.8,3.5 v 1.8 h -1.8 l -3.5,-3.5 m 1.8,-0.9 M 134.1,118.5 m -1.8,0.9 l -1.8,-3.5 v -1.8 h 1.8 l 3.5,3.5 l 1.8,3.5 v 1.8 h -1.8 l -3.5,-3.5 m 1.8,-0.9 M 138.5,105.3 m -1.8,0.9 l -1.8,-3.5 v -1.8 h 1.8 l 3.5,3.5 l 1.8,3.5 v 1.8 h -1.8 l -3.5,-3.5 m 1.8,-0.9 M 142.9,91.1 m -1.8,0.9 l -1.8,-3.5 v -1.8 h 1.8 l 3.5,3.5 l 1.8,3.5 v 1.8 h -1.8 l -3.5,-3.5 m 1.8,-0.9 M 147.4,75.5 m -1.8,0.9 l -1.8,-3.5 v -1.8 h 1.8 l 3.5,3.5 l 1.8,3.5 v 1.8 h -1.8 l -3.5,-3.5 m 1.8,-0.9 M 151.8,58.5 m -1.8,0.9 l -1.8,-3.5 v -1.8 h 1.8 l 3.5,3.5 l 1.8,3.5 v 1.8 h -1.8 l -3.5,-3.5 m 1.8,-0.9 M 156.3,39.5 m -1.8,0.9 l -1.8,-3.5 v -1.8 h 1.8 l 3.5,3.5 l 1.8,3.5 v 1.8 h -1.8 l -3.5,-3.5 m 1.8,-0.9 M 160.7,18.2 m -1.8,0.9 l -1.8,-3.5 v -1.8 h 1.8 l 3.5,3.5 l 1.8,3.5 v 1.8 h -1.8 l -3.5,-3.5 m 1.8,-0.9 M 165.1,-5.9 m -1.8,0.9 l -1.8,-3.5 v -1.8 h 1.8 l 3.5,3.5 l 1.8,3.5 v 1.8 h -1.8 l -3.5,-3.5 m 1.8,-0.9 M 169.6,-33.5 m -1.8,0.9 l -1.8,-3.5 v -1.8 h 1.8 l 3.5,3.5 l 1.8,3.5 v 1.8 h -1.8 l -3.5,-3.5 m 1.8,-0.9 M 174.0,-65.6 m -1.8,0.9 l -1.8,-3.5 v -1.8 h 1.8 l 3.5,3.5 l 1.8,3.5 v 1.8 h -1.8 l -3.5,-3.5 m 1.8,-0.9 M 178.5,-103.7 m -1.8,0.9 l -1.8,-3.5 v -1.8 h 1.8 l 3.5,3.5 l 1.8,3.5 v 1.8 h -1.8 l -3.5,-3.5 m 1.8,-0.9 M 182.9,-149.6 m -1.8,0.9 l -1.8,-3.5 v -1.8 h 1.8 l 3.5,3.5 l 1.8,3.5 v 1.8 h -1.8 l -3.5,-3.5 m 1.8,-0.9 M 187.3,-206.3 m -1.8,0.9 l -1.8,-3.5 v -1.8 h 1.8 l 3.5,3.5 l 1.8,3.5 v 1.8 h -1.8 l -3.5,-3.5 m 1.8,-0.9 M 191.8,-278.4 m -1.8,0.9 l -1.8,-3.5 v -1.8 h 1.8 l 3.5,3.5 l 1.8,3.5 v 1.8 h -1.8 l -3.5,-3.5 m 1.8,-0.9 M 249.5,896.3 m -1.8,0.9 l -1.8,-3.5 v -1.8 h 1.8 l 3.5,3.5 l 1.8,3.5 v 1.8 h -1.8 l -3.5,-3.5 m 1.8,-0.9 M 254.0,800.9 m -1.8,0.9 l -1.8,-3.5 v -1.8 h 1.8 l 3.5,3.5 l 1.8,3.5 v 1.8 h -1.8 l -3.5,-3.5 m 1.8,-0.9 M 258.4,728.8 m -1.8,0.9 l -1.8,-3.5 v -1.8 h 1.8 l 3.5,3.5 l 1.8,3.5 v 1.8 h -1.8 l -3.5,-3.5 m 1.8,-0.9 M 262.8,672.1 m -1.8,0.9 l -1.8,-3.5 v -1.8 h 1.8 l 3.5,3.5 l 1.8,3.5 v 1.8 h -1.8 l -3.5,-3.5 m 1.8,-0.9 M 267.3,626.2 m -1.8,0.9 l -1.8,-3.5 v -1.8 h 1.8 l 3.5,3.5 l 1.8,3.5 v 1.8 h -1.8 l -3.5,-3.5 m 1.8,-0.9 M 271.7,588.1 m -1.8,0.9 l -1.8,-3.5 v -1.8 h 1.8 l 3.5,3.5 l 1.8,3.5 v 1.8 h -1.8 l -3.5,-3.5 m 1.8,-0.9 M 276.2,556.0 m -1.8,0.9 l -1.8,-3.5 v -1.8 h 1.8 l 3.5,3.5 l 1.8,3.5 v 1.8 h -1.8 l -3.5,-3.5 m 1.8,-0.9 M 280.6,528.4 m -1.8,0.9 l -1.8,-3.5 v -1.8 h 1.8 l 3.5,3.5 l 1.8,3.5 v 1.8 h -1.8 l -3.5,-3.5 m 1.8,-0.9 M 285.0,504.3 m -1.8,0.9 l -1.8,-3.5 v -1.8 h 1.8 l 3.5,3.5 l 1.8,3.5 v 1.8 h -1.8 l -3.5,-3.5 m 1.8,-0.9 M 289.5,483.0 m -1.8,0.9 l -1.8,-3.5 v -1.8 h 1.8 l 3.5,3.5 l 1.8,3.5 v 1.8 h -1.8 l -3.5,-3.5 m 1.8,-0.9 M 293.9,464.0 m -1.8,0.9 l -1.8,-3.5 v -1.8 h 1.8 l 3.5,3.5 l 1.8,3.5 v 1.8 h -1.8 l -3.5,-3.5 m 1.8,-0.9 M 298.4,447.0 m -1.8,0.9 l -1.8,-3.5 v -1.8 h 1.8 l 3.5,3.5 l 1.8,3.5 v 1.8 h -1.8 l -3.5,-3.5 m 1.8,-0.9 M 302.8,431.4 m -1.8,0.9 l -1.8,-3.5 v -1.8 h 1.8 l 3.5,3.5 l 1.8,3.5 v 1.8 h -1.8 l -3.5,-3.5 m 1.8,-0.9 M 307.3,417.2 m -1.8,0.9 l -1.8,-3.5 v -1.8 h 1.8 l 3.5,3.5 l 1.8,3.5 v 1.8 h -1.8 l -3.5,-3.5 m 1.8,-0.9 M 311.7,404.0 m -1.8,0.9 l -1.8,-3.5 v -1.8 h 1.8 l 3.5,3.5 l 1.8,3.5 v 1.8 h -1.8 l -3.5,-3.5 m 1.8,-0.9 M 316.1,391.8 m -1.8,0.9 l -1.8,-3.5 v -1.8 h 1.8 l 3.5,3.5 l 1.8,3.5 v 1.8 h -1.8 l -3.5,-3.5 m 1.8,-0.9 M 320.6,380.4 m -1.8,0.9 l -1.8,-3.5 v -1.8 h 1.8 l 3.5,3.5 l 1.8,3.5 v 1.8 h -1.8 l -3.5,-3.5 m 1.8,-0.9 M 325.0,369.7 m -1.8,0.9 l -1.8,-3.5 v -1.8 h 1.8 l 3.5,3.5 l 1.8,3.5 v 1.8 h -1.8 l -3.5,-3.5 m 1.8,-0.9 M 329.5,359.5 m -1.8,0.9 l -1.8,-3.5 v -1.8 h 1.8 l 3.5,3.5 l 1.8,3.5 v 1.8 h -1.8 l -3.5,-3.5 m 1.8,-0.9 M 333.9,349.8 m -1.8,0.9 l -1.8,-3.5 v -1.8 h 1.8 l 3.5,3.5 l 1.8,3.5 v 1.8 h -1.8 l -3.5,-3.5 m 1.8,-0.9 M 338.3,340.6 m -1.8,0.9 l -1.8,-3.5 v -1.8 h 1.8 l 3.5,3.5 l 1.8,3.5 v 1.8 h -1.8 l -3.5,-3.5 m 1.8,-0.9 M 347.2,323.2 m -1.8,0.9 l -1.8,-3.5 v -1.8 h 1.8 l 3.5,3.5 l 1.8,3.5 v 1.8 h -1.8 l -3.5,-3.5 m 1.8,-0.9 M 356.1,306.8 m -1.8,0.9 l -1.8,-3.5 v -1.8 h 1.8 l 3.5,3.5 l 1.8,3.5 v 1.8 h -1.8 l -3.5,-3.5 m 1.8,-0.9 M 365.0,291.3 m -1.8,0.9 l -1.8,-3.5 v -1.8 h 1.8 l 3.5,3.5 l 1.8,3.5 v 1.8 h -1.8 l -3.5,-3.5 m 1.8,-0.9 M 373.9,276.1 m -1.8,0.9 l -1.8,-3.5 v -1.8 h 1.8 l 3.5,3.5 l 1.8,3.5 v 1.8 h -1.8 l -3.5,-3.5 m 1.8,-0.9 M 382.8,261.2 m -1.8,0.9 l -1.8,-3.5 v -1.8 h 1.8 l 3.5,3.5 l 1.8,3.5 v 1.8 h -1.8 l -3.5,-3.5 m 1.8,-0.9 M 391.6,246.4 m -1.8,0.9 l -1.8,-3.5 v -1.8 h 1.8 l 3.5,3.5 l 1.8,3.5 v 1.8 h -1.8 l -3.5,-3.5 m 1.8,-0.9 M 400.5,231.2 m -1.8,0.9 l -1.8,-3.5 v -1.8 h 1.8 l 3.5,3.5 l 1.8,3.5 v 1.8 h -1.8 l -3.5,-3.5 m 1.8,-0.9 M 409.4,215.7 m -1.8,0.9 l -1.8,-3.5 v -1.8 h 1.8 l 3.5,3.5 l 1.8,3.5 v 1.8 h -1.8 l -3.5,-3.5 m 1.8,-0.9 M 418.3,199.3 m -1.8,0.9 l -1.8,-3.5 v -1.8 h 1.8 l 3.5,3.5 l 1.8,3.5 v 1.8 h -1.8 l -3.5,-3.5 m 1.8,-0.9 M 427.2,181.9 m -1.8,0.9 l -1.8,-3.5 v -1.8 h 1.8 l 3.5,3.5 l 1.8,3.5 v 1.8 h -1.8 l -3.5,-3.5 m 1.8,-0.9 M 431.6,172.7 m -1.8,0.9 l -1.8,-3.5 v -1.8 h 1.8 l 3.5,3.5 l 1.8,3.5 v 1.8 h -1.8 l -3.5,-3.5 m 1.8,-0.9 M 436.0,163.0 m -1.8,0.9 l -1.8,-3.5 v -1.8 h 1.8 l 3.5,3.5 l 1.8,3.5 v 1.8 h -1.8 l -3.5,-3.5 m 1.8,-0.9 M 440.5,152.8 m -1.8,0.9 l -1.8,-3.5 v -1.8 h 1.8 l 3.5,3.5 l 1.8,3.5 v 1.8 h -1.8 l -3.5,-3.5 m 1.8,-0.9 M 444.9,142.1 m -1.8,0.9 l -1.8,-3.5 v -1.8 h 1.8 l 3.5,3.5 l 1.8,3.5 v 1.8 h -1.8 l -3.5,-3.5 m 1.8,-0.9 M 449.4,130.7 m -1.8,0.9 l -1.8,-3.5 v -1.8 h 1.8 l 3.5,3.5 l 1.8,3.5 v 1.8 h -1.8 l -3.5,-3.5 m 1.8,-0.9 M 453.8,118.5 m -1.8,0.9 l -1.8,-3.5 v -1.8 h 1.8 l 3.5,3.5 l 1.8,3.5 v 1.8 h -1.8 l -3.5,-3.5 m 1.8,-0.9 M 458.2,105.3 m -1.8,0.9 l -1.8,-3.5 v -1.8 h 1.8 l 3.5,3.5 l 1.8,3.5 v 1.8 h -1.8 l -3.5,-3.5 m 1.8,-0.9 M 462.7,91.1 m -1.8,0.9 l -1.8,-3.5 v -1.8 h 1.8 l 3.5,3.5 l 1.8,3.5 v 1.8 h -1.8 l -3.5,-3.5 m 1.8,-0.9 M 467.1,75.5 m -1.8,0.9 l -1.8,-3.5 v -1.8 h 1.8 l 3.5,3.5 l 1.8,3.5 v 1.8 h -1.8 l -3.5,-3.5 m 1.8,-0.9 M 471.6,58.5 m -1.8,0.9 l -1.8,-3.5 v -1.8 h 1.8 l 3.5,3.5 l 1.8,3.5 v 1.8 h -1.8 l -3.5,-3.5 m 1.8,-0.9 M 476.0,39.5 m -1.8,0.9 l -1.8,-3.5 v -1.8 h 1.8 l 3.5,3.5 l 1.8,3.5 v 1.8 h -1.8 l -3.5,-3.5 m 1.8,-0.9 M 480.5,18.2 m -1.8,0.9 l -1.8,-3.5 v -1.8 h 1.8 l 3.5,3.5 l 1.8,3.5 v 1.8 h -1.8 l -3.5,-3.5 m 1.8,-0.9 M 484.9,-5.9 m -1.8,0.9 l -1.8,-3.5 v -1.8 h 1.8 l 3.5,3.5 l 1.8,3.5 v 1.8 h -1.8 l -3.5,-3.5 m 1.8,-0.9 M 489.3,-33.5 m -1.8,0.9 l -1.8,-3.5 v -1.8 h 1.8 l 3.5,3.5 l 1.8,3.5 v 1.8 h -1.8 l -3.5,-3.5 m 1.8,-0.9 M 493.8,-65.6 m -1.8,0.9 l -1.8,-3.5 v -1.8 h 1.8 l 3.5,3.5 l 1.8,3.5 v 1.8 h -1.8 l -3.5,-3.5 m 1.8,-0.9 M 498.2,-103.7 m -1.8,0.9 l -1.8,-3.5 v -1.8 h 1.8 l 3.5,3.5 l 1.8,3.5 v 1.8 h -1.8 l -3.5,-3.5 m 1.8,-0.9 M 502.7,-149.6 m -1.8,0.9 l -1.8,-3.5 v -1.8 h 1.8 l 3.5,3.5 l 1.8,3.5 v 1.8 h -1.8 l -3.5,-3.5 m 1.8,-0.9 M 507.1,-206.3 m -1.8,0.9 l -1.8,-3.5 v -1.8 h 1.8 l 3.5,3.5 l 1.8,3.5 v 1.8 h -1.8 l -3.5,-3.5 m 1.8,-0.9 M 511.5,-278.4 m -1.8,0.9 l -1.8,-3.5 v -1.8 h 1.8 l 3.5,3.5 l 1.8,3.5 v 1.8 h -1.8 l -3.5,-3.5 m 1.8,-0.9 M 569.3,896.3 m -1.8,0.9 l -1.8,-3.5 v -1.8 h 1.8 l 3.5,3.5 l 1.8,3.5 v 1.8 h -1.8 l -3.5,-3.5 m 1.8,-0.9 M 573.7,800.9 m -1.8,0.9 l -1.8,-3.5 v -1.8 h 1.8 l 3.5,3.5 l 1.8,3.5 v 1.8 h -1.8 l -3.5,-3.5 m 1.8,-0.9 M 578.2,728.8 m -1.8,0.9 l -1.8,-3.5 v -1.8 h 1.8 l 3.5,3.5 l 1.8,3.5 v 1.8 h -1.8 l -3.5,-3.5 m 1.8,-0.9 M 582.6,672.1 m -1.8,0.9 l -1.8,-3.5 v -1.8 h 1.8 l 3.5,3.5 l 1.8,3.5 v 1.8 h -1.8 l -3.5,-3.5 m 1.8,-0.9 M 587.0,626.2 m -1.8,0.9 l -1.8,-3.5 v -1.8 h 1.8 l 3.5,3.5 l 1.8,3.5 v 1.8 h -1.8 l -3.5,-3.5 m 1.8,-0.9 M 591.5,588.1 m -1.8,0.9 l -1.8,-3.5 v -1.8 h 1.8 l 3.5,3.5 l 1.8,3.5 v 1.8 h -1.8 l -3.5,-3.5 m 1.8,-0.9 M 595.9,556.0 m -1.8,0.9 l -1.8,-3.5 v -1.8 h 1.8 l 3.5,3.5 l 1.8,3.5 v 1.8 h -1.8 l -3.5,-3.5 m 1.8,-0.9 M 600.4,528.4 m -1.8,0.9 l -1.8,-3.5 v -1.8 h 1.8 l 3.5,3.5 l 1.8,3.5 v 1.8 h -1.8 l -3.5,-3.5 m 1.8,-0.9 M 604.8,504.3 m -1.8,0.9 l -1.8,-3.5 v -1.8 h 1.8 l 3.5,3.5 l 1.8,3.5 v 1.8 h -1.8 l -3.5,-3.5 m 1.8,-0.9 M 609.2,483.0 m -1.8,0.9 l -1.8,-3.5 v -1.8 h 1.8 l 3.5,3.5 l 1.8,3.5 v 1.8 h -1.8 l -3.5,-3.5 m 1.8,-0.9 M 613.7,464.0 m -1.8,0.9 l -1.8,-3.5 v -1.8 h 1.8 l 3.5,3.5 l 1.8,3.5 v 1.8 h -1.8 l -3.5,-3.5 m 1.8,-0.9 M 618.1,447.0 m -1.8,0.9 l -1.8,-3.5 v -1.8 h 1.8 l 3.5,3.5 l 1.8,3.5 v 1.8 h -1.8 l -3.5,-3.5 m 1.8,-0.9 M 622.6,431.4 m -1.8,0.9 l -1.8,-3.5 v -1.8 h 1.8 l 3.5,3.5 l 1.8,3.5 v 1.8 h -1.8 l -3.5,-3.5 m 1.8,-0.9 M 627.0,417.2 m -1.8,0.9 l -1.8,-3.5 v -1.8 h 1.8 l 3.5,3.5 l 1.8,3.5 v 1.8 h -1.8 l -3.5,-3.5 m 1.8,-0.9 M 631.4,404.0 m -1.8,0.9 l -1.8,-3.5 v -1.8 h 1.8 l 3.5,3.5 l 1.8,3.5 v 1.8 h -1.8 l -3.5,-3.5 m 1.8,-0.9 M 635.9,391.8 m -1.8,0.9 l -1.8,-3.5 v -1.8 h 1.8 l 3.5,3.5 l 1.8,3.5 v 1.8 h -1.8 l -3.5,-3.5 m 1.8,-0.9 M 640.3,380.4 m -1.8,0.9 l -1.8,-3.5 v -1.8 h 1.8 l 3.5,3.5 l 1.8,3.5 v 1.8 h -1.8 l -3.5,-3.5 m 1.8,-0.9 M 644.8,369.7 m -1.8,0.9 l -1.8,-3.5 v -1.8 h 1.8 l 3.5,3.5 l 1.8,3.5 v 1.8 h -1.8 l -3.5,-3.5 m 1.8,-0.9 M 649.2,359.5 m -1.8,0.9 l -1.8,-3.5 v -1.8 h 1.8 l 3.5,3.5 l 1.8,3.5 v 1.8 h -1.8 l -3.5,-3.5 m 1.8,-0.9 M 653.6,349.8 m -1.8,0.9 l -1.8,-3.5 v -1.8 h 1.8 l 3.5,3.5 l 1.8,3.5 v 1.8 h -1.8 l -3.5,-3.5 m 1.8,-0.9 M 658.1,340.6 m -1.8,0.9 l -1.8,-3.5 v -1.8 h 1.8 l 3.5,3.5 l 1.8,3.5 v 1.8 h -1.8 l -3.5,-3.5 m 1.8,-0.9 M 667.0,323.2 m -1.8,0.9 l -1.8,-3.5 v -1.8 h 1.8 l 3.5,3.5 l 1.8,3.5 v 1.8 h -1.8 l -3.5,-3.5 m 1.8,-0.9 M 675.9,306.8 m -1.8,0.9 l -1.8,-3.5 v -1.8 h 1.8 l 3.5,3.5 l 1.8,3.5 v 1.8 h -1.8 l -3.5,-3.5 m 1.8,-0.9 M 684.7,291.3 m -1.8,0.9 l -1.8,-3.5 v -1.8 h 1.8 l 3.5,3.5 l 1.8,3.5 v 1.8 h -1.8 l -3.5,-3.5 m 1.8,-0.9 M 693.6,276.1 m -1.8,0.9 l -1.8,-3.5 v -1.8 h 1.8 l 3.5,3.5 l 1.8,3.5 v 1.8 h -1.8 l -3.5,-3.5 m 1.8,-0.9 M 702.5,261.3 m -1.8,0.9 l -1.8,-3.5 v -1.8 h 1.8 l 3.5,3.5 l 1.8,3.5 v 1.8 h -1.8 l -3.5,-3.5 m 1.8,-0.9 " />
<path class="plot05" d=" M 63.0,261.2 m 0.0,-3.5 a 3.5,3.5,0.0,1,1,0.0,7.0 a 3.5,3.5,0.0,1,1,0.0,-7.0 m 0.0,3.5 M 67.4,260.9 m 0.0,-3.5 a 3.5,3.5,0.0,1,1,0.0,7.0 a 3.5,3.5,0.0,1,1,0.0,-7.0 m 0.0,3.5 M 71.9,260.0 m 0.0,-3.5 a 3.5,3.5,0.0,1,1,0.0,7.0 a 3.5,3.5,0.0,1,1,0.0,-7.0 m 0.0,3.5 M 76.3,258.4 m 0.0,-3.5 a 3.5,3.5,0.0,1,1,0.0,7.0 a 3.5,3.5,0.0,1,1,0.0,-7.0 m 0.0,3.5 M 80.8,256.1 m 0.0,-3.5 a 3.5,3.5,0.0,1,1,0.0,7.0 a 3.5,3.5,0.0,1,1,0.0,-7.0 m 0.0,3.5 M 85.2,253.3 m 0.0,-3.5 a 3.5,3.5,0.0,1,1,0.0,7.0 a 3.5,3.5,0.0,1,1,0.0,-7.0 m 0.0,3.5 M 89.6,249.9 m 0.0,-3.5 a 3.5,3.5,0.0,1,1,0.0,7.0 a 3.5,3.5,0.0,1,1,0.0,-7.0 m 0.0,3.5 M 94.1,245.9 m 0.0,-3.5 a 3.5,3.5,0.0,1,1,0.0,7.0 a 3.5,3.5,0.0,1,1,0.0,-7.0 m 0.0,3.5 M 98.5,241.3 m 0.0,-3.5 a 3.5,3.5,0.0,1,1,0.0,7.0 a 3.5,3.5,0.0,1,1,0.0,-7.0 m 0.0,3.5 M 103.0,236.3 m 0.0,-3.5 a 3.5,3.5,0.0,1,1,0.0,7.0 a 3.5,3.5,0.0,1,1,0.0,-7.0 m 0.0,3.5 M 107.4,230.9 m 0.0,-3.5 a 3.5,3.5,0.0,1,1,0.0,7.0 a 3.5,3.5,0.0,1,1,0.0,-7.0 m 0.0,3.5 M 111.9,225.0 m 0.0,-3.5 a 3.5,3.5,0.0,1,1,0.0,7.0 a 3.5,3.5,0.0,1,1,0.0,-7.0 m 0.0,3.5 M 116.3,218.7 m 0.0,-3.5 a 3.5,3.5,0.0,1,1,0.0,7.0 a 3.5,3.5,0.0,1,1,0.0,-7.0 m 0.0,3.5 M 120.7,212.1 m 0.0,-3.5 a 3.5,3.5,0.0,1,1,0.0,7.0 a 3.5,3.5,0.0,1,1,0.0,-7.0 m 0.0,3.5 M 125.2,205.3 m 0.0,-3.5 a 3.5,3.5,0.0,1,1,0.0,7.0 a 3.5,3.5,0.0,1,1,0.0,-7.0 m 0.0,3.5 M 129.6,198.2 m 0.0,-3.5 a 3.5,3.5,0.0,1,1,0.0,7.0 a 3.5,3.5,0.0,1,1,0.0,-7.0 m 0.0,3.5 M 134.1,190.9 m 0.0,-3.5 a 3.5,3.5,0.0,1,1,0.0,7.0 a 3.5,3.5,0.0,1,1,0.0,-7.0 m 0.0,3.5 M 138.5,183.6 m 0.0,-3.5 a 3.5,3.5,0.0,1,1,0.0,7.0 a 3.5,3.5,0.0,1,1,0.0,-7.0 m 0.0,3.5 M 142.9,176.2 m 0.0,-3.5 a 3.5,3.5,0.0,1,1,0.0,7.0 a 3.5,3.5,0.0,1,1,0.0,-7.0 m 0.0,3.5 M 147.4,168.8 m 0.0,-3.5 a 3.5,3.5,0.0,1,1,0.0,7.0 a 3.5,3.5,0.0,1,1,0.0,-7.0 m 0.0,3.5 M 151.8,161.4 m 0.0,-3.5 a 3.5,3.5,0.0,1,1,0.0,7.0 a 3.5,3.5,0.0,1,1,0.0,-7.0 m 0.0,3.5 M 156.3,154.1 m 0.0,-3.5 a 3.5,3.5,0.0,1,1,0.0,7.0 a 3.5,3.5,0.0,1,1,0.0,-7.0 m 0.0,3.5 M 160.7,147.1 m 0.0,-3.5 a 3.5,3.5,0.0,1,1,0.0,7.0 a 3.5,3.5,0.0,1,1,0.0,-7.0 m 0.0,3.5 M 165.1,140.2 m 0.0,-3.5 a 3.5,3.5,0.0,1,1,0.0,7.0 a 3.5,3.5,0.0,1,1,0.0,-7.0 m 0.0,3.5 M 169.6,133.6 m 0.0,-3.5 a 3.5,3.5,0.0,1,1,0.0,7.0 a 3.5,3.5,0.0,1,1,0.0,-7.0 m 0.0,3.5 M 174.0,127.4 m 0.0,-3.5 a 3.5,3.5,0.0,1,1,0.0,7.0 a 3.5,3.5,0.0,1,1,0.0,-7.0 m 0.0,3.5 M 178.5,121.5 m 0.0,-3.5 a 3.5,3.5,0.0,1,1,0.0,7.0 a 3.5,3.5,0.0,1,1,0.0,-7.0 m 0.0,3.5 M 182.9,116.0 m 0.0,-3.5 a 3.5,3.5,0.0,1,1,0.0,7.0 a 3.5,3.5,0.0,1,1,0.0,-7.0 m 0.0,3.5 M 187.3,111.0 m 0.0,-3.5 a 3.5,3.5,0.0,1,1,0.0,7.0 a 3.5,3.5,0.0,1,1,0.0,-7.0 m 0.0,3.5 M 191.8,106.5 m 0.0,-3.5 a 3.5,3.5,0.0,1,1,0.0,7.0 a 3.5,3.5,0.0,1,1,0.0,-7.0 m 0.0,3.5 M 196.2,102.5 m 0.0,-3.5 a 3.5,3.5,0.0,1,1,0.0,7.0 a 3.5,3.5,0.0,1,1,0.0,-7.0 m 0.0,3.5 M 200.7,99.1 m 0.0,-3.5 a 3.5,3.5,0.0,1,1,0.0,7.0 a 3.5,3.5,0.0,1,1,0.0,-7.0 m 0.0,3.5 M 205.1,96.2 m 0.0,-3.5 a 3.5,3.5,0.0,1,1,0.0,7.0 a 3.5,3.5,0.0,1,1,0.0,-7.0 m 0.0,3.5 M 209.6,94.0 m 0.0,-3.5 a 3.5,3.5,0.0,1,1,0.0,7.0 a 3.5,3.5,0.0,1,1,0.0,-7.0 m 0.0,3.5 M 214.0,92.4 m 0.0,-3.5 a 3.5,3.5,0.0,1,1,0.0,7.0 a 3.5,3.5,0.0,1,1,0.0,-7.0 m 0.0,3.5 M 218.4,91.4 m 0.0,-3.5 a 3.5,3.5,0.0,1,1,0.0,7.0 a 3.5,3.5,0.0,1,1,0.0,-7.0 m 0.0,3.5 M 222.9,91.1 m 0.0,-3.5 a 3.5,3.5,0.0,1,1,0.0,7.0 a 3.5,3.5,0.0,1,1,0.0,-7.0 m 0.0,3.5 M 227.3,91.4 m 0.0,-3.5 a 3.5,3.5,0.0,1,1,0.0,7.0 a 3.5,3.5,0.0,1,1,0.0,-7.0 m 0.0,3.5 M 231.8,92.4 m 0.0,-3.5 a 3.5,3.5,0.0,1,1,0.0,7.0 a 3.5,3.5,0.0,1,1,0.0,-7.0 m 0.0,3.5 M 236.2,94.0 m 0.0,-3.5 a 3.5,3.5,0.0,1,1,0.0,7.0 a 3.5,3.5,0.0,1,1,0.0,-7.0 m 0.0,3.5 M 240.6,96.2 m 0.0,-3.5 a 3.5,3.5,0.0,1,1,0.0,7.0 a 3.5,3.5,0.0,1,1,0.0,-7.0 m 0.0,3.5 M 245.1,99.1 m 0.0,-3.5 a 3.5,3.5,0.0,1,1,0.0,7.0 a 3.5,3.5,0.0,1,1,0.0,-7.0 m 0.0,3.5 M 249.5,102.5 m 0.0,-3.5 a 3.5,3.5,0.0,1,1,0.0,7.0 a 3.5,3.5,0.0,1,1,0.0,-7.0 m 0.0,3.5 M 254.0,106.5 m 0.0,-3.5 a 3.5,3.5,0.0,1,1,0.0,7.0 a 3.5,3.5,0.0,1,1,0.0,-7.0 m 0.0,3.5 M 258.4,111.0 m 0.0,-3.5 a 3.5,3.5,0.0,1,1,0.0,7.0 a 3.5,3.5,0.0,1,1,0.0,-7.0 m 0.0,3.5 M 262.8,116.0 m 0.0,-3.5 a 3.5,3.5,0.0,1,1,0.0,7.0 a 3.5,3.5,0.0,1,1,0.0,-7.0 m 0.0,3.5 M 267.3,121.5 m 0.0,-3.5 a 3.5,3.5,0.0,1,1,0.0,7.0 a 3.5,3.5,0.0,1,1,0.0,-7.0 m 0.0,3.5 M 271.7,127.4 m 0.0,-3.5 a 3.5,3.5,0.0,1,1,0.0,7.0 a 3.5,3.5,0.0,1,1,0.0,-7.0 m 0.0,3.5 M 276.2,133.6 m 0.0,-3.5 a 3.5,3.5,0.0,1,1,0.0,7.0 a 3.5,3.5,0.0,1,1,0.0,-7.0 m 0.0,3.5 M 280.6,140.2 m 0.0,-3.5 a 3.5,3.5,0.0,1,1,0.0,7.0 a 3.5,3.5,0.0,1,1,0.0,-7.0 m 0.0,3.5 M 285.0,147.1 m 0.0,-3.5 a 3.5,3.5,0.0,1,1,0.0,7.0 a 3.5,3.5,0.0,1,1,0.0,-7.0 m 0.0,3.5 M 289.5,154.1 m 0.0,-3.5 a 3.5,3.5,0.0,1,1,0.0,7.0 a 3.5,3.5,0.0,1,1,0.0,-7.0 m 0.0,3.5 M 293.9,161.4 m 0.0,-3.5 a 3.5,3.5,0.0,1,1,0.0,7.0 a 3.5,3.5,0.0,1,1,0.0,-7.0 m 0.0,3.5 M 298.4,168.8 m 0.0,-3.5 a 3.5,3.5,0.0,1,1,0.0,7.0 a 3.5,3.5,0.0,1,1,0.0,-7.0 m 0.0,3.5 M 302.8,176.2 m 0.0,-3.5 a 3.5,3.5,0.0,1,1,0.0,7.0 a 3.5,3.5,0.0,1,1,0.0,-7.0 m 0.0,3.5 M 307.3,183.6 m 0.0,-3.5 a 3.5,3.5,0.0,1,1,0.0,7.0 a 3.5,3.5,0.0,1,1,0.0,-7.0 m 0.0,3.5 M 311.7,190.9 m 0.0,-3.5 a 3.5,3.5,0.0,1,1,0.0,7.0 a 3.5,3.5,0.0,1,1,0.0,-7.0 m 0.0,3.5 M 316.1,198.2 m 0.0,-3.5 a 3.5,3.5,0.0,1,1,0.0,7.0 a 3.5,3.5,0.0,1,1,0.0,-7.0 m 0.0,3.5 M 320.6,205.3 m 0.0,-3.5 a 3.5,3.5,0.0,1,1,0.0,7.0 a 3.5,3.5,0.0,1,1,0.0,-7.0 m 0.0,3.5 M 325.0,212.1 m 0.0,-3.5 a 3.5,3.5,0.0,1,1,0.0,7.0 a 3.5,3.5,0.0,1,1,0.0,-7.0 m 0.0,3.5 M 329.5,218.7 m 0.0,-3.5 a 3.5,3.5,0.0,1,1,0.0,7.0 a 3.5,3.5,0.0,1,1,0.0,-7.0 m 0.0,3.5 M 333.9,225.0 m 0.0,-3.5 a 3.5,3.5,0.0,1,1,0.0,7.0 a 3.5,3.5,0.0,1,1,0.0,-7.0 m 0.0,3.5 M 338.3,230.9 m 0.0,-3.5 a 3.5,3.5,0.0,1,1,0.0,7.0 a 3.5,3.5,0.0,1,1,0.0,-7.0 m 0.0,3.5 M 342.8,236.3 m 0.0,-3.5 a 3.5,3.5,0.0,1,1,0.0,7.0 a 3.5,3.5,0.0,1,1,0.0,-7.0 m 0.0,3.5 M 347.2,241.3 m 0.0,-3.5 a 3.5,3.5,0.0,1,1,0.0,7.0 a 3.5,3.5,0.0,1,1,0.0,-7.0 m 0.0,3.5 M 351.7,245.9 m 0.0,-3.5 a 3.5,3.5,0.0,1,1,0.0,7.0 a 3.5,3.5,0.0,1,1,0.0,-7.0 m 0.0,3.5 M 356.1,249.9 m 0.0,-3.5 a 3.5,3.5,0.0,1,1,0.0,7.0 a 3.5,3.5,0.0,1,1,0.0,-7.0 m 0.0,3.5 M 360.5,253.3 m 0.0,-3.5 a 3.5,3.5,0.0,1,1,0.0,7.0 a 3.5,3.5,0.0,1,1,0.0,-7.0 m 0.0,3.5 M 365.0,256.1 m 0.0,-3.5 a 3.5,3.5,0.0,1,1,0.0,7.0 a 3.5,3.5,0.0,1,1,0.0,-7.0 m 0.0,3.5 M 369.4,258.4 m 0.0,-3.5 a 3.5,3.5,0.0,1,1,0.0,7.0 a 3.5,3.5,0.0,1,1,0.0,-7.0 m 0.0,3.5 M 373.9,260.0 m 0.0,-3.5 a 3.5,3.5,0.0,1,1,0.0,7.0 a 3.5,3.5,0.0,1,1,0.0,-7.0 m 0.0,3.5 M 378.3,260.9 m 0.0,-3.5 a 3.5,3.5,0.0,1,1,0.0,7.0 a 3.5,3.5,0.0,1,1,0.0,-7.0 m 0.0,3.5 M 382.8,261.2 m 0.0,-3.5 a 3.5,3.5,0.0,1,1,0.0,7.0 a 3.5,3.5,0.0,1,1,0.0,-7.0 m 0.0,3.5 M 387.2,260.9 m 0.0,-3.5 a 3.5,3.5,0.0,1,1,0.0,7.0 a 3.5,3.5,0.0,1,1,0.0,-7.0 m 0.0,3.5 M 391.6,260.0 m 0.0,-3.5 a 3.5,3.5,0.0,1,1,0.0,7.0 a 3.5,3.5,0.0,1,1,0.0,-7.0 m 0.0,3.5 M 396.1,258.4 m 0.0,-3.5 a 3.5,3.5,0.0,1,1,0.0,7.0 a 3.5,3.5,0.0,1,1,0.0,-7.0 m 0.0,3.5 M 400.5,256.1 m 0.0,-3.5 a 3.5,3.5,0.0,1,1,0.0,7.0 a 3.5,3.5,0.0,1,1,0.0,-7.0 m 0.0,3.5 M 405.0,253.3 m 0.0,-3.5 a 3.5,3.5,0.0,1,1,0.0,7.0 a 3.5,3.5,0.0,1,1,0.0,-7.0 m 0.0,3.5 M 409.4,249.9 m 0.0,-3.5 a 3.5,3.5,0.0,1,1,0.0,7.0 a 3.5,3.5,0.0,1,1,0.0,-7.0 m 0.0,3.5 M 413.8,245.9 m 0.0,-3.5 a 3.5,3.5,0.0,1,1,0.0,7.0 a 3.5,3.5,0.0,1,1,0.0,-7.0 m 0.0,3.5 M 418.3,241.3 m 0.0,-3.5 a 3.5,3.5,0.0,1,1,0.0,7.0 a 3.5,3.5,0.0,1,1,0.0,-7.0 m 0.0,3.5 M 422.7,236.3 m 0.0,-3.5 a 3.5,3.5,0.0,1,1,0.0,7.0 a 3.5,3.5,0.0,1,1,0.0,-7.0 m 0.0,3.5 M 427.2,230.9 m 0.0,-3.5 a 3.5,3.5,0.0,1,1,0.0,7.0 a 3.5,3.5,0.0,1,1,0.0,-7.0 m 0.0,3.5 M 431.6,225.0 m 0.0,-3.5 a 3.5,3.5,0.0,1,1,0.0,7.0 a 3.5,3.5,0.0,1,1,0.0,-7.0 m 0.0,3.5 M 436.0,218.7 m 0.0,-3.5 a 3.5,3.5,0.0,1,1,0.0,7.0 a 3.5,3.5,0.0,1,1,0.0,-7.0 m 0.0,3.5 M 440.5,212.1 m 0.0,-3.5 a 3.5,3.5,0.0,1,1,0.0,7.0 a 3.5,3.5,0.0,1,1,0.0,-7.0 m 0.0,3.5 M 444.9,205.3 m 0.0,-3.5 a 3.5,3.5,0.0,1,1,0.0,7.0 a 3.5,3.5,0.0,1,1,0.0,-7.0 m 0.0,3.5 M 449.4,198.2 m 0.0,-3.5 a 3.5,3.5,0.0,1,1,0.0,7.0 a 3.5,3.5,0.0,1,1,0.0,-7.0 m 0.0,3.5 M 453.8,190.9 m 0.0,-3.5 a 3.5,3.5,0.0,1,1,0.0,7.0 a 3.5,3.5,0.0,1,1,0.0,-7.0 m 0.0,3.5 M 458.2,183.6 m 0.0,-3.5 a 3.5,3.5,0.0,1,1,0.0,7.0 a 3.5,3.5,0.0,1,1,0.0,-7.0 m 0.0,3.5 M 462.7,176.2 m 0.0,-3.5 a 3.5,3.5,0.0,1,1,0.0,7.0 a 3.5,3.5,0.0,1,1,0.0,-7.0 m 0.0,3.5 M 467.1,168.8 m 0.0,-3.5 a 3.5,3.5,0.0,1,1,0.0,7.0 a 3.5,3.5,0.0,1,1,0.0,-7.0 m 0.0,3.5 M 471.6,161.4 m 0.0,-3.5 a 3.5,3.5,0.0,1,1,0.0,7.0 a 3.5,3.5,0.0,1,1,0.0,-7.0 m 0.0,3.5 M 476.0,154.1 m 0.0,-3.5 a 3.5,3.5,0.0,1,1,0.0,7.0 a 3.5,3.5,0.0,1,1,0.0,-7.0 m 0.0,3.5 M 480.5,147.1 m 0.0,-3.5 a 3.5,3.5,0.0,1,1,0.0,7.0 a 3.5,3.5,0.0,1,1,0.0,-7.0 m 0.0,3.5 M 484.9,140.2 m 0.0,-3.5 a 3.5,3.5,0.0,1,1,0.0,7.0 a 3.5,3.5,0.0,1,1,0.0,-7.0 m 0.0,3.5 M 489.3,133.6 m 0.0,-3.5 a 3.5,3.5,0.0,1,1,0.0,7.0 a 3.5,3.5,0.0,1,1,0.0,-7.0 m 0.0,3.5 M 493.8,127.4 m 0.0,-3.5 a 3.5,3.5,0.0,1,1,0.0,7.0 a 3.5,3.5,0.0,1,1,0.0,-7.0 m 0.0,3.5 M 498.2,121.5 m 0.0,-3.5 a 3.5,3.5,0.0,1,1,0.0,7.0 a 3.5,3.5,0.0,1,1,0.0,-7.0 m 0.0,3.5 M 502.7,116.0 m 0.0,-3.5 a 3.5,3.5,0.0,1,1,0.0,7.0 a 3.5,3.5,0.0,1,1,0.0,-7.0 m 0.0,3.5 M 507.1,111.0 m 0.0,-3.5 a 3.5,3.5,0.0,1,1,0.0,7.0 a 3.5,3.5,0.0,1,1,0.0,-7.0 m 0.0,3.5 M 511.5,106.5 m 0.0,-3.5 a 3.5,3.5,0.0,1,1,0.0,7.0 a 3.5,3.5,0.0,1,1,0.0,-7.0 m 0.0,3.5 M 516.0,102.5 m 0.0,-3.5 a 3.5,3.5,0.0,1,1,0.0,7.0 a 3.5,3.5,0.0,1,1,0.0,-7.0 m 0.0,3.5 M 520.4,99.1 m 0.0,-3.5 a 3.5,3.5,0.0,1,1,0.0,7.0 a 3.5,3.5,0.0,1,1,0.0,-7.0 m 0.0,3.5 M 524.9,96.2 m 0.0,-3.5 a 3.5,3.5,0.0,1,1,0.0,7.0 a 3.5,3.5,0.0,1,1,0.0,-7.0 m 0.0,3.5 M 529.3,94.0 m 0.0,-3.5 a 3.5,3.5,0.0,1,1,0.0,7.0 a 3.5,3.5,0.0,1,1,0.0,-7.0 m 0.0,3.5 M 533.7,92.4 m 0.0,-3.5 a 3.5,3.5,0.0,1,1,0.0,7.0 a 3.5,3.5,0.0,1,1,0.0,-7.0 m 0.0,3.5 M 538.2,91.4 m 0.0,-3.5 a 3.5,3.5,0.0,1,1,0.0,7.0 a 3.5,3.5,0.0,1,1,0.0,-7.0 m 0.0,3.5 M 542.6,91.1 m 0.0,-3.5 a 3.5,3.5,0.0,1,1,0.0,7.0 a 3.5,3.5,0.0,1,1,0.0,-7.0 m 0.0,3.5 M 547.1,91.4 m 0.0,-3.5 a 3.5,3.5,0.0,1,1,0.0,7.0 a 3.5,3.5,0.0,1,1,0.0,-7.0 m 0.0,3.5 M 551.5,92.4 m 0.0,-3.5 a 3.5,3.5,0.0,1,1,0.0,7.0 a 3.5,3.5,0.0,1,1,0.0,-7.0 m 0.0,3.5 M 555.9,94.0 m 0.0,-3.5 a 3.5,3.5,0.0,1,1,0.0,7.0 a 3.5,3.5,0.0,1,1,0.0,-7.0 m 0.0,3.5 M 560.4,96.2 m 0.0,-3.5 a 3.5,3.5,0.0,1,1,0.0,7.0 a 3.5,3.5,0.0,1,1,0.0,-7.0 m 0.0,3.5 M 564.8,99.1 m 0.0,-3.5 a 3.5,3.5,0.0,1,1,0.0,7.0 a 3.5,3.5,0.0,1,1,0.0,-7.0 m 0.0,3.5 M 569.3,102.5 m 0.0,-3.5 a 3.5,3.5,0.0,1,1,0.0,7.0 a 3.5,3.5,0.0,1,1,0.0,-7.0 m 0.0,3.5 M 573.7,106.5 m 0.0,-3.5 a 3.5,3.5,0.0,1,1,0.0,7.0 a 3.5,3.5,0.0,1,1,0.0,-7.0 m 0.0,3.5 M 578.2,111.0 m 0.0,-3.5 a 3.5,3.5,0.0,1,1,0.0,7.0 a 3.5,3.5,0.0,1,1,0.0,-7.0 m 0.0,3.5 M 582.6,116.0 m 0.0,-3.5 a 3.5,3.5,0.0,1,1,0.0,7.0 a 3.5,3.5,0.0,1,1,0.0,-7.0 m 0.0,3.5 M 587.0,121.5 m 0.0,-3.5 a 3.5,3.5,0.0,1,1,0.0,7.0 a 3.5,3.5,0.0,1,1,0.0,-7.0 m 0.0,3.5 M 591.5,127.4 m 0.0,-3.5 a 3.5,3.5,0.0,1,1,0.0,7.0 a 3.5,3.5,0.0,1,1,0.0,-7.0 m 0.0,3.5 M 595.9,133.6 m 0.0,-3.5 a 3.5,3.5,0.0,1,1,0.0,7.0 a 3.5,3.5,0.0,1,1,0.0,-7.0 m 0.0,3.5 M 600.4,140.2 m 0.0,-3.5 a 3.5,3.5,0.0,1,1,0.0,7.0 a 3.5,3.5,0.0,1,1,0.0,-7.0 m 0.0,3.5 M 604.8,147.1 m 0.0,-3.5 a 3.5,3.5,0.0,1,1,0.0,7.0 a 3.5,3.5,0.0,1,1,0.0,-7.0 m 0.0,3.5 M 609.2,154.1 m 0.0,-3.5 a 3.5,3.5,0.0,1,1,0.0,7.0 a 3.5,3.5,0.0,1,1,0.0,-7.0 m 0.0,3.5 M 613.7,161.4 m 0.0,-3.5 a 3.5,3.5,0.0,1,1,0.0,7.0 a 3.5,3.5,0.0,1,1,0.0,-7.0 m 0.0,3.5 M 618.1,168.8 m 0.0,-3.5 a 3.5,3.5,0.0,1,1,0.0,7.0 a 3.5,3.5,0.0,1,1,0.0,-7.0 m 0.0,3.5 M 622.6,176.2 m 0.0,-3.5 a 3.5,3.5,0.0,1,1,0.0,7.0 a 3.5,3.5,0.0,1,1,0.0,-7.0 m 0.0,3.5 M 627.0,183.6 m 0.0,-3.5 a 3.5,3.5,0.0,1,1,0.0,7.0 a 3.5,3.5,0.0,1,1,0.0,-7.0 m 0.0,3.5 M 631.4,190.9 m 0.0,-3.5 a 3.5,3.5,0.0,1,1,0.0,7.0 a 3.5,3.5,0.0,1,1,0.0,-7.0 m 0.0,3.5 M 635.9,198.2 m 0.0,-3.5 a 3.5,3.5,0.0,1,1,0.0,7.0 a 3.5,3.5,0.0,1,1,0.0,-7.0 m 0.0,3.5 M 640.3,205.3 m 0.0,-3.5 a 3.5,3.5,0.0,1,1,0.0,7.0 a 3.5,3.5,0.0,1,1,0.0,-7.0 m 0.0,3.5 M 644.8,212.1 m 0.0,-3.5 a 3.5,3.5,0.0,1,1,0.0,7.0 a 3.5,3.5,0.0,1,1,0.0,-7.0 m 0.0,3.5 M 649.2,218.7 m 0.0,-3.5 a 3.5,3.5,0.0,1,1,0.0,7.0 a 3.5,3.5,0.0,1,1,0.0,-7.0 m 0.0,3.5 M 653.6,225.0 m 0.0,-3.5 a 3.5,3.5,0.0,1,1,0.0,7.0 a 3.5,3.5,0.0,1,1,0.0,-7.0 m 0.0,3.5 M 658.1,230.9 m 0.0,-3.5 a 3.5,3.5,0.0,1,1,0.0,7.0 a 3.5,3.5,0.0,1,1,0.0,-7.0 m 0.0,3.5 M 662.5,236.3 m 0.0,-3.5 a 3.5,3.5,0.0,1,1,0.0,7.0 a 3.5,3.5,0.0,1,1,0.0,-7.0 m 0.0,3.5 M 667.0,241.3 m 0.0,-3.5 a 3.5,3.5,0.0,1,1,0.0,7.0 a 3.5,3.5,0.0,1,1,0.0,-7.0 m 0.0,3.5 M 671.4,245.9 m 0.0,-3.5 a 3.5,3.5,0.0,1,1,0.0,7.0 a 3.5,3.5,0.0,1,1,0.0,-7.0 m 0.0,3.5 M 675.9,249.9 m 0.0,-3.5 a 3.5,3.5,0.0,1,1,0.0,7.0 a 3.5,3.5,0.0,1,1,0.0,-7.0 m 0.0,3.5 M 680.3,253.3 m 0.0,-3.5 a 3.5,3.5,0.0,1,1,0.0,7.0 a 3.5,3.5,0.0,1,1,0.0,-7.0 m 0.0,3.5 M 684.7,256.1 m 0.0,-3.5 a 3.5,3.5,0.0,1,1,0.0,7.0 a 3.5,3.5,0.0,1,1,0.0,-7.0 m 0.0,3.5 M 689.2,258.4 m 0.0,-3.5 a 3.5,3.5,0.0,1,1,0.0,7.0 a 3.5,3.5,0.0,1,1,0.0,-7.0 m 0.0,3.5 M 693.6,260.0 m 0.0,-3.5 a 3.5,3.5,0.0,1,1,0.0,7.0 a 3.5,3.5,0.0,1,1,0.0,-7.0 m 0.0,3.5 M 698.1,260.9 m 0.0,-3.5 a 3.5,3.5,0.0,1,1,0.0,7.0 a 3.5,3.5,0.0,1,1,0.0,-7.0 m 0.0,3.5 M 702.5,261.2 m 0.0,-3.5 a 3.5,3.5,0.0,1,1,0.0,7.0 a 3.5,3.5,0.0,1,1,0.0,-7.0 m 0.0,3.5 " />
<path class="plot06" d=" M 67.4,-300.0 L 71.9,-300.0 M 80.8,-300.0 M 85.2,-300.0 M 89.6,-300.0 L 94.1,-278.4 L 98.5,-206.3 L 103.0,-149.6 L 107.4,-103.7 L 111.9,-65.6 L 116.3,-33.5 L 120.7,-5.9 L 125.2,18.2 L 129.6,39.5 L 134.1,58.5 L 138.5,75.5 L 142.9,91.1 L 147.4,105.3 L 151.8,118.5 L 156.3,130.7 L 160.7,142.1 L 165.1,152.8 L 169.6,163.0 L 174.0,172.7 L 178.5,181.9 L 182.9,190.8 L 187.3,199.3 L 191.8,207.6 L 196.2,215.7 L 200.7,223.5 L 205.1,231.2 L 209.6,238.8 L 214.0,246.4 L 218.4,253.8 L 222.9,261.2 L 227.3,268.7 L 231.8,276.1 L 236.2,283.7 L 240.6,291.3 L 245.1,299.0 L 249.5,306.8 L 254.0,314.9 L 258.4,323.2 L 262.8,331.7 L 267.3,340.6 L 271.7,349.8 L 276.2,359.5 L 280.6,369.7 L 285.0,380.4 L 289.5,391.8 L 293.9,404.0 L 298.4,417.2 L 302.8,431.4 L 307.3,447.0 L 311.7,464.0 L 316.1,483.0 L 320.6,504.3 L 325.0,528.4 L 329.5,556.0 L 333.9,588.1 L 338.3,626.2 L 342.8,672.1 L 347.2,728.8 L 351.7,800.9 L 356.1,896.3 L 360.5,900.0 M 369.4,900.0 M 373.9,900.0 M 378.3,900.0 M 382.8,900.0 M 387.2,-300.0 M 391.6,-300.0 M 396.1,-300.0 M 400.5,-300.0 M 405.0,-300.0 M 409.4,-300.0 L 413.8,-278.4 L 418.3,-206.3 L 422.7,-149.6 L 427.2,-103.7 L 431.6,-65.6 L 436.0,-33.5 L 440.5,-5.9 L 444.9,18.2 L 449.4,39.5 L 453.8,58.5 L 458.2,75.5 L 462.7,91.1 L 467.1,105.3 L 471.6,118.5 L 476.0,130.7 L 480.5,142.1 L 484.9,152.8 L 489.3,163.0 L 493.8,172.7 L 498.2,181.9 L 502.7,190.8 L 507.1,199.3 L 511.5,207.6 L 516.0,215.7 L 520.4,223.5 L 524.9,231.2 L 529.3,238.8 L 533.7,246.4 L 538.2,253.8 L 542.6,261.2 L 547.1,268.7 L 551.5,276.1 L 555.9,283.7 L 560.4,291.3 L 564.8,299.0 L 569.3,306.8 L 573.7,314.9 L 578.2,323.2 L 582.6,331.7 L 587.0,340.6 L 591.5,349.8 L 595.9,359.5 L 600.4,369.7 L 604.8,380.4 L 609.2,391.8 L 613.7,404.0 L 618.1,417.2 L 622.6,431.4 L 627.0,447.0 L 631.4,464.0 L 635.9,483.0 L 640.3,504.3 L 644.8,528.4 L 649.2,556.0 L 653.6,588.1 L 658.1,626.2 L 662.5,672.1 L 667.0,728.8 L 671.4,800.9 L 675.9,896.3 L 680.3,900.0 M 689.2,900.0 M 693.6,900.0 M 698.1,900.0 M 702.5,900.0 M 67.4,-300.0 " />
<path class="plot07" d=" M 142.9,140.9 M 462.7,381.6 M 142.9,140.9 m -1.8,0.0 l -1.8,-3.5 l 3.5,1.8 l 3.5,-1.8 l -1.8,3.5 l 1.8,3.5 l -3.5,-1.8 l -3.5,1.8 l 1.8,-3.5 m 1.8,0.0m 0.0,-3.5 a 3.5,3.5,0.0,1,1,0.0,7.0 a 3.5,3.5,0.0,1,1,0.0,-7.0 m 0.0,3.5 M 462.7,381.6 m -1.8,0.0 l -1.8,-3.5 l 3.5,1.8 l 3.5,-1.8 l -1.8,3.5 l 1.8,3.5 l -3.5,-1.8 l -3.5,1.8 l 1.8,-3.5 m 1.8,0.0m 0.0,-3.5 a 3.5,3.5,0.0,1,1,0.0,7.0 a 3.5,3.5,0.0,1,1,0.0,-7.0 m 0.0,3.5 " />
</g>
<text x="382.75" y="544.00" class="xtitle" >Degrees</text>
<text x="-21.00" y="-261.25" class="ytitle" transform="rotate(180)">Function Value</text>
<rect x="709.5" y="32.0" width="84.5" height="204.8" rx="6.0" class="legends" />
<text x="722.50" y="51.50" class="legends headline" >Legends:</text>
<text x="729.00" y="80.75" class="legends plot02" >sin(n)</text>
<text x="729.00" y="100.25" class="legends plot03" >cos(n)</text>
<text x="729.00" y="119.75" class="legends plot04" >tan(n)</text>
<path class="plot04" d=" M 729.0,129.5 H 758.2 m -1.8,0.9 l -1.8,-3.5 v -1.8 h 1.8 l 3.5,3.5 l 1.8,3.5 v 1.8 h -1.8 l -3.5,-3.5 m 1.8,-0.9 H 787.5 " />
<text x="729.00" y="158.75" class="legends plot05" >sin²(n)</text>
<path class="plot05" d=" M 754.8,168.5 m 0.0,-3.5 a 3.5,3.5,0.0,1,1,0.0,7.0 a 3.5,3.5,0.0,1,1,0.0,-7.0 m 0.0,3.5 " />
<text x="729.00" y="197.75" class="legends plot06" >cot(n)</text>
<text x="729.00" y="217.25" class="legends plot07" >sin=cos</text>
<text x="400.00" y="594.00" class="subtitle" >Data by numbers®</text>
<text x="400.00" y="575.25" class="title" >Trigonometric Functions</text>
</svg>
