<?xml version="1.0" encoding="UTF-8" standalone="no"?>
<svg width="800" height="600" xmlns="http://www.w3.org/2000/svg">
<!--
    Created by csv2svg: 1.20.1-2-ga71af7c (343) https://github.com/msalmonse/csv2svg.git
  -->
<defs>
<clipPath id="plotable">
<rect x="55.0" y="3.0" width="660.5" height="516.5" />
</clipPath>
</defs>
<rect
    x="0" y="0" width="800" height="600"
    style="stroke: none; stroke-width: 0; fill: #ffedcc"
/>
<path d=" M 62.0,261.2 H 708.5 M 62.0,512.5 V 10.0 " style="stroke: Black;fill: none;stroke-width: 2.0;stroke-linecap: round" />
<path d=" M 97.9,512.5 V 10.0 M 133.8,512.5 V 10.0 M 169.8,512.5 V 10.0 M 205.7,512.5 V 10.0 M 241.6,512.5 V 10.0 M 277.5,512.5 V 10.0 M 313.4,512.5 V 10.0 M 349.3,512.5 V 10.0 M 385.2,512.5 V 10.0 M 421.2,512.5 V 10.0 M 457.1,512.5 V 10.0 M 493.0,512.5 V 10.0 M 528.9,512.5 V 10.0 M 564.8,512.5 V 10.0 M 600.8,512.5 V 10.0 M 636.7,512.5 V 10.0 M 672.6,512.5 V 10.0 M 708.5,512.5 V 10.0 " style="stroke: Silver;fill: none;stroke-width: 1.0;stroke-linecap: round" />
<text x="97.92" y="525.00" style="text-anchor: middle; font-size: 10.0px">20</text>
<text x="133.83" y="525.00" style="text-anchor: middle; font-size: 10.0px">40</text>
<text x="169.75" y="525.00" style="text-anchor: middle; font-size: 10.0px">60</text>
<text x="205.67" y="525.00" style="text-anchor: middle; font-size: 10.0px">80</text>
<text x="241.58" y="525.00" style="text-anchor: middle; font-size: 10.0px">100</text>
<text x="277.50" y="525.00" style="text-anchor: middle; font-size: 10.0px">120</text>
<text x="313.42" y="525.00" style="text-anchor: middle; font-size: 10.0px">140</text>
<text x="349.33" y="525.00" style="text-anchor: middle; font-size: 10.0px">160</text>
<text x="385.25" y="525.00" style="text-anchor: middle; font-size: 10.0px">180</text>
<text x="421.17" y="525.00" style="text-anchor: middle; font-size: 10.0px">200</text>
<text x="457.08" y="525.00" style="text-anchor: middle; font-size: 10.0px">220</text>
<text x="493.00" y="525.00" style="text-anchor: middle; font-size: 10.0px">240</text>
<text x="528.92" y="525.00" style="text-anchor: middle; font-size: 10.0px">260</text>
<text x="564.83" y="525.00" style="text-anchor: middle; font-size: 10.0px">280</text>
<text x="600.75" y="525.00" style="text-anchor: middle; font-size: 10.0px">300</text>
<text x="636.67" y="525.00" style="text-anchor: middle; font-size: 10.0px">320</text>
<text x="672.58" y="525.00" style="text-anchor: middle; font-size: 10.0px">340</text>
<text x="708.50" y="525.00" style="text-anchor: middle; font-size: 10.0px">360</text>
<path d=" M 62.0,219.4 H 708.5 M 62.0,303.1 H 708.5 M 62.0,177.5 H 708.5 M 62.0,345.0 H 708.5 M 62.0,135.6 H 708.5 M 62.0,386.9 H 708.5 M 62.0,93.8 H 708.5 M 62.0,428.8 H 708.5 M 62.0,51.9 H 708.5 M 62.0,470.6 H 708.5 M 62.0,10.0 H 708.5 M 62.0,512.5 H 708.5 " style="stroke: Silver;fill: none;stroke-width: 1.0;stroke-linecap: round" />
<text x="60.00" y="219.38" dominant-baseline="middle" style="text-anchor: end; font-size: 10.0px">0.25</text>
<text x="60.00" y="303.12" dominant-baseline="middle" style="text-anchor: end; font-size: 10.0px">-0.25</text>
<text x="60.00" y="177.50" dominant-baseline="middle" style="text-anchor: end; font-size: 10.0px">0.50</text>
<text x="60.00" y="345.00" dominant-baseline="middle" style="text-anchor: end; font-size: 10.0px">-0.50</text>
<text x="60.00" y="135.62" dominant-baseline="middle" style="text-anchor: end; font-size: 10.0px">0.75</text>
<text x="60.00" y="386.88" dominant-baseline="middle" style="text-anchor: end; font-size: 10.0px">-0.75</text>
<text x="60.00" y="93.75" dominant-baseline="middle" style="text-anchor: end; font-size: 10.0px">1.00</text>
<text x="60.00" y="428.75" dominant-baseline="middle" style="text-anchor: end; font-size: 10.0px">-1.00</text>
<text x="60.00" y="51.88" dominant-baseline="middle" style="text-anchor: end; font-size: 10.0px">1.25</text>
<text x="60.00" y="470.62" dominant-baseline="middle" style="text-anchor: end; font-size: 10.0px">-1.25</text>
<text x="60.00" y="10.00" dominant-baseline="middle" style="text-anchor: end; font-size: 10.0px">1.50</text>
<text x="60.00" y="512.50" dominant-baseline="middle" style="text-anchor: end; font-size: 10.0px">-1.50</text>
<g clip-path="url(#plotable)" opacity="1.00">
<path d=" M 62.0,261.2 L 66.5,253.9 L 71.0,246.7 L 75.5,239.4 L 80.0,232.2 L 84.4,225.0 L 88.9,217.9 L 93.4,210.9 L 97.9,204.0 L 102.4,197.2 L 106.9,190.5 L 111.4,183.9 L 115.9,177.5 L 120.4,171.3 L 124.9,165.2 L 129.3,159.3 L 133.8,153.6 L 138.3,148.1 L 142.8,142.8 L 147.3,137.8 L 151.8,132.9 L 156.3,128.4 L 160.8,124.0 L 165.3,120.0 L 169.8,116.2 L 174.2,112.7 L 178.7,109.4 L 183.2,106.5 L 187.7,103.9 L 192.2,101.5 L 196.7,99.5 L 201.2,97.7 L 205.7,96.3 L 210.2,95.2 L 214.6,94.4 L 219.1,93.9 L 223.6,93.8 L 228.1,93.9 L 232.6,94.4 L 237.1,95.2 L 241.6,96.3 L 246.1,97.7 L 250.6,99.5 L 255.1,101.5 L 259.5,103.9 L 264.0,106.5 L 268.5,109.4 L 273.0,112.7 L 277.5,116.2 L 282.0,120.0 L 286.5,124.0 L 291.0,128.4 L 295.5,132.9 L 299.9,137.8 L 304.4,142.8 L 308.9,148.1 L 313.4,153.6 L 317.9,159.3 L 322.4,165.2 L 326.9,171.3 L 331.4,177.5 L 335.9,183.9 L 340.4,190.5 L 344.8,197.2 L 349.3,204.0 L 353.8,210.9 L 358.3,217.9 L 362.8,225.0 L 367.3,232.2 L 371.8,239.4 L 376.3,246.7 L 380.8,253.9 L 385.2,261.2 L 389.7,268.6 L 394.2,275.8 L 398.7,283.1 L 403.2,290.3 L 407.7,297.5 L 412.2,304.6 L 416.7,311.6 L 421.2,318.5 L 425.7,325.3 L 430.1,332.0 L 434.6,338.6 L 439.1,345.0 L 443.6,351.2 L 448.1,357.3 L 452.6,363.2 L 457.1,368.9 L 461.6,374.4 L 466.1,379.7 L 470.6,384.7 L 475.0,389.6 L 479.5,394.1 L 484.0,398.5 L 488.5,402.5 L 493.0,406.3 L 497.5,409.8 L 502.0,413.1 L 506.5,416.0 L 511.0,418.6 L 515.4,421.0 L 519.9,423.0 L 524.4,424.8 L 528.9,426.2 L 533.4,427.3 L 537.9,428.1 L 542.4,428.6 L 546.9,428.8 L 551.4,428.6 L 555.9,428.1 L 560.3,427.3 L 564.8,426.2 L 569.3,424.8 L 573.8,423.0 L 578.3,421.0 L 582.8,418.6 L 587.3,416.0 L 591.8,413.1 L 596.3,409.8 L 600.8,406.3 L 605.2,402.5 L 609.7,398.5 L 614.2,394.1 L 618.7,389.6 L 623.2,384.7 L 627.7,379.7 L 632.2,374.4 L 636.7,368.9 L 641.2,363.2 L 645.6,357.3 L 650.1,351.2 L 654.6,345.0 L 659.1,338.6 L 663.6,332.0 L 668.1,325.3 L 672.6,318.5 L 677.1,311.6 L 681.6,304.6 L 686.1,297.5 L 690.5,290.3 L 695.0,283.1 L 699.5,275.8 L 704.0,268.6 L 708.5,261.3 " style="stroke: #008000;fill: none;stroke-width: 2.0;stroke-linecap: round" />
<path d=" M 62.0,93.8 L 66.5,93.9 L 71.0,94.4 L 75.5,95.2 L 80.0,96.3 L 84.4,97.7 L 88.9,99.5 L 93.4,101.5 L 97.9,103.9 L 102.4,106.5 L 106.9,109.4 L 111.4,112.7 L 115.9,116.2 L 120.4,120.0 L 124.9,124.0 L 129.3,128.4 L 133.8,132.9 L 138.3,137.8 L 142.8,142.8 L 147.3,148.1 L 151.8,153.6 L 156.3,159.3 L 160.8,165.2 L 165.3,171.3 L 169.8,177.5 L 174.2,183.9 L 178.7,190.5 L 183.2,197.2 L 187.7,204.0 L 192.2,210.9 L 196.7,217.9 L 201.2,225.0 L 205.7,232.2 L 210.2,239.4 L 214.6,246.7 L 219.1,253.9 L 223.6,261.2 L 228.1,268.6 L 232.6,275.8 L 237.1,283.1 L 241.6,290.3 L 246.1,297.5 L 250.6,304.6 L 255.1,311.6 L 259.5,318.5 L 264.0,325.3 L 268.5,332.0 L 273.0,338.6 L 277.5,345.0 L 282.0,351.2 L 286.5,357.3 L 291.0,363.2 L 295.5,368.9 L 299.9,374.4 L 304.4,379.7 L 308.9,384.7 L 313.4,389.6 L 317.9,394.1 L 322.4,398.5 L 326.9,402.5 L 331.4,406.3 L 335.9,409.8 L 340.4,413.1 L 344.8,416.0 L 349.3,418.6 L 353.8,421.0 L 358.3,423.0 L 362.8,424.8 L 367.3,426.2 L 371.8,427.3 L 376.3,428.1 L 380.8,428.6 L 385.2,428.8 L 389.7,428.6 L 394.2,428.1 L 398.7,427.3 L 403.2,426.2 L 407.7,424.8 L 412.2,423.0 L 416.7,421.0 L 421.2,418.6 L 425.7,416.0 L 430.1,413.1 L 434.6,409.8 L 439.1,406.3 L 443.6,402.5 L 448.1,398.5 L 452.6,394.1 L 457.1,389.6 L 461.6,384.7 L 466.1,379.7 L 470.6,374.4 L 475.0,368.9 L 479.5,363.2 L 484.0,357.3 L 488.5,351.2 L 493.0,345.0 L 497.5,338.6 L 502.0,332.0 L 506.5,325.3 L 511.0,318.5 L 515.4,311.6 L 519.9,304.6 L 524.4,297.5 L 528.9,290.3 L 533.4,283.1 L 537.9,275.8 L 542.4,268.6 L 546.9,261.3 L 551.4,253.9 L 555.9,246.7 L 560.3,239.4 L 564.8,232.2 L 569.3,225.0 L 573.8,217.9 L 578.3,210.9 L 582.8,204.0 L 587.3,197.2 L 591.8,190.5 L 596.3,183.9 L 600.8,177.5 L 605.2,171.3 L 609.7,165.2 L 614.2,159.3 L 618.7,153.6 L 623.2,148.1 L 627.7,142.8 L 632.2,137.8 L 636.7,132.9 L 641.2,128.4 L 645.6,124.0 L 650.1,120.0 L 654.6,116.2 L 659.1,112.7 L 663.6,109.4 L 668.1,106.5 L 672.6,103.9 L 677.1,101.5 L 681.6,99.5 L 686.1,97.7 L 690.5,96.3 L 695.0,95.2 L 699.5,94.4 L 704.0,93.9 L 708.5,93.8 " style="stroke: #ff00ff;fill: none;stroke-width: 2.0;stroke-linecap: round" />
<path d=" M 62.0,261.2 L 66.5,253.9 L 71.0,246.6 L 75.5,239.2 L 80.0,231.7 L 84.4,224.1 L 88.9,216.4 L 93.4,208.4 L 97.9,200.3 L 102.4,191.9 L 106.9,183.1 L 111.4,174.1 L 115.9,164.5 L 120.4,154.5 L 124.9,144.0 L 129.3,132.7 L 133.8,120.7 L 138.3,107.8 L 142.8,93.8 L 147.3,78.5 L 151.8,61.6 L 156.3,43.0 L 160.8,22.0 L 165.3,-1.7 L 169.8,-28.9 L 174.2,-60.5 L 178.7,-98.0 L 183.2,-143.1 L 187.7,-199.0 L 192.2,-270.0 L 196.7,-300.0 M 205.7,-300.0 M 210.2,-300.0 M 214.6,-300.0 M 219.1,-300.0 M 223.6,-300.0 M 228.1,900.0 M 232.6,900.0 M 237.1,900.0 M 241.6,900.0 M 246.1,900.0 L 250.6,886.4 L 255.1,792.5 L 259.5,721.5 L 264.0,665.6 L 268.5,620.5 L 273.0,583.0 L 277.5,551.4 L 282.0,524.2 L 286.5,500.5 L 291.0,479.5 L 295.5,460.9 L 299.9,444.0 L 304.4,428.8 L 308.9,414.7 L 313.4,401.8 L 317.9,389.8 L 322.4,378.5 L 326.9,368.0 L 331.4,358.0 L 335.9,348.4 L 340.4,339.4 L 344.8,330.6 L 349.3,322.2 L 353.8,314.1 L 358.3,306.1 L 362.8,298.4 L 367.3,290.8 L 371.8,283.3 L 376.3,275.9 L 380.8,268.6 L 385.2,261.2 L 389.7,253.9 L 394.2,246.6 L 398.7,239.2 L 403.2,231.7 L 407.7,224.1 L 412.2,216.4 L 416.7,208.4 L 421.2,200.3 L 425.7,191.9 L 430.1,183.1 L 434.6,174.1 L 439.1,164.5 L 443.6,154.5 L 448.1,144.0 L 452.6,132.7 L 457.1,120.7 L 461.6,107.8 L 466.1,93.8 L 470.6,78.5 L 475.0,61.6 L 479.5,43.0 L 484.0,22.0 L 488.5,-1.7 L 493.0,-28.9 L 497.5,-60.5 L 502.0,-98.0 L 506.5,-143.1 L 511.0,-199.0 L 515.4,-270.0 L 519.9,-300.0 M 528.9,-300.0 M 533.4,-300.0 M 537.9,-300.0 M 542.4,-300.0 M 546.9,-300.0 M 551.4,900.0 M 555.9,900.0 M 560.3,900.0 M 564.8,900.0 M 569.3,900.0 L 573.8,886.4 L 578.3,792.5 L 582.8,721.5 L 587.3,665.6 L 591.8,620.5 L 596.3,583.0 L 600.8,551.4 L 605.2,524.2 L 609.7,500.5 L 614.2,479.5 L 618.7,460.9 L 623.2,444.0 L 627.7,428.8 L 632.2,414.7 L 636.7,401.8 L 641.2,389.8 L 645.6,378.5 L 650.1,368.0 L 654.6,358.0 L 659.1,348.4 L 663.6,339.4 L 668.1,330.6 L 672.6,322.2 L 677.1,314.1 L 681.6,306.1 L 686.1,298.4 L 690.5,290.8 L 695.0,283.3 L 699.5,275.9 L 704.0,268.6 L 708.5,261.3 " style="stroke: #0000ff;fill: none;stroke-width: 2.0;stroke-linecap: round" />
<path d=" M 62.0,261.2 L 66.5,260.9 L 71.0,260.0 L 75.5,258.4 L 80.0,256.2 L 84.4,253.4 L 88.9,250.0 L 93.4,246.1 L 97.9,241.7 L 102.4,236.7 L 106.9,231.3 L 111.4,225.5 L 115.9,219.4 L 120.4,212.9 L 124.9,206.1 L 129.3,199.2 L 133.8,192.0 L 138.3,184.8 L 142.8,177.5 L 147.3,170.2 L 151.8,163.0 L 156.3,155.8 L 160.8,148.9 L 165.3,142.1 L 169.8,135.6 L 174.2,129.5 L 178.7,123.7 L 183.2,118.3 L 187.7,113.3 L 192.2,108.9 L 196.7,105.0 L 201.2,101.6 L 205.7,98.8 L 210.2,96.6 L 214.6,95.0 L 219.1,94.1 L 223.6,93.8 L 228.1,94.1 L 232.6,95.0 L 237.1,96.6 L 241.6,98.8 L 246.1,101.6 L 250.6,105.0 L 255.1,108.9 L 259.5,113.3 L 264.0,118.3 L 268.5,123.7 L 273.0,129.5 L 277.5,135.6 L 282.0,142.1 L 286.5,148.9 L 291.0,155.8 L 295.5,163.0 L 299.9,170.2 L 304.4,177.5 L 308.9,184.8 L 313.4,192.0 L 317.9,199.2 L 322.4,206.1 L 326.9,212.9 L 331.4,219.4 L 335.9,225.5 L 340.4,231.3 L 344.8,236.7 L 349.3,241.7 L 353.8,246.1 L 358.3,250.0 L 362.8,253.4 L 367.3,256.2 L 371.8,258.4 L 376.3,260.0 L 380.8,260.9 L 385.2,261.2 L 389.7,260.9 L 394.2,260.0 L 398.7,258.4 L 403.2,256.2 L 407.7,253.4 L 412.2,250.0 L 416.7,246.1 L 421.2,241.7 L 425.7,236.7 L 430.1,231.3 L 434.6,225.5 L 439.1,219.4 L 443.6,212.9 L 448.1,206.1 L 452.6,199.2 L 457.1,192.0 L 461.6,184.8 L 466.1,177.5 L 470.6,170.2 L 475.0,163.0 L 479.5,155.8 L 484.0,148.9 L 488.5,142.1 L 493.0,135.6 L 497.5,129.5 L 502.0,123.7 L 506.5,118.3 L 511.0,113.3 L 515.4,108.9 L 519.9,105.0 L 524.4,101.6 L 528.9,98.8 L 533.4,96.6 L 537.9,95.0 L 542.4,94.1 L 546.9,93.8 L 551.4,94.1 L 555.9,95.0 L 560.3,96.6 L 564.8,98.8 L 569.3,101.6 L 573.8,105.0 L 578.3,108.9 L 582.8,113.3 L 587.3,118.3 L 591.8,123.7 L 596.3,129.5 L 600.8,135.6 L 605.2,142.1 L 609.7,148.9 L 614.2,155.8 L 618.7,163.0 L 623.2,170.2 L 627.7,177.5 L 632.2,184.8 L 636.7,192.0 L 641.2,199.2 L 645.6,206.1 L 650.1,212.9 L 654.6,219.4 L 659.1,225.5 L 663.6,231.3 L 668.1,236.7 L 672.6,241.7 L 677.1,246.1 L 681.6,250.0 L 686.1,253.4 L 690.5,256.2 L 695.0,258.4 L 699.5,260.0 L 704.0,260.9 L 708.5,261.2 " style="stroke: #dc143c;fill: none;stroke-width: 2.0;stroke-linecap: round" />
<path d=" M 66.5,-300.0 L 71.0,-300.0 M 80.0,-300.0 M 84.4,-300.0 M 88.9,-300.0 L 93.4,-270.0 L 97.9,-199.0 L 102.4,-143.1 L 106.9,-98.0 L 111.4,-60.5 L 115.9,-28.9 L 120.4,-1.7 L 124.9,22.0 L 129.3,43.0 L 133.8,61.6 L 138.3,78.5 L 142.8,93.8 L 147.3,107.8 L 151.8,120.7 L 156.3,132.7 L 160.8,144.0 L 165.3,154.5 L 169.8,164.5 L 174.2,174.1 L 178.7,183.1 L 183.2,191.9 L 187.7,200.3 L 192.2,208.4 L 196.7,216.4 L 201.2,224.1 L 205.7,231.7 L 210.2,239.2 L 214.6,246.6 L 219.1,253.9 L 223.6,261.2 L 228.1,268.6 L 232.6,275.9 L 237.1,283.3 L 241.6,290.8 L 246.1,298.4 L 250.6,306.1 L 255.1,314.1 L 259.5,322.2 L 264.0,330.6 L 268.5,339.4 L 273.0,348.4 L 277.5,358.0 L 282.0,368.0 L 286.5,378.5 L 291.0,389.8 L 295.5,401.8 L 299.9,414.7 L 304.4,428.8 L 308.9,444.0 L 313.4,460.9 L 317.9,479.5 L 322.4,500.5 L 326.9,524.2 L 331.4,551.4 L 335.9,583.0 L 340.4,620.5 L 344.8,665.6 L 349.3,721.5 L 353.8,792.5 L 358.3,886.4 L 362.8,900.0 M 371.8,900.0 M 376.3,900.0 M 380.8,900.0 M 385.2,900.0 M 389.7,-300.0 M 394.2,-300.0 M 398.7,-300.0 M 403.2,-300.0 M 407.7,-300.0 M 412.2,-300.0 L 416.7,-270.0 L 421.2,-199.0 L 425.7,-143.1 L 430.1,-98.0 L 434.6,-60.5 L 439.1,-28.9 L 443.6,-1.7 L 448.1,22.0 L 452.6,43.0 L 457.1,61.6 L 461.6,78.5 L 466.1,93.8 L 470.6,107.8 L 475.0,120.7 L 479.5,132.7 L 484.0,144.0 L 488.5,154.5 L 493.0,164.5 L 497.5,174.1 L 502.0,183.1 L 506.5,191.9 L 511.0,200.3 L 515.4,208.4 L 519.9,216.4 L 524.4,224.1 L 528.9,231.7 L 533.4,239.2 L 537.9,246.6 L 542.4,253.9 L 546.9,261.2 L 551.4,268.6 L 555.9,275.9 L 560.3,283.3 L 564.8,290.8 L 569.3,298.4 L 573.8,306.1 L 578.3,314.1 L 582.8,322.2 L 587.3,330.6 L 591.8,339.4 L 596.3,348.4 L 600.8,358.0 L 605.2,368.0 L 609.7,378.5 L 614.2,389.8 L 618.7,401.8 L 623.2,414.7 L 627.7,428.8 L 632.2,444.0 L 636.7,460.9 L 641.2,479.5 L 645.6,500.5 L 650.1,524.2 L 654.6,551.4 L 659.1,583.0 L 663.6,620.5 L 668.1,665.6 L 672.6,721.5 L 677.1,792.5 L 681.6,886.4 L 686.1,900.0 M 695.0,900.0 M 699.5,900.0 M 704.0,900.0 M 708.5,900.0 " style="stroke: #f4a460;fill: none;stroke-width: 2.0;stroke-linecap: round" />
</g>
<text x="385.25" y="540.0" style="text-anchor: middle; font-size: 12.0px">
Degrees
</text>
<text x="-20.0" y="-261.25" style="writing-mode: tb; text-anchor: middle; font-size: 12.0px"
transform="rotate(180)">
Function Value
</text>
<rect
    x="715.5" y="45.5" height="146.2" width="84.5" rx="6.0"
    fill="silver" opacity=".1" stroke="black" stroke-width="1.5"
/>
<text x="728.5" y="65.0" font-size="13.0px" font-weight="bold">Legends:</text>
<text x="735.0" y="94.2" stroke="#008000" fill="#008000" font-size="13.0px">sin(n)</text>
<text x="735.0" y="113.8" stroke="#ff00ff" fill="#ff00ff" font-size="13.0px">cos(n)</text>
<text x="735.0" y="133.2" stroke="#0000ff" fill="#0000ff" font-size="13.0px">tan(n)</text>
<text x="735.0" y="152.8" stroke="#dc143c" fill="#dc143c" font-size="13.0px">sin²(n)</text>
<text x="735.0" y="172.2" stroke="#f4a460" fill="#f4a460" font-size="13.0px">cot(n)</text>
<text x="400.0" y="590.0" style="text-anchor: middle; font-size: 15.0px">Data by numbers®</text>
<text x="400.0" y="571.2" style="text-anchor: middle; font-size: 25.0px">Trigonometric Functions</text>
</svg>
